%FSLAX45Y45*%
G04 Gerber Fmt 4.5, Leading zero omitted, Abs format (unit mm)*
G04 Created by KiCad (PCBNEW (6.0.6)) date 2022-10-25 18:49:50*
%MOMM*%
%LPD*%
G01*
G04 APERTURE LIST*
%TA.AperFunction,Profile*%
%ADD10C,0.100000*%
%TD*%
%ADD11C,0.200000*%
%ADD12C,0.030480*%
%ADD13C,0.040000*%
%ADD14C,0.100000*%
%ADD15C,0.120000*%
G04 APERTURE END LIST*
D10*
X6380000Y-3180000D02*
X6380000Y-2647750D01*
X20000Y3180000D02*
X6380000Y3180000D01*
X20000Y-2647750D02*
X20000Y-3180000D01*
X20000Y552250D02*
X20000Y-552250D01*
X20000Y2647750D02*
X20000Y3180000D01*
X6380000Y-552250D02*
X6380000Y552250D01*
X6380000Y2647750D02*
X6380000Y3180000D01*
X20000Y-3180000D02*
X6380000Y-3180000D01*
D11*
D12*
X391160Y1869440D02*
X421640Y1838960D01*
X421640Y1869440D02*
X391160Y1838960D01*
X467360Y1910080D02*
X497840Y1879600D01*
X497840Y1910080D02*
X467360Y1879600D01*
X533400Y1859280D02*
X563880Y1828800D01*
X563880Y1859280D02*
X533400Y1828800D01*
X579120Y-2499360D02*
X609600Y-2529840D01*
X609600Y-2499360D02*
X579120Y-2529840D01*
X624840Y1838960D02*
X655320Y1808480D01*
X655320Y1838960D02*
X624840Y1808480D01*
X624840Y-2580640D02*
X655320Y-2611120D01*
X655320Y-2580640D02*
X624840Y-2611120D01*
X787400Y2087880D02*
X817880Y2057400D01*
X817880Y2087880D02*
X787400Y2057400D01*
X1280021Y1647577D02*
X1310501Y1617097D01*
X1310501Y1647577D02*
X1280021Y1617097D01*
X1280160Y1518920D02*
X1310640Y1488440D01*
X1310640Y1518920D02*
X1280160Y1488440D01*
X1334772Y1583220D02*
X1365252Y1552740D01*
X1365252Y1583220D02*
X1334772Y1552740D01*
X1335425Y1711960D02*
X1365905Y1681480D01*
X1365905Y1711960D02*
X1335425Y1681480D01*
X1671320Y1833880D02*
X1701800Y1803400D01*
X1701800Y1833880D02*
X1671320Y1803400D01*
X2514600Y1828800D02*
X2545080Y1798320D01*
X2545080Y1828800D02*
X2514600Y1798320D01*
X2575560Y1647226D02*
X2606040Y1616746D01*
X2606040Y1647226D02*
X2575560Y1616746D01*
X2630260Y1711740D02*
X2660740Y1681260D01*
X2660740Y1711740D02*
X2630260Y1681260D01*
X2630272Y1582720D02*
X2660752Y1552240D01*
X2660752Y1582720D02*
X2630272Y1552240D01*
X2642260Y1842740D02*
X2672740Y1812260D01*
X2672740Y1842740D02*
X2642260Y1812260D01*
X3895275Y1839460D02*
X3925755Y1808980D01*
X3925755Y1839460D02*
X3895275Y1808980D01*
X3977640Y1647726D02*
X4008120Y1617246D01*
X4008120Y1647726D02*
X3977640Y1617246D01*
X4029885Y1712240D02*
X4060365Y1681760D01*
X4060365Y1712240D02*
X4029885Y1681760D01*
X4029897Y1583220D02*
X4060377Y1552740D01*
X4060377Y1583220D02*
X4029897Y1552740D01*
X4042260Y1842740D02*
X4072740Y1812260D01*
X4072740Y1842740D02*
X4042260Y1812260D01*
X5176520Y1842740D02*
X5207000Y1812260D01*
X5207000Y1842740D02*
X5176520Y1812260D01*
X5273040Y1647726D02*
X5303520Y1617246D01*
X5303520Y1647726D02*
X5273040Y1617246D01*
X5329885Y1712240D02*
X5360365Y1681760D01*
X5360365Y1712240D02*
X5329885Y1681760D01*
X5329897Y1583220D02*
X5360377Y1552740D01*
X5360377Y1583220D02*
X5329897Y1552740D01*
X5598160Y1508760D02*
X5628640Y1478280D01*
X5628640Y1508760D02*
X5598160Y1478280D01*
X5709760Y1940720D02*
X5740240Y1910240D01*
X5740240Y1940720D02*
X5709760Y1910240D01*
X5791200Y2600960D02*
X5821680Y2570480D01*
X5821680Y2600960D02*
X5791200Y2570480D01*
X5867400Y-2514600D02*
X5897880Y-2545080D01*
X5897880Y-2514600D02*
X5867400Y-2545080D01*
X5969000Y2534920D02*
X5999480Y2504440D01*
X5999480Y2534920D02*
X5969000Y2504440D01*
X6050280Y-2448560D02*
X6080760Y-2479040D01*
X6080760Y-2448560D02*
X6050280Y-2479040D01*
X6116320Y-2362200D02*
X6146800Y-2392680D01*
X6146800Y-2362200D02*
X6116320Y-2392680D01*
D13*
X731200Y-848360D02*
G75*
G03*
X731200Y-848360I-20000J0D01*
G01*
X1107120Y-848360D02*
G75*
G03*
X1107120Y-848360I-20000J0D01*
G01*
X1107120Y-2346960D02*
G75*
G03*
X1107120Y-2346960I-20000J0D01*
G01*
X1488120Y-848360D02*
G75*
G03*
X1488120Y-848360I-20000J0D01*
G01*
X1493200Y-2346960D02*
G75*
G03*
X1493200Y-2346960I-20000J0D01*
G01*
X1691320Y1488440D02*
G75*
G03*
X1691320Y1488440I-20000J0D01*
G01*
X2036760Y-848360D02*
G75*
G03*
X2036760Y-848360I-20000J0D01*
G01*
X2077400Y-2346960D02*
G75*
G03*
X2077400Y-2346960I-20000J0D01*
G01*
X2422840Y-848360D02*
G75*
G03*
X2422840Y-848360I-20000J0D01*
G01*
X2651440Y1310640D02*
G75*
G03*
X2651440Y1310640I-20000J0D01*
G01*
X3814760Y838200D02*
G75*
G03*
X3814760Y838200I-20000J0D01*
G01*
X4241480Y2331720D02*
G75*
G03*
X4241480Y2331720I-20000J0D01*
G01*
X4383720Y838200D02*
G75*
G03*
X4383720Y838200I-20000J0D01*
G01*
X4622480Y1920240D02*
G75*
G03*
X4622480Y1920240I-20000J0D01*
G01*
X4749480Y-1010920D02*
G75*
G03*
X4749480Y-1010920I-20000J0D01*
G01*
X4759640Y2331720D02*
G75*
G03*
X4759640Y2331720I-20000J0D01*
G01*
X4957760Y833120D02*
G75*
G03*
X4957760Y833120I-20000J0D01*
G01*
X5125400Y-1010920D02*
G75*
G03*
X5125400Y-1010920I-20000J0D01*
G01*
X5333680Y833120D02*
G75*
G03*
X5333680Y833120I-20000J0D01*
G01*
X5511480Y-1005840D02*
G75*
G03*
X5511480Y-1005840I-20000J0D01*
G01*
X5521640Y2331720D02*
G75*
G03*
X5521640Y2331720I-20000J0D01*
G01*
X5902640Y1910080D02*
G75*
G03*
X5902640Y1910080I-20000J0D01*
G01*
X5902640Y1305560D02*
G75*
G03*
X5902640Y1305560I-20000J0D01*
G01*
X5912800Y833120D02*
G75*
G03*
X5912800Y833120I-20000J0D01*
G01*
D14*
X711000Y2842000D02*
X711000Y2742000D01*
X661000Y2792000D02*
X761000Y2792000D01*
X711000Y442000D02*
X711000Y342000D01*
X661000Y392000D02*
X761000Y392000D01*
X711000Y-342000D02*
X711000Y-442000D01*
X661000Y-392000D02*
X761000Y-392000D01*
X711000Y-2742000D02*
X711000Y-2842000D01*
X661000Y-2792000D02*
X761000Y-2792000D01*
X965000Y2842000D02*
X965000Y2742000D01*
X915000Y2792000D02*
X1015000Y2792000D01*
X965000Y442000D02*
X965000Y342000D01*
X915000Y392000D02*
X1015000Y392000D01*
X965000Y-342000D02*
X965000Y-442000D01*
X915000Y-392000D02*
X1015000Y-392000D01*
X965000Y-2742000D02*
X965000Y-2842000D01*
X915000Y-2792000D02*
X1015000Y-2792000D01*
X1219000Y2842000D02*
X1219000Y2742000D01*
X1169000Y2792000D02*
X1269000Y2792000D01*
X1219000Y442000D02*
X1219000Y342000D01*
X1169000Y392000D02*
X1269000Y392000D01*
X1219000Y-342000D02*
X1219000Y-442000D01*
X1169000Y-392000D02*
X1269000Y-392000D01*
X1219000Y-2742000D02*
X1219000Y-2842000D01*
X1169000Y-2792000D02*
X1269000Y-2792000D01*
X1473000Y2842000D02*
X1473000Y2742000D01*
X1423000Y2792000D02*
X1523000Y2792000D01*
X1473000Y442000D02*
X1473000Y342000D01*
X1423000Y392000D02*
X1523000Y392000D01*
X1473000Y-342000D02*
X1473000Y-442000D01*
X1423000Y-392000D02*
X1523000Y-392000D01*
X1473000Y-2742000D02*
X1473000Y-2842000D01*
X1423000Y-2792000D02*
X1523000Y-2792000D01*
X1727000Y2842000D02*
X1727000Y2742000D01*
X1677000Y2792000D02*
X1777000Y2792000D01*
X1727000Y442000D02*
X1727000Y342000D01*
X1677000Y392000D02*
X1777000Y392000D01*
X1727000Y-342000D02*
X1727000Y-442000D01*
X1677000Y-392000D02*
X1777000Y-392000D01*
X1727000Y-2742000D02*
X1727000Y-2842000D01*
X1677000Y-2792000D02*
X1777000Y-2792000D01*
X1981000Y2842000D02*
X1981000Y2742000D01*
X1931000Y2792000D02*
X2031000Y2792000D01*
X1981000Y442000D02*
X1981000Y342000D01*
X1931000Y392000D02*
X2031000Y392000D01*
X1981000Y-342000D02*
X1981000Y-442000D01*
X1931000Y-392000D02*
X2031000Y-392000D01*
X1981000Y-2742000D02*
X1981000Y-2842000D01*
X1931000Y-2792000D02*
X2031000Y-2792000D01*
X2235000Y2842000D02*
X2235000Y2742000D01*
X2185000Y2792000D02*
X2285000Y2792000D01*
X2235000Y442000D02*
X2235000Y342000D01*
X2185000Y392000D02*
X2285000Y392000D01*
X2235000Y-342000D02*
X2235000Y-442000D01*
X2185000Y-392000D02*
X2285000Y-392000D01*
X2235000Y-2742000D02*
X2235000Y-2842000D01*
X2185000Y-2792000D02*
X2285000Y-2792000D01*
X2489000Y2842000D02*
X2489000Y2742000D01*
X2439000Y2792000D02*
X2539000Y2792000D01*
X2489000Y442000D02*
X2489000Y342000D01*
X2439000Y392000D02*
X2539000Y392000D01*
X2489000Y-342000D02*
X2489000Y-442000D01*
X2439000Y-392000D02*
X2539000Y-392000D01*
X2489000Y-2742000D02*
X2489000Y-2842000D01*
X2439000Y-2792000D02*
X2539000Y-2792000D01*
X3911000Y2842000D02*
X3911000Y2742000D01*
X3861000Y2792000D02*
X3961000Y2792000D01*
X3911000Y442000D02*
X3911000Y342000D01*
X3861000Y392000D02*
X3961000Y392000D01*
X3911000Y-342000D02*
X3911000Y-442000D01*
X3861000Y-392000D02*
X3961000Y-392000D01*
X3911000Y-2742000D02*
X3911000Y-2842000D01*
X3861000Y-2792000D02*
X3961000Y-2792000D01*
X4165000Y2842000D02*
X4165000Y2742000D01*
X4115000Y2792000D02*
X4215000Y2792000D01*
X4165000Y442000D02*
X4165000Y342000D01*
X4115000Y392000D02*
X4215000Y392000D01*
X4165000Y-342000D02*
X4165000Y-442000D01*
X4115000Y-392000D02*
X4215000Y-392000D01*
X4165000Y-2742000D02*
X4165000Y-2842000D01*
X4115000Y-2792000D02*
X4215000Y-2792000D01*
X4419000Y2842000D02*
X4419000Y2742000D01*
X4369000Y2792000D02*
X4469000Y2792000D01*
X4419000Y442000D02*
X4419000Y342000D01*
X4369000Y392000D02*
X4469000Y392000D01*
X4419000Y-342000D02*
X4419000Y-442000D01*
X4369000Y-392000D02*
X4469000Y-392000D01*
X4419000Y-2742000D02*
X4419000Y-2842000D01*
X4369000Y-2792000D02*
X4469000Y-2792000D01*
X4673000Y2842000D02*
X4673000Y2742000D01*
X4623000Y2792000D02*
X4723000Y2792000D01*
X4673000Y442000D02*
X4673000Y342000D01*
X4623000Y392000D02*
X4723000Y392000D01*
X4673000Y-342000D02*
X4673000Y-442000D01*
X4623000Y-392000D02*
X4723000Y-392000D01*
X4673000Y-2742000D02*
X4673000Y-2842000D01*
X4623000Y-2792000D02*
X4723000Y-2792000D01*
X4927000Y2842000D02*
X4927000Y2742000D01*
X4877000Y2792000D02*
X4977000Y2792000D01*
X4927000Y442000D02*
X4927000Y342000D01*
X4877000Y392000D02*
X4977000Y392000D01*
X4927000Y-342000D02*
X4927000Y-442000D01*
X4877000Y-392000D02*
X4977000Y-392000D01*
X4927000Y-2742000D02*
X4927000Y-2842000D01*
X4877000Y-2792000D02*
X4977000Y-2792000D01*
X5181000Y2842000D02*
X5181000Y2742000D01*
X5131000Y2792000D02*
X5231000Y2792000D01*
X5181000Y442000D02*
X5181000Y342000D01*
X5131000Y392000D02*
X5231000Y392000D01*
X5181000Y-342000D02*
X5181000Y-442000D01*
X5131000Y-392000D02*
X5231000Y-392000D01*
X5181000Y-2742000D02*
X5181000Y-2842000D01*
X5131000Y-2792000D02*
X5231000Y-2792000D01*
X5435000Y2842000D02*
X5435000Y2742000D01*
X5385000Y2792000D02*
X5485000Y2792000D01*
X5435000Y442000D02*
X5435000Y342000D01*
X5385000Y392000D02*
X5485000Y392000D01*
X5435000Y-342000D02*
X5435000Y-442000D01*
X5385000Y-392000D02*
X5485000Y-392000D01*
X5435000Y-2742000D02*
X5435000Y-2842000D01*
X5385000Y-2792000D02*
X5485000Y-2792000D01*
X5689000Y2842000D02*
X5689000Y2742000D01*
X5639000Y2792000D02*
X5739000Y2792000D01*
X5689000Y442000D02*
X5689000Y342000D01*
X5639000Y392000D02*
X5739000Y392000D01*
X5689000Y-342000D02*
X5689000Y-442000D01*
X5639000Y-392000D02*
X5739000Y-392000D01*
X5689000Y-2742000D02*
X5689000Y-2842000D01*
X5639000Y-2792000D02*
X5739000Y-2792000D01*
D15*
X58427Y2351323D02*
X58427Y2436177D01*
X-26427Y2436177D01*
X-26427Y2351323D01*
X58427Y2351323D01*
X58427Y2033823D02*
X58427Y2118677D01*
X-26427Y2118677D01*
X-26427Y2033823D01*
X58427Y2033823D01*
X58427Y1716323D02*
X58427Y1801177D01*
X-26427Y1801177D01*
X-26427Y1716323D01*
X58427Y1716323D01*
X58427Y1398823D02*
X58427Y1483677D01*
X-26427Y1483677D01*
X-26427Y1398823D01*
X58427Y1398823D01*
X58427Y1081323D02*
X58427Y1166177D01*
X-26427Y1166177D01*
X-26427Y1081323D01*
X58427Y1081323D01*
X58427Y763823D02*
X58427Y848677D01*
X-26427Y848677D01*
X-26427Y763823D01*
X58427Y763823D01*
X58427Y-848677D02*
X58427Y-763823D01*
X-26427Y-763823D01*
X-26427Y-848677D01*
X58427Y-848677D01*
X58427Y-1166177D02*
X58427Y-1081323D01*
X-26427Y-1081323D01*
X-26427Y-1166177D01*
X58427Y-1166177D01*
X58427Y-1483677D02*
X58427Y-1398823D01*
X-26427Y-1398823D01*
X-26427Y-1483677D01*
X58427Y-1483677D01*
X58427Y-1801177D02*
X58427Y-1716323D01*
X-26427Y-1716323D01*
X-26427Y-1801177D01*
X58427Y-1801177D01*
X58427Y-2118677D02*
X58427Y-2033823D01*
X-26427Y-2033823D01*
X-26427Y-2118677D01*
X58427Y-2118677D01*
X58427Y-2436177D02*
X58427Y-2351323D01*
X-26427Y-2351323D01*
X-26427Y-2436177D01*
X58427Y-2436177D01*
X6418427Y2351323D02*
X6418427Y2436177D01*
X6333573Y2436177D01*
X6333573Y2351323D01*
X6418427Y2351323D01*
X6418427Y2033823D02*
X6418427Y2118677D01*
X6333573Y2118677D01*
X6333573Y2033823D01*
X6418427Y2033823D01*
X6418427Y1716323D02*
X6418427Y1801177D01*
X6333573Y1801177D01*
X6333573Y1716323D01*
X6418427Y1716323D01*
X6418427Y1398823D02*
X6418427Y1483677D01*
X6333573Y1483677D01*
X6333573Y1398823D01*
X6418427Y1398823D01*
X6418427Y1081323D02*
X6418427Y1166177D01*
X6333573Y1166177D01*
X6333573Y1081323D01*
X6418427Y1081323D01*
X6418427Y763823D02*
X6418427Y848677D01*
X6333573Y848677D01*
X6333573Y763823D01*
X6418427Y763823D01*
X6418427Y-848677D02*
X6418427Y-763823D01*
X6333573Y-763823D01*
X6333573Y-848677D01*
X6418427Y-848677D01*
X6418427Y-1166177D02*
X6418427Y-1081323D01*
X6333573Y-1081323D01*
X6333573Y-1166177D01*
X6418427Y-1166177D01*
X6418427Y-1483677D02*
X6418427Y-1398823D01*
X6333573Y-1398823D01*
X6333573Y-1483677D01*
X6418427Y-1483677D01*
X6418427Y-1801177D02*
X6418427Y-1716323D01*
X6333573Y-1716323D01*
X6333573Y-1801177D01*
X6418427Y-1801177D01*
X6418427Y-2118677D02*
X6418427Y-2033823D01*
X6333573Y-2033823D01*
X6333573Y-2118677D01*
X6418427Y-2118677D01*
X6418427Y-2436177D02*
X6418427Y-2351323D01*
X6333573Y-2351323D01*
X6333573Y-2436177D01*
X6418427Y-2436177D01*
D11*
X271619Y-3495476D02*
X271619Y-3295476D01*
X319238Y-3295476D01*
X347810Y-3305000D01*
X366857Y-3324048D01*
X376381Y-3343095D01*
X385905Y-3381190D01*
X385905Y-3409762D01*
X376381Y-3447857D01*
X366857Y-3466905D01*
X347810Y-3485952D01*
X319238Y-3495476D01*
X271619Y-3495476D01*
X471619Y-3495476D02*
X471619Y-3362143D01*
X471619Y-3400238D02*
X481143Y-3381190D01*
X490667Y-3371667D01*
X509714Y-3362143D01*
X528762Y-3362143D01*
X595429Y-3495476D02*
X595429Y-3362143D01*
X595429Y-3295476D02*
X585905Y-3305000D01*
X595429Y-3314524D01*
X604952Y-3305000D01*
X595429Y-3295476D01*
X595429Y-3314524D01*
X719238Y-3495476D02*
X700190Y-3485952D01*
X690667Y-3466905D01*
X690667Y-3295476D01*
X824000Y-3495476D02*
X804952Y-3485952D01*
X795428Y-3466905D01*
X795428Y-3295476D01*
X1052571Y-3495476D02*
X1052571Y-3295476D01*
X1119238Y-3438333D01*
X1185905Y-3295476D01*
X1185905Y-3495476D01*
X1366857Y-3495476D02*
X1366857Y-3390714D01*
X1357333Y-3371667D01*
X1338286Y-3362143D01*
X1300190Y-3362143D01*
X1281143Y-3371667D01*
X1366857Y-3485952D02*
X1347810Y-3495476D01*
X1300190Y-3495476D01*
X1281143Y-3485952D01*
X1271619Y-3466905D01*
X1271619Y-3447857D01*
X1281143Y-3428809D01*
X1300190Y-3419286D01*
X1347810Y-3419286D01*
X1366857Y-3409762D01*
X1462095Y-3362143D02*
X1462095Y-3562143D01*
X1462095Y-3371667D02*
X1481143Y-3362143D01*
X1519238Y-3362143D01*
X1538286Y-3371667D01*
X1547809Y-3381190D01*
X1557333Y-3400238D01*
X1557333Y-3457381D01*
X1547809Y-3476428D01*
X1538286Y-3485952D01*
X1519238Y-3495476D01*
X1481143Y-3495476D01*
X1462095Y-3485952D01*
X1643048Y-3476428D02*
X1652571Y-3485952D01*
X1643048Y-3495476D01*
X1633524Y-3485952D01*
X1643048Y-3476428D01*
X1643048Y-3495476D01*
X1643048Y-3371667D02*
X1652571Y-3381190D01*
X1643048Y-3390714D01*
X1633524Y-3381190D01*
X1643048Y-3371667D01*
X1643048Y-3390714D01*
D12*
X-16480Y-3809760D02*
X14000Y-3840240D01*
X14000Y-3809760D02*
X-16480Y-3840240D01*
D11*
X309714Y-3715476D02*
X328762Y-3715476D01*
X347810Y-3725000D01*
X357333Y-3734524D01*
X366857Y-3753571D01*
X376381Y-3791667D01*
X376381Y-3839286D01*
X366857Y-3877381D01*
X357333Y-3896428D01*
X347810Y-3905952D01*
X328762Y-3915476D01*
X309714Y-3915476D01*
X290667Y-3905952D01*
X281143Y-3896428D01*
X271619Y-3877381D01*
X262095Y-3839286D01*
X262095Y-3791667D01*
X271619Y-3753571D01*
X281143Y-3734524D01*
X290667Y-3725000D01*
X309714Y-3715476D01*
X462095Y-3896428D02*
X471619Y-3905952D01*
X462095Y-3915476D01*
X452571Y-3905952D01*
X462095Y-3896428D01*
X462095Y-3915476D01*
X538286Y-3715476D02*
X662095Y-3715476D01*
X595429Y-3791667D01*
X624000Y-3791667D01*
X643048Y-3801190D01*
X652571Y-3810714D01*
X662095Y-3829762D01*
X662095Y-3877381D01*
X652571Y-3896428D01*
X643048Y-3905952D01*
X624000Y-3915476D01*
X566857Y-3915476D01*
X547810Y-3905952D01*
X538286Y-3896428D01*
X785905Y-3715476D02*
X804952Y-3715476D01*
X824000Y-3725000D01*
X833524Y-3734524D01*
X843048Y-3753571D01*
X852571Y-3791667D01*
X852571Y-3839286D01*
X843048Y-3877381D01*
X833524Y-3896428D01*
X824000Y-3905952D01*
X804952Y-3915476D01*
X785905Y-3915476D01*
X766857Y-3905952D01*
X757333Y-3896428D01*
X747809Y-3877381D01*
X738286Y-3839286D01*
X738286Y-3791667D01*
X747809Y-3753571D01*
X757333Y-3734524D01*
X766857Y-3725000D01*
X785905Y-3715476D01*
X1033524Y-3715476D02*
X938286Y-3715476D01*
X928762Y-3810714D01*
X938286Y-3801190D01*
X957333Y-3791667D01*
X1004952Y-3791667D01*
X1024000Y-3801190D01*
X1033524Y-3810714D01*
X1043048Y-3829762D01*
X1043048Y-3877381D01*
X1033524Y-3896428D01*
X1024000Y-3905952D01*
X1004952Y-3915476D01*
X957333Y-3915476D01*
X938286Y-3905952D01*
X928762Y-3896428D01*
X1128762Y-3915476D02*
X1128762Y-3782143D01*
X1128762Y-3801190D02*
X1138286Y-3791667D01*
X1157333Y-3782143D01*
X1185905Y-3782143D01*
X1204952Y-3791667D01*
X1214476Y-3810714D01*
X1214476Y-3915476D01*
X1214476Y-3810714D02*
X1224000Y-3791667D01*
X1243048Y-3782143D01*
X1271619Y-3782143D01*
X1290667Y-3791667D01*
X1300190Y-3810714D01*
X1300190Y-3915476D01*
X1395429Y-3915476D02*
X1395429Y-3782143D01*
X1395429Y-3801190D02*
X1404952Y-3791667D01*
X1424000Y-3782143D01*
X1452571Y-3782143D01*
X1471619Y-3791667D01*
X1481143Y-3810714D01*
X1481143Y-3915476D01*
X1481143Y-3810714D02*
X1490667Y-3791667D01*
X1509714Y-3782143D01*
X1538286Y-3782143D01*
X1557333Y-3791667D01*
X1566857Y-3810714D01*
X1566857Y-3915476D01*
X1957333Y-3705952D02*
X1785905Y-3963095D01*
X2214476Y-3715476D02*
X2233524Y-3715476D01*
X2252571Y-3725000D01*
X2262095Y-3734524D01*
X2271619Y-3753571D01*
X2281143Y-3791667D01*
X2281143Y-3839286D01*
X2271619Y-3877381D01*
X2262095Y-3896428D01*
X2252571Y-3905952D01*
X2233524Y-3915476D01*
X2214476Y-3915476D01*
X2195429Y-3905952D01*
X2185905Y-3896428D01*
X2176381Y-3877381D01*
X2166857Y-3839286D01*
X2166857Y-3791667D01*
X2176381Y-3753571D01*
X2185905Y-3734524D01*
X2195429Y-3725000D01*
X2214476Y-3715476D01*
X2366857Y-3896428D02*
X2376381Y-3905952D01*
X2366857Y-3915476D01*
X2357333Y-3905952D01*
X2366857Y-3896428D01*
X2366857Y-3915476D01*
X2500190Y-3715476D02*
X2519238Y-3715476D01*
X2538286Y-3725000D01*
X2547810Y-3734524D01*
X2557333Y-3753571D01*
X2566857Y-3791667D01*
X2566857Y-3839286D01*
X2557333Y-3877381D01*
X2547810Y-3896428D01*
X2538286Y-3905952D01*
X2519238Y-3915476D01*
X2500190Y-3915476D01*
X2481143Y-3905952D01*
X2471619Y-3896428D01*
X2462095Y-3877381D01*
X2452571Y-3839286D01*
X2452571Y-3791667D01*
X2462095Y-3753571D01*
X2471619Y-3734524D01*
X2481143Y-3725000D01*
X2500190Y-3715476D01*
X2757333Y-3915476D02*
X2643048Y-3915476D01*
X2700190Y-3915476D02*
X2700190Y-3715476D01*
X2681143Y-3744048D01*
X2662095Y-3763095D01*
X2643048Y-3772619D01*
X2833524Y-3734524D02*
X2843048Y-3725000D01*
X2862095Y-3715476D01*
X2909714Y-3715476D01*
X2928762Y-3725000D01*
X2938286Y-3734524D01*
X2947809Y-3753571D01*
X2947809Y-3772619D01*
X2938286Y-3801190D01*
X2824000Y-3915476D01*
X2947809Y-3915476D01*
X3071619Y-3715476D02*
X3090667Y-3715476D01*
X3109714Y-3725000D01*
X3119238Y-3734524D01*
X3128762Y-3753571D01*
X3138286Y-3791667D01*
X3138286Y-3839286D01*
X3128762Y-3877381D01*
X3119238Y-3896428D01*
X3109714Y-3905952D01*
X3090667Y-3915476D01*
X3071619Y-3915476D01*
X3052571Y-3905952D01*
X3043048Y-3896428D01*
X3033524Y-3877381D01*
X3024000Y-3839286D01*
X3024000Y-3791667D01*
X3033524Y-3753571D01*
X3043048Y-3734524D01*
X3052571Y-3725000D01*
X3071619Y-3715476D01*
X3214476Y-3715476D02*
X3214476Y-3753571D01*
X3290667Y-3715476D02*
X3290667Y-3753571D01*
X3585905Y-3991667D02*
X3576381Y-3982143D01*
X3557333Y-3953571D01*
X3547809Y-3934524D01*
X3538286Y-3905952D01*
X3528762Y-3858333D01*
X3528762Y-3820238D01*
X3538286Y-3772619D01*
X3547809Y-3744048D01*
X3557333Y-3725000D01*
X3576381Y-3696428D01*
X3585905Y-3686905D01*
X3643048Y-3715476D02*
X3766857Y-3715476D01*
X3700190Y-3791667D01*
X3728762Y-3791667D01*
X3747809Y-3801190D01*
X3757333Y-3810714D01*
X3766857Y-3829762D01*
X3766857Y-3877381D01*
X3757333Y-3896428D01*
X3747809Y-3905952D01*
X3728762Y-3915476D01*
X3671619Y-3915476D01*
X3652571Y-3905952D01*
X3643048Y-3896428D01*
X3833524Y-3715476D02*
X3957333Y-3715476D01*
X3890667Y-3791667D01*
X3919238Y-3791667D01*
X3938286Y-3801190D01*
X3947809Y-3810714D01*
X3957333Y-3829762D01*
X3957333Y-3877381D01*
X3947809Y-3896428D01*
X3938286Y-3905952D01*
X3919238Y-3915476D01*
X3862095Y-3915476D01*
X3843048Y-3905952D01*
X3833524Y-3896428D01*
X4195429Y-3915476D02*
X4195429Y-3715476D01*
X4281143Y-3915476D02*
X4281143Y-3810714D01*
X4271619Y-3791667D01*
X4252571Y-3782143D01*
X4224000Y-3782143D01*
X4204952Y-3791667D01*
X4195429Y-3801190D01*
X4404952Y-3915476D02*
X4385905Y-3905952D01*
X4376381Y-3896428D01*
X4366857Y-3877381D01*
X4366857Y-3820238D01*
X4376381Y-3801190D01*
X4385905Y-3791667D01*
X4404952Y-3782143D01*
X4433524Y-3782143D01*
X4452571Y-3791667D01*
X4462095Y-3801190D01*
X4471619Y-3820238D01*
X4471619Y-3877381D01*
X4462095Y-3896428D01*
X4452571Y-3905952D01*
X4433524Y-3915476D01*
X4404952Y-3915476D01*
X4585905Y-3915476D02*
X4566857Y-3905952D01*
X4557333Y-3886905D01*
X4557333Y-3715476D01*
X4738286Y-3905952D02*
X4719238Y-3915476D01*
X4681143Y-3915476D01*
X4662095Y-3905952D01*
X4652571Y-3886905D01*
X4652571Y-3810714D01*
X4662095Y-3791667D01*
X4681143Y-3782143D01*
X4719238Y-3782143D01*
X4738286Y-3791667D01*
X4747810Y-3810714D01*
X4747810Y-3829762D01*
X4652571Y-3848809D01*
X4824000Y-3905952D02*
X4843048Y-3915476D01*
X4881143Y-3915476D01*
X4900190Y-3905952D01*
X4909714Y-3886905D01*
X4909714Y-3877381D01*
X4900190Y-3858333D01*
X4881143Y-3848809D01*
X4852571Y-3848809D01*
X4833524Y-3839286D01*
X4824000Y-3820238D01*
X4824000Y-3810714D01*
X4833524Y-3791667D01*
X4852571Y-3782143D01*
X4881143Y-3782143D01*
X4900190Y-3791667D01*
X4976381Y-3991667D02*
X4985905Y-3982143D01*
X5004952Y-3953571D01*
X5014476Y-3934524D01*
X5024000Y-3905952D01*
X5033524Y-3858333D01*
X5033524Y-3820238D01*
X5024000Y-3772619D01*
X5014476Y-3744048D01*
X5004952Y-3725000D01*
X4985905Y-3696428D01*
X4976381Y-3686905D01*
D13*
X14000Y-4089000D02*
G75*
G03*
X14000Y-4089000I-20000J0D01*
G01*
D11*
X309714Y-3979476D02*
X328762Y-3979476D01*
X347810Y-3989000D01*
X357333Y-3998524D01*
X366857Y-4017571D01*
X376381Y-4055667D01*
X376381Y-4103286D01*
X366857Y-4141381D01*
X357333Y-4160428D01*
X347810Y-4169952D01*
X328762Y-4179476D01*
X309714Y-4179476D01*
X290667Y-4169952D01*
X281143Y-4160428D01*
X271619Y-4141381D01*
X262095Y-4103286D01*
X262095Y-4055667D01*
X271619Y-4017571D01*
X281143Y-3998524D01*
X290667Y-3989000D01*
X309714Y-3979476D01*
X462095Y-4160428D02*
X471619Y-4169952D01*
X462095Y-4179476D01*
X452571Y-4169952D01*
X462095Y-4160428D01*
X462095Y-4179476D01*
X643048Y-4046143D02*
X643048Y-4179476D01*
X595429Y-3969952D02*
X547810Y-4112809D01*
X671619Y-4112809D01*
X785905Y-3979476D02*
X804952Y-3979476D01*
X824000Y-3989000D01*
X833524Y-3998524D01*
X843048Y-4017571D01*
X852571Y-4055667D01*
X852571Y-4103286D01*
X843048Y-4141381D01*
X833524Y-4160428D01*
X824000Y-4169952D01*
X804952Y-4179476D01*
X785905Y-4179476D01*
X766857Y-4169952D01*
X757333Y-4160428D01*
X747809Y-4141381D01*
X738286Y-4103286D01*
X738286Y-4055667D01*
X747809Y-4017571D01*
X757333Y-3998524D01*
X766857Y-3989000D01*
X785905Y-3979476D01*
X976381Y-3979476D02*
X995428Y-3979476D01*
X1014476Y-3989000D01*
X1024000Y-3998524D01*
X1033524Y-4017571D01*
X1043048Y-4055667D01*
X1043048Y-4103286D01*
X1033524Y-4141381D01*
X1024000Y-4160428D01*
X1014476Y-4169952D01*
X995428Y-4179476D01*
X976381Y-4179476D01*
X957333Y-4169952D01*
X947809Y-4160428D01*
X938286Y-4141381D01*
X928762Y-4103286D01*
X928762Y-4055667D01*
X938286Y-4017571D01*
X947809Y-3998524D01*
X957333Y-3989000D01*
X976381Y-3979476D01*
X1128762Y-4179476D02*
X1128762Y-4046143D01*
X1128762Y-4065190D02*
X1138286Y-4055667D01*
X1157333Y-4046143D01*
X1185905Y-4046143D01*
X1204952Y-4055667D01*
X1214476Y-4074714D01*
X1214476Y-4179476D01*
X1214476Y-4074714D02*
X1224000Y-4055667D01*
X1243048Y-4046143D01*
X1271619Y-4046143D01*
X1290667Y-4055667D01*
X1300190Y-4074714D01*
X1300190Y-4179476D01*
X1395429Y-4179476D02*
X1395429Y-4046143D01*
X1395429Y-4065190D02*
X1404952Y-4055667D01*
X1424000Y-4046143D01*
X1452571Y-4046143D01*
X1471619Y-4055667D01*
X1481143Y-4074714D01*
X1481143Y-4179476D01*
X1481143Y-4074714D02*
X1490667Y-4055667D01*
X1509714Y-4046143D01*
X1538286Y-4046143D01*
X1557333Y-4055667D01*
X1566857Y-4074714D01*
X1566857Y-4179476D01*
X1957333Y-3969952D02*
X1785905Y-4227095D01*
X2214476Y-3979476D02*
X2233524Y-3979476D01*
X2252571Y-3989000D01*
X2262095Y-3998524D01*
X2271619Y-4017571D01*
X2281143Y-4055667D01*
X2281143Y-4103286D01*
X2271619Y-4141381D01*
X2262095Y-4160428D01*
X2252571Y-4169952D01*
X2233524Y-4179476D01*
X2214476Y-4179476D01*
X2195429Y-4169952D01*
X2185905Y-4160428D01*
X2176381Y-4141381D01*
X2166857Y-4103286D01*
X2166857Y-4055667D01*
X2176381Y-4017571D01*
X2185905Y-3998524D01*
X2195429Y-3989000D01*
X2214476Y-3979476D01*
X2366857Y-4160428D02*
X2376381Y-4169952D01*
X2366857Y-4179476D01*
X2357333Y-4169952D01*
X2366857Y-4160428D01*
X2366857Y-4179476D01*
X2500190Y-3979476D02*
X2519238Y-3979476D01*
X2538286Y-3989000D01*
X2547810Y-3998524D01*
X2557333Y-4017571D01*
X2566857Y-4055667D01*
X2566857Y-4103286D01*
X2557333Y-4141381D01*
X2547810Y-4160428D01*
X2538286Y-4169952D01*
X2519238Y-4179476D01*
X2500190Y-4179476D01*
X2481143Y-4169952D01*
X2471619Y-4160428D01*
X2462095Y-4141381D01*
X2452571Y-4103286D01*
X2452571Y-4055667D01*
X2462095Y-4017571D01*
X2471619Y-3998524D01*
X2481143Y-3989000D01*
X2500190Y-3979476D01*
X2757333Y-4179476D02*
X2643048Y-4179476D01*
X2700190Y-4179476D02*
X2700190Y-3979476D01*
X2681143Y-4008048D01*
X2662095Y-4027095D01*
X2643048Y-4036619D01*
X2938286Y-3979476D02*
X2843048Y-3979476D01*
X2833524Y-4074714D01*
X2843048Y-4065190D01*
X2862095Y-4055667D01*
X2909714Y-4055667D01*
X2928762Y-4065190D01*
X2938286Y-4074714D01*
X2947809Y-4093762D01*
X2947809Y-4141381D01*
X2938286Y-4160428D01*
X2928762Y-4169952D01*
X2909714Y-4179476D01*
X2862095Y-4179476D01*
X2843048Y-4169952D01*
X2833524Y-4160428D01*
X3014476Y-3979476D02*
X3147809Y-3979476D01*
X3062095Y-4179476D01*
X3214476Y-3979476D02*
X3214476Y-4017571D01*
X3290667Y-3979476D02*
X3290667Y-4017571D01*
X3585905Y-4255667D02*
X3576381Y-4246143D01*
X3557333Y-4217571D01*
X3547809Y-4198524D01*
X3538286Y-4169952D01*
X3528762Y-4122333D01*
X3528762Y-4084238D01*
X3538286Y-4036619D01*
X3547809Y-4008048D01*
X3557333Y-3989000D01*
X3576381Y-3960428D01*
X3585905Y-3950905D01*
X3652571Y-3998524D02*
X3662095Y-3989000D01*
X3681143Y-3979476D01*
X3728762Y-3979476D01*
X3747809Y-3989000D01*
X3757333Y-3998524D01*
X3766857Y-4017571D01*
X3766857Y-4036619D01*
X3757333Y-4065190D01*
X3643048Y-4179476D01*
X3766857Y-4179476D01*
X3938286Y-4046143D02*
X3938286Y-4179476D01*
X3890667Y-3969952D02*
X3843048Y-4112809D01*
X3966857Y-4112809D01*
X4195429Y-4179476D02*
X4195429Y-3979476D01*
X4281143Y-4179476D02*
X4281143Y-4074714D01*
X4271619Y-4055667D01*
X4252571Y-4046143D01*
X4224000Y-4046143D01*
X4204952Y-4055667D01*
X4195429Y-4065190D01*
X4404952Y-4179476D02*
X4385905Y-4169952D01*
X4376381Y-4160428D01*
X4366857Y-4141381D01*
X4366857Y-4084238D01*
X4376381Y-4065190D01*
X4385905Y-4055667D01*
X4404952Y-4046143D01*
X4433524Y-4046143D01*
X4452571Y-4055667D01*
X4462095Y-4065190D01*
X4471619Y-4084238D01*
X4471619Y-4141381D01*
X4462095Y-4160428D01*
X4452571Y-4169952D01*
X4433524Y-4179476D01*
X4404952Y-4179476D01*
X4585905Y-4179476D02*
X4566857Y-4169952D01*
X4557333Y-4150905D01*
X4557333Y-3979476D01*
X4738286Y-4169952D02*
X4719238Y-4179476D01*
X4681143Y-4179476D01*
X4662095Y-4169952D01*
X4652571Y-4150905D01*
X4652571Y-4074714D01*
X4662095Y-4055667D01*
X4681143Y-4046143D01*
X4719238Y-4046143D01*
X4738286Y-4055667D01*
X4747810Y-4074714D01*
X4747810Y-4093762D01*
X4652571Y-4112809D01*
X4824000Y-4169952D02*
X4843048Y-4179476D01*
X4881143Y-4179476D01*
X4900190Y-4169952D01*
X4909714Y-4150905D01*
X4909714Y-4141381D01*
X4900190Y-4122333D01*
X4881143Y-4112809D01*
X4852571Y-4112809D01*
X4833524Y-4103286D01*
X4824000Y-4084238D01*
X4824000Y-4074714D01*
X4833524Y-4055667D01*
X4852571Y-4046143D01*
X4881143Y-4046143D01*
X4900190Y-4055667D01*
X4976381Y-4255667D02*
X4985905Y-4246143D01*
X5004952Y-4217571D01*
X5014476Y-4198524D01*
X5024000Y-4169952D01*
X5033524Y-4122333D01*
X5033524Y-4084238D01*
X5024000Y-4036619D01*
X5014476Y-4008048D01*
X5004952Y-3989000D01*
X4985905Y-3960428D01*
X4976381Y-3950905D01*
D14*
X-36000Y-4303000D02*
X-36000Y-4403000D01*
X-86000Y-4353000D02*
X14000Y-4353000D01*
D11*
X376381Y-4443476D02*
X262095Y-4443476D01*
X319238Y-4443476D02*
X319238Y-4243476D01*
X300190Y-4272048D01*
X281143Y-4291095D01*
X262095Y-4300619D01*
X462095Y-4424429D02*
X471619Y-4433952D01*
X462095Y-4443476D01*
X452571Y-4433952D01*
X462095Y-4424429D01*
X462095Y-4443476D01*
X595429Y-4243476D02*
X614476Y-4243476D01*
X633524Y-4253000D01*
X643048Y-4262524D01*
X652571Y-4281571D01*
X662095Y-4319667D01*
X662095Y-4367286D01*
X652571Y-4405381D01*
X643048Y-4424429D01*
X633524Y-4433952D01*
X614476Y-4443476D01*
X595429Y-4443476D01*
X576381Y-4433952D01*
X566857Y-4424429D01*
X557333Y-4405381D01*
X547810Y-4367286D01*
X547810Y-4319667D01*
X557333Y-4281571D01*
X566857Y-4262524D01*
X576381Y-4253000D01*
X595429Y-4243476D01*
X785905Y-4243476D02*
X804952Y-4243476D01*
X824000Y-4253000D01*
X833524Y-4262524D01*
X843048Y-4281571D01*
X852571Y-4319667D01*
X852571Y-4367286D01*
X843048Y-4405381D01*
X833524Y-4424429D01*
X824000Y-4433952D01*
X804952Y-4443476D01*
X785905Y-4443476D01*
X766857Y-4433952D01*
X757333Y-4424429D01*
X747809Y-4405381D01*
X738286Y-4367286D01*
X738286Y-4319667D01*
X747809Y-4281571D01*
X757333Y-4262524D01*
X766857Y-4253000D01*
X785905Y-4243476D01*
X976381Y-4243476D02*
X995428Y-4243476D01*
X1014476Y-4253000D01*
X1024000Y-4262524D01*
X1033524Y-4281571D01*
X1043048Y-4319667D01*
X1043048Y-4367286D01*
X1033524Y-4405381D01*
X1024000Y-4424429D01*
X1014476Y-4433952D01*
X995428Y-4443476D01*
X976381Y-4443476D01*
X957333Y-4433952D01*
X947809Y-4424429D01*
X938286Y-4405381D01*
X928762Y-4367286D01*
X928762Y-4319667D01*
X938286Y-4281571D01*
X947809Y-4262524D01*
X957333Y-4253000D01*
X976381Y-4243476D01*
X1128762Y-4443476D02*
X1128762Y-4310143D01*
X1128762Y-4329190D02*
X1138286Y-4319667D01*
X1157333Y-4310143D01*
X1185905Y-4310143D01*
X1204952Y-4319667D01*
X1214476Y-4338714D01*
X1214476Y-4443476D01*
X1214476Y-4338714D02*
X1224000Y-4319667D01*
X1243048Y-4310143D01*
X1271619Y-4310143D01*
X1290667Y-4319667D01*
X1300190Y-4338714D01*
X1300190Y-4443476D01*
X1395429Y-4443476D02*
X1395429Y-4310143D01*
X1395429Y-4329190D02*
X1404952Y-4319667D01*
X1424000Y-4310143D01*
X1452571Y-4310143D01*
X1471619Y-4319667D01*
X1481143Y-4338714D01*
X1481143Y-4443476D01*
X1481143Y-4338714D02*
X1490667Y-4319667D01*
X1509714Y-4310143D01*
X1538286Y-4310143D01*
X1557333Y-4319667D01*
X1566857Y-4338714D01*
X1566857Y-4443476D01*
X1957333Y-4233952D02*
X1785905Y-4491095D01*
X2214476Y-4243476D02*
X2233524Y-4243476D01*
X2252571Y-4253000D01*
X2262095Y-4262524D01*
X2271619Y-4281571D01*
X2281143Y-4319667D01*
X2281143Y-4367286D01*
X2271619Y-4405381D01*
X2262095Y-4424429D01*
X2252571Y-4433952D01*
X2233524Y-4443476D01*
X2214476Y-4443476D01*
X2195429Y-4433952D01*
X2185905Y-4424429D01*
X2176381Y-4405381D01*
X2166857Y-4367286D01*
X2166857Y-4319667D01*
X2176381Y-4281571D01*
X2185905Y-4262524D01*
X2195429Y-4253000D01*
X2214476Y-4243476D01*
X2366857Y-4424429D02*
X2376381Y-4433952D01*
X2366857Y-4443476D01*
X2357333Y-4433952D01*
X2366857Y-4424429D01*
X2366857Y-4443476D01*
X2500190Y-4243476D02*
X2519238Y-4243476D01*
X2538286Y-4253000D01*
X2547810Y-4262524D01*
X2557333Y-4281571D01*
X2566857Y-4319667D01*
X2566857Y-4367286D01*
X2557333Y-4405381D01*
X2547810Y-4424429D01*
X2538286Y-4433952D01*
X2519238Y-4443476D01*
X2500190Y-4443476D01*
X2481143Y-4433952D01*
X2471619Y-4424429D01*
X2462095Y-4405381D01*
X2452571Y-4367286D01*
X2452571Y-4319667D01*
X2462095Y-4281571D01*
X2471619Y-4262524D01*
X2481143Y-4253000D01*
X2500190Y-4243476D01*
X2633524Y-4243476D02*
X2757333Y-4243476D01*
X2690667Y-4319667D01*
X2719238Y-4319667D01*
X2738286Y-4329190D01*
X2747810Y-4338714D01*
X2757333Y-4357762D01*
X2757333Y-4405381D01*
X2747810Y-4424429D01*
X2738286Y-4433952D01*
X2719238Y-4443476D01*
X2662095Y-4443476D01*
X2643048Y-4433952D01*
X2633524Y-4424429D01*
X2852571Y-4443476D02*
X2890667Y-4443476D01*
X2909714Y-4433952D01*
X2919238Y-4424429D01*
X2938286Y-4395857D01*
X2947809Y-4357762D01*
X2947809Y-4281571D01*
X2938286Y-4262524D01*
X2928762Y-4253000D01*
X2909714Y-4243476D01*
X2871619Y-4243476D01*
X2852571Y-4253000D01*
X2843048Y-4262524D01*
X2833524Y-4281571D01*
X2833524Y-4329190D01*
X2843048Y-4348238D01*
X2852571Y-4357762D01*
X2871619Y-4367286D01*
X2909714Y-4367286D01*
X2928762Y-4357762D01*
X2938286Y-4348238D01*
X2947809Y-4329190D01*
X3119238Y-4310143D02*
X3119238Y-4443476D01*
X3071619Y-4233952D02*
X3024000Y-4376810D01*
X3147809Y-4376810D01*
X3214476Y-4243476D02*
X3214476Y-4281571D01*
X3290667Y-4243476D02*
X3290667Y-4281571D01*
X3585905Y-4519667D02*
X3576381Y-4510143D01*
X3557333Y-4481571D01*
X3547809Y-4462524D01*
X3538286Y-4433952D01*
X3528762Y-4386333D01*
X3528762Y-4348238D01*
X3538286Y-4300619D01*
X3547809Y-4272048D01*
X3557333Y-4253000D01*
X3576381Y-4224429D01*
X3585905Y-4214905D01*
X3747809Y-4243476D02*
X3709714Y-4243476D01*
X3690667Y-4253000D01*
X3681143Y-4262524D01*
X3662095Y-4291095D01*
X3652571Y-4329190D01*
X3652571Y-4405381D01*
X3662095Y-4424429D01*
X3671619Y-4433952D01*
X3690667Y-4443476D01*
X3728762Y-4443476D01*
X3747809Y-4433952D01*
X3757333Y-4424429D01*
X3766857Y-4405381D01*
X3766857Y-4357762D01*
X3757333Y-4338714D01*
X3747809Y-4329190D01*
X3728762Y-4319667D01*
X3690667Y-4319667D01*
X3671619Y-4329190D01*
X3662095Y-4338714D01*
X3652571Y-4357762D01*
X3938286Y-4310143D02*
X3938286Y-4443476D01*
X3890667Y-4233952D02*
X3843048Y-4376810D01*
X3966857Y-4376810D01*
X4195429Y-4443476D02*
X4195429Y-4243476D01*
X4281143Y-4443476D02*
X4281143Y-4338714D01*
X4271619Y-4319667D01*
X4252571Y-4310143D01*
X4224000Y-4310143D01*
X4204952Y-4319667D01*
X4195429Y-4329190D01*
X4404952Y-4443476D02*
X4385905Y-4433952D01*
X4376381Y-4424429D01*
X4366857Y-4405381D01*
X4366857Y-4348238D01*
X4376381Y-4329190D01*
X4385905Y-4319667D01*
X4404952Y-4310143D01*
X4433524Y-4310143D01*
X4452571Y-4319667D01*
X4462095Y-4329190D01*
X4471619Y-4348238D01*
X4471619Y-4405381D01*
X4462095Y-4424429D01*
X4452571Y-4433952D01*
X4433524Y-4443476D01*
X4404952Y-4443476D01*
X4585905Y-4443476D02*
X4566857Y-4433952D01*
X4557333Y-4414905D01*
X4557333Y-4243476D01*
X4738286Y-4433952D02*
X4719238Y-4443476D01*
X4681143Y-4443476D01*
X4662095Y-4433952D01*
X4652571Y-4414905D01*
X4652571Y-4338714D01*
X4662095Y-4319667D01*
X4681143Y-4310143D01*
X4719238Y-4310143D01*
X4738286Y-4319667D01*
X4747810Y-4338714D01*
X4747810Y-4357762D01*
X4652571Y-4376810D01*
X4824000Y-4433952D02*
X4843048Y-4443476D01*
X4881143Y-4443476D01*
X4900190Y-4433952D01*
X4909714Y-4414905D01*
X4909714Y-4405381D01*
X4900190Y-4386333D01*
X4881143Y-4376810D01*
X4852571Y-4376810D01*
X4833524Y-4367286D01*
X4824000Y-4348238D01*
X4824000Y-4338714D01*
X4833524Y-4319667D01*
X4852571Y-4310143D01*
X4881143Y-4310143D01*
X4900190Y-4319667D01*
X4976381Y-4519667D02*
X4985905Y-4510143D01*
X5004952Y-4481571D01*
X5014476Y-4462524D01*
X5024000Y-4433952D01*
X5033524Y-4386333D01*
X5033524Y-4348238D01*
X5024000Y-4300619D01*
X5014476Y-4272048D01*
X5004952Y-4253000D01*
X4985905Y-4224429D01*
X4976381Y-4214905D01*
D15*
X-3573Y-4659427D02*
X-3573Y-4574573D01*
X-88427Y-4574573D01*
X-88427Y-4659427D01*
X-3573Y-4659427D01*
D11*
X376381Y-4707476D02*
X262095Y-4707476D01*
X319238Y-4707476D02*
X319238Y-4507476D01*
X300190Y-4536048D01*
X281143Y-4555095D01*
X262095Y-4564619D01*
X462095Y-4688429D02*
X471619Y-4697952D01*
X462095Y-4707476D01*
X452571Y-4697952D01*
X462095Y-4688429D01*
X462095Y-4707476D01*
X547810Y-4526524D02*
X557333Y-4517000D01*
X576381Y-4507476D01*
X624000Y-4507476D01*
X643048Y-4517000D01*
X652571Y-4526524D01*
X662095Y-4545571D01*
X662095Y-4564619D01*
X652571Y-4593190D01*
X538286Y-4707476D01*
X662095Y-4707476D01*
X785905Y-4507476D02*
X804952Y-4507476D01*
X824000Y-4517000D01*
X833524Y-4526524D01*
X843048Y-4545571D01*
X852571Y-4583667D01*
X852571Y-4631286D01*
X843048Y-4669381D01*
X833524Y-4688429D01*
X824000Y-4697952D01*
X804952Y-4707476D01*
X785905Y-4707476D01*
X766857Y-4697952D01*
X757333Y-4688429D01*
X747809Y-4669381D01*
X738286Y-4631286D01*
X738286Y-4583667D01*
X747809Y-4545571D01*
X757333Y-4526524D01*
X766857Y-4517000D01*
X785905Y-4507476D01*
X976381Y-4507476D02*
X995428Y-4507476D01*
X1014476Y-4517000D01*
X1024000Y-4526524D01*
X1033524Y-4545571D01*
X1043048Y-4583667D01*
X1043048Y-4631286D01*
X1033524Y-4669381D01*
X1024000Y-4688429D01*
X1014476Y-4697952D01*
X995428Y-4707476D01*
X976381Y-4707476D01*
X957333Y-4697952D01*
X947809Y-4688429D01*
X938286Y-4669381D01*
X928762Y-4631286D01*
X928762Y-4583667D01*
X938286Y-4545571D01*
X947809Y-4526524D01*
X957333Y-4517000D01*
X976381Y-4507476D01*
X1128762Y-4707476D02*
X1128762Y-4574143D01*
X1128762Y-4593190D02*
X1138286Y-4583667D01*
X1157333Y-4574143D01*
X1185905Y-4574143D01*
X1204952Y-4583667D01*
X1214476Y-4602714D01*
X1214476Y-4707476D01*
X1214476Y-4602714D02*
X1224000Y-4583667D01*
X1243048Y-4574143D01*
X1271619Y-4574143D01*
X1290667Y-4583667D01*
X1300190Y-4602714D01*
X1300190Y-4707476D01*
X1395429Y-4707476D02*
X1395429Y-4574143D01*
X1395429Y-4593190D02*
X1404952Y-4583667D01*
X1424000Y-4574143D01*
X1452571Y-4574143D01*
X1471619Y-4583667D01*
X1481143Y-4602714D01*
X1481143Y-4707476D01*
X1481143Y-4602714D02*
X1490667Y-4583667D01*
X1509714Y-4574143D01*
X1538286Y-4574143D01*
X1557333Y-4583667D01*
X1566857Y-4602714D01*
X1566857Y-4707476D01*
X1957333Y-4497952D02*
X1785905Y-4755095D01*
X2214476Y-4507476D02*
X2233524Y-4507476D01*
X2252571Y-4517000D01*
X2262095Y-4526524D01*
X2271619Y-4545571D01*
X2281143Y-4583667D01*
X2281143Y-4631286D01*
X2271619Y-4669381D01*
X2262095Y-4688429D01*
X2252571Y-4697952D01*
X2233524Y-4707476D01*
X2214476Y-4707476D01*
X2195429Y-4697952D01*
X2185905Y-4688429D01*
X2176381Y-4669381D01*
X2166857Y-4631286D01*
X2166857Y-4583667D01*
X2176381Y-4545571D01*
X2185905Y-4526524D01*
X2195429Y-4517000D01*
X2214476Y-4507476D01*
X2366857Y-4688429D02*
X2376381Y-4697952D01*
X2366857Y-4707476D01*
X2357333Y-4697952D01*
X2366857Y-4688429D01*
X2366857Y-4707476D01*
X2500190Y-4507476D02*
X2519238Y-4507476D01*
X2538286Y-4517000D01*
X2547810Y-4526524D01*
X2557333Y-4545571D01*
X2566857Y-4583667D01*
X2566857Y-4631286D01*
X2557333Y-4669381D01*
X2547810Y-4688429D01*
X2538286Y-4697952D01*
X2519238Y-4707476D01*
X2500190Y-4707476D01*
X2481143Y-4697952D01*
X2471619Y-4688429D01*
X2462095Y-4669381D01*
X2452571Y-4631286D01*
X2452571Y-4583667D01*
X2462095Y-4545571D01*
X2471619Y-4526524D01*
X2481143Y-4517000D01*
X2500190Y-4507476D01*
X2738286Y-4574143D02*
X2738286Y-4707476D01*
X2690667Y-4497952D02*
X2643048Y-4640810D01*
X2766857Y-4640810D01*
X2824000Y-4507476D02*
X2957333Y-4507476D01*
X2871619Y-4707476D01*
X3024000Y-4526524D02*
X3033524Y-4517000D01*
X3052571Y-4507476D01*
X3100190Y-4507476D01*
X3119238Y-4517000D01*
X3128762Y-4526524D01*
X3138286Y-4545571D01*
X3138286Y-4564619D01*
X3128762Y-4593190D01*
X3014476Y-4707476D01*
X3138286Y-4707476D01*
X3214476Y-4507476D02*
X3214476Y-4545571D01*
X3290667Y-4507476D02*
X3290667Y-4545571D01*
X3585905Y-4783667D02*
X3576381Y-4774143D01*
X3557333Y-4745571D01*
X3547809Y-4726524D01*
X3538286Y-4697952D01*
X3528762Y-4650333D01*
X3528762Y-4612238D01*
X3538286Y-4564619D01*
X3547809Y-4536048D01*
X3557333Y-4517000D01*
X3576381Y-4488429D01*
X3585905Y-4478905D01*
X3652571Y-4526524D02*
X3662095Y-4517000D01*
X3681143Y-4507476D01*
X3728762Y-4507476D01*
X3747809Y-4517000D01*
X3757333Y-4526524D01*
X3766857Y-4545571D01*
X3766857Y-4564619D01*
X3757333Y-4593190D01*
X3643048Y-4707476D01*
X3766857Y-4707476D01*
X3938286Y-4574143D02*
X3938286Y-4707476D01*
X3890667Y-4497952D02*
X3843048Y-4640810D01*
X3966857Y-4640810D01*
X4195429Y-4707476D02*
X4195429Y-4507476D01*
X4281143Y-4707476D02*
X4281143Y-4602714D01*
X4271619Y-4583667D01*
X4252571Y-4574143D01*
X4224000Y-4574143D01*
X4204952Y-4583667D01*
X4195429Y-4593190D01*
X4404952Y-4707476D02*
X4385905Y-4697952D01*
X4376381Y-4688429D01*
X4366857Y-4669381D01*
X4366857Y-4612238D01*
X4376381Y-4593190D01*
X4385905Y-4583667D01*
X4404952Y-4574143D01*
X4433524Y-4574143D01*
X4452571Y-4583667D01*
X4462095Y-4593190D01*
X4471619Y-4612238D01*
X4471619Y-4669381D01*
X4462095Y-4688429D01*
X4452571Y-4697952D01*
X4433524Y-4707476D01*
X4404952Y-4707476D01*
X4585905Y-4707476D02*
X4566857Y-4697952D01*
X4557333Y-4678905D01*
X4557333Y-4507476D01*
X4738286Y-4697952D02*
X4719238Y-4707476D01*
X4681143Y-4707476D01*
X4662095Y-4697952D01*
X4652571Y-4678905D01*
X4652571Y-4602714D01*
X4662095Y-4583667D01*
X4681143Y-4574143D01*
X4719238Y-4574143D01*
X4738286Y-4583667D01*
X4747810Y-4602714D01*
X4747810Y-4621762D01*
X4652571Y-4640810D01*
X4824000Y-4697952D02*
X4843048Y-4707476D01*
X4881143Y-4707476D01*
X4900190Y-4697952D01*
X4909714Y-4678905D01*
X4909714Y-4669381D01*
X4900190Y-4650333D01*
X4881143Y-4640810D01*
X4852571Y-4640810D01*
X4833524Y-4631286D01*
X4824000Y-4612238D01*
X4824000Y-4602714D01*
X4833524Y-4583667D01*
X4852571Y-4574143D01*
X4881143Y-4574143D01*
X4900190Y-4583667D01*
X4976381Y-4783667D02*
X4985905Y-4774143D01*
X5004952Y-4745571D01*
X5014476Y-4726524D01*
X5024000Y-4697952D01*
X5033524Y-4650333D01*
X5033524Y-4612238D01*
X5024000Y-4564619D01*
X5014476Y-4536048D01*
X5004952Y-4517000D01*
X4985905Y-4488429D01*
X4976381Y-4478905D01*
M02*
