G04 #@! TF.GenerationSoftware,KiCad,Pcbnew,(6.0.6)*
G04 #@! TF.CreationDate,2022-10-25T18:49:35+02:00*
G04 #@! TF.ProjectId,matrix_module,6d617472-6978-45f6-9d6f-64756c652e6b,rev?*
G04 #@! TF.SameCoordinates,Original*
G04 #@! TF.FileFunction,Soldermask,Top*
G04 #@! TF.FilePolarity,Negative*
%FSLAX46Y46*%
G04 Gerber Fmt 4.6, Leading zero omitted, Abs format (unit mm)*
G04 Created by KiCad (PCBNEW (6.0.6)) date 2022-10-25 18:49:35*
%MOMM*%
%LPD*%
G01*
G04 APERTURE LIST*
%ADD10C,2.200000*%
%ADD11C,1.700000*%
%ADD12C,2.500000*%
G04 APERTURE END LIST*
D10*
X4000000Y-28000000D03*
X4000000Y28000000D03*
X60000000Y-28000000D03*
D11*
X7110000Y3920000D03*
X9650000Y3920000D03*
X12190000Y3920000D03*
X14730000Y3920000D03*
X17270000Y3920000D03*
X19810000Y3920000D03*
X22350000Y3920000D03*
X24890000Y3920000D03*
X24890000Y27920000D03*
X22350000Y27920000D03*
X19810000Y27920000D03*
X17270000Y27920000D03*
X14730000Y27920000D03*
X12190000Y27920000D03*
X9650000Y27920000D03*
X7110000Y27920000D03*
X24890000Y-3920000D03*
X22350000Y-3920000D03*
X19810000Y-3920000D03*
X17270000Y-3920000D03*
X14730000Y-3920000D03*
X12190000Y-3920000D03*
X9650000Y-3920000D03*
X7110000Y-3920000D03*
X7110000Y-27920000D03*
X9650000Y-27920000D03*
X12190000Y-27920000D03*
X14730000Y-27920000D03*
X17270000Y-27920000D03*
X19810000Y-27920000D03*
X22350000Y-27920000D03*
X24890000Y-27920000D03*
X39110000Y3920000D03*
X41650000Y3920000D03*
X44190000Y3920000D03*
X46730000Y3920000D03*
X49270000Y3920000D03*
X51810000Y3920000D03*
X54350000Y3920000D03*
X56890000Y3920000D03*
X56890000Y27920000D03*
X54350000Y27920000D03*
X51810000Y27920000D03*
X49270000Y27920000D03*
X46730000Y27920000D03*
X44190000Y27920000D03*
X41650000Y27920000D03*
X39110000Y27920000D03*
X56890000Y-3920000D03*
X54350000Y-3920000D03*
X51810000Y-3920000D03*
X49270000Y-3920000D03*
X46730000Y-3920000D03*
X44190000Y-3920000D03*
X41650000Y-3920000D03*
X39110000Y-3920000D03*
X39110000Y-27920000D03*
X41650000Y-27920000D03*
X44190000Y-27920000D03*
X46730000Y-27920000D03*
X49270000Y-27920000D03*
X51810000Y-27920000D03*
X54350000Y-27920000D03*
X56890000Y-27920000D03*
D10*
X60000000Y28000000D03*
D12*
X63760000Y23937500D03*
X63760000Y20762500D03*
X63760000Y17587500D03*
X63760000Y14412500D03*
X63760000Y11237500D03*
X63760000Y8062500D03*
X160000Y-8062500D03*
X160000Y-11237500D03*
X160000Y-14412500D03*
X160000Y-17587500D03*
X160000Y-20762500D03*
X160000Y-23937500D03*
X160000Y23937500D03*
X160000Y20762500D03*
X160000Y17587500D03*
X160000Y14412500D03*
X160000Y11237500D03*
X160000Y8062500D03*
X63760000Y-8062500D03*
X63760000Y-11237500D03*
X63760000Y-14412500D03*
X63760000Y-17587500D03*
X63760000Y-20762500D03*
X63760000Y-23937500D03*
M02*
