G04 #@! TF.GenerationSoftware,KiCad,Pcbnew,(6.0.6)*
G04 #@! TF.CreationDate,2022-10-25T18:49:35+02:00*
G04 #@! TF.ProjectId,matrix_module,6d617472-6978-45f6-9d6f-64756c652e6b,rev?*
G04 #@! TF.SameCoordinates,Original*
G04 #@! TF.FileFunction,Legend,Top*
G04 #@! TF.FilePolarity,Positive*
%FSLAX46Y46*%
G04 Gerber Fmt 4.6, Leading zero omitted, Abs format (unit mm)*
G04 Created by KiCad (PCBNEW (6.0.6)) date 2022-10-25 18:49:35*
%MOMM*%
%LPD*%
G01*
G04 APERTURE LIST*
%ADD10C,0.150000*%
%ADD11C,0.120000*%
%ADD12C,2.200000*%
%ADD13C,1.700000*%
%ADD14C,2.500000*%
G04 APERTURE END LIST*
D10*
X18542171Y1250895D02*
X18542171Y603276D01*
X18580266Y527085D01*
X18618361Y488990D01*
X18694552Y450895D01*
X18846933Y450895D01*
X18923123Y488990D01*
X18961219Y527085D01*
X18999314Y603276D01*
X18999314Y1250895D01*
X19342171Y1174704D02*
X19380266Y1212800D01*
X19456457Y1250895D01*
X19646933Y1250895D01*
X19723123Y1212800D01*
X19761219Y1174704D01*
X19799314Y1098514D01*
X19799314Y1022323D01*
X19761219Y908038D01*
X19304076Y450895D01*
X19799314Y450895D01*
X20294552Y1250895D02*
X20370742Y1250895D01*
X20446933Y1212800D01*
X20485028Y1174704D01*
X20523123Y1098514D01*
X20561219Y946133D01*
X20561219Y755657D01*
X20523123Y603276D01*
X20485028Y527085D01*
X20446933Y488990D01*
X20370742Y450895D01*
X20294552Y450895D01*
X20218361Y488990D01*
X20180266Y527085D01*
X20142171Y603276D01*
X20104076Y755657D01*
X20104076Y946133D01*
X20142171Y1098514D01*
X20180266Y1174704D01*
X20218361Y1212800D01*
X20294552Y1250895D01*
X20827885Y1250895D02*
X21323123Y1250895D01*
X21056457Y946133D01*
X21170742Y946133D01*
X21246933Y908038D01*
X21285028Y869942D01*
X21323123Y793752D01*
X21323123Y603276D01*
X21285028Y527085D01*
X21246933Y488990D01*
X21170742Y450895D01*
X20942171Y450895D01*
X20865980Y488990D01*
X20827885Y527085D01*
X18542171Y-425504D02*
X18542171Y-1073123D01*
X18580266Y-1149314D01*
X18618361Y-1187409D01*
X18694552Y-1225504D01*
X18846933Y-1225504D01*
X18923123Y-1187409D01*
X18961219Y-1149314D01*
X18999314Y-1073123D01*
X18999314Y-425504D01*
X19342171Y-501695D02*
X19380266Y-463600D01*
X19456457Y-425504D01*
X19646933Y-425504D01*
X19723123Y-463600D01*
X19761219Y-501695D01*
X19799314Y-577885D01*
X19799314Y-654076D01*
X19761219Y-768361D01*
X19304076Y-1225504D01*
X19799314Y-1225504D01*
X20294552Y-425504D02*
X20370742Y-425504D01*
X20446933Y-463600D01*
X20485028Y-501695D01*
X20523123Y-577885D01*
X20561219Y-730266D01*
X20561219Y-920742D01*
X20523123Y-1073123D01*
X20485028Y-1149314D01*
X20446933Y-1187409D01*
X20370742Y-1225504D01*
X20294552Y-1225504D01*
X20218361Y-1187409D01*
X20180266Y-1149314D01*
X20142171Y-1073123D01*
X20104076Y-920742D01*
X20104076Y-730266D01*
X20142171Y-577885D01*
X20180266Y-501695D01*
X20218361Y-463600D01*
X20294552Y-425504D01*
X21246933Y-692171D02*
X21246933Y-1225504D01*
X21056457Y-387409D02*
X20865980Y-958838D01*
X21361219Y-958838D01*
X50546171Y1301695D02*
X50546171Y654076D01*
X50584266Y577885D01*
X50622361Y539790D01*
X50698552Y501695D01*
X50850933Y501695D01*
X50927123Y539790D01*
X50965219Y577885D01*
X51003314Y654076D01*
X51003314Y1301695D01*
X51346171Y1225504D02*
X51384266Y1263600D01*
X51460457Y1301695D01*
X51650933Y1301695D01*
X51727123Y1263600D01*
X51765219Y1225504D01*
X51803314Y1149314D01*
X51803314Y1073123D01*
X51765219Y958838D01*
X51308076Y501695D01*
X51803314Y501695D01*
X52298552Y1301695D02*
X52374742Y1301695D01*
X52450933Y1263600D01*
X52489028Y1225504D01*
X52527123Y1149314D01*
X52565219Y996933D01*
X52565219Y806457D01*
X52527123Y654076D01*
X52489028Y577885D01*
X52450933Y539790D01*
X52374742Y501695D01*
X52298552Y501695D01*
X52222361Y539790D01*
X52184266Y577885D01*
X52146171Y654076D01*
X52108076Y806457D01*
X52108076Y996933D01*
X52146171Y1149314D01*
X52184266Y1225504D01*
X52222361Y1263600D01*
X52298552Y1301695D01*
X53327123Y501695D02*
X52869980Y501695D01*
X53098552Y501695D02*
X53098552Y1301695D01*
X53022361Y1187409D01*
X52946171Y1111219D01*
X52869980Y1073123D01*
X50596971Y-425504D02*
X50596971Y-1073123D01*
X50635066Y-1149314D01*
X50673161Y-1187409D01*
X50749352Y-1225504D01*
X50901733Y-1225504D01*
X50977923Y-1187409D01*
X51016019Y-1149314D01*
X51054114Y-1073123D01*
X51054114Y-425504D01*
X51396971Y-501695D02*
X51435066Y-463600D01*
X51511257Y-425504D01*
X51701733Y-425504D01*
X51777923Y-463600D01*
X51816019Y-501695D01*
X51854114Y-577885D01*
X51854114Y-654076D01*
X51816019Y-768361D01*
X51358876Y-1225504D01*
X51854114Y-1225504D01*
X52349352Y-425504D02*
X52425542Y-425504D01*
X52501733Y-463600D01*
X52539828Y-501695D01*
X52577923Y-577885D01*
X52616019Y-730266D01*
X52616019Y-920742D01*
X52577923Y-1073123D01*
X52539828Y-1149314D01*
X52501733Y-1187409D01*
X52425542Y-1225504D01*
X52349352Y-1225504D01*
X52273161Y-1187409D01*
X52235066Y-1149314D01*
X52196971Y-1073123D01*
X52158876Y-920742D01*
X52158876Y-730266D01*
X52196971Y-577885D01*
X52235066Y-501695D01*
X52273161Y-463600D01*
X52349352Y-425504D01*
X52920780Y-501695D02*
X52958876Y-463600D01*
X53035066Y-425504D01*
X53225542Y-425504D01*
X53301733Y-463600D01*
X53339828Y-501695D01*
X53377923Y-577885D01*
X53377923Y-654076D01*
X53339828Y-768361D01*
X52882685Y-1225504D01*
X53377923Y-1225504D01*
X32000000Y0D02*
X32000000Y32000000D01*
X0Y0D02*
X14000000Y0D01*
X0Y32000000D02*
X0Y0D01*
X18000000Y0D02*
X32000000Y0D01*
X32000000Y32000000D02*
X0Y32000000D01*
D11*
X18000000Y0D02*
G75*
G03*
X16000000Y2000000I-1999999J1D01*
G01*
X16000000Y2000000D02*
G75*
G03*
X14000000Y0I-1J-1999999D01*
G01*
X3148034Y1905000D02*
G75*
G03*
X3148034Y1905000I-1118034J0D01*
G01*
D10*
X32000000Y-32000000D02*
X32000000Y0D01*
X32000000Y0D02*
X18000000Y0D01*
X14000000Y0D02*
X0Y0D01*
X0Y0D02*
X0Y-32000000D01*
X0Y-32000000D02*
X32000000Y-32000000D01*
D11*
X16000000Y-2000000D02*
G75*
G03*
X18000000Y0I1J1999999D01*
G01*
X14000000Y0D02*
G75*
G03*
X16000000Y-2000000I1999999J-1D01*
G01*
X31088034Y-1905000D02*
G75*
G03*
X31088034Y-1905000I-1118034J0D01*
G01*
D10*
X32000000Y0D02*
X46000000Y0D01*
X64000000Y0D02*
X64000000Y32000000D01*
X50000000Y0D02*
X64000000Y0D01*
X32000000Y32000000D02*
X32000000Y0D01*
X64000000Y32000000D02*
X32000000Y32000000D01*
D11*
X48000000Y2000000D02*
G75*
G03*
X46000000Y0I-1J-1999999D01*
G01*
X50000000Y0D02*
G75*
G03*
X48000000Y2000000I-1999999J1D01*
G01*
X35148034Y1905000D02*
G75*
G03*
X35148034Y1905000I-1118034J0D01*
G01*
D10*
X32000000Y0D02*
X32000000Y-32000000D01*
X64000000Y-32000000D02*
X64000000Y0D01*
X32000000Y-32000000D02*
X64000000Y-32000000D01*
X64000000Y0D02*
X50000000Y0D01*
X46000000Y0D02*
X32000000Y0D01*
D11*
X46000000Y0D02*
G75*
G03*
X48000000Y-2000000I1999999J-1D01*
G01*
X48000000Y-2000000D02*
G75*
G03*
X50000000Y0I1J1999999D01*
G01*
X63088034Y-1905000D02*
G75*
G03*
X63088034Y-1905000I-1118034J0D01*
G01*
%LPC*%
D12*
X4000000Y-28000000D03*
X4000000Y28000000D03*
X60000000Y-28000000D03*
D13*
X7110000Y3920000D03*
X9650000Y3920000D03*
X12190000Y3920000D03*
X14730000Y3920000D03*
X17270000Y3920000D03*
X19810000Y3920000D03*
X22350000Y3920000D03*
X24890000Y3920000D03*
X24890000Y27920000D03*
X22350000Y27920000D03*
X19810000Y27920000D03*
X17270000Y27920000D03*
X14730000Y27920000D03*
X12190000Y27920000D03*
X9650000Y27920000D03*
X7110000Y27920000D03*
X24890000Y-3920000D03*
X22350000Y-3920000D03*
X19810000Y-3920000D03*
X17270000Y-3920000D03*
X14730000Y-3920000D03*
X12190000Y-3920000D03*
X9650000Y-3920000D03*
X7110000Y-3920000D03*
X7110000Y-27920000D03*
X9650000Y-27920000D03*
X12190000Y-27920000D03*
X14730000Y-27920000D03*
X17270000Y-27920000D03*
X19810000Y-27920000D03*
X22350000Y-27920000D03*
X24890000Y-27920000D03*
X39110000Y3920000D03*
X41650000Y3920000D03*
X44190000Y3920000D03*
X46730000Y3920000D03*
X49270000Y3920000D03*
X51810000Y3920000D03*
X54350000Y3920000D03*
X56890000Y3920000D03*
X56890000Y27920000D03*
X54350000Y27920000D03*
X51810000Y27920000D03*
X49270000Y27920000D03*
X46730000Y27920000D03*
X44190000Y27920000D03*
X41650000Y27920000D03*
X39110000Y27920000D03*
X56890000Y-3920000D03*
X54350000Y-3920000D03*
X51810000Y-3920000D03*
X49270000Y-3920000D03*
X46730000Y-3920000D03*
X44190000Y-3920000D03*
X41650000Y-3920000D03*
X39110000Y-3920000D03*
X39110000Y-27920000D03*
X41650000Y-27920000D03*
X44190000Y-27920000D03*
X46730000Y-27920000D03*
X49270000Y-27920000D03*
X51810000Y-27920000D03*
X54350000Y-27920000D03*
X56890000Y-27920000D03*
D12*
X60000000Y28000000D03*
D14*
X63760000Y23937500D03*
X63760000Y20762500D03*
X63760000Y17587500D03*
X63760000Y14412500D03*
X63760000Y11237500D03*
X63760000Y8062500D03*
X160000Y-8062500D03*
X160000Y-11237500D03*
X160000Y-14412500D03*
X160000Y-17587500D03*
X160000Y-20762500D03*
X160000Y-23937500D03*
X160000Y23937500D03*
X160000Y20762500D03*
X160000Y17587500D03*
X160000Y14412500D03*
X160000Y11237500D03*
X160000Y8062500D03*
X63760000Y-8062500D03*
X63760000Y-11237500D03*
X63760000Y-14412500D03*
X63760000Y-17587500D03*
X63760000Y-20762500D03*
X63760000Y-23937500D03*
M02*
