G04 #@! TF.GenerationSoftware,KiCad,Pcbnew,(6.0.6)*
G04 #@! TF.CreationDate,2022-10-25T18:49:35+02:00*
G04 #@! TF.ProjectId,matrix_module,6d617472-6978-45f6-9d6f-64756c652e6b,rev?*
G04 #@! TF.SameCoordinates,Original*
G04 #@! TF.FileFunction,Legend,Bot*
G04 #@! TF.FilePolarity,Positive*
%FSLAX46Y46*%
G04 Gerber Fmt 4.6, Leading zero omitted, Abs format (unit mm)*
G04 Created by KiCad (PCBNEW (6.0.6)) date 2022-10-25 18:49:35*
%MOMM*%
%LPD*%
G01*
G04 APERTURE LIST*
G04 Aperture macros list*
%AMRoundRect*
0 Rectangle with rounded corners*
0 $1 Rounding radius*
0 $2 $3 $4 $5 $6 $7 $8 $9 X,Y pos of 4 corners*
0 Add a 4 corners polygon primitive as box body*
4,1,4,$2,$3,$4,$5,$6,$7,$8,$9,$2,$3,0*
0 Add four circle primitives for the rounded corners*
1,1,$1+$1,$2,$3*
1,1,$1+$1,$4,$5*
1,1,$1+$1,$6,$7*
1,1,$1+$1,$8,$9*
0 Add four rect primitives between the rounded corners*
20,1,$1+$1,$2,$3,$4,$5,0*
20,1,$1+$1,$4,$5,$6,$7,0*
20,1,$1+$1,$6,$7,$8,$9,0*
20,1,$1+$1,$8,$9,$2,$3,0*%
G04 Aperture macros list end*
%ADD10C,0.150000*%
%ADD11C,0.100000*%
%ADD12C,0.120000*%
%ADD13C,2.200000*%
%ADD14C,1.700000*%
%ADD15C,1.000000*%
%ADD16RoundRect,0.225000X-0.225000X-0.250000X0.225000X-0.250000X0.225000X0.250000X-0.225000X0.250000X0*%
%ADD17RoundRect,0.200000X-0.200000X-0.275000X0.200000X-0.275000X0.200000X0.275000X-0.200000X0.275000X0*%
%ADD18RoundRect,0.150000X0.150000X-0.587500X0.150000X0.587500X-0.150000X0.587500X-0.150000X-0.587500X0*%
%ADD19RoundRect,0.150000X-0.150000X0.587500X-0.150000X-0.587500X0.150000X-0.587500X0.150000X0.587500X0*%
%ADD20RoundRect,0.200000X0.200000X0.275000X-0.200000X0.275000X-0.200000X-0.275000X0.200000X-0.275000X0*%
%ADD21C,2.500000*%
%ADD22RoundRect,0.250000X0.475000X-0.250000X0.475000X0.250000X-0.475000X0.250000X-0.475000X-0.250000X0*%
%ADD23RoundRect,0.100000X-0.637500X-0.100000X0.637500X-0.100000X0.637500X0.100000X-0.637500X0.100000X0*%
G04 APERTURE END LIST*
D10*
X52324000Y2032000D02*
X52324000Y-2032000D01*
X9906000Y-254000D02*
X20320000Y-254000D01*
X25654000Y7112000D02*
X25654000Y11176000D01*
X55880000Y-2032000D02*
X55880000Y2032000D01*
D11*
G36*
X63375000Y0D02*
G01*
X61470000Y-1905000D01*
X61470000Y1905000D01*
X63375000Y0D01*
G37*
X63375000Y0D02*
X61470000Y-1905000D01*
X61470000Y1905000D01*
X63375000Y0D01*
D10*
X4572000Y31750000D02*
X4572000Y28956000D01*
D11*
G36*
X3265000Y-1900000D02*
G01*
X725000Y-1900000D01*
X2630000Y5000D01*
X725000Y1910000D01*
X3265000Y1910000D01*
X3265000Y-1900000D01*
G37*
X3265000Y-1900000D02*
X725000Y-1900000D01*
X2630000Y5000D01*
X725000Y1910000D01*
X3265000Y1910000D01*
X3265000Y-1900000D01*
D10*
X25654000Y11176000D02*
X22098000Y11176000D01*
X22098000Y7112000D02*
X25654000Y7112000D01*
X22402800Y-12852400D02*
X36931600Y-12852400D01*
X36931600Y-12852400D02*
X36931600Y-25958800D01*
X36931600Y-25958800D02*
X22402800Y-25958800D01*
X22402800Y-25958800D02*
X22402800Y-12852400D01*
G36*
X22402800Y-12852400D02*
G01*
X36931600Y-12852400D01*
X36931600Y-25958800D01*
X22402800Y-25958800D01*
X22402800Y-12852400D01*
G37*
X4572000Y28956000D02*
X22098000Y28956000D01*
X20320000Y2794000D02*
X9906000Y2794000D01*
X9906000Y2794000D02*
X9906000Y-254000D01*
X22098000Y31750000D02*
X4572000Y31750000D01*
X20320000Y-254000D02*
X20320000Y2794000D01*
X52324000Y-2032000D02*
X55880000Y-2032000D01*
X55880000Y2032000D02*
X52324000Y2032000D01*
X22098000Y11176000D02*
X22098000Y7112000D01*
X22098000Y28956000D02*
X22098000Y31750000D01*
X2495542Y14014533D02*
X2457447Y14128819D01*
X2419352Y14166914D01*
X2343161Y14205009D01*
X2228876Y14205009D01*
X2152685Y14166914D01*
X2114590Y14128819D01*
X2076495Y14052628D01*
X2076495Y13747866D01*
X2876495Y13747866D01*
X2876495Y14014533D01*
X2838400Y14090723D01*
X2800304Y14128819D01*
X2724114Y14166914D01*
X2647923Y14166914D01*
X2571733Y14128819D01*
X2533638Y14090723D01*
X2495542Y14014533D01*
X2495542Y13747866D01*
X2076495Y14928819D02*
X2076495Y14547866D01*
X2876495Y14547866D01*
X2076495Y15195485D02*
X2876495Y15195485D01*
X2076495Y15652628D02*
X2533638Y15309771D01*
X2876495Y15652628D02*
X2419352Y15195485D01*
X60991790Y19374019D02*
X60953695Y19488304D01*
X60953695Y19678780D01*
X60991790Y19754971D01*
X61029885Y19793066D01*
X61106076Y19831161D01*
X61182266Y19831161D01*
X61258457Y19793066D01*
X61296552Y19754971D01*
X61334647Y19678780D01*
X61372742Y19526400D01*
X61410838Y19450209D01*
X61448933Y19412114D01*
X61525123Y19374019D01*
X61601314Y19374019D01*
X61677504Y19412114D01*
X61715600Y19450209D01*
X61753695Y19526400D01*
X61753695Y19716876D01*
X61715600Y19831161D01*
X61029885Y20631161D02*
X60991790Y20593066D01*
X60953695Y20478780D01*
X60953695Y20402590D01*
X60991790Y20288304D01*
X61067980Y20212114D01*
X61144171Y20174019D01*
X61296552Y20135923D01*
X61410838Y20135923D01*
X61563219Y20174019D01*
X61639409Y20212114D01*
X61715600Y20288304D01*
X61753695Y20402590D01*
X61753695Y20478780D01*
X61715600Y20593066D01*
X61677504Y20631161D01*
X60953695Y21354971D02*
X60953695Y20974019D01*
X61753695Y20974019D01*
X60953695Y21621638D02*
X61753695Y21621638D01*
X60953695Y22078780D02*
X61410838Y21735923D01*
X61753695Y22078780D02*
X61296552Y21621638D01*
X2063790Y-12528380D02*
X2025695Y-12414095D01*
X2025695Y-12223619D01*
X2063790Y-12147428D01*
X2101885Y-12109333D01*
X2178076Y-12071238D01*
X2254266Y-12071238D01*
X2330457Y-12109333D01*
X2368552Y-12147428D01*
X2406647Y-12223619D01*
X2444742Y-12376000D01*
X2482838Y-12452190D01*
X2520933Y-12490285D01*
X2597123Y-12528380D01*
X2673314Y-12528380D01*
X2749504Y-12490285D01*
X2787600Y-12452190D01*
X2825695Y-12376000D01*
X2825695Y-12185523D01*
X2787600Y-12071238D01*
X2101885Y-11271238D02*
X2063790Y-11309333D01*
X2025695Y-11423619D01*
X2025695Y-11499809D01*
X2063790Y-11614095D01*
X2139980Y-11690285D01*
X2216171Y-11728380D01*
X2368552Y-11766476D01*
X2482838Y-11766476D01*
X2635219Y-11728380D01*
X2711409Y-11690285D01*
X2787600Y-11614095D01*
X2825695Y-11499809D01*
X2825695Y-11423619D01*
X2787600Y-11309333D01*
X2749504Y-11271238D01*
X2025695Y-10547428D02*
X2025695Y-10928380D01*
X2825695Y-10928380D01*
X2025695Y-10280761D02*
X2825695Y-10280761D01*
X2025695Y-9823619D02*
X2482838Y-10166476D01*
X2825695Y-9823619D02*
X2368552Y-10280761D01*
X2825695Y-15512895D02*
X2025695Y-14979561D01*
X2825695Y-14979561D02*
X2025695Y-15512895D01*
X2025695Y-14293847D02*
X2025695Y-14674800D01*
X2825695Y-14674800D01*
X2254266Y-14065276D02*
X2254266Y-13684323D01*
X2025695Y-14141466D02*
X2825695Y-13874800D01*
X2025695Y-13608133D01*
X2825695Y-13455752D02*
X2825695Y-12998609D01*
X2025695Y-13227180D02*
X2825695Y-13227180D01*
X61360057Y-25107771D02*
X61360057Y-24498247D01*
X61055295Y-24803009D02*
X61664819Y-24803009D01*
X61855295Y-23736342D02*
X61855295Y-24117295D01*
X61474342Y-24155390D01*
X61512438Y-24117295D01*
X61550533Y-24041104D01*
X61550533Y-23850628D01*
X61512438Y-23774438D01*
X61474342Y-23736342D01*
X61398152Y-23698247D01*
X61207676Y-23698247D01*
X61131485Y-23736342D01*
X61093390Y-23774438D01*
X61055295Y-23850628D01*
X61055295Y-24041104D01*
X61093390Y-24117295D01*
X61131485Y-24155390D01*
X61855295Y-23469676D02*
X61055295Y-23203009D01*
X61855295Y-22936342D01*
X2825695Y16643504D02*
X2025695Y17176838D01*
X2825695Y17176838D02*
X2025695Y16643504D01*
X2025695Y17862552D02*
X2025695Y17481600D01*
X2825695Y17481600D01*
X2254266Y18091123D02*
X2254266Y18472076D01*
X2025695Y18014933D02*
X2825695Y18281600D01*
X2025695Y18548266D01*
X2825695Y18700647D02*
X2825695Y19157790D01*
X2025695Y18929219D02*
X2825695Y18929219D01*
X2381257Y7099428D02*
X2381257Y7708952D01*
X2076495Y7404190D02*
X2686019Y7404190D01*
X2876495Y8470857D02*
X2876495Y8089904D01*
X2495542Y8051809D01*
X2533638Y8089904D01*
X2571733Y8166095D01*
X2571733Y8356571D01*
X2533638Y8432761D01*
X2495542Y8470857D01*
X2419352Y8508952D01*
X2228876Y8508952D01*
X2152685Y8470857D01*
X2114590Y8432761D01*
X2076495Y8356571D01*
X2076495Y8166095D01*
X2114590Y8089904D01*
X2152685Y8051809D01*
X2876495Y8737523D02*
X2076495Y9004190D01*
X2876495Y9270857D01*
X59138095Y-31161904D02*
X59404761Y-30780952D01*
X59595238Y-31161904D02*
X59595238Y-30361904D01*
X59290476Y-30361904D01*
X59214285Y-30400000D01*
X59176190Y-30438095D01*
X59138095Y-30514285D01*
X59138095Y-30628571D01*
X59176190Y-30704761D01*
X59214285Y-30742857D01*
X59290476Y-30780952D01*
X59595238Y-30780952D01*
X58490476Y-31123809D02*
X58566666Y-31161904D01*
X58719047Y-31161904D01*
X58795238Y-31123809D01*
X58833333Y-31047619D01*
X58833333Y-30742857D01*
X58795238Y-30666666D01*
X58719047Y-30628571D01*
X58566666Y-30628571D01*
X58490476Y-30666666D01*
X58452380Y-30742857D01*
X58452380Y-30819047D01*
X58833333Y-30895238D01*
X58185714Y-30628571D02*
X57995238Y-31161904D01*
X57804761Y-30628571D01*
X57500000Y-31085714D02*
X57461904Y-31123809D01*
X57500000Y-31161904D01*
X57538095Y-31123809D01*
X57500000Y-31085714D01*
X57500000Y-31161904D01*
X56547619Y-30933333D02*
X56166666Y-30933333D01*
X56623809Y-31161904D02*
X56357142Y-30361904D01*
X56090476Y-31161904D01*
X61804495Y-15563695D02*
X61004495Y-15030361D01*
X61804495Y-15030361D02*
X61004495Y-15563695D01*
X61004495Y-14344647D02*
X61004495Y-14725600D01*
X61804495Y-14725600D01*
X61233066Y-14116076D02*
X61233066Y-13735123D01*
X61004495Y-14192266D02*
X61804495Y-13925600D01*
X61004495Y-13658933D01*
X61804495Y-13506552D02*
X61804495Y-13049409D01*
X61004495Y-13277980D02*
X61804495Y-13277980D01*
X2381257Y-25056971D02*
X2381257Y-24447447D01*
X2076495Y-24752209D02*
X2686019Y-24752209D01*
X2876495Y-23685542D02*
X2876495Y-24066495D01*
X2495542Y-24104590D01*
X2533638Y-24066495D01*
X2571733Y-23990304D01*
X2571733Y-23799828D01*
X2533638Y-23723638D01*
X2495542Y-23685542D01*
X2419352Y-23647447D01*
X2228876Y-23647447D01*
X2152685Y-23685542D01*
X2114590Y-23723638D01*
X2076495Y-23799828D01*
X2076495Y-23990304D01*
X2114590Y-24066495D01*
X2152685Y-24104590D01*
X2876495Y-23418876D02*
X2076495Y-23152209D01*
X2876495Y-22885542D01*
X61309257Y6845428D02*
X61309257Y7454952D01*
X61004495Y7150190D02*
X61614019Y7150190D01*
X61804495Y8216857D02*
X61804495Y7835904D01*
X61423542Y7797809D01*
X61461638Y7835904D01*
X61499733Y7912095D01*
X61499733Y8102571D01*
X61461638Y8178761D01*
X61423542Y8216857D01*
X61347352Y8254952D01*
X61156876Y8254952D01*
X61080685Y8216857D01*
X61042590Y8178761D01*
X61004495Y8102571D01*
X61004495Y7912095D01*
X61042590Y7835904D01*
X61080685Y7797809D01*
X61804495Y8483523D02*
X61004495Y8750190D01*
X61804495Y9016857D01*
X61715600Y-8737523D02*
X61753695Y-8813714D01*
X61753695Y-8928000D01*
X61715600Y-9042285D01*
X61639409Y-9118476D01*
X61563219Y-9156571D01*
X61410838Y-9194666D01*
X61296552Y-9194666D01*
X61144171Y-9156571D01*
X61067980Y-9118476D01*
X60991790Y-9042285D01*
X60953695Y-8928000D01*
X60953695Y-8851809D01*
X60991790Y-8737523D01*
X61029885Y-8699428D01*
X61296552Y-8699428D01*
X61296552Y-8851809D01*
X60953695Y-8356571D02*
X61753695Y-8356571D01*
X60953695Y-7899428D01*
X61753695Y-7899428D01*
X60953695Y-7518476D02*
X61753695Y-7518476D01*
X61753695Y-7328000D01*
X61715600Y-7213714D01*
X61639409Y-7137523D01*
X61563219Y-7099428D01*
X61410838Y-7061333D01*
X61296552Y-7061333D01*
X61144171Y-7099428D01*
X61067980Y-7137523D01*
X60991790Y-7213714D01*
X60953695Y-7328000D01*
X60953695Y-7518476D01*
X61093390Y9855371D02*
X61055295Y9969657D01*
X61055295Y10160133D01*
X61093390Y10236323D01*
X61131485Y10274419D01*
X61207676Y10312514D01*
X61283866Y10312514D01*
X61360057Y10274419D01*
X61398152Y10236323D01*
X61436247Y10160133D01*
X61474342Y10007752D01*
X61512438Y9931561D01*
X61550533Y9893466D01*
X61626723Y9855371D01*
X61702914Y9855371D01*
X61779104Y9893466D01*
X61817200Y9931561D01*
X61855295Y10007752D01*
X61855295Y10198228D01*
X61817200Y10312514D01*
X61855295Y10807752D02*
X61855295Y10960133D01*
X61817200Y11036323D01*
X61741009Y11112514D01*
X61588628Y11150609D01*
X61321961Y11150609D01*
X61169580Y11112514D01*
X61093390Y11036323D01*
X61055295Y10960133D01*
X61055295Y10807752D01*
X61093390Y10731561D01*
X61169580Y10655371D01*
X61321961Y10617276D01*
X61588628Y10617276D01*
X61741009Y10655371D01*
X61817200Y10731561D01*
X61855295Y10807752D01*
X61855295Y11493466D02*
X61207676Y11493466D01*
X61131485Y11531561D01*
X61093390Y11569657D01*
X61055295Y11645847D01*
X61055295Y11798228D01*
X61093390Y11874419D01*
X61131485Y11912514D01*
X61207676Y11950609D01*
X61855295Y11950609D01*
X61855295Y12217276D02*
X61855295Y12674419D01*
X61055295Y12445847D02*
X61855295Y12445847D01*
X2495542Y-18141866D02*
X2457447Y-18027580D01*
X2419352Y-17989485D01*
X2343161Y-17951390D01*
X2228876Y-17951390D01*
X2152685Y-17989485D01*
X2114590Y-18027580D01*
X2076495Y-18103771D01*
X2076495Y-18408533D01*
X2876495Y-18408533D01*
X2876495Y-18141866D01*
X2838400Y-18065676D01*
X2800304Y-18027580D01*
X2724114Y-17989485D01*
X2647923Y-17989485D01*
X2571733Y-18027580D01*
X2533638Y-18065676D01*
X2495542Y-18141866D01*
X2495542Y-18408533D01*
X2076495Y-17227580D02*
X2076495Y-17608533D01*
X2876495Y-17608533D01*
X2076495Y-16960914D02*
X2876495Y-16960914D01*
X2076495Y-16503771D02*
X2533638Y-16846628D01*
X2876495Y-16503771D02*
X2419352Y-16960914D01*
X61144190Y-22097828D02*
X61106095Y-21983542D01*
X61106095Y-21793066D01*
X61144190Y-21716876D01*
X61182285Y-21678780D01*
X61258476Y-21640685D01*
X61334666Y-21640685D01*
X61410857Y-21678780D01*
X61448952Y-21716876D01*
X61487047Y-21793066D01*
X61525142Y-21945447D01*
X61563238Y-22021638D01*
X61601333Y-22059733D01*
X61677523Y-22097828D01*
X61753714Y-22097828D01*
X61829904Y-22059733D01*
X61868000Y-22021638D01*
X61906095Y-21945447D01*
X61906095Y-21754971D01*
X61868000Y-21640685D01*
X61906095Y-21145447D02*
X61906095Y-20993066D01*
X61868000Y-20916876D01*
X61791809Y-20840685D01*
X61639428Y-20802590D01*
X61372761Y-20802590D01*
X61220380Y-20840685D01*
X61144190Y-20916876D01*
X61106095Y-20993066D01*
X61106095Y-21145447D01*
X61144190Y-21221638D01*
X61220380Y-21297828D01*
X61372761Y-21335923D01*
X61639428Y-21335923D01*
X61791809Y-21297828D01*
X61868000Y-21221638D01*
X61906095Y-21145447D01*
X61906095Y-20459733D02*
X61258476Y-20459733D01*
X61182285Y-20421638D01*
X61144190Y-20383542D01*
X61106095Y-20307352D01*
X61106095Y-20154971D01*
X61144190Y-20078780D01*
X61182285Y-20040685D01*
X61258476Y-20002590D01*
X61906095Y-20002590D01*
X61906095Y-19735923D02*
X61906095Y-19278780D01*
X61106095Y-19507352D02*
X61906095Y-19507352D01*
X2063790Y19628019D02*
X2025695Y19742304D01*
X2025695Y19932780D01*
X2063790Y20008971D01*
X2101885Y20047066D01*
X2178076Y20085161D01*
X2254266Y20085161D01*
X2330457Y20047066D01*
X2368552Y20008971D01*
X2406647Y19932780D01*
X2444742Y19780400D01*
X2482838Y19704209D01*
X2520933Y19666114D01*
X2597123Y19628019D01*
X2673314Y19628019D01*
X2749504Y19666114D01*
X2787600Y19704209D01*
X2825695Y19780400D01*
X2825695Y19970876D01*
X2787600Y20085161D01*
X2101885Y20885161D02*
X2063790Y20847066D01*
X2025695Y20732780D01*
X2025695Y20656590D01*
X2063790Y20542304D01*
X2139980Y20466114D01*
X2216171Y20428019D01*
X2368552Y20389923D01*
X2482838Y20389923D01*
X2635219Y20428019D01*
X2711409Y20466114D01*
X2787600Y20542304D01*
X2825695Y20656590D01*
X2825695Y20732780D01*
X2787600Y20847066D01*
X2749504Y20885161D01*
X2025695Y21608971D02*
X2025695Y21228019D01*
X2825695Y21228019D01*
X2025695Y21875638D02*
X2825695Y21875638D01*
X2025695Y22332780D02*
X2482838Y21989923D01*
X2825695Y22332780D02*
X2368552Y21875638D01*
X61474342Y-18192666D02*
X61436247Y-18078380D01*
X61398152Y-18040285D01*
X61321961Y-18002190D01*
X61207676Y-18002190D01*
X61131485Y-18040285D01*
X61093390Y-18078380D01*
X61055295Y-18154571D01*
X61055295Y-18459333D01*
X61855295Y-18459333D01*
X61855295Y-18192666D01*
X61817200Y-18116476D01*
X61779104Y-18078380D01*
X61702914Y-18040285D01*
X61626723Y-18040285D01*
X61550533Y-18078380D01*
X61512438Y-18116476D01*
X61474342Y-18192666D01*
X61474342Y-18459333D01*
X61055295Y-17278380D02*
X61055295Y-17659333D01*
X61855295Y-17659333D01*
X61055295Y-17011714D02*
X61855295Y-17011714D01*
X61055295Y-16554571D02*
X61512438Y-16897428D01*
X61855295Y-16554571D02*
X61398152Y-17011714D01*
X61664800Y23215676D02*
X61702895Y23139485D01*
X61702895Y23025200D01*
X61664800Y22910914D01*
X61588609Y22834723D01*
X61512419Y22796628D01*
X61360038Y22758533D01*
X61245752Y22758533D01*
X61093371Y22796628D01*
X61017180Y22834723D01*
X60940990Y22910914D01*
X60902895Y23025200D01*
X60902895Y23101390D01*
X60940990Y23215676D01*
X60979085Y23253771D01*
X61245752Y23253771D01*
X61245752Y23101390D01*
X60902895Y23596628D02*
X61702895Y23596628D01*
X60902895Y24053771D01*
X61702895Y24053771D01*
X60902895Y24434723D02*
X61702895Y24434723D01*
X61702895Y24625200D01*
X61664800Y24739485D01*
X61588609Y24815676D01*
X61512419Y24853771D01*
X61360038Y24891866D01*
X61245752Y24891866D01*
X61093371Y24853771D01*
X61017180Y24815676D01*
X60940990Y24739485D01*
X60902895Y24625200D01*
X60902895Y24434723D01*
X2165390Y-22047028D02*
X2127295Y-21932742D01*
X2127295Y-21742266D01*
X2165390Y-21666076D01*
X2203485Y-21627980D01*
X2279676Y-21589885D01*
X2355866Y-21589885D01*
X2432057Y-21627980D01*
X2470152Y-21666076D01*
X2508247Y-21742266D01*
X2546342Y-21894647D01*
X2584438Y-21970838D01*
X2622533Y-22008933D01*
X2698723Y-22047028D01*
X2774914Y-22047028D01*
X2851104Y-22008933D01*
X2889200Y-21970838D01*
X2927295Y-21894647D01*
X2927295Y-21704171D01*
X2889200Y-21589885D01*
X2927295Y-21094647D02*
X2927295Y-20942266D01*
X2889200Y-20866076D01*
X2813009Y-20789885D01*
X2660628Y-20751790D01*
X2393961Y-20751790D01*
X2241580Y-20789885D01*
X2165390Y-20866076D01*
X2127295Y-20942266D01*
X2127295Y-21094647D01*
X2165390Y-21170838D01*
X2241580Y-21247028D01*
X2393961Y-21285123D01*
X2660628Y-21285123D01*
X2813009Y-21247028D01*
X2889200Y-21170838D01*
X2927295Y-21094647D01*
X2927295Y-20408933D02*
X2279676Y-20408933D01*
X2203485Y-20370838D01*
X2165390Y-20332742D01*
X2127295Y-20256552D01*
X2127295Y-20104171D01*
X2165390Y-20027980D01*
X2203485Y-19989885D01*
X2279676Y-19951790D01*
X2927295Y-19951790D01*
X2927295Y-19685123D02*
X2927295Y-19227980D01*
X2127295Y-19456552D02*
X2927295Y-19456552D01*
X2736800Y23469676D02*
X2774895Y23393485D01*
X2774895Y23279200D01*
X2736800Y23164914D01*
X2660609Y23088723D01*
X2584419Y23050628D01*
X2432038Y23012533D01*
X2317752Y23012533D01*
X2165371Y23050628D01*
X2089180Y23088723D01*
X2012990Y23164914D01*
X1974895Y23279200D01*
X1974895Y23355390D01*
X2012990Y23469676D01*
X2051085Y23507771D01*
X2317752Y23507771D01*
X2317752Y23355390D01*
X1974895Y23850628D02*
X2774895Y23850628D01*
X1974895Y24307771D01*
X2774895Y24307771D01*
X1974895Y24688723D02*
X2774895Y24688723D01*
X2774895Y24879200D01*
X2736800Y24993485D01*
X2660609Y25069676D01*
X2584419Y25107771D01*
X2432038Y25145866D01*
X2317752Y25145866D01*
X2165371Y25107771D01*
X2089180Y25069676D01*
X2012990Y24993485D01*
X1974895Y24879200D01*
X1974895Y24688723D01*
X2165390Y10109371D02*
X2127295Y10223657D01*
X2127295Y10414133D01*
X2165390Y10490323D01*
X2203485Y10528419D01*
X2279676Y10566514D01*
X2355866Y10566514D01*
X2432057Y10528419D01*
X2470152Y10490323D01*
X2508247Y10414133D01*
X2546342Y10261752D01*
X2584438Y10185561D01*
X2622533Y10147466D01*
X2698723Y10109371D01*
X2774914Y10109371D01*
X2851104Y10147466D01*
X2889200Y10185561D01*
X2927295Y10261752D01*
X2927295Y10452228D01*
X2889200Y10566514D01*
X2927295Y11061752D02*
X2927295Y11214133D01*
X2889200Y11290323D01*
X2813009Y11366514D01*
X2660628Y11404609D01*
X2393961Y11404609D01*
X2241580Y11366514D01*
X2165390Y11290323D01*
X2127295Y11214133D01*
X2127295Y11061752D01*
X2165390Y10985561D01*
X2241580Y10909371D01*
X2393961Y10871276D01*
X2660628Y10871276D01*
X2813009Y10909371D01*
X2889200Y10985561D01*
X2927295Y11061752D01*
X2927295Y11747466D02*
X2279676Y11747466D01*
X2203485Y11785561D01*
X2165390Y11823657D01*
X2127295Y11899847D01*
X2127295Y12052228D01*
X2165390Y12128419D01*
X2203485Y12166514D01*
X2279676Y12204609D01*
X2927295Y12204609D01*
X2927295Y12471276D02*
X2927295Y12928419D01*
X2127295Y12699847D02*
X2927295Y12699847D01*
X2736800Y-8686723D02*
X2774895Y-8762914D01*
X2774895Y-8877200D01*
X2736800Y-8991485D01*
X2660609Y-9067676D01*
X2584419Y-9105771D01*
X2432038Y-9143866D01*
X2317752Y-9143866D01*
X2165371Y-9105771D01*
X2089180Y-9067676D01*
X2012990Y-8991485D01*
X1974895Y-8877200D01*
X1974895Y-8801009D01*
X2012990Y-8686723D01*
X2051085Y-8648628D01*
X2317752Y-8648628D01*
X2317752Y-8801009D01*
X1974895Y-8305771D02*
X2774895Y-8305771D01*
X1974895Y-7848628D01*
X2774895Y-7848628D01*
X1974895Y-7467676D02*
X2774895Y-7467676D01*
X2774895Y-7277200D01*
X2736800Y-7162914D01*
X2660609Y-7086723D01*
X2584419Y-7048628D01*
X2432038Y-7010533D01*
X2317752Y-7010533D01*
X2165371Y-7048628D01*
X2089180Y-7086723D01*
X2012990Y-7162914D01*
X1974895Y-7277200D01*
X1974895Y-7467676D01*
X61753695Y16389504D02*
X60953695Y16922838D01*
X61753695Y16922838D02*
X60953695Y16389504D01*
X60953695Y17608552D02*
X60953695Y17227600D01*
X61753695Y17227600D01*
X61182266Y17837123D02*
X61182266Y18218076D01*
X60953695Y17760933D02*
X61753695Y18027600D01*
X60953695Y18294266D01*
X61753695Y18446647D02*
X61753695Y18903790D01*
X60953695Y18675219D02*
X61753695Y18675219D01*
X61042590Y-12579180D02*
X61004495Y-12464895D01*
X61004495Y-12274419D01*
X61042590Y-12198228D01*
X61080685Y-12160133D01*
X61156876Y-12122038D01*
X61233066Y-12122038D01*
X61309257Y-12160133D01*
X61347352Y-12198228D01*
X61385447Y-12274419D01*
X61423542Y-12426800D01*
X61461638Y-12502990D01*
X61499733Y-12541085D01*
X61575923Y-12579180D01*
X61652114Y-12579180D01*
X61728304Y-12541085D01*
X61766400Y-12502990D01*
X61804495Y-12426800D01*
X61804495Y-12236323D01*
X61766400Y-12122038D01*
X61080685Y-11322038D02*
X61042590Y-11360133D01*
X61004495Y-11474419D01*
X61004495Y-11550609D01*
X61042590Y-11664895D01*
X61118780Y-11741085D01*
X61194971Y-11779180D01*
X61347352Y-11817276D01*
X61461638Y-11817276D01*
X61614019Y-11779180D01*
X61690209Y-11741085D01*
X61766400Y-11664895D01*
X61804495Y-11550609D01*
X61804495Y-11474419D01*
X61766400Y-11360133D01*
X61728304Y-11322038D01*
X61004495Y-10598228D02*
X61004495Y-10979180D01*
X61804495Y-10979180D01*
X61004495Y-10331561D02*
X61804495Y-10331561D01*
X61004495Y-9874419D02*
X61461638Y-10217276D01*
X61804495Y-9874419D02*
X61347352Y-10331561D01*
X12584990Y-31197504D02*
X12584990Y-30397504D01*
X12318323Y-30968933D01*
X12051657Y-30397504D01*
X12051657Y-31197504D01*
X11556419Y-31197504D02*
X11632609Y-31159409D01*
X11670704Y-31121314D01*
X11708800Y-31045123D01*
X11708800Y-30816552D01*
X11670704Y-30740361D01*
X11632609Y-30702266D01*
X11556419Y-30664171D01*
X11442133Y-30664171D01*
X11365942Y-30702266D01*
X11327847Y-30740361D01*
X11289752Y-30816552D01*
X11289752Y-31045123D01*
X11327847Y-31121314D01*
X11365942Y-31159409D01*
X11442133Y-31197504D01*
X11556419Y-31197504D01*
X10604038Y-31197504D02*
X10604038Y-30397504D01*
X10604038Y-31159409D02*
X10680228Y-31197504D01*
X10832609Y-31197504D01*
X10908799Y-31159409D01*
X10946895Y-31121314D01*
X10984990Y-31045123D01*
X10984990Y-30816552D01*
X10946895Y-30740361D01*
X10908799Y-30702266D01*
X10832609Y-30664171D01*
X10680228Y-30664171D01*
X10604038Y-30702266D01*
X9880228Y-30664171D02*
X9880228Y-31197504D01*
X10223085Y-30664171D02*
X10223085Y-31083219D01*
X10184990Y-31159409D01*
X10108799Y-31197504D01*
X9994514Y-31197504D01*
X9918323Y-31159409D01*
X9880228Y-31121314D01*
X9384990Y-31197504D02*
X9461180Y-31159409D01*
X9499276Y-31083219D01*
X9499276Y-30397504D01*
X8737371Y-31197504D02*
X8737371Y-30778457D01*
X8775466Y-30702266D01*
X8851657Y-30664171D01*
X9004038Y-30664171D01*
X9080228Y-30702266D01*
X8737371Y-31159409D02*
X8813561Y-31197504D01*
X9004038Y-31197504D01*
X9080228Y-31159409D01*
X9118323Y-31083219D01*
X9118323Y-31007028D01*
X9080228Y-30930838D01*
X9004038Y-30892742D01*
X8813561Y-30892742D01*
X8737371Y-30854647D01*
X8356419Y-31197504D02*
X8356419Y-30664171D01*
X8356419Y-30816552D02*
X8318323Y-30740361D01*
X8280228Y-30702266D01*
X8204038Y-30664171D01*
X8127847Y-30664171D01*
X6870704Y-31197504D02*
X7251657Y-31197504D01*
X7251657Y-30397504D01*
X6604038Y-30778457D02*
X6337371Y-30778457D01*
X6223085Y-31197504D02*
X6604038Y-31197504D01*
X6604038Y-30397504D01*
X6223085Y-30397504D01*
X5880228Y-31197504D02*
X5880228Y-30397504D01*
X5689752Y-30397504D01*
X5575466Y-30435600D01*
X5499276Y-30511790D01*
X5461180Y-30587980D01*
X5423085Y-30740361D01*
X5423085Y-30854647D01*
X5461180Y-31007028D01*
X5499276Y-31083219D01*
X5575466Y-31159409D01*
X5689752Y-31197504D01*
X5880228Y-31197504D01*
X4470704Y-31197504D02*
X4470704Y-30397504D01*
X4204038Y-30968933D01*
X3937371Y-30397504D01*
X3937371Y-31197504D01*
X3213561Y-31197504D02*
X3213561Y-30778457D01*
X3251657Y-30702266D01*
X3327847Y-30664171D01*
X3480228Y-30664171D01*
X3556419Y-30702266D01*
X3213561Y-31159409D02*
X3289752Y-31197504D01*
X3480228Y-31197504D01*
X3556419Y-31159409D01*
X3594514Y-31083219D01*
X3594514Y-31007028D01*
X3556419Y-30930838D01*
X3480228Y-30892742D01*
X3289752Y-30892742D01*
X3213561Y-30854647D01*
X2946895Y-30664171D02*
X2642133Y-30664171D01*
X2832609Y-30397504D02*
X2832609Y-31083219D01*
X2794514Y-31159409D01*
X2718323Y-31197504D01*
X2642133Y-31197504D01*
X2375466Y-31197504D02*
X2375466Y-30664171D01*
X2375466Y-30816552D02*
X2337371Y-30740361D01*
X2299276Y-30702266D01*
X2223085Y-30664171D01*
X2146895Y-30664171D01*
X1880228Y-31197504D02*
X1880228Y-30664171D01*
X1880228Y-30397504D02*
X1918323Y-30435600D01*
X1880228Y-30473695D01*
X1842133Y-30435600D01*
X1880228Y-30397504D01*
X1880228Y-30473695D01*
X1575466Y-31197504D02*
X1156419Y-30664171D01*
X1575466Y-30664171D02*
X1156419Y-31197504D01*
X61423542Y13760533D02*
X61385447Y13874819D01*
X61347352Y13912914D01*
X61271161Y13951009D01*
X61156876Y13951009D01*
X61080685Y13912914D01*
X61042590Y13874819D01*
X61004495Y13798628D01*
X61004495Y13493866D01*
X61804495Y13493866D01*
X61804495Y13760533D01*
X61766400Y13836723D01*
X61728304Y13874819D01*
X61652114Y13912914D01*
X61575923Y13912914D01*
X61499733Y13874819D01*
X61461638Y13836723D01*
X61423542Y13760533D01*
X61423542Y13493866D01*
X61004495Y14674819D02*
X61004495Y14293866D01*
X61804495Y14293866D01*
X61004495Y14941485D02*
X61804495Y14941485D01*
X61004495Y15398628D02*
X61461638Y15055771D01*
X61804495Y15398628D02*
X61347352Y14941485D01*
X24618838Y7588285D02*
X24656933Y7550190D01*
X24771219Y7512095D01*
X24847409Y7512095D01*
X24961695Y7550190D01*
X25037885Y7626380D01*
X25075980Y7702571D01*
X25114076Y7854952D01*
X25114076Y7969238D01*
X25075980Y8121619D01*
X25037885Y8197809D01*
X24961695Y8274000D01*
X24847409Y8312095D01*
X24771219Y8312095D01*
X24656933Y8274000D01*
X24618838Y8235904D01*
X24314076Y8235904D02*
X24275980Y8274000D01*
X24199790Y8312095D01*
X24009314Y8312095D01*
X23933123Y8274000D01*
X23895028Y8235904D01*
X23856933Y8159714D01*
X23856933Y8083523D01*
X23895028Y7969238D01*
X24352171Y7512095D01*
X23856933Y7512095D01*
X23361695Y8312095D02*
X23285504Y8312095D01*
X23209314Y8274000D01*
X23171219Y8235904D01*
X23133123Y8159714D01*
X23095028Y8007333D01*
X23095028Y7816857D01*
X23133123Y7664476D01*
X23171219Y7588285D01*
X23209314Y7550190D01*
X23285504Y7512095D01*
X23361695Y7512095D01*
X23437885Y7550190D01*
X23475980Y7588285D01*
X23514076Y7664476D01*
X23552171Y7816857D01*
X23552171Y8007333D01*
X23514076Y8159714D01*
X23475980Y8235904D01*
X23437885Y8274000D01*
X23361695Y8312095D01*
X22333123Y7512095D02*
X22790266Y7512095D01*
X22561695Y7512095D02*
X22561695Y8312095D01*
X22637885Y8197809D01*
X22714076Y8121619D01*
X22790266Y8083523D01*
X32188038Y12211085D02*
X32226133Y12172990D01*
X32340419Y12134895D01*
X32416609Y12134895D01*
X32530895Y12172990D01*
X32607085Y12249180D01*
X32645180Y12325371D01*
X32683276Y12477752D01*
X32683276Y12592038D01*
X32645180Y12744419D01*
X32607085Y12820609D01*
X32530895Y12896800D01*
X32416609Y12934895D01*
X32340419Y12934895D01*
X32226133Y12896800D01*
X32188038Y12858704D01*
X31883276Y12858704D02*
X31845180Y12896800D01*
X31768990Y12934895D01*
X31578514Y12934895D01*
X31502323Y12896800D01*
X31464228Y12858704D01*
X31426133Y12782514D01*
X31426133Y12706323D01*
X31464228Y12592038D01*
X31921371Y12134895D01*
X31426133Y12134895D01*
X30930895Y12934895D02*
X30854704Y12934895D01*
X30778514Y12896800D01*
X30740419Y12858704D01*
X30702323Y12782514D01*
X30664228Y12630133D01*
X30664228Y12439657D01*
X30702323Y12287276D01*
X30740419Y12211085D01*
X30778514Y12172990D01*
X30854704Y12134895D01*
X30930895Y12134895D01*
X31007085Y12172990D01*
X31045180Y12211085D01*
X31083276Y12287276D01*
X31121371Y12439657D01*
X31121371Y12630133D01*
X31083276Y12782514D01*
X31045180Y12858704D01*
X31007085Y12896800D01*
X30930895Y12934895D01*
X29940419Y12934895D02*
X30321371Y12934895D01*
X30359466Y12553942D01*
X30321371Y12592038D01*
X30245180Y12630133D01*
X30054704Y12630133D01*
X29978514Y12592038D01*
X29940419Y12553942D01*
X29902323Y12477752D01*
X29902323Y12287276D01*
X29940419Y12211085D01*
X29978514Y12172990D01*
X30054704Y12134895D01*
X30245180Y12134895D01*
X30321371Y12172990D01*
X30359466Y12211085D01*
X24720438Y10026685D02*
X24758533Y9988590D01*
X24872819Y9950495D01*
X24949009Y9950495D01*
X25063295Y9988590D01*
X25139485Y10064780D01*
X25177580Y10140971D01*
X25215676Y10293352D01*
X25215676Y10407638D01*
X25177580Y10560019D01*
X25139485Y10636209D01*
X25063295Y10712400D01*
X24949009Y10750495D01*
X24872819Y10750495D01*
X24758533Y10712400D01*
X24720438Y10674304D01*
X24415676Y10674304D02*
X24377580Y10712400D01*
X24301390Y10750495D01*
X24110914Y10750495D01*
X24034723Y10712400D01*
X23996628Y10674304D01*
X23958533Y10598114D01*
X23958533Y10521923D01*
X23996628Y10407638D01*
X24453771Y9950495D01*
X23958533Y9950495D01*
X23463295Y10750495D02*
X23387104Y10750495D01*
X23310914Y10712400D01*
X23272819Y10674304D01*
X23234723Y10598114D01*
X23196628Y10445733D01*
X23196628Y10255257D01*
X23234723Y10102876D01*
X23272819Y10026685D01*
X23310914Y9988590D01*
X23387104Y9950495D01*
X23463295Y9950495D01*
X23539485Y9988590D01*
X23577580Y10026685D01*
X23615676Y10102876D01*
X23653771Y10255257D01*
X23653771Y10445733D01*
X23615676Y10598114D01*
X23577580Y10674304D01*
X23539485Y10712400D01*
X23463295Y10750495D01*
X22929961Y10750495D02*
X22434723Y10750495D01*
X22701390Y10445733D01*
X22587104Y10445733D01*
X22510914Y10407638D01*
X22472819Y10369542D01*
X22434723Y10293352D01*
X22434723Y10102876D01*
X22472819Y10026685D01*
X22510914Y9988590D01*
X22587104Y9950495D01*
X22815676Y9950495D01*
X22891866Y9988590D01*
X22929961Y10026685D01*
X32188038Y11093485D02*
X32226133Y11055390D01*
X32340419Y11017295D01*
X32416609Y11017295D01*
X32530895Y11055390D01*
X32607085Y11131580D01*
X32645180Y11207771D01*
X32683276Y11360152D01*
X32683276Y11474438D01*
X32645180Y11626819D01*
X32607085Y11703009D01*
X32530895Y11779200D01*
X32416609Y11817295D01*
X32340419Y11817295D01*
X32226133Y11779200D01*
X32188038Y11741104D01*
X31883276Y11741104D02*
X31845180Y11779200D01*
X31768990Y11817295D01*
X31578514Y11817295D01*
X31502323Y11779200D01*
X31464228Y11741104D01*
X31426133Y11664914D01*
X31426133Y11588723D01*
X31464228Y11474438D01*
X31921371Y11017295D01*
X31426133Y11017295D01*
X30930895Y11817295D02*
X30854704Y11817295D01*
X30778514Y11779200D01*
X30740419Y11741104D01*
X30702323Y11664914D01*
X30664228Y11512533D01*
X30664228Y11322057D01*
X30702323Y11169676D01*
X30740419Y11093485D01*
X30778514Y11055390D01*
X30854704Y11017295D01*
X30930895Y11017295D01*
X31007085Y11055390D01*
X31045180Y11093485D01*
X31083276Y11169676D01*
X31121371Y11322057D01*
X31121371Y11512533D01*
X31083276Y11664914D01*
X31045180Y11741104D01*
X31007085Y11779200D01*
X30930895Y11817295D01*
X29978514Y11817295D02*
X30130895Y11817295D01*
X30207085Y11779200D01*
X30245180Y11741104D01*
X30321371Y11626819D01*
X30359466Y11474438D01*
X30359466Y11169676D01*
X30321371Y11093485D01*
X30283276Y11055390D01*
X30207085Y11017295D01*
X30054704Y11017295D01*
X29978514Y11055390D01*
X29940419Y11093485D01*
X29902323Y11169676D01*
X29902323Y11360152D01*
X29940419Y11436342D01*
X29978514Y11474438D01*
X30054704Y11512533D01*
X30207085Y11512533D01*
X30283276Y11474438D01*
X30321371Y11436342D01*
X30359466Y11360152D01*
X32188038Y9925085D02*
X32226133Y9886990D01*
X32340419Y9848895D01*
X32416609Y9848895D01*
X32530895Y9886990D01*
X32607085Y9963180D01*
X32645180Y10039371D01*
X32683276Y10191752D01*
X32683276Y10306038D01*
X32645180Y10458419D01*
X32607085Y10534609D01*
X32530895Y10610800D01*
X32416609Y10648895D01*
X32340419Y10648895D01*
X32226133Y10610800D01*
X32188038Y10572704D01*
X31883276Y10572704D02*
X31845180Y10610800D01*
X31768990Y10648895D01*
X31578514Y10648895D01*
X31502323Y10610800D01*
X31464228Y10572704D01*
X31426133Y10496514D01*
X31426133Y10420323D01*
X31464228Y10306038D01*
X31921371Y9848895D01*
X31426133Y9848895D01*
X30930895Y10648895D02*
X30854704Y10648895D01*
X30778514Y10610800D01*
X30740419Y10572704D01*
X30702323Y10496514D01*
X30664228Y10344133D01*
X30664228Y10153657D01*
X30702323Y10001276D01*
X30740419Y9925085D01*
X30778514Y9886990D01*
X30854704Y9848895D01*
X30930895Y9848895D01*
X31007085Y9886990D01*
X31045180Y9925085D01*
X31083276Y10001276D01*
X31121371Y10153657D01*
X31121371Y10344133D01*
X31083276Y10496514D01*
X31045180Y10572704D01*
X31007085Y10610800D01*
X30930895Y10648895D01*
X29978514Y10382228D02*
X29978514Y9848895D01*
X30168990Y10686990D02*
X30359466Y10115561D01*
X29864228Y10115561D01*
X24669638Y8807485D02*
X24707733Y8769390D01*
X24822019Y8731295D01*
X24898209Y8731295D01*
X25012495Y8769390D01*
X25088685Y8845580D01*
X25126780Y8921771D01*
X25164876Y9074152D01*
X25164876Y9188438D01*
X25126780Y9340819D01*
X25088685Y9417009D01*
X25012495Y9493200D01*
X24898209Y9531295D01*
X24822019Y9531295D01*
X24707733Y9493200D01*
X24669638Y9455104D01*
X24364876Y9455104D02*
X24326780Y9493200D01*
X24250590Y9531295D01*
X24060114Y9531295D01*
X23983923Y9493200D01*
X23945828Y9455104D01*
X23907733Y9378914D01*
X23907733Y9302723D01*
X23945828Y9188438D01*
X24402971Y8731295D01*
X23907733Y8731295D01*
X23412495Y9531295D02*
X23336304Y9531295D01*
X23260114Y9493200D01*
X23222019Y9455104D01*
X23183923Y9378914D01*
X23145828Y9226533D01*
X23145828Y9036057D01*
X23183923Y8883676D01*
X23222019Y8807485D01*
X23260114Y8769390D01*
X23336304Y8731295D01*
X23412495Y8731295D01*
X23488685Y8769390D01*
X23526780Y8807485D01*
X23564876Y8883676D01*
X23602971Y9036057D01*
X23602971Y9226533D01*
X23564876Y9378914D01*
X23526780Y9455104D01*
X23488685Y9493200D01*
X23412495Y9531295D01*
X22841066Y9455104D02*
X22802971Y9493200D01*
X22726780Y9531295D01*
X22536304Y9531295D01*
X22460114Y9493200D01*
X22422019Y9455104D01*
X22383923Y9378914D01*
X22383923Y9302723D01*
X22422019Y9188438D01*
X22879161Y8731295D01*
X22383923Y8731295D01*
X12782438Y1365295D02*
X13049104Y1746247D01*
X13239580Y1365295D02*
X13239580Y2165295D01*
X12934819Y2165295D01*
X12858628Y2127200D01*
X12820533Y2089104D01*
X12782438Y2012914D01*
X12782438Y1898628D01*
X12820533Y1822438D01*
X12858628Y1784342D01*
X12934819Y1746247D01*
X13239580Y1746247D01*
X12477676Y2089104D02*
X12439580Y2127200D01*
X12363390Y2165295D01*
X12172914Y2165295D01*
X12096723Y2127200D01*
X12058628Y2089104D01*
X12020533Y2012914D01*
X12020533Y1936723D01*
X12058628Y1822438D01*
X12515771Y1365295D01*
X12020533Y1365295D01*
X11525295Y2165295D02*
X11449104Y2165295D01*
X11372914Y2127200D01*
X11334819Y2089104D01*
X11296723Y2012914D01*
X11258628Y1860533D01*
X11258628Y1670057D01*
X11296723Y1517676D01*
X11334819Y1441485D01*
X11372914Y1403390D01*
X11449104Y1365295D01*
X11525295Y1365295D01*
X11601485Y1403390D01*
X11639580Y1441485D01*
X11677676Y1517676D01*
X11715771Y1670057D01*
X11715771Y1860533D01*
X11677676Y2012914D01*
X11639580Y2089104D01*
X11601485Y2127200D01*
X11525295Y2165295D01*
X10534819Y2165295D02*
X10915771Y2165295D01*
X10953866Y1784342D01*
X10915771Y1822438D01*
X10839580Y1860533D01*
X10649104Y1860533D01*
X10572914Y1822438D01*
X10534819Y1784342D01*
X10496723Y1708152D01*
X10496723Y1517676D01*
X10534819Y1441485D01*
X10572914Y1403390D01*
X10649104Y1365295D01*
X10839580Y1365295D01*
X10915771Y1403390D01*
X10953866Y1441485D01*
X48234495Y-5924495D02*
X48310685Y-5886400D01*
X48386876Y-5810209D01*
X48501161Y-5695923D01*
X48577352Y-5657828D01*
X48653542Y-5657828D01*
X48615447Y-5848304D02*
X48691638Y-5810209D01*
X48767828Y-5734019D01*
X48805923Y-5581638D01*
X48805923Y-5314971D01*
X48767828Y-5162590D01*
X48691638Y-5086400D01*
X48615447Y-5048304D01*
X48463066Y-5048304D01*
X48386876Y-5086400D01*
X48310685Y-5162590D01*
X48272590Y-5314971D01*
X48272590Y-5581638D01*
X48310685Y-5734019D01*
X48386876Y-5810209D01*
X48463066Y-5848304D01*
X48615447Y-5848304D01*
X47967828Y-5124495D02*
X47929733Y-5086400D01*
X47853542Y-5048304D01*
X47663066Y-5048304D01*
X47586876Y-5086400D01*
X47548780Y-5124495D01*
X47510685Y-5200685D01*
X47510685Y-5276876D01*
X47548780Y-5391161D01*
X48005923Y-5848304D01*
X47510685Y-5848304D01*
X47205923Y-5124495D02*
X47167828Y-5086400D01*
X47091638Y-5048304D01*
X46901161Y-5048304D01*
X46824971Y-5086400D01*
X46786876Y-5124495D01*
X46748780Y-5200685D01*
X46748780Y-5276876D01*
X46786876Y-5391161D01*
X47244019Y-5848304D01*
X46748780Y-5848304D01*
X46444019Y-5124495D02*
X46405923Y-5086400D01*
X46329733Y-5048304D01*
X46139257Y-5048304D01*
X46063066Y-5086400D01*
X46024971Y-5124495D01*
X45986876Y-5200685D01*
X45986876Y-5276876D01*
X46024971Y-5391161D01*
X46482114Y-5848304D01*
X45986876Y-5848304D01*
X46964495Y-26803295D02*
X47040685Y-26765200D01*
X47116876Y-26689009D01*
X47231161Y-26574723D01*
X47307352Y-26536628D01*
X47383542Y-26536628D01*
X47345447Y-26727104D02*
X47421638Y-26689009D01*
X47497828Y-26612819D01*
X47535923Y-26460438D01*
X47535923Y-26193771D01*
X47497828Y-26041390D01*
X47421638Y-25965200D01*
X47345447Y-25927104D01*
X47193066Y-25927104D01*
X47116876Y-25965200D01*
X47040685Y-26041390D01*
X47002590Y-26193771D01*
X47002590Y-26460438D01*
X47040685Y-26612819D01*
X47116876Y-26689009D01*
X47193066Y-26727104D01*
X47345447Y-26727104D01*
X46697828Y-26003295D02*
X46659733Y-25965200D01*
X46583542Y-25927104D01*
X46393066Y-25927104D01*
X46316876Y-25965200D01*
X46278780Y-26003295D01*
X46240685Y-26079485D01*
X46240685Y-26155676D01*
X46278780Y-26269961D01*
X46735923Y-26727104D01*
X46240685Y-26727104D01*
X45478780Y-26727104D02*
X45935923Y-26727104D01*
X45707352Y-26727104D02*
X45707352Y-25927104D01*
X45783542Y-26041390D01*
X45859733Y-26117580D01*
X45935923Y-26155676D01*
X45021638Y-26269961D02*
X45097828Y-26231866D01*
X45135923Y-26193771D01*
X45174019Y-26117580D01*
X45174019Y-26079485D01*
X45135923Y-26003295D01*
X45097828Y-25965200D01*
X45021638Y-25927104D01*
X44869257Y-25927104D01*
X44793066Y-25965200D01*
X44754971Y-26003295D01*
X44716876Y-26079485D01*
X44716876Y-26117580D01*
X44754971Y-26193771D01*
X44793066Y-26231866D01*
X44869257Y-26269961D01*
X45021638Y-26269961D01*
X45097828Y-26308057D01*
X45135923Y-26346152D01*
X45174019Y-26422342D01*
X45174019Y-26574723D01*
X45135923Y-26650914D01*
X45097828Y-26689009D01*
X45021638Y-26727104D01*
X44869257Y-26727104D01*
X44793066Y-26689009D01*
X44754971Y-26650914D01*
X44716876Y-26574723D01*
X44716876Y-26422342D01*
X44754971Y-26346152D01*
X44793066Y-26308057D01*
X44869257Y-26269961D01*
X38690438Y11118895D02*
X38957104Y11499847D01*
X39147580Y11118895D02*
X39147580Y11918895D01*
X38842819Y11918895D01*
X38766628Y11880800D01*
X38728533Y11842704D01*
X38690438Y11766514D01*
X38690438Y11652228D01*
X38728533Y11576038D01*
X38766628Y11537942D01*
X38842819Y11499847D01*
X39147580Y11499847D01*
X38385676Y11842704D02*
X38347580Y11880800D01*
X38271390Y11918895D01*
X38080914Y11918895D01*
X38004723Y11880800D01*
X37966628Y11842704D01*
X37928533Y11766514D01*
X37928533Y11690323D01*
X37966628Y11576038D01*
X38423771Y11118895D01*
X37928533Y11118895D01*
X37166628Y11118895D02*
X37623771Y11118895D01*
X37395200Y11118895D02*
X37395200Y11918895D01*
X37471390Y11804609D01*
X37547580Y11728419D01*
X37623771Y11690323D01*
X36671390Y11918895D02*
X36595200Y11918895D01*
X36519009Y11880800D01*
X36480914Y11842704D01*
X36442819Y11766514D01*
X36404723Y11614133D01*
X36404723Y11423657D01*
X36442819Y11271276D01*
X36480914Y11195085D01*
X36519009Y11156990D01*
X36595200Y11118895D01*
X36671390Y11118895D01*
X36747580Y11156990D01*
X36785676Y11195085D01*
X36823771Y11271276D01*
X36861866Y11423657D01*
X36861866Y11614133D01*
X36823771Y11766514D01*
X36785676Y11842704D01*
X36747580Y11880800D01*
X36671390Y11918895D01*
X11664838Y-20732704D02*
X11931504Y-20351752D01*
X12121980Y-20732704D02*
X12121980Y-19932704D01*
X11817219Y-19932704D01*
X11741028Y-19970800D01*
X11702933Y-20008895D01*
X11664838Y-20085085D01*
X11664838Y-20199371D01*
X11702933Y-20275561D01*
X11741028Y-20313657D01*
X11817219Y-20351752D01*
X12121980Y-20351752D01*
X11360076Y-20008895D02*
X11321980Y-19970800D01*
X11245790Y-19932704D01*
X11055314Y-19932704D01*
X10979123Y-19970800D01*
X10941028Y-20008895D01*
X10902933Y-20085085D01*
X10902933Y-20161276D01*
X10941028Y-20275561D01*
X11398171Y-20732704D01*
X10902933Y-20732704D01*
X10217219Y-20199371D02*
X10217219Y-20732704D01*
X10407695Y-19894609D02*
X10598171Y-20466038D01*
X10102933Y-20466038D01*
X9874361Y-19932704D02*
X9379123Y-19932704D01*
X9645790Y-20237466D01*
X9531504Y-20237466D01*
X9455314Y-20275561D01*
X9417219Y-20313657D01*
X9379123Y-20389847D01*
X9379123Y-20580323D01*
X9417219Y-20656514D01*
X9455314Y-20694609D01*
X9531504Y-20732704D01*
X9760076Y-20732704D01*
X9836266Y-20694609D01*
X9874361Y-20656514D01*
X10693295Y5200704D02*
X10769485Y5238800D01*
X10845676Y5314990D01*
X10959961Y5429276D01*
X11036152Y5467371D01*
X11112342Y5467371D01*
X11074247Y5276895D02*
X11150438Y5314990D01*
X11226628Y5391180D01*
X11264723Y5543561D01*
X11264723Y5810228D01*
X11226628Y5962609D01*
X11150438Y6038800D01*
X11074247Y6076895D01*
X10921866Y6076895D01*
X10845676Y6038800D01*
X10769485Y5962609D01*
X10731390Y5810228D01*
X10731390Y5543561D01*
X10769485Y5391180D01*
X10845676Y5314990D01*
X10921866Y5276895D01*
X11074247Y5276895D01*
X10426628Y6000704D02*
X10388533Y6038800D01*
X10312342Y6076895D01*
X10121866Y6076895D01*
X10045676Y6038800D01*
X10007580Y6000704D01*
X9969485Y5924514D01*
X9969485Y5848323D01*
X10007580Y5734038D01*
X10464723Y5276895D01*
X9969485Y5276895D01*
X9474247Y6076895D02*
X9398057Y6076895D01*
X9321866Y6038800D01*
X9283771Y6000704D01*
X9245676Y5924514D01*
X9207580Y5772133D01*
X9207580Y5581657D01*
X9245676Y5429276D01*
X9283771Y5353085D01*
X9321866Y5314990D01*
X9398057Y5276895D01*
X9474247Y5276895D01*
X9550438Y5314990D01*
X9588533Y5353085D01*
X9626628Y5429276D01*
X9664723Y5581657D01*
X9664723Y5772133D01*
X9626628Y5924514D01*
X9588533Y6000704D01*
X9550438Y6038800D01*
X9474247Y6076895D01*
X8521866Y5810228D02*
X8521866Y5276895D01*
X8712342Y6114990D02*
X8902819Y5543561D01*
X8407580Y5543561D01*
X56673638Y-18853104D02*
X56940304Y-18472152D01*
X57130780Y-18853104D02*
X57130780Y-18053104D01*
X56826019Y-18053104D01*
X56749828Y-18091200D01*
X56711733Y-18129295D01*
X56673638Y-18205485D01*
X56673638Y-18319771D01*
X56711733Y-18395961D01*
X56749828Y-18434057D01*
X56826019Y-18472152D01*
X57130780Y-18472152D01*
X56368876Y-18129295D02*
X56330780Y-18091200D01*
X56254590Y-18053104D01*
X56064114Y-18053104D01*
X55987923Y-18091200D01*
X55949828Y-18129295D01*
X55911733Y-18205485D01*
X55911733Y-18281676D01*
X55949828Y-18395961D01*
X56406971Y-18853104D01*
X55911733Y-18853104D01*
X55226019Y-18319771D02*
X55226019Y-18853104D01*
X55416495Y-18015009D02*
X55606971Y-18586438D01*
X55111733Y-18586438D01*
X54692685Y-18395961D02*
X54768876Y-18357866D01*
X54806971Y-18319771D01*
X54845066Y-18243580D01*
X54845066Y-18205485D01*
X54806971Y-18129295D01*
X54768876Y-18091200D01*
X54692685Y-18053104D01*
X54540304Y-18053104D01*
X54464114Y-18091200D01*
X54426019Y-18129295D01*
X54387923Y-18205485D01*
X54387923Y-18243580D01*
X54426019Y-18319771D01*
X54464114Y-18357866D01*
X54540304Y-18395961D01*
X54692685Y-18395961D01*
X54768876Y-18434057D01*
X54806971Y-18472152D01*
X54845066Y-18548342D01*
X54845066Y-18700723D01*
X54806971Y-18776914D01*
X54768876Y-18815009D01*
X54692685Y-18853104D01*
X54540304Y-18853104D01*
X54464114Y-18815009D01*
X54426019Y-18776914D01*
X54387923Y-18700723D01*
X54387923Y-18548342D01*
X54426019Y-18472152D01*
X54464114Y-18434057D01*
X54540304Y-18395961D01*
X21164438Y30575295D02*
X21431104Y30956247D01*
X21621580Y30575295D02*
X21621580Y31375295D01*
X21316819Y31375295D01*
X21240628Y31337200D01*
X21202533Y31299104D01*
X21164438Y31222914D01*
X21164438Y31108628D01*
X21202533Y31032438D01*
X21240628Y30994342D01*
X21316819Y30956247D01*
X21621580Y30956247D01*
X20859676Y31299104D02*
X20821580Y31337200D01*
X20745390Y31375295D01*
X20554914Y31375295D01*
X20478723Y31337200D01*
X20440628Y31299104D01*
X20402533Y31222914D01*
X20402533Y31146723D01*
X20440628Y31032438D01*
X20897771Y30575295D01*
X20402533Y30575295D01*
X19640628Y30575295D02*
X20097771Y30575295D01*
X19869200Y30575295D02*
X19869200Y31375295D01*
X19945390Y31261009D01*
X20021580Y31184819D01*
X20097771Y31146723D01*
X19335866Y31299104D02*
X19297771Y31337200D01*
X19221580Y31375295D01*
X19031104Y31375295D01*
X18954914Y31337200D01*
X18916819Y31299104D01*
X18878723Y31222914D01*
X18878723Y31146723D01*
X18916819Y31032438D01*
X19373961Y30575295D01*
X18878723Y30575295D01*
X7346838Y30524495D02*
X7613504Y30905447D01*
X7803980Y30524495D02*
X7803980Y31324495D01*
X7499219Y31324495D01*
X7423028Y31286400D01*
X7384933Y31248304D01*
X7346838Y31172114D01*
X7346838Y31057828D01*
X7384933Y30981638D01*
X7423028Y30943542D01*
X7499219Y30905447D01*
X7803980Y30905447D01*
X7042076Y31248304D02*
X7003980Y31286400D01*
X6927790Y31324495D01*
X6737314Y31324495D01*
X6661123Y31286400D01*
X6623028Y31248304D01*
X6584933Y31172114D01*
X6584933Y31095923D01*
X6623028Y30981638D01*
X7080171Y30524495D01*
X6584933Y30524495D01*
X6280171Y31248304D02*
X6242076Y31286400D01*
X6165885Y31324495D01*
X5975409Y31324495D01*
X5899219Y31286400D01*
X5861123Y31248304D01*
X5823028Y31172114D01*
X5823028Y31095923D01*
X5861123Y30981638D01*
X6318266Y30524495D01*
X5823028Y30524495D01*
X5137314Y31057828D02*
X5137314Y30524495D01*
X5327790Y31362590D02*
X5518266Y30791161D01*
X5023028Y30791161D01*
X8007238Y-11944304D02*
X8273904Y-11563352D01*
X8464380Y-11944304D02*
X8464380Y-11144304D01*
X8159619Y-11144304D01*
X8083428Y-11182400D01*
X8045333Y-11220495D01*
X8007238Y-11296685D01*
X8007238Y-11410971D01*
X8045333Y-11487161D01*
X8083428Y-11525257D01*
X8159619Y-11563352D01*
X8464380Y-11563352D01*
X7702476Y-11220495D02*
X7664380Y-11182400D01*
X7588190Y-11144304D01*
X7397714Y-11144304D01*
X7321523Y-11182400D01*
X7283428Y-11220495D01*
X7245333Y-11296685D01*
X7245333Y-11372876D01*
X7283428Y-11487161D01*
X7740571Y-11944304D01*
X7245333Y-11944304D01*
X6978666Y-11144304D02*
X6483428Y-11144304D01*
X6750095Y-11449066D01*
X6635809Y-11449066D01*
X6559619Y-11487161D01*
X6521523Y-11525257D01*
X6483428Y-11601447D01*
X6483428Y-11791923D01*
X6521523Y-11868114D01*
X6559619Y-11906209D01*
X6635809Y-11944304D01*
X6864380Y-11944304D01*
X6940571Y-11906209D01*
X6978666Y-11868114D01*
X5797714Y-11410971D02*
X5797714Y-11944304D01*
X5988190Y-11106209D02*
X6178666Y-11677638D01*
X5683428Y-11677638D01*
X62553904Y5854571D02*
X63125333Y5854571D01*
X63239619Y5892666D01*
X63315809Y5968857D01*
X63353904Y6083142D01*
X63353904Y6159333D01*
X63353904Y5054571D02*
X63353904Y5511714D01*
X63353904Y5283142D02*
X62553904Y5283142D01*
X62668190Y5359333D01*
X62744380Y5435523D01*
X62782476Y5511714D01*
X62553904Y4559333D02*
X62553904Y4483142D01*
X62592000Y4406952D01*
X62630095Y4368857D01*
X62706285Y4330761D01*
X62858666Y4292666D01*
X63049142Y4292666D01*
X63201523Y4330761D01*
X63277714Y4368857D01*
X63315809Y4406952D01*
X63353904Y4483142D01*
X63353904Y4559333D01*
X63315809Y4635523D01*
X63277714Y4673619D01*
X63201523Y4711714D01*
X63049142Y4749809D01*
X62858666Y4749809D01*
X62706285Y4711714D01*
X62630095Y4673619D01*
X62592000Y4635523D01*
X62553904Y4559333D01*
X62630095Y3987904D02*
X62592000Y3949809D01*
X62553904Y3873619D01*
X62553904Y3683142D01*
X62592000Y3606952D01*
X62630095Y3568857D01*
X62706285Y3530761D01*
X62782476Y3530761D01*
X62896761Y3568857D01*
X63353904Y4026000D01*
X63353904Y3530761D01*
X41636838Y-17633904D02*
X41903504Y-17252952D01*
X42093980Y-17633904D02*
X42093980Y-16833904D01*
X41789219Y-16833904D01*
X41713028Y-16872000D01*
X41674933Y-16910095D01*
X41636838Y-16986285D01*
X41636838Y-17100571D01*
X41674933Y-17176761D01*
X41713028Y-17214857D01*
X41789219Y-17252952D01*
X42093980Y-17252952D01*
X41332076Y-16910095D02*
X41293980Y-16872000D01*
X41217790Y-16833904D01*
X41027314Y-16833904D01*
X40951123Y-16872000D01*
X40913028Y-16910095D01*
X40874933Y-16986285D01*
X40874933Y-17062476D01*
X40913028Y-17176761D01*
X41370171Y-17633904D01*
X40874933Y-17633904D01*
X40608266Y-16833904D02*
X40113028Y-16833904D01*
X40379695Y-17138666D01*
X40265409Y-17138666D01*
X40189219Y-17176761D01*
X40151123Y-17214857D01*
X40113028Y-17291047D01*
X40113028Y-17481523D01*
X40151123Y-17557714D01*
X40189219Y-17595809D01*
X40265409Y-17633904D01*
X40493980Y-17633904D01*
X40570171Y-17595809D01*
X40608266Y-17557714D01*
X39389219Y-16833904D02*
X39770171Y-16833904D01*
X39808266Y-17214857D01*
X39770171Y-17176761D01*
X39693980Y-17138666D01*
X39503504Y-17138666D01*
X39427314Y-17176761D01*
X39389219Y-17214857D01*
X39351123Y-17291047D01*
X39351123Y-17481523D01*
X39389219Y-17557714D01*
X39427314Y-17595809D01*
X39503504Y-17633904D01*
X39693980Y-17633904D01*
X39770171Y-17595809D01*
X39808266Y-17557714D01*
X53778038Y-14738304D02*
X54044704Y-14357352D01*
X54235180Y-14738304D02*
X54235180Y-13938304D01*
X53930419Y-13938304D01*
X53854228Y-13976400D01*
X53816133Y-14014495D01*
X53778038Y-14090685D01*
X53778038Y-14204971D01*
X53816133Y-14281161D01*
X53854228Y-14319257D01*
X53930419Y-14357352D01*
X54235180Y-14357352D01*
X53473276Y-14014495D02*
X53435180Y-13976400D01*
X53358990Y-13938304D01*
X53168514Y-13938304D01*
X53092323Y-13976400D01*
X53054228Y-14014495D01*
X53016133Y-14090685D01*
X53016133Y-14166876D01*
X53054228Y-14281161D01*
X53511371Y-14738304D01*
X53016133Y-14738304D01*
X52711371Y-14014495D02*
X52673276Y-13976400D01*
X52597085Y-13938304D01*
X52406609Y-13938304D01*
X52330419Y-13976400D01*
X52292323Y-14014495D01*
X52254228Y-14090685D01*
X52254228Y-14166876D01*
X52292323Y-14281161D01*
X52749466Y-14738304D01*
X52254228Y-14738304D01*
X51873276Y-14738304D02*
X51720895Y-14738304D01*
X51644704Y-14700209D01*
X51606609Y-14662114D01*
X51530419Y-14547828D01*
X51492323Y-14395447D01*
X51492323Y-14090685D01*
X51530419Y-14014495D01*
X51568514Y-13976400D01*
X51644704Y-13938304D01*
X51797085Y-13938304D01*
X51873276Y-13976400D01*
X51911371Y-14014495D01*
X51949466Y-14090685D01*
X51949466Y-14281161D01*
X51911371Y-14357352D01*
X51873276Y-14395447D01*
X51797085Y-14433542D01*
X51644704Y-14433542D01*
X51568514Y-14395447D01*
X51530419Y-14357352D01*
X51492323Y-14281161D01*
X50069638Y-14738304D02*
X50336304Y-14357352D01*
X50526780Y-14738304D02*
X50526780Y-13938304D01*
X50222019Y-13938304D01*
X50145828Y-13976400D01*
X50107733Y-14014495D01*
X50069638Y-14090685D01*
X50069638Y-14204971D01*
X50107733Y-14281161D01*
X50145828Y-14319257D01*
X50222019Y-14357352D01*
X50526780Y-14357352D01*
X49764876Y-14014495D02*
X49726780Y-13976400D01*
X49650590Y-13938304D01*
X49460114Y-13938304D01*
X49383923Y-13976400D01*
X49345828Y-14014495D01*
X49307733Y-14090685D01*
X49307733Y-14166876D01*
X49345828Y-14281161D01*
X49802971Y-14738304D01*
X49307733Y-14738304D01*
X49041066Y-13938304D02*
X48545828Y-13938304D01*
X48812495Y-14243066D01*
X48698209Y-14243066D01*
X48622019Y-14281161D01*
X48583923Y-14319257D01*
X48545828Y-14395447D01*
X48545828Y-14585923D01*
X48583923Y-14662114D01*
X48622019Y-14700209D01*
X48698209Y-14738304D01*
X48926780Y-14738304D01*
X49002971Y-14700209D01*
X49041066Y-14662114D01*
X48241066Y-14014495D02*
X48202971Y-13976400D01*
X48126780Y-13938304D01*
X47936304Y-13938304D01*
X47860114Y-13976400D01*
X47822019Y-14014495D01*
X47783923Y-14090685D01*
X47783923Y-14166876D01*
X47822019Y-14281161D01*
X48279161Y-14738304D01*
X47783923Y-14738304D01*
X14509638Y29406895D02*
X14776304Y29787847D01*
X14966780Y29406895D02*
X14966780Y30206895D01*
X14662019Y30206895D01*
X14585828Y30168800D01*
X14547733Y30130704D01*
X14509638Y30054514D01*
X14509638Y29940228D01*
X14547733Y29864038D01*
X14585828Y29825942D01*
X14662019Y29787847D01*
X14966780Y29787847D01*
X14204876Y30130704D02*
X14166780Y30168800D01*
X14090590Y30206895D01*
X13900114Y30206895D01*
X13823923Y30168800D01*
X13785828Y30130704D01*
X13747733Y30054514D01*
X13747733Y29978323D01*
X13785828Y29864038D01*
X14242971Y29406895D01*
X13747733Y29406895D01*
X13252495Y30206895D02*
X13176304Y30206895D01*
X13100114Y30168800D01*
X13062019Y30130704D01*
X13023923Y30054514D01*
X12985828Y29902133D01*
X12985828Y29711657D01*
X13023923Y29559276D01*
X13062019Y29483085D01*
X13100114Y29444990D01*
X13176304Y29406895D01*
X13252495Y29406895D01*
X13328685Y29444990D01*
X13366780Y29483085D01*
X13404876Y29559276D01*
X13442971Y29711657D01*
X13442971Y29902133D01*
X13404876Y30054514D01*
X13366780Y30130704D01*
X13328685Y30168800D01*
X13252495Y30206895D01*
X12681066Y30130704D02*
X12642971Y30168800D01*
X12566780Y30206895D01*
X12376304Y30206895D01*
X12300114Y30168800D01*
X12262019Y30130704D01*
X12223923Y30054514D01*
X12223923Y29978323D01*
X12262019Y29864038D01*
X12719161Y29406895D01*
X12223923Y29406895D01*
X50272838Y11017295D02*
X50539504Y11398247D01*
X50729980Y11017295D02*
X50729980Y11817295D01*
X50425219Y11817295D01*
X50349028Y11779200D01*
X50310933Y11741104D01*
X50272838Y11664914D01*
X50272838Y11550628D01*
X50310933Y11474438D01*
X50349028Y11436342D01*
X50425219Y11398247D01*
X50729980Y11398247D01*
X49968076Y11741104D02*
X49929980Y11779200D01*
X49853790Y11817295D01*
X49663314Y11817295D01*
X49587123Y11779200D01*
X49549028Y11741104D01*
X49510933Y11664914D01*
X49510933Y11588723D01*
X49549028Y11474438D01*
X50006171Y11017295D01*
X49510933Y11017295D01*
X49015695Y11817295D02*
X48939504Y11817295D01*
X48863314Y11779200D01*
X48825219Y11741104D01*
X48787123Y11664914D01*
X48749028Y11512533D01*
X48749028Y11322057D01*
X48787123Y11169676D01*
X48825219Y11093485D01*
X48863314Y11055390D01*
X48939504Y11017295D01*
X49015695Y11017295D01*
X49091885Y11055390D01*
X49129980Y11093485D01*
X49168076Y11169676D01*
X49206171Y11322057D01*
X49206171Y11512533D01*
X49168076Y11664914D01*
X49129980Y11741104D01*
X49091885Y11779200D01*
X49015695Y11817295D01*
X47987123Y11017295D02*
X48444266Y11017295D01*
X48215695Y11017295D02*
X48215695Y11817295D01*
X48291885Y11703009D01*
X48368076Y11626819D01*
X48444266Y11588723D01*
X13639695Y-26752495D02*
X13715885Y-26714400D01*
X13792076Y-26638209D01*
X13906361Y-26523923D01*
X13982552Y-26485828D01*
X14058742Y-26485828D01*
X14020647Y-26676304D02*
X14096838Y-26638209D01*
X14173028Y-26562019D01*
X14211123Y-26409638D01*
X14211123Y-26142971D01*
X14173028Y-25990590D01*
X14096838Y-25914400D01*
X14020647Y-25876304D01*
X13868266Y-25876304D01*
X13792076Y-25914400D01*
X13715885Y-25990590D01*
X13677790Y-26142971D01*
X13677790Y-26409638D01*
X13715885Y-26562019D01*
X13792076Y-26638209D01*
X13868266Y-26676304D01*
X14020647Y-26676304D01*
X13373028Y-25952495D02*
X13334933Y-25914400D01*
X13258742Y-25876304D01*
X13068266Y-25876304D01*
X12992076Y-25914400D01*
X12953980Y-25952495D01*
X12915885Y-26028685D01*
X12915885Y-26104876D01*
X12953980Y-26219161D01*
X13411123Y-26676304D01*
X12915885Y-26676304D01*
X12611123Y-25952495D02*
X12573028Y-25914400D01*
X12496838Y-25876304D01*
X12306361Y-25876304D01*
X12230171Y-25914400D01*
X12192076Y-25952495D01*
X12153980Y-26028685D01*
X12153980Y-26104876D01*
X12192076Y-26219161D01*
X12649219Y-26676304D01*
X12153980Y-26676304D01*
X11430171Y-25876304D02*
X11811123Y-25876304D01*
X11849219Y-26257257D01*
X11811123Y-26219161D01*
X11734933Y-26181066D01*
X11544457Y-26181066D01*
X11468266Y-26219161D01*
X11430171Y-26257257D01*
X11392076Y-26333447D01*
X11392076Y-26523923D01*
X11430171Y-26600114D01*
X11468266Y-26638209D01*
X11544457Y-26676304D01*
X11734933Y-26676304D01*
X11811123Y-26638209D01*
X11849219Y-26600114D01*
X16135238Y1365295D02*
X16401904Y1746247D01*
X16592380Y1365295D02*
X16592380Y2165295D01*
X16287619Y2165295D01*
X16211428Y2127200D01*
X16173333Y2089104D01*
X16135238Y2012914D01*
X16135238Y1898628D01*
X16173333Y1822438D01*
X16211428Y1784342D01*
X16287619Y1746247D01*
X16592380Y1746247D01*
X15830476Y2089104D02*
X15792380Y2127200D01*
X15716190Y2165295D01*
X15525714Y2165295D01*
X15449523Y2127200D01*
X15411428Y2089104D01*
X15373333Y2012914D01*
X15373333Y1936723D01*
X15411428Y1822438D01*
X15868571Y1365295D01*
X15373333Y1365295D01*
X14878095Y2165295D02*
X14801904Y2165295D01*
X14725714Y2127200D01*
X14687619Y2089104D01*
X14649523Y2012914D01*
X14611428Y1860533D01*
X14611428Y1670057D01*
X14649523Y1517676D01*
X14687619Y1441485D01*
X14725714Y1403390D01*
X14801904Y1365295D01*
X14878095Y1365295D01*
X14954285Y1403390D01*
X14992380Y1441485D01*
X15030476Y1517676D01*
X15068571Y1670057D01*
X15068571Y1860533D01*
X15030476Y2012914D01*
X14992380Y2089104D01*
X14954285Y2127200D01*
X14878095Y2165295D01*
X14154285Y1822438D02*
X14230476Y1860533D01*
X14268571Y1898628D01*
X14306666Y1974819D01*
X14306666Y2012914D01*
X14268571Y2089104D01*
X14230476Y2127200D01*
X14154285Y2165295D01*
X14001904Y2165295D01*
X13925714Y2127200D01*
X13887619Y2089104D01*
X13849523Y2012914D01*
X13849523Y1974819D01*
X13887619Y1898628D01*
X13925714Y1860533D01*
X14001904Y1822438D01*
X14154285Y1822438D01*
X14230476Y1784342D01*
X14268571Y1746247D01*
X14306666Y1670057D01*
X14306666Y1517676D01*
X14268571Y1441485D01*
X14230476Y1403390D01*
X14154285Y1365295D01*
X14001904Y1365295D01*
X13925714Y1403390D01*
X13887619Y1441485D01*
X13849523Y1517676D01*
X13849523Y1670057D01*
X13887619Y1746247D01*
X13925714Y1784342D01*
X14001904Y1822438D01*
X20250095Y-7391504D02*
X20212000Y-7315314D01*
X20135809Y-7239123D01*
X20021523Y-7124838D01*
X19983428Y-7048647D01*
X19983428Y-6972457D01*
X20173904Y-7010552D02*
X20135809Y-6934361D01*
X20059619Y-6858171D01*
X19907238Y-6820076D01*
X19640571Y-6820076D01*
X19488190Y-6858171D01*
X19412000Y-6934361D01*
X19373904Y-7010552D01*
X19373904Y-7162933D01*
X19412000Y-7239123D01*
X19488190Y-7315314D01*
X19640571Y-7353409D01*
X19907238Y-7353409D01*
X20059619Y-7315314D01*
X20135809Y-7239123D01*
X20173904Y-7162933D01*
X20173904Y-7010552D01*
X19450095Y-7658171D02*
X19412000Y-7696266D01*
X19373904Y-7772457D01*
X19373904Y-7962933D01*
X19412000Y-8039123D01*
X19450095Y-8077219D01*
X19526285Y-8115314D01*
X19602476Y-8115314D01*
X19716761Y-8077219D01*
X20173904Y-7620076D01*
X20173904Y-8115314D01*
X19450095Y-8420076D02*
X19412000Y-8458171D01*
X19373904Y-8534361D01*
X19373904Y-8724838D01*
X19412000Y-8801028D01*
X19450095Y-8839123D01*
X19526285Y-8877219D01*
X19602476Y-8877219D01*
X19716761Y-8839123D01*
X20173904Y-8381980D01*
X20173904Y-8877219D01*
X20173904Y-9639123D02*
X20173904Y-9181980D01*
X20173904Y-9410552D02*
X19373904Y-9410552D01*
X19488190Y-9334361D01*
X19564380Y-9258171D01*
X19602476Y-9181980D01*
X21113638Y29406895D02*
X21380304Y29787847D01*
X21570780Y29406895D02*
X21570780Y30206895D01*
X21266019Y30206895D01*
X21189828Y30168800D01*
X21151733Y30130704D01*
X21113638Y30054514D01*
X21113638Y29940228D01*
X21151733Y29864038D01*
X21189828Y29825942D01*
X21266019Y29787847D01*
X21570780Y29787847D01*
X20808876Y30130704D02*
X20770780Y30168800D01*
X20694590Y30206895D01*
X20504114Y30206895D01*
X20427923Y30168800D01*
X20389828Y30130704D01*
X20351733Y30054514D01*
X20351733Y29978323D01*
X20389828Y29864038D01*
X20846971Y29406895D01*
X20351733Y29406895D01*
X19589828Y29406895D02*
X20046971Y29406895D01*
X19818400Y29406895D02*
X19818400Y30206895D01*
X19894590Y30092609D01*
X19970780Y30016419D01*
X20046971Y29978323D01*
X18827923Y29406895D02*
X19285066Y29406895D01*
X19056495Y29406895D02*
X19056495Y30206895D01*
X19132685Y30092609D01*
X19208876Y30016419D01*
X19285066Y29978323D01*
X33559714Y26854038D02*
X33597809Y26892133D01*
X33635904Y27006419D01*
X33635904Y27082609D01*
X33597809Y27196895D01*
X33521619Y27273085D01*
X33445428Y27311180D01*
X33293047Y27349276D01*
X33178761Y27349276D01*
X33026380Y27311180D01*
X32950190Y27273085D01*
X32874000Y27196895D01*
X32835904Y27082609D01*
X32835904Y27006419D01*
X32874000Y26892133D01*
X32912095Y26854038D01*
X33635904Y26092133D02*
X33635904Y26549276D01*
X33635904Y26320704D02*
X32835904Y26320704D01*
X32950190Y26396895D01*
X33026380Y26473085D01*
X33064476Y26549276D01*
X32835904Y25596895D02*
X32835904Y25520704D01*
X32874000Y25444514D01*
X32912095Y25406419D01*
X32988285Y25368323D01*
X33140666Y25330228D01*
X33331142Y25330228D01*
X33483523Y25368323D01*
X33559714Y25406419D01*
X33597809Y25444514D01*
X33635904Y25520704D01*
X33635904Y25596895D01*
X33597809Y25673085D01*
X33559714Y25711180D01*
X33483523Y25749276D01*
X33331142Y25787371D01*
X33140666Y25787371D01*
X32988285Y25749276D01*
X32912095Y25711180D01*
X32874000Y25673085D01*
X32835904Y25596895D01*
X32912095Y25025466D02*
X32874000Y24987371D01*
X32835904Y24911180D01*
X32835904Y24720704D01*
X32874000Y24644514D01*
X32912095Y24606419D01*
X32988285Y24568323D01*
X33064476Y24568323D01*
X33178761Y24606419D01*
X33635904Y25063561D01*
X33635904Y24568323D01*
X54997238Y831885D02*
X55035333Y793790D01*
X55149619Y755695D01*
X55225809Y755695D01*
X55340095Y793790D01*
X55416285Y869980D01*
X55454380Y946171D01*
X55492476Y1098552D01*
X55492476Y1212838D01*
X55454380Y1365219D01*
X55416285Y1441409D01*
X55340095Y1517600D01*
X55225809Y1555695D01*
X55149619Y1555695D01*
X55035333Y1517600D01*
X54997238Y1479504D01*
X54692476Y1479504D02*
X54654380Y1517600D01*
X54578190Y1555695D01*
X54387714Y1555695D01*
X54311523Y1517600D01*
X54273428Y1479504D01*
X54235333Y1403314D01*
X54235333Y1327123D01*
X54273428Y1212838D01*
X54730571Y755695D01*
X54235333Y755695D01*
X53473428Y755695D02*
X53930571Y755695D01*
X53702000Y755695D02*
X53702000Y1555695D01*
X53778190Y1441409D01*
X53854380Y1365219D01*
X53930571Y1327123D01*
X53168666Y1479504D02*
X53130571Y1517600D01*
X53054380Y1555695D01*
X52863904Y1555695D01*
X52787714Y1517600D01*
X52749619Y1479504D01*
X52711523Y1403314D01*
X52711523Y1327123D01*
X52749619Y1212838D01*
X53206761Y755695D01*
X52711523Y755695D01*
X43516495Y-7239104D02*
X43478400Y-7162914D01*
X43402209Y-7086723D01*
X43287923Y-6972438D01*
X43249828Y-6896247D01*
X43249828Y-6820057D01*
X43440304Y-6858152D02*
X43402209Y-6781961D01*
X43326019Y-6705771D01*
X43173638Y-6667676D01*
X42906971Y-6667676D01*
X42754590Y-6705771D01*
X42678400Y-6781961D01*
X42640304Y-6858152D01*
X42640304Y-7010533D01*
X42678400Y-7086723D01*
X42754590Y-7162914D01*
X42906971Y-7201009D01*
X43173638Y-7201009D01*
X43326019Y-7162914D01*
X43402209Y-7086723D01*
X43440304Y-7010533D01*
X43440304Y-6858152D01*
X42716495Y-7505771D02*
X42678400Y-7543866D01*
X42640304Y-7620057D01*
X42640304Y-7810533D01*
X42678400Y-7886723D01*
X42716495Y-7924819D01*
X42792685Y-7962914D01*
X42868876Y-7962914D01*
X42983161Y-7924819D01*
X43440304Y-7467676D01*
X43440304Y-7962914D01*
X42716495Y-8267676D02*
X42678400Y-8305771D01*
X42640304Y-8381961D01*
X42640304Y-8572438D01*
X42678400Y-8648628D01*
X42716495Y-8686723D01*
X42792685Y-8724819D01*
X42868876Y-8724819D01*
X42983161Y-8686723D01*
X43440304Y-8229580D01*
X43440304Y-8724819D01*
X42640304Y-9410533D02*
X42640304Y-9258152D01*
X42678400Y-9181961D01*
X42716495Y-9143866D01*
X42830780Y-9067676D01*
X42983161Y-9029580D01*
X43287923Y-9029580D01*
X43364114Y-9067676D01*
X43402209Y-9105771D01*
X43440304Y-9181961D01*
X43440304Y-9334342D01*
X43402209Y-9410533D01*
X43364114Y-9448628D01*
X43287923Y-9486723D01*
X43097447Y-9486723D01*
X43021257Y-9448628D01*
X42983161Y-9410533D01*
X42945066Y-9334342D01*
X42945066Y-9181961D01*
X42983161Y-9105771D01*
X43021257Y-9067676D01*
X43097447Y-9029580D01*
X4298895Y24460095D02*
X4260800Y24536285D01*
X4184609Y24612476D01*
X4070323Y24726761D01*
X4032228Y24802952D01*
X4032228Y24879142D01*
X4222704Y24841047D02*
X4184609Y24917238D01*
X4108419Y24993428D01*
X3956038Y25031523D01*
X3689371Y25031523D01*
X3536990Y24993428D01*
X3460800Y24917238D01*
X3422704Y24841047D01*
X3422704Y24688666D01*
X3460800Y24612476D01*
X3536990Y24536285D01*
X3689371Y24498190D01*
X3956038Y24498190D01*
X4108419Y24536285D01*
X4184609Y24612476D01*
X4222704Y24688666D01*
X4222704Y24841047D01*
X3498895Y24193428D02*
X3460800Y24155333D01*
X3422704Y24079142D01*
X3422704Y23888666D01*
X3460800Y23812476D01*
X3498895Y23774380D01*
X3575085Y23736285D01*
X3651276Y23736285D01*
X3765561Y23774380D01*
X4222704Y24231523D01*
X4222704Y23736285D01*
X4222704Y22974380D02*
X4222704Y23431523D01*
X4222704Y23202952D02*
X3422704Y23202952D01*
X3536990Y23279142D01*
X3613180Y23355333D01*
X3651276Y23431523D01*
X3422704Y22288666D02*
X3422704Y22441047D01*
X3460800Y22517238D01*
X3498895Y22555333D01*
X3613180Y22631523D01*
X3765561Y22669619D01*
X4070323Y22669619D01*
X4146514Y22631523D01*
X4184609Y22593428D01*
X4222704Y22517238D01*
X4222704Y22364857D01*
X4184609Y22288666D01*
X4146514Y22250571D01*
X4070323Y22212476D01*
X3879847Y22212476D01*
X3803657Y22250571D01*
X3765561Y22288666D01*
X3727466Y22364857D01*
X3727466Y22517238D01*
X3765561Y22593428D01*
X3803657Y22631523D01*
X3879847Y22669619D01*
X18770495Y5149904D02*
X18846685Y5188000D01*
X18922876Y5264190D01*
X19037161Y5378476D01*
X19113352Y5416571D01*
X19189542Y5416571D01*
X19151447Y5226095D02*
X19227638Y5264190D01*
X19303828Y5340380D01*
X19341923Y5492761D01*
X19341923Y5759428D01*
X19303828Y5911809D01*
X19227638Y5988000D01*
X19151447Y6026095D01*
X18999066Y6026095D01*
X18922876Y5988000D01*
X18846685Y5911809D01*
X18808590Y5759428D01*
X18808590Y5492761D01*
X18846685Y5340380D01*
X18922876Y5264190D01*
X18999066Y5226095D01*
X19151447Y5226095D01*
X18503828Y5949904D02*
X18465733Y5988000D01*
X18389542Y6026095D01*
X18199066Y6026095D01*
X18122876Y5988000D01*
X18084780Y5949904D01*
X18046685Y5873714D01*
X18046685Y5797523D01*
X18084780Y5683238D01*
X18541923Y5226095D01*
X18046685Y5226095D01*
X17284780Y5226095D02*
X17741923Y5226095D01*
X17513352Y5226095D02*
X17513352Y6026095D01*
X17589542Y5911809D01*
X17665733Y5835619D01*
X17741923Y5797523D01*
X16789542Y6026095D02*
X16713352Y6026095D01*
X16637161Y5988000D01*
X16599066Y5949904D01*
X16560971Y5873714D01*
X16522876Y5721333D01*
X16522876Y5530857D01*
X16560971Y5378476D01*
X16599066Y5302285D01*
X16637161Y5264190D01*
X16713352Y5226095D01*
X16789542Y5226095D01*
X16865733Y5264190D01*
X16903828Y5302285D01*
X16941923Y5378476D01*
X16980019Y5530857D01*
X16980019Y5721333D01*
X16941923Y5873714D01*
X16903828Y5949904D01*
X16865733Y5988000D01*
X16789542Y6026095D01*
X55860895Y-7137504D02*
X55822800Y-7061314D01*
X55746609Y-6985123D01*
X55632323Y-6870838D01*
X55594228Y-6794647D01*
X55594228Y-6718457D01*
X55784704Y-6756552D02*
X55746609Y-6680361D01*
X55670419Y-6604171D01*
X55518038Y-6566076D01*
X55251371Y-6566076D01*
X55098990Y-6604171D01*
X55022800Y-6680361D01*
X54984704Y-6756552D01*
X54984704Y-6908933D01*
X55022800Y-6985123D01*
X55098990Y-7061314D01*
X55251371Y-7099409D01*
X55518038Y-7099409D01*
X55670419Y-7061314D01*
X55746609Y-6985123D01*
X55784704Y-6908933D01*
X55784704Y-6756552D01*
X55060895Y-7404171D02*
X55022800Y-7442266D01*
X54984704Y-7518457D01*
X54984704Y-7708933D01*
X55022800Y-7785123D01*
X55060895Y-7823219D01*
X55137085Y-7861314D01*
X55213276Y-7861314D01*
X55327561Y-7823219D01*
X55784704Y-7366076D01*
X55784704Y-7861314D01*
X55060895Y-8166076D02*
X55022800Y-8204171D01*
X54984704Y-8280361D01*
X54984704Y-8470838D01*
X55022800Y-8547028D01*
X55060895Y-8585123D01*
X55137085Y-8623219D01*
X55213276Y-8623219D01*
X55327561Y-8585123D01*
X55784704Y-8127980D01*
X55784704Y-8623219D01*
X54984704Y-9118457D02*
X54984704Y-9194647D01*
X55022800Y-9270838D01*
X55060895Y-9308933D01*
X55137085Y-9347028D01*
X55289466Y-9385123D01*
X55479942Y-9385123D01*
X55632323Y-9347028D01*
X55708514Y-9308933D01*
X55746609Y-9270838D01*
X55784704Y-9194647D01*
X55784704Y-9118457D01*
X55746609Y-9042266D01*
X55708514Y-9004171D01*
X55632323Y-8966076D01*
X55479942Y-8927980D01*
X55289466Y-8927980D01*
X55137085Y-8966076D01*
X55060895Y-9004171D01*
X55022800Y-9042266D01*
X54984704Y-9118457D01*
X57740438Y11017295D02*
X58007104Y11398247D01*
X58197580Y11017295D02*
X58197580Y11817295D01*
X57892819Y11817295D01*
X57816628Y11779200D01*
X57778533Y11741104D01*
X57740438Y11664914D01*
X57740438Y11550628D01*
X57778533Y11474438D01*
X57816628Y11436342D01*
X57892819Y11398247D01*
X58197580Y11398247D01*
X57435676Y11741104D02*
X57397580Y11779200D01*
X57321390Y11817295D01*
X57130914Y11817295D01*
X57054723Y11779200D01*
X57016628Y11741104D01*
X56978533Y11664914D01*
X56978533Y11588723D01*
X57016628Y11474438D01*
X57473771Y11017295D01*
X56978533Y11017295D01*
X56216628Y11017295D02*
X56673771Y11017295D01*
X56445200Y11017295D02*
X56445200Y11817295D01*
X56521390Y11703009D01*
X56597580Y11626819D01*
X56673771Y11588723D01*
X55530914Y11817295D02*
X55683295Y11817295D01*
X55759485Y11779200D01*
X55797580Y11741104D01*
X55873771Y11626819D01*
X55911866Y11474438D01*
X55911866Y11169676D01*
X55873771Y11093485D01*
X55835676Y11055390D01*
X55759485Y11017295D01*
X55607104Y11017295D01*
X55530914Y11055390D01*
X55492819Y11093485D01*
X55454723Y11169676D01*
X55454723Y11360152D01*
X55492819Y11436342D01*
X55530914Y11474438D01*
X55607104Y11512533D01*
X55759485Y11512533D01*
X55835676Y11474438D01*
X55873771Y11436342D01*
X55911866Y11360152D01*
X46310438Y9874285D02*
X46348533Y9836190D01*
X46462819Y9798095D01*
X46539009Y9798095D01*
X46653295Y9836190D01*
X46729485Y9912380D01*
X46767580Y9988571D01*
X46805676Y10140952D01*
X46805676Y10255238D01*
X46767580Y10407619D01*
X46729485Y10483809D01*
X46653295Y10560000D01*
X46539009Y10598095D01*
X46462819Y10598095D01*
X46348533Y10560000D01*
X46310438Y10521904D01*
X46005676Y10521904D02*
X45967580Y10560000D01*
X45891390Y10598095D01*
X45700914Y10598095D01*
X45624723Y10560000D01*
X45586628Y10521904D01*
X45548533Y10445714D01*
X45548533Y10369523D01*
X45586628Y10255238D01*
X46043771Y9798095D01*
X45548533Y9798095D01*
X45053295Y10598095D02*
X44977104Y10598095D01*
X44900914Y10560000D01*
X44862819Y10521904D01*
X44824723Y10445714D01*
X44786628Y10293333D01*
X44786628Y10102857D01*
X44824723Y9950476D01*
X44862819Y9874285D01*
X44900914Y9836190D01*
X44977104Y9798095D01*
X45053295Y9798095D01*
X45129485Y9836190D01*
X45167580Y9874285D01*
X45205676Y9950476D01*
X45243771Y10102857D01*
X45243771Y10293333D01*
X45205676Y10445714D01*
X45167580Y10521904D01*
X45129485Y10560000D01*
X45053295Y10598095D01*
X44405676Y9798095D02*
X44253295Y9798095D01*
X44177104Y9836190D01*
X44139009Y9874285D01*
X44062819Y9988571D01*
X44024723Y10140952D01*
X44024723Y10445714D01*
X44062819Y10521904D01*
X44100914Y10560000D01*
X44177104Y10598095D01*
X44329485Y10598095D01*
X44405676Y10560000D01*
X44443771Y10521904D01*
X44481866Y10445714D01*
X44481866Y10255238D01*
X44443771Y10179047D01*
X44405676Y10140952D01*
X44329485Y10102857D01*
X44177104Y10102857D01*
X44100914Y10140952D01*
X44062819Y10179047D01*
X44024723Y10255238D01*
X50222038Y19907295D02*
X50488704Y20288247D01*
X50679180Y19907295D02*
X50679180Y20707295D01*
X50374419Y20707295D01*
X50298228Y20669200D01*
X50260133Y20631104D01*
X50222038Y20554914D01*
X50222038Y20440628D01*
X50260133Y20364438D01*
X50298228Y20326342D01*
X50374419Y20288247D01*
X50679180Y20288247D01*
X49917276Y20631104D02*
X49879180Y20669200D01*
X49802990Y20707295D01*
X49612514Y20707295D01*
X49536323Y20669200D01*
X49498228Y20631104D01*
X49460133Y20554914D01*
X49460133Y20478723D01*
X49498228Y20364438D01*
X49955371Y19907295D01*
X49460133Y19907295D01*
X48698228Y19907295D02*
X49155371Y19907295D01*
X48926800Y19907295D02*
X48926800Y20707295D01*
X49002990Y20593009D01*
X49079180Y20516819D01*
X49155371Y20478723D01*
X48431561Y20707295D02*
X47936323Y20707295D01*
X48202990Y20402533D01*
X48088704Y20402533D01*
X48012514Y20364438D01*
X47974419Y20326342D01*
X47936323Y20250152D01*
X47936323Y20059676D01*
X47974419Y19983485D01*
X48012514Y19945390D01*
X48088704Y19907295D01*
X48317276Y19907295D01*
X48393466Y19945390D01*
X48431561Y19983485D01*
X46195238Y-13519104D02*
X46461904Y-13138152D01*
X46652380Y-13519104D02*
X46652380Y-12719104D01*
X46347619Y-12719104D01*
X46271428Y-12757200D01*
X46233333Y-12795295D01*
X46195238Y-12871485D01*
X46195238Y-12985771D01*
X46233333Y-13061961D01*
X46271428Y-13100057D01*
X46347619Y-13138152D01*
X46652380Y-13138152D01*
X45890476Y-12795295D02*
X45852380Y-12757200D01*
X45776190Y-12719104D01*
X45585714Y-12719104D01*
X45509523Y-12757200D01*
X45471428Y-12795295D01*
X45433333Y-12871485D01*
X45433333Y-12947676D01*
X45471428Y-13061961D01*
X45928571Y-13519104D01*
X45433333Y-13519104D01*
X45166666Y-12719104D02*
X44671428Y-12719104D01*
X44938095Y-13023866D01*
X44823809Y-13023866D01*
X44747619Y-13061961D01*
X44709523Y-13100057D01*
X44671428Y-13176247D01*
X44671428Y-13366723D01*
X44709523Y-13442914D01*
X44747619Y-13481009D01*
X44823809Y-13519104D01*
X45052380Y-13519104D01*
X45128571Y-13481009D01*
X45166666Y-13442914D01*
X44290476Y-13519104D02*
X44138095Y-13519104D01*
X44061904Y-13481009D01*
X44023809Y-13442914D01*
X43947619Y-13328628D01*
X43909523Y-13176247D01*
X43909523Y-12871485D01*
X43947619Y-12795295D01*
X43985714Y-12757200D01*
X44061904Y-12719104D01*
X44214285Y-12719104D01*
X44290476Y-12757200D01*
X44328571Y-12795295D01*
X44366666Y-12871485D01*
X44366666Y-13061961D01*
X44328571Y-13138152D01*
X44290476Y-13176247D01*
X44214285Y-13214342D01*
X44061904Y-13214342D01*
X43985714Y-13176247D01*
X43947619Y-13138152D01*
X43909523Y-13061961D01*
X44481695Y8712095D02*
X44443600Y8788285D01*
X44367409Y8864476D01*
X44253123Y8978761D01*
X44215028Y9054952D01*
X44215028Y9131142D01*
X44405504Y9093047D02*
X44367409Y9169238D01*
X44291219Y9245428D01*
X44138838Y9283523D01*
X43872171Y9283523D01*
X43719790Y9245428D01*
X43643600Y9169238D01*
X43605504Y9093047D01*
X43605504Y8940666D01*
X43643600Y8864476D01*
X43719790Y8788285D01*
X43872171Y8750190D01*
X44138838Y8750190D01*
X44291219Y8788285D01*
X44367409Y8864476D01*
X44405504Y8940666D01*
X44405504Y9093047D01*
X43681695Y8445428D02*
X43643600Y8407333D01*
X43605504Y8331142D01*
X43605504Y8140666D01*
X43643600Y8064476D01*
X43681695Y8026380D01*
X43757885Y7988285D01*
X43834076Y7988285D01*
X43948361Y8026380D01*
X44405504Y8483523D01*
X44405504Y7988285D01*
X43605504Y7493047D02*
X43605504Y7416857D01*
X43643600Y7340666D01*
X43681695Y7302571D01*
X43757885Y7264476D01*
X43910266Y7226380D01*
X44100742Y7226380D01*
X44253123Y7264476D01*
X44329314Y7302571D01*
X44367409Y7340666D01*
X44405504Y7416857D01*
X44405504Y7493047D01*
X44367409Y7569238D01*
X44329314Y7607333D01*
X44253123Y7645428D01*
X44100742Y7683523D01*
X43910266Y7683523D01*
X43757885Y7645428D01*
X43681695Y7607333D01*
X43643600Y7569238D01*
X43605504Y7493047D01*
X43605504Y6959714D02*
X43605504Y6464476D01*
X43910266Y6731142D01*
X43910266Y6616857D01*
X43948361Y6540666D01*
X43986457Y6502571D01*
X44062647Y6464476D01*
X44253123Y6464476D01*
X44329314Y6502571D01*
X44367409Y6540666D01*
X44405504Y6616857D01*
X44405504Y6845428D01*
X44367409Y6921619D01*
X44329314Y6959714D01*
X50018838Y-13569904D02*
X50285504Y-13188952D01*
X50475980Y-13569904D02*
X50475980Y-12769904D01*
X50171219Y-12769904D01*
X50095028Y-12808000D01*
X50056933Y-12846095D01*
X50018838Y-12922285D01*
X50018838Y-13036571D01*
X50056933Y-13112761D01*
X50095028Y-13150857D01*
X50171219Y-13188952D01*
X50475980Y-13188952D01*
X49714076Y-12846095D02*
X49675980Y-12808000D01*
X49599790Y-12769904D01*
X49409314Y-12769904D01*
X49333123Y-12808000D01*
X49295028Y-12846095D01*
X49256933Y-12922285D01*
X49256933Y-12998476D01*
X49295028Y-13112761D01*
X49752171Y-13569904D01*
X49256933Y-13569904D01*
X48990266Y-12769904D02*
X48495028Y-12769904D01*
X48761695Y-13074666D01*
X48647409Y-13074666D01*
X48571219Y-13112761D01*
X48533123Y-13150857D01*
X48495028Y-13227047D01*
X48495028Y-13417523D01*
X48533123Y-13493714D01*
X48571219Y-13531809D01*
X48647409Y-13569904D01*
X48875980Y-13569904D01*
X48952171Y-13531809D01*
X48990266Y-13493714D01*
X48228361Y-12769904D02*
X47733123Y-12769904D01*
X47999790Y-13074666D01*
X47885504Y-13074666D01*
X47809314Y-13112761D01*
X47771219Y-13150857D01*
X47733123Y-13227047D01*
X47733123Y-13417523D01*
X47771219Y-13493714D01*
X47809314Y-13531809D01*
X47885504Y-13569904D01*
X48114076Y-13569904D01*
X48190266Y-13531809D01*
X48228361Y-13493714D01*
X19386438Y1365295D02*
X19653104Y1746247D01*
X19843580Y1365295D02*
X19843580Y2165295D01*
X19538819Y2165295D01*
X19462628Y2127200D01*
X19424533Y2089104D01*
X19386438Y2012914D01*
X19386438Y1898628D01*
X19424533Y1822438D01*
X19462628Y1784342D01*
X19538819Y1746247D01*
X19843580Y1746247D01*
X19081676Y2089104D02*
X19043580Y2127200D01*
X18967390Y2165295D01*
X18776914Y2165295D01*
X18700723Y2127200D01*
X18662628Y2089104D01*
X18624533Y2012914D01*
X18624533Y1936723D01*
X18662628Y1822438D01*
X19119771Y1365295D01*
X18624533Y1365295D01*
X17862628Y1365295D02*
X18319771Y1365295D01*
X18091200Y1365295D02*
X18091200Y2165295D01*
X18167390Y2051009D01*
X18243580Y1974819D01*
X18319771Y1936723D01*
X17176914Y1898628D02*
X17176914Y1365295D01*
X17367390Y2203390D02*
X17557866Y1631961D01*
X17062628Y1631961D01*
X17913238Y30575295D02*
X18179904Y30956247D01*
X18370380Y30575295D02*
X18370380Y31375295D01*
X18065619Y31375295D01*
X17989428Y31337200D01*
X17951333Y31299104D01*
X17913238Y31222914D01*
X17913238Y31108628D01*
X17951333Y31032438D01*
X17989428Y30994342D01*
X18065619Y30956247D01*
X18370380Y30956247D01*
X17608476Y31299104D02*
X17570380Y31337200D01*
X17494190Y31375295D01*
X17303714Y31375295D01*
X17227523Y31337200D01*
X17189428Y31299104D01*
X17151333Y31222914D01*
X17151333Y31146723D01*
X17189428Y31032438D01*
X17646571Y30575295D01*
X17151333Y30575295D01*
X16389428Y30575295D02*
X16846571Y30575295D01*
X16618000Y30575295D02*
X16618000Y31375295D01*
X16694190Y31261009D01*
X16770380Y31184819D01*
X16846571Y31146723D01*
X15932285Y31032438D02*
X16008476Y31070533D01*
X16046571Y31108628D01*
X16084666Y31184819D01*
X16084666Y31222914D01*
X16046571Y31299104D01*
X16008476Y31337200D01*
X15932285Y31375295D01*
X15779904Y31375295D01*
X15703714Y31337200D01*
X15665619Y31299104D01*
X15627523Y31222914D01*
X15627523Y31184819D01*
X15665619Y31108628D01*
X15703714Y31070533D01*
X15779904Y31032438D01*
X15932285Y31032438D01*
X16008476Y30994342D01*
X16046571Y30956247D01*
X16084666Y30880057D01*
X16084666Y30727676D01*
X16046571Y30651485D01*
X16008476Y30613390D01*
X15932285Y30575295D01*
X15779904Y30575295D01*
X15703714Y30613390D01*
X15665619Y30651485D01*
X15627523Y30727676D01*
X15627523Y30880057D01*
X15665619Y30956247D01*
X15703714Y30994342D01*
X15779904Y31032438D01*
X52914438Y-17684704D02*
X53181104Y-17303752D01*
X53371580Y-17684704D02*
X53371580Y-16884704D01*
X53066819Y-16884704D01*
X52990628Y-16922800D01*
X52952533Y-16960895D01*
X52914438Y-17037085D01*
X52914438Y-17151371D01*
X52952533Y-17227561D01*
X52990628Y-17265657D01*
X53066819Y-17303752D01*
X53371580Y-17303752D01*
X52609676Y-16960895D02*
X52571580Y-16922800D01*
X52495390Y-16884704D01*
X52304914Y-16884704D01*
X52228723Y-16922800D01*
X52190628Y-16960895D01*
X52152533Y-17037085D01*
X52152533Y-17113276D01*
X52190628Y-17227561D01*
X52647771Y-17684704D01*
X52152533Y-17684704D01*
X51466819Y-17151371D02*
X51466819Y-17684704D01*
X51657295Y-16846609D02*
X51847771Y-17418038D01*
X51352533Y-17418038D01*
X50704914Y-17151371D02*
X50704914Y-17684704D01*
X50895390Y-16846609D02*
X51085866Y-17418038D01*
X50590628Y-17418038D01*
X577904Y-25895428D02*
X1149333Y-25895428D01*
X1263619Y-25857333D01*
X1339809Y-25781142D01*
X1377904Y-25666857D01*
X1377904Y-25590666D01*
X1377904Y-26695428D02*
X1377904Y-26238285D01*
X1377904Y-26466857D02*
X577904Y-26466857D01*
X692190Y-26390666D01*
X768380Y-26314476D01*
X806476Y-26238285D01*
X577904Y-27190666D02*
X577904Y-27266857D01*
X616000Y-27343047D01*
X654095Y-27381142D01*
X730285Y-27419238D01*
X882666Y-27457333D01*
X1073142Y-27457333D01*
X1225523Y-27419238D01*
X1301714Y-27381142D01*
X1339809Y-27343047D01*
X1377904Y-27266857D01*
X1377904Y-27190666D01*
X1339809Y-27114476D01*
X1301714Y-27076380D01*
X1225523Y-27038285D01*
X1073142Y-27000190D01*
X882666Y-27000190D01*
X730285Y-27038285D01*
X654095Y-27076380D01*
X616000Y-27114476D01*
X577904Y-27190666D01*
X844571Y-28143047D02*
X1377904Y-28143047D01*
X539809Y-27952571D02*
X1111238Y-27762095D01*
X1111238Y-28257333D01*
X52863638Y-18853104D02*
X53130304Y-18472152D01*
X53320780Y-18853104D02*
X53320780Y-18053104D01*
X53016019Y-18053104D01*
X52939828Y-18091200D01*
X52901733Y-18129295D01*
X52863638Y-18205485D01*
X52863638Y-18319771D01*
X52901733Y-18395961D01*
X52939828Y-18434057D01*
X53016019Y-18472152D01*
X53320780Y-18472152D01*
X52558876Y-18129295D02*
X52520780Y-18091200D01*
X52444590Y-18053104D01*
X52254114Y-18053104D01*
X52177923Y-18091200D01*
X52139828Y-18129295D01*
X52101733Y-18205485D01*
X52101733Y-18281676D01*
X52139828Y-18395961D01*
X52596971Y-18853104D01*
X52101733Y-18853104D01*
X51416019Y-18319771D02*
X51416019Y-18853104D01*
X51606495Y-18015009D02*
X51796971Y-18586438D01*
X51301733Y-18586438D01*
X50616019Y-18053104D02*
X50996971Y-18053104D01*
X51035066Y-18434057D01*
X50996971Y-18395961D01*
X50920780Y-18357866D01*
X50730304Y-18357866D01*
X50654114Y-18395961D01*
X50616019Y-18434057D01*
X50577923Y-18510247D01*
X50577923Y-18700723D01*
X50616019Y-18776914D01*
X50654114Y-18815009D01*
X50730304Y-18853104D01*
X50920780Y-18853104D01*
X50996971Y-18815009D01*
X51035066Y-18776914D01*
X27006438Y-11893504D02*
X27273104Y-11512552D01*
X27463580Y-11893504D02*
X27463580Y-11093504D01*
X27158819Y-11093504D01*
X27082628Y-11131600D01*
X27044533Y-11169695D01*
X27006438Y-11245885D01*
X27006438Y-11360171D01*
X27044533Y-11436361D01*
X27082628Y-11474457D01*
X27158819Y-11512552D01*
X27463580Y-11512552D01*
X26701676Y-11169695D02*
X26663580Y-11131600D01*
X26587390Y-11093504D01*
X26396914Y-11093504D01*
X26320723Y-11131600D01*
X26282628Y-11169695D01*
X26244533Y-11245885D01*
X26244533Y-11322076D01*
X26282628Y-11436361D01*
X26739771Y-11893504D01*
X26244533Y-11893504D01*
X25558819Y-11360171D02*
X25558819Y-11893504D01*
X25749295Y-11055409D02*
X25939771Y-11626838D01*
X25444533Y-11626838D01*
X24987390Y-11093504D02*
X24911200Y-11093504D01*
X24835009Y-11131600D01*
X24796914Y-11169695D01*
X24758819Y-11245885D01*
X24720723Y-11398266D01*
X24720723Y-11588742D01*
X24758819Y-11741123D01*
X24796914Y-11817314D01*
X24835009Y-11855409D01*
X24911200Y-11893504D01*
X24987390Y-11893504D01*
X25063580Y-11855409D01*
X25101676Y-11817314D01*
X25139771Y-11741123D01*
X25177866Y-11588742D01*
X25177866Y-11398266D01*
X25139771Y-11245885D01*
X25101676Y-11169695D01*
X25063580Y-11131600D01*
X24987390Y-11093504D01*
X17456095Y-7391504D02*
X17418000Y-7315314D01*
X17341809Y-7239123D01*
X17227523Y-7124838D01*
X17189428Y-7048647D01*
X17189428Y-6972457D01*
X17379904Y-7010552D02*
X17341809Y-6934361D01*
X17265619Y-6858171D01*
X17113238Y-6820076D01*
X16846571Y-6820076D01*
X16694190Y-6858171D01*
X16618000Y-6934361D01*
X16579904Y-7010552D01*
X16579904Y-7162933D01*
X16618000Y-7239123D01*
X16694190Y-7315314D01*
X16846571Y-7353409D01*
X17113238Y-7353409D01*
X17265619Y-7315314D01*
X17341809Y-7239123D01*
X17379904Y-7162933D01*
X17379904Y-7010552D01*
X16656095Y-7658171D02*
X16618000Y-7696266D01*
X16579904Y-7772457D01*
X16579904Y-7962933D01*
X16618000Y-8039123D01*
X16656095Y-8077219D01*
X16732285Y-8115314D01*
X16808476Y-8115314D01*
X16922761Y-8077219D01*
X17379904Y-7620076D01*
X17379904Y-8115314D01*
X17379904Y-8877219D02*
X17379904Y-8420076D01*
X17379904Y-8648647D02*
X16579904Y-8648647D01*
X16694190Y-8572457D01*
X16770380Y-8496266D01*
X16808476Y-8420076D01*
X16579904Y-9143885D02*
X16579904Y-9677219D01*
X17379904Y-9334361D01*
X14909695Y5149904D02*
X14985885Y5188000D01*
X15062076Y5264190D01*
X15176361Y5378476D01*
X15252552Y5416571D01*
X15328742Y5416571D01*
X15290647Y5226095D02*
X15366838Y5264190D01*
X15443028Y5340380D01*
X15481123Y5492761D01*
X15481123Y5759428D01*
X15443028Y5911809D01*
X15366838Y5988000D01*
X15290647Y6026095D01*
X15138266Y6026095D01*
X15062076Y5988000D01*
X14985885Y5911809D01*
X14947790Y5759428D01*
X14947790Y5492761D01*
X14985885Y5340380D01*
X15062076Y5264190D01*
X15138266Y5226095D01*
X15290647Y5226095D01*
X14643028Y5949904D02*
X14604933Y5988000D01*
X14528742Y6026095D01*
X14338266Y6026095D01*
X14262076Y5988000D01*
X14223980Y5949904D01*
X14185885Y5873714D01*
X14185885Y5797523D01*
X14223980Y5683238D01*
X14681123Y5226095D01*
X14185885Y5226095D01*
X13690647Y6026095D02*
X13614457Y6026095D01*
X13538266Y5988000D01*
X13500171Y5949904D01*
X13462076Y5873714D01*
X13423980Y5721333D01*
X13423980Y5530857D01*
X13462076Y5378476D01*
X13500171Y5302285D01*
X13538266Y5264190D01*
X13614457Y5226095D01*
X13690647Y5226095D01*
X13766838Y5264190D01*
X13804933Y5302285D01*
X13843028Y5378476D01*
X13881123Y5530857D01*
X13881123Y5721333D01*
X13843028Y5873714D01*
X13804933Y5949904D01*
X13766838Y5988000D01*
X13690647Y6026095D01*
X12738266Y6026095D02*
X12890647Y6026095D01*
X12966838Y5988000D01*
X13004933Y5949904D01*
X13081123Y5835619D01*
X13119219Y5683238D01*
X13119219Y5378476D01*
X13081123Y5302285D01*
X13043028Y5264190D01*
X12966838Y5226095D01*
X12814457Y5226095D01*
X12738266Y5264190D01*
X12700171Y5302285D01*
X12662076Y5378476D01*
X12662076Y5568952D01*
X12700171Y5645142D01*
X12738266Y5683238D01*
X12814457Y5721333D01*
X12966838Y5721333D01*
X13043028Y5683238D01*
X13081123Y5645142D01*
X13119219Y5568952D01*
X14509638Y30575295D02*
X14776304Y30956247D01*
X14966780Y30575295D02*
X14966780Y31375295D01*
X14662019Y31375295D01*
X14585828Y31337200D01*
X14547733Y31299104D01*
X14509638Y31222914D01*
X14509638Y31108628D01*
X14547733Y31032438D01*
X14585828Y30994342D01*
X14662019Y30956247D01*
X14966780Y30956247D01*
X14204876Y31299104D02*
X14166780Y31337200D01*
X14090590Y31375295D01*
X13900114Y31375295D01*
X13823923Y31337200D01*
X13785828Y31299104D01*
X13747733Y31222914D01*
X13747733Y31146723D01*
X13785828Y31032438D01*
X14242971Y30575295D01*
X13747733Y30575295D01*
X13252495Y31375295D02*
X13176304Y31375295D01*
X13100114Y31337200D01*
X13062019Y31299104D01*
X13023923Y31222914D01*
X12985828Y31070533D01*
X12985828Y30880057D01*
X13023923Y30727676D01*
X13062019Y30651485D01*
X13100114Y30613390D01*
X13176304Y30575295D01*
X13252495Y30575295D01*
X13328685Y30613390D01*
X13366780Y30651485D01*
X13404876Y30727676D01*
X13442971Y30880057D01*
X13442971Y31070533D01*
X13404876Y31222914D01*
X13366780Y31299104D01*
X13328685Y31337200D01*
X13252495Y31375295D01*
X12719161Y31375295D02*
X12223923Y31375295D01*
X12490590Y31070533D01*
X12376304Y31070533D01*
X12300114Y31032438D01*
X12262019Y30994342D01*
X12223923Y30918152D01*
X12223923Y30727676D01*
X12262019Y30651485D01*
X12300114Y30613390D01*
X12376304Y30575295D01*
X12604876Y30575295D01*
X12681066Y30613390D01*
X12719161Y30651485D01*
X17913238Y29406895D02*
X18179904Y29787847D01*
X18370380Y29406895D02*
X18370380Y30206895D01*
X18065619Y30206895D01*
X17989428Y30168800D01*
X17951333Y30130704D01*
X17913238Y30054514D01*
X17913238Y29940228D01*
X17951333Y29864038D01*
X17989428Y29825942D01*
X18065619Y29787847D01*
X18370380Y29787847D01*
X17608476Y30130704D02*
X17570380Y30168800D01*
X17494190Y30206895D01*
X17303714Y30206895D01*
X17227523Y30168800D01*
X17189428Y30130704D01*
X17151333Y30054514D01*
X17151333Y29978323D01*
X17189428Y29864038D01*
X17646571Y29406895D01*
X17151333Y29406895D01*
X16389428Y29406895D02*
X16846571Y29406895D01*
X16618000Y29406895D02*
X16618000Y30206895D01*
X16694190Y30092609D01*
X16770380Y30016419D01*
X16846571Y29978323D01*
X16122761Y30206895D02*
X15589428Y30206895D01*
X15932285Y29406895D01*
X50774495Y-26803295D02*
X50850685Y-26765200D01*
X50926876Y-26689009D01*
X51041161Y-26574723D01*
X51117352Y-26536628D01*
X51193542Y-26536628D01*
X51155447Y-26727104D02*
X51231638Y-26689009D01*
X51307828Y-26612819D01*
X51345923Y-26460438D01*
X51345923Y-26193771D01*
X51307828Y-26041390D01*
X51231638Y-25965200D01*
X51155447Y-25927104D01*
X51003066Y-25927104D01*
X50926876Y-25965200D01*
X50850685Y-26041390D01*
X50812590Y-26193771D01*
X50812590Y-26460438D01*
X50850685Y-26612819D01*
X50926876Y-26689009D01*
X51003066Y-26727104D01*
X51155447Y-26727104D01*
X50507828Y-26003295D02*
X50469733Y-25965200D01*
X50393542Y-25927104D01*
X50203066Y-25927104D01*
X50126876Y-25965200D01*
X50088780Y-26003295D01*
X50050685Y-26079485D01*
X50050685Y-26155676D01*
X50088780Y-26269961D01*
X50545923Y-26727104D01*
X50050685Y-26727104D01*
X49784019Y-25927104D02*
X49288780Y-25927104D01*
X49555447Y-26231866D01*
X49441161Y-26231866D01*
X49364971Y-26269961D01*
X49326876Y-26308057D01*
X49288780Y-26384247D01*
X49288780Y-26574723D01*
X49326876Y-26650914D01*
X49364971Y-26689009D01*
X49441161Y-26727104D01*
X49669733Y-26727104D01*
X49745923Y-26689009D01*
X49784019Y-26650914D01*
X48793542Y-25927104D02*
X48717352Y-25927104D01*
X48641161Y-25965200D01*
X48603066Y-26003295D01*
X48564971Y-26079485D01*
X48526876Y-26231866D01*
X48526876Y-26422342D01*
X48564971Y-26574723D01*
X48603066Y-26650914D01*
X48641161Y-26689009D01*
X48717352Y-26727104D01*
X48793542Y-26727104D01*
X48869733Y-26689009D01*
X48907828Y-26650914D01*
X48945923Y-26574723D01*
X48984019Y-26422342D01*
X48984019Y-26231866D01*
X48945923Y-26079485D01*
X48907828Y-26003295D01*
X48869733Y-25965200D01*
X48793542Y-25927104D01*
X11868038Y-11944304D02*
X12134704Y-11563352D01*
X12325180Y-11944304D02*
X12325180Y-11144304D01*
X12020419Y-11144304D01*
X11944228Y-11182400D01*
X11906133Y-11220495D01*
X11868038Y-11296685D01*
X11868038Y-11410971D01*
X11906133Y-11487161D01*
X11944228Y-11525257D01*
X12020419Y-11563352D01*
X12325180Y-11563352D01*
X11563276Y-11220495D02*
X11525180Y-11182400D01*
X11448990Y-11144304D01*
X11258514Y-11144304D01*
X11182323Y-11182400D01*
X11144228Y-11220495D01*
X11106133Y-11296685D01*
X11106133Y-11372876D01*
X11144228Y-11487161D01*
X11601371Y-11944304D01*
X11106133Y-11944304D01*
X10801371Y-11220495D02*
X10763276Y-11182400D01*
X10687085Y-11144304D01*
X10496609Y-11144304D01*
X10420419Y-11182400D01*
X10382323Y-11220495D01*
X10344228Y-11296685D01*
X10344228Y-11372876D01*
X10382323Y-11487161D01*
X10839466Y-11944304D01*
X10344228Y-11944304D01*
X9887085Y-11487161D02*
X9963276Y-11449066D01*
X10001371Y-11410971D01*
X10039466Y-11334780D01*
X10039466Y-11296685D01*
X10001371Y-11220495D01*
X9963276Y-11182400D01*
X9887085Y-11144304D01*
X9734704Y-11144304D01*
X9658514Y-11182400D01*
X9620419Y-11220495D01*
X9582323Y-11296685D01*
X9582323Y-11334780D01*
X9620419Y-11410971D01*
X9658514Y-11449066D01*
X9734704Y-11487161D01*
X9887085Y-11487161D01*
X9963276Y-11525257D01*
X10001371Y-11563352D01*
X10039466Y-11639542D01*
X10039466Y-11791923D01*
X10001371Y-11868114D01*
X9963276Y-11906209D01*
X9887085Y-11944304D01*
X9734704Y-11944304D01*
X9658514Y-11906209D01*
X9620419Y-11868114D01*
X9582323Y-11791923D01*
X9582323Y-11639542D01*
X9620419Y-11563352D01*
X9658514Y-11525257D01*
X9734704Y-11487161D01*
X31324514Y26904838D02*
X31362609Y26942933D01*
X31400704Y27057219D01*
X31400704Y27133409D01*
X31362609Y27247695D01*
X31286419Y27323885D01*
X31210228Y27361980D01*
X31057847Y27400076D01*
X30943561Y27400076D01*
X30791180Y27361980D01*
X30714990Y27323885D01*
X30638800Y27247695D01*
X30600704Y27133409D01*
X30600704Y27057219D01*
X30638800Y26942933D01*
X30676895Y26904838D01*
X31400704Y26142933D02*
X31400704Y26600076D01*
X31400704Y26371504D02*
X30600704Y26371504D01*
X30714990Y26447695D01*
X30791180Y26523885D01*
X30829276Y26600076D01*
X30600704Y25647695D02*
X30600704Y25571504D01*
X30638800Y25495314D01*
X30676895Y25457219D01*
X30753085Y25419123D01*
X30905466Y25381028D01*
X31095942Y25381028D01*
X31248323Y25419123D01*
X31324514Y25457219D01*
X31362609Y25495314D01*
X31400704Y25571504D01*
X31400704Y25647695D01*
X31362609Y25723885D01*
X31324514Y25761980D01*
X31248323Y25800076D01*
X31095942Y25838171D01*
X30905466Y25838171D01*
X30753085Y25800076D01*
X30676895Y25761980D01*
X30638800Y25723885D01*
X30600704Y25647695D01*
X30867371Y24695314D02*
X31400704Y24695314D01*
X30562609Y24885790D02*
X31134038Y25076266D01*
X31134038Y24581028D01*
X45142038Y19907295D02*
X45408704Y20288247D01*
X45599180Y19907295D02*
X45599180Y20707295D01*
X45294419Y20707295D01*
X45218228Y20669200D01*
X45180133Y20631104D01*
X45142038Y20554914D01*
X45142038Y20440628D01*
X45180133Y20364438D01*
X45218228Y20326342D01*
X45294419Y20288247D01*
X45599180Y20288247D01*
X44837276Y20631104D02*
X44799180Y20669200D01*
X44722990Y20707295D01*
X44532514Y20707295D01*
X44456323Y20669200D01*
X44418228Y20631104D01*
X44380133Y20554914D01*
X44380133Y20478723D01*
X44418228Y20364438D01*
X44875371Y19907295D01*
X44380133Y19907295D01*
X43618228Y19907295D02*
X44075371Y19907295D01*
X43846800Y19907295D02*
X43846800Y20707295D01*
X43922990Y20593009D01*
X43999180Y20516819D01*
X44075371Y20478723D01*
X43237276Y19907295D02*
X43084895Y19907295D01*
X43008704Y19945390D01*
X42970609Y19983485D01*
X42894419Y20097771D01*
X42856323Y20250152D01*
X42856323Y20554914D01*
X42894419Y20631104D01*
X42932514Y20669200D01*
X43008704Y20707295D01*
X43161085Y20707295D01*
X43237276Y20669200D01*
X43275371Y20631104D01*
X43313466Y20554914D01*
X43313466Y20364438D01*
X43275371Y20288247D01*
X43237276Y20250152D01*
X43161085Y20212057D01*
X43008704Y20212057D01*
X42932514Y20250152D01*
X42894419Y20288247D01*
X42856323Y20364438D01*
X16135238Y247695D02*
X16401904Y628647D01*
X16592380Y247695D02*
X16592380Y1047695D01*
X16287619Y1047695D01*
X16211428Y1009600D01*
X16173333Y971504D01*
X16135238Y895314D01*
X16135238Y781028D01*
X16173333Y704838D01*
X16211428Y666742D01*
X16287619Y628647D01*
X16592380Y628647D01*
X15830476Y971504D02*
X15792380Y1009600D01*
X15716190Y1047695D01*
X15525714Y1047695D01*
X15449523Y1009600D01*
X15411428Y971504D01*
X15373333Y895314D01*
X15373333Y819123D01*
X15411428Y704838D01*
X15868571Y247695D01*
X15373333Y247695D01*
X14878095Y1047695D02*
X14801904Y1047695D01*
X14725714Y1009600D01*
X14687619Y971504D01*
X14649523Y895314D01*
X14611428Y742933D01*
X14611428Y552457D01*
X14649523Y400076D01*
X14687619Y323885D01*
X14725714Y285790D01*
X14801904Y247695D01*
X14878095Y247695D01*
X14954285Y285790D01*
X14992380Y323885D01*
X15030476Y400076D01*
X15068571Y552457D01*
X15068571Y742933D01*
X15030476Y895314D01*
X14992380Y971504D01*
X14954285Y1009600D01*
X14878095Y1047695D01*
X14230476Y247695D02*
X14078095Y247695D01*
X14001904Y285790D01*
X13963809Y323885D01*
X13887619Y438171D01*
X13849523Y590552D01*
X13849523Y895314D01*
X13887619Y971504D01*
X13925714Y1009600D01*
X14001904Y1047695D01*
X14154285Y1047695D01*
X14230476Y1009600D01*
X14268571Y971504D01*
X14306666Y895314D01*
X14306666Y704838D01*
X14268571Y628647D01*
X14230476Y590552D01*
X14154285Y552457D01*
X14001904Y552457D01*
X13925714Y590552D01*
X13887619Y628647D01*
X13849523Y704838D01*
X52196895Y5099104D02*
X52273085Y5137200D01*
X52349276Y5213390D01*
X52463561Y5327676D01*
X52539752Y5365771D01*
X52615942Y5365771D01*
X52577847Y5175295D02*
X52654038Y5213390D01*
X52730228Y5289580D01*
X52768323Y5441961D01*
X52768323Y5708628D01*
X52730228Y5861009D01*
X52654038Y5937200D01*
X52577847Y5975295D01*
X52425466Y5975295D01*
X52349276Y5937200D01*
X52273085Y5861009D01*
X52234990Y5708628D01*
X52234990Y5441961D01*
X52273085Y5289580D01*
X52349276Y5213390D01*
X52425466Y5175295D01*
X52577847Y5175295D01*
X51930228Y5899104D02*
X51892133Y5937200D01*
X51815942Y5975295D01*
X51625466Y5975295D01*
X51549276Y5937200D01*
X51511180Y5899104D01*
X51473085Y5822914D01*
X51473085Y5746723D01*
X51511180Y5632438D01*
X51968323Y5175295D01*
X51473085Y5175295D01*
X50977847Y5975295D02*
X50901657Y5975295D01*
X50825466Y5937200D01*
X50787371Y5899104D01*
X50749276Y5822914D01*
X50711180Y5670533D01*
X50711180Y5480057D01*
X50749276Y5327676D01*
X50787371Y5251485D01*
X50825466Y5213390D01*
X50901657Y5175295D01*
X50977847Y5175295D01*
X51054038Y5213390D01*
X51092133Y5251485D01*
X51130228Y5327676D01*
X51168323Y5480057D01*
X51168323Y5670533D01*
X51130228Y5822914D01*
X51092133Y5899104D01*
X51054038Y5937200D01*
X50977847Y5975295D01*
X49987371Y5975295D02*
X50368323Y5975295D01*
X50406419Y5594342D01*
X50368323Y5632438D01*
X50292133Y5670533D01*
X50101657Y5670533D01*
X50025466Y5632438D01*
X49987371Y5594342D01*
X49949276Y5518152D01*
X49949276Y5327676D01*
X49987371Y5251485D01*
X50025466Y5213390D01*
X50101657Y5175295D01*
X50292133Y5175295D01*
X50368323Y5213390D01*
X50406419Y5251485D01*
X35947295Y8712095D02*
X35909200Y8788285D01*
X35833009Y8864476D01*
X35718723Y8978761D01*
X35680628Y9054952D01*
X35680628Y9131142D01*
X35871104Y9093047D02*
X35833009Y9169238D01*
X35756819Y9245428D01*
X35604438Y9283523D01*
X35337771Y9283523D01*
X35185390Y9245428D01*
X35109200Y9169238D01*
X35071104Y9093047D01*
X35071104Y8940666D01*
X35109200Y8864476D01*
X35185390Y8788285D01*
X35337771Y8750190D01*
X35604438Y8750190D01*
X35756819Y8788285D01*
X35833009Y8864476D01*
X35871104Y8940666D01*
X35871104Y9093047D01*
X35147295Y8445428D02*
X35109200Y8407333D01*
X35071104Y8331142D01*
X35071104Y8140666D01*
X35109200Y8064476D01*
X35147295Y8026380D01*
X35223485Y7988285D01*
X35299676Y7988285D01*
X35413961Y8026380D01*
X35871104Y8483523D01*
X35871104Y7988285D01*
X35071104Y7493047D02*
X35071104Y7416857D01*
X35109200Y7340666D01*
X35147295Y7302571D01*
X35223485Y7264476D01*
X35375866Y7226380D01*
X35566342Y7226380D01*
X35718723Y7264476D01*
X35794914Y7302571D01*
X35833009Y7340666D01*
X35871104Y7416857D01*
X35871104Y7493047D01*
X35833009Y7569238D01*
X35794914Y7607333D01*
X35718723Y7645428D01*
X35566342Y7683523D01*
X35375866Y7683523D01*
X35223485Y7645428D01*
X35147295Y7607333D01*
X35109200Y7569238D01*
X35071104Y7493047D01*
X35071104Y6959714D02*
X35071104Y6426380D01*
X35871104Y6769238D01*
X49104438Y-18802304D02*
X49371104Y-18421352D01*
X49561580Y-18802304D02*
X49561580Y-18002304D01*
X49256819Y-18002304D01*
X49180628Y-18040400D01*
X49142533Y-18078495D01*
X49104438Y-18154685D01*
X49104438Y-18268971D01*
X49142533Y-18345161D01*
X49180628Y-18383257D01*
X49256819Y-18421352D01*
X49561580Y-18421352D01*
X48799676Y-18078495D02*
X48761580Y-18040400D01*
X48685390Y-18002304D01*
X48494914Y-18002304D01*
X48418723Y-18040400D01*
X48380628Y-18078495D01*
X48342533Y-18154685D01*
X48342533Y-18230876D01*
X48380628Y-18345161D01*
X48837771Y-18802304D01*
X48342533Y-18802304D01*
X48037771Y-18078495D02*
X47999676Y-18040400D01*
X47923485Y-18002304D01*
X47733009Y-18002304D01*
X47656819Y-18040400D01*
X47618723Y-18078495D01*
X47580628Y-18154685D01*
X47580628Y-18230876D01*
X47618723Y-18345161D01*
X48075866Y-18802304D01*
X47580628Y-18802304D01*
X46894914Y-18002304D02*
X47047295Y-18002304D01*
X47123485Y-18040400D01*
X47161580Y-18078495D01*
X47237771Y-18192780D01*
X47275866Y-18345161D01*
X47275866Y-18649923D01*
X47237771Y-18726114D01*
X47199676Y-18764209D01*
X47123485Y-18802304D01*
X46971104Y-18802304D01*
X46894914Y-18764209D01*
X46856819Y-18726114D01*
X46818723Y-18649923D01*
X46818723Y-18459447D01*
X46856819Y-18383257D01*
X46894914Y-18345161D01*
X46971104Y-18307066D01*
X47123485Y-18307066D01*
X47199676Y-18345161D01*
X47237771Y-18383257D01*
X47275866Y-18459447D01*
X38080914Y26955638D02*
X38119009Y26993733D01*
X38157104Y27108019D01*
X38157104Y27184209D01*
X38119009Y27298495D01*
X38042819Y27374685D01*
X37966628Y27412780D01*
X37814247Y27450876D01*
X37699961Y27450876D01*
X37547580Y27412780D01*
X37471390Y27374685D01*
X37395200Y27298495D01*
X37357104Y27184209D01*
X37357104Y27108019D01*
X37395200Y26993733D01*
X37433295Y26955638D01*
X38157104Y26193733D02*
X38157104Y26650876D01*
X38157104Y26422304D02*
X37357104Y26422304D01*
X37471390Y26498495D01*
X37547580Y26574685D01*
X37585676Y26650876D01*
X37357104Y25698495D02*
X37357104Y25622304D01*
X37395200Y25546114D01*
X37433295Y25508019D01*
X37509485Y25469923D01*
X37661866Y25431828D01*
X37852342Y25431828D01*
X38004723Y25469923D01*
X38080914Y25508019D01*
X38119009Y25546114D01*
X38157104Y25622304D01*
X38157104Y25698495D01*
X38119009Y25774685D01*
X38080914Y25812780D01*
X38004723Y25850876D01*
X37852342Y25888971D01*
X37661866Y25888971D01*
X37509485Y25850876D01*
X37433295Y25812780D01*
X37395200Y25774685D01*
X37357104Y25698495D01*
X37357104Y25165161D02*
X37357104Y24669923D01*
X37661866Y24936590D01*
X37661866Y24822304D01*
X37699961Y24746114D01*
X37738057Y24708019D01*
X37814247Y24669923D01*
X38004723Y24669923D01*
X38080914Y24708019D01*
X38119009Y24746114D01*
X38157104Y24822304D01*
X38157104Y25050876D01*
X38119009Y25127066D01*
X38080914Y25165161D01*
X46259638Y-14738304D02*
X46526304Y-14357352D01*
X46716780Y-14738304D02*
X46716780Y-13938304D01*
X46412019Y-13938304D01*
X46335828Y-13976400D01*
X46297733Y-14014495D01*
X46259638Y-14090685D01*
X46259638Y-14204971D01*
X46297733Y-14281161D01*
X46335828Y-14319257D01*
X46412019Y-14357352D01*
X46716780Y-14357352D01*
X45954876Y-14014495D02*
X45916780Y-13976400D01*
X45840590Y-13938304D01*
X45650114Y-13938304D01*
X45573923Y-13976400D01*
X45535828Y-14014495D01*
X45497733Y-14090685D01*
X45497733Y-14166876D01*
X45535828Y-14281161D01*
X45992971Y-14738304D01*
X45497733Y-14738304D01*
X45231066Y-13938304D02*
X44735828Y-13938304D01*
X45002495Y-14243066D01*
X44888209Y-14243066D01*
X44812019Y-14281161D01*
X44773923Y-14319257D01*
X44735828Y-14395447D01*
X44735828Y-14585923D01*
X44773923Y-14662114D01*
X44812019Y-14700209D01*
X44888209Y-14738304D01*
X45116780Y-14738304D01*
X45192971Y-14700209D01*
X45231066Y-14662114D01*
X44278685Y-14281161D02*
X44354876Y-14243066D01*
X44392971Y-14204971D01*
X44431066Y-14128780D01*
X44431066Y-14090685D01*
X44392971Y-14014495D01*
X44354876Y-13976400D01*
X44278685Y-13938304D01*
X44126304Y-13938304D01*
X44050114Y-13976400D01*
X44012019Y-14014495D01*
X43973923Y-14090685D01*
X43973923Y-14128780D01*
X44012019Y-14204971D01*
X44050114Y-14243066D01*
X44126304Y-14281161D01*
X44278685Y-14281161D01*
X44354876Y-14319257D01*
X44392971Y-14357352D01*
X44431066Y-14433542D01*
X44431066Y-14585923D01*
X44392971Y-14662114D01*
X44354876Y-14700209D01*
X44278685Y-14738304D01*
X44126304Y-14738304D01*
X44050114Y-14700209D01*
X44012019Y-14662114D01*
X43973923Y-14585923D01*
X43973923Y-14433542D01*
X44012019Y-14357352D01*
X44050114Y-14319257D01*
X44126304Y-14281161D01*
X9016895Y25876304D02*
X9093085Y25914400D01*
X9169276Y25990590D01*
X9283561Y26104876D01*
X9359752Y26142971D01*
X9435942Y26142971D01*
X9397847Y25952495D02*
X9474038Y25990590D01*
X9550228Y26066780D01*
X9588323Y26219161D01*
X9588323Y26485828D01*
X9550228Y26638209D01*
X9474038Y26714400D01*
X9397847Y26752495D01*
X9245466Y26752495D01*
X9169276Y26714400D01*
X9093085Y26638209D01*
X9054990Y26485828D01*
X9054990Y26219161D01*
X9093085Y26066780D01*
X9169276Y25990590D01*
X9245466Y25952495D01*
X9397847Y25952495D01*
X8750228Y26676304D02*
X8712133Y26714400D01*
X8635942Y26752495D01*
X8445466Y26752495D01*
X8369276Y26714400D01*
X8331180Y26676304D01*
X8293085Y26600114D01*
X8293085Y26523923D01*
X8331180Y26409638D01*
X8788323Y25952495D01*
X8293085Y25952495D01*
X7531180Y25952495D02*
X7988323Y25952495D01*
X7759752Y25952495D02*
X7759752Y26752495D01*
X7835942Y26638209D01*
X7912133Y26562019D01*
X7988323Y26523923D01*
X6845466Y26485828D02*
X6845466Y25952495D01*
X7035942Y26790590D02*
X7226419Y26219161D01*
X6731180Y26219161D01*
X52101695Y24460095D02*
X52063600Y24536285D01*
X51987409Y24612476D01*
X51873123Y24726761D01*
X51835028Y24802952D01*
X51835028Y24879142D01*
X52025504Y24841047D02*
X51987409Y24917238D01*
X51911219Y24993428D01*
X51758838Y25031523D01*
X51492171Y25031523D01*
X51339790Y24993428D01*
X51263600Y24917238D01*
X51225504Y24841047D01*
X51225504Y24688666D01*
X51263600Y24612476D01*
X51339790Y24536285D01*
X51492171Y24498190D01*
X51758838Y24498190D01*
X51911219Y24536285D01*
X51987409Y24612476D01*
X52025504Y24688666D01*
X52025504Y24841047D01*
X51301695Y24193428D02*
X51263600Y24155333D01*
X51225504Y24079142D01*
X51225504Y23888666D01*
X51263600Y23812476D01*
X51301695Y23774380D01*
X51377885Y23736285D01*
X51454076Y23736285D01*
X51568361Y23774380D01*
X52025504Y24231523D01*
X52025504Y23736285D01*
X51225504Y23241047D02*
X51225504Y23164857D01*
X51263600Y23088666D01*
X51301695Y23050571D01*
X51377885Y23012476D01*
X51530266Y22974380D01*
X51720742Y22974380D01*
X51873123Y23012476D01*
X51949314Y23050571D01*
X51987409Y23088666D01*
X52025504Y23164857D01*
X52025504Y23241047D01*
X51987409Y23317238D01*
X51949314Y23355333D01*
X51873123Y23393428D01*
X51720742Y23431523D01*
X51530266Y23431523D01*
X51377885Y23393428D01*
X51301695Y23355333D01*
X51263600Y23317238D01*
X51225504Y23241047D01*
X52025504Y22593428D02*
X52025504Y22441047D01*
X51987409Y22364857D01*
X51949314Y22326761D01*
X51835028Y22250571D01*
X51682647Y22212476D01*
X51377885Y22212476D01*
X51301695Y22250571D01*
X51263600Y22288666D01*
X51225504Y22364857D01*
X51225504Y22517238D01*
X51263600Y22593428D01*
X51301695Y22631523D01*
X51377885Y22669619D01*
X51568361Y22669619D01*
X51644552Y22631523D01*
X51682647Y22593428D01*
X51720742Y22517238D01*
X51720742Y22364857D01*
X51682647Y22288666D01*
X51644552Y22250571D01*
X51568361Y22212476D01*
X51155428Y12985695D02*
X51155428Y12338076D01*
X51117333Y12261885D01*
X51079238Y12223790D01*
X51003047Y12185695D01*
X50850666Y12185695D01*
X50774476Y12223790D01*
X50736380Y12261885D01*
X50698285Y12338076D01*
X50698285Y12985695D01*
X50355428Y12909504D02*
X50317333Y12947600D01*
X50241142Y12985695D01*
X50050666Y12985695D01*
X49974476Y12947600D01*
X49936380Y12909504D01*
X49898285Y12833314D01*
X49898285Y12757123D01*
X49936380Y12642838D01*
X50393523Y12185695D01*
X49898285Y12185695D01*
X49403047Y12985695D02*
X49326857Y12985695D01*
X49250666Y12947600D01*
X49212571Y12909504D01*
X49174476Y12833314D01*
X49136380Y12680933D01*
X49136380Y12490457D01*
X49174476Y12338076D01*
X49212571Y12261885D01*
X49250666Y12223790D01*
X49326857Y12185695D01*
X49403047Y12185695D01*
X49479238Y12223790D01*
X49517333Y12261885D01*
X49555428Y12338076D01*
X49593523Y12490457D01*
X49593523Y12680933D01*
X49555428Y12833314D01*
X49517333Y12909504D01*
X49479238Y12947600D01*
X49403047Y12985695D01*
X48679238Y12642838D02*
X48755428Y12680933D01*
X48793523Y12719028D01*
X48831619Y12795219D01*
X48831619Y12833314D01*
X48793523Y12909504D01*
X48755428Y12947600D01*
X48679238Y12985695D01*
X48526857Y12985695D01*
X48450666Y12947600D01*
X48412571Y12909504D01*
X48374476Y12833314D01*
X48374476Y12795219D01*
X48412571Y12719028D01*
X48450666Y12680933D01*
X48526857Y12642838D01*
X48679238Y12642838D01*
X48755428Y12604742D01*
X48793523Y12566647D01*
X48831619Y12490457D01*
X48831619Y12338076D01*
X48793523Y12261885D01*
X48755428Y12223790D01*
X48679238Y12185695D01*
X48526857Y12185695D01*
X48450666Y12223790D01*
X48412571Y12261885D01*
X48374476Y12338076D01*
X48374476Y12490457D01*
X48412571Y12566647D01*
X48450666Y12604742D01*
X48526857Y12642838D01*
X577904Y5854571D02*
X1149333Y5854571D01*
X1263619Y5892666D01*
X1339809Y5968857D01*
X1377904Y6083142D01*
X1377904Y6159333D01*
X1377904Y5054571D02*
X1377904Y5511714D01*
X1377904Y5283142D02*
X577904Y5283142D01*
X692190Y5359333D01*
X768380Y5435523D01*
X806476Y5511714D01*
X577904Y4559333D02*
X577904Y4483142D01*
X616000Y4406952D01*
X654095Y4368857D01*
X730285Y4330761D01*
X882666Y4292666D01*
X1073142Y4292666D01*
X1225523Y4330761D01*
X1301714Y4368857D01*
X1339809Y4406952D01*
X1377904Y4483142D01*
X1377904Y4559333D01*
X1339809Y4635523D01*
X1301714Y4673619D01*
X1225523Y4711714D01*
X1073142Y4749809D01*
X882666Y4749809D01*
X730285Y4711714D01*
X654095Y4673619D01*
X616000Y4635523D01*
X577904Y4559333D01*
X1377904Y3530761D02*
X1377904Y3987904D01*
X1377904Y3759333D02*
X577904Y3759333D01*
X692190Y3835523D01*
X768380Y3911714D01*
X806476Y3987904D01*
X46259638Y12211085D02*
X46297733Y12172990D01*
X46412019Y12134895D01*
X46488209Y12134895D01*
X46602495Y12172990D01*
X46678685Y12249180D01*
X46716780Y12325371D01*
X46754876Y12477752D01*
X46754876Y12592038D01*
X46716780Y12744419D01*
X46678685Y12820609D01*
X46602495Y12896800D01*
X46488209Y12934895D01*
X46412019Y12934895D01*
X46297733Y12896800D01*
X46259638Y12858704D01*
X45954876Y12858704D02*
X45916780Y12896800D01*
X45840590Y12934895D01*
X45650114Y12934895D01*
X45573923Y12896800D01*
X45535828Y12858704D01*
X45497733Y12782514D01*
X45497733Y12706323D01*
X45535828Y12592038D01*
X45992971Y12134895D01*
X45497733Y12134895D01*
X45002495Y12934895D02*
X44926304Y12934895D01*
X44850114Y12896800D01*
X44812019Y12858704D01*
X44773923Y12782514D01*
X44735828Y12630133D01*
X44735828Y12439657D01*
X44773923Y12287276D01*
X44812019Y12211085D01*
X44850114Y12172990D01*
X44926304Y12134895D01*
X45002495Y12134895D01*
X45078685Y12172990D01*
X45116780Y12211085D01*
X45154876Y12287276D01*
X45192971Y12439657D01*
X45192971Y12630133D01*
X45154876Y12782514D01*
X45116780Y12858704D01*
X45078685Y12896800D01*
X45002495Y12934895D01*
X44469161Y12934895D02*
X43935828Y12934895D01*
X44278685Y12134895D01*
X17449695Y25876304D02*
X17525885Y25914400D01*
X17602076Y25990590D01*
X17716361Y26104876D01*
X17792552Y26142971D01*
X17868742Y26142971D01*
X17830647Y25952495D02*
X17906838Y25990590D01*
X17983028Y26066780D01*
X18021123Y26219161D01*
X18021123Y26485828D01*
X17983028Y26638209D01*
X17906838Y26714400D01*
X17830647Y26752495D01*
X17678266Y26752495D01*
X17602076Y26714400D01*
X17525885Y26638209D01*
X17487790Y26485828D01*
X17487790Y26219161D01*
X17525885Y26066780D01*
X17602076Y25990590D01*
X17678266Y25952495D01*
X17830647Y25952495D01*
X17183028Y26676304D02*
X17144933Y26714400D01*
X17068742Y26752495D01*
X16878266Y26752495D01*
X16802076Y26714400D01*
X16763980Y26676304D01*
X16725885Y26600114D01*
X16725885Y26523923D01*
X16763980Y26409638D01*
X17221123Y25952495D01*
X16725885Y25952495D01*
X15963980Y25952495D02*
X16421123Y25952495D01*
X16192552Y25952495D02*
X16192552Y26752495D01*
X16268742Y26638209D01*
X16344933Y26562019D01*
X16421123Y26523923D01*
X15659219Y26676304D02*
X15621123Y26714400D01*
X15544933Y26752495D01*
X15354457Y26752495D01*
X15278266Y26714400D01*
X15240171Y26676304D01*
X15202076Y26600114D01*
X15202076Y26523923D01*
X15240171Y26409638D01*
X15697314Y25952495D01*
X15202076Y25952495D01*
X35794914Y26854038D02*
X35833009Y26892133D01*
X35871104Y27006419D01*
X35871104Y27082609D01*
X35833009Y27196895D01*
X35756819Y27273085D01*
X35680628Y27311180D01*
X35528247Y27349276D01*
X35413961Y27349276D01*
X35261580Y27311180D01*
X35185390Y27273085D01*
X35109200Y27196895D01*
X35071104Y27082609D01*
X35071104Y27006419D01*
X35109200Y26892133D01*
X35147295Y26854038D01*
X35871104Y26092133D02*
X35871104Y26549276D01*
X35871104Y26320704D02*
X35071104Y26320704D01*
X35185390Y26396895D01*
X35261580Y26473085D01*
X35299676Y26549276D01*
X35071104Y25596895D02*
X35071104Y25520704D01*
X35109200Y25444514D01*
X35147295Y25406419D01*
X35223485Y25368323D01*
X35375866Y25330228D01*
X35566342Y25330228D01*
X35718723Y25368323D01*
X35794914Y25406419D01*
X35833009Y25444514D01*
X35871104Y25520704D01*
X35871104Y25596895D01*
X35833009Y25673085D01*
X35794914Y25711180D01*
X35718723Y25749276D01*
X35566342Y25787371D01*
X35375866Y25787371D01*
X35223485Y25749276D01*
X35147295Y25711180D01*
X35109200Y25673085D01*
X35071104Y25596895D01*
X35871104Y24568323D02*
X35871104Y25025466D01*
X35871104Y24796895D02*
X35071104Y24796895D01*
X35185390Y24873085D01*
X35261580Y24949276D01*
X35299676Y25025466D01*
X9829695Y-6026095D02*
X9905885Y-5988000D01*
X9982076Y-5911809D01*
X10096361Y-5797523D01*
X10172552Y-5759428D01*
X10248742Y-5759428D01*
X10210647Y-5949904D02*
X10286838Y-5911809D01*
X10363028Y-5835619D01*
X10401123Y-5683238D01*
X10401123Y-5416571D01*
X10363028Y-5264190D01*
X10286838Y-5188000D01*
X10210647Y-5149904D01*
X10058266Y-5149904D01*
X9982076Y-5188000D01*
X9905885Y-5264190D01*
X9867790Y-5416571D01*
X9867790Y-5683238D01*
X9905885Y-5835619D01*
X9982076Y-5911809D01*
X10058266Y-5949904D01*
X10210647Y-5949904D01*
X9563028Y-5226095D02*
X9524933Y-5188000D01*
X9448742Y-5149904D01*
X9258266Y-5149904D01*
X9182076Y-5188000D01*
X9143980Y-5226095D01*
X9105885Y-5302285D01*
X9105885Y-5378476D01*
X9143980Y-5492761D01*
X9601123Y-5949904D01*
X9105885Y-5949904D01*
X8343980Y-5949904D02*
X8801123Y-5949904D01*
X8572552Y-5949904D02*
X8572552Y-5149904D01*
X8648742Y-5264190D01*
X8724933Y-5340380D01*
X8801123Y-5378476D01*
X7963028Y-5949904D02*
X7810647Y-5949904D01*
X7734457Y-5911809D01*
X7696361Y-5873714D01*
X7620171Y-5759428D01*
X7582076Y-5607047D01*
X7582076Y-5302285D01*
X7620171Y-5226095D01*
X7658266Y-5188000D01*
X7734457Y-5149904D01*
X7886838Y-5149904D01*
X7963028Y-5188000D01*
X8001123Y-5226095D01*
X8039219Y-5302285D01*
X8039219Y-5492761D01*
X8001123Y-5568952D01*
X7963028Y-5607047D01*
X7886838Y-5645142D01*
X7734457Y-5645142D01*
X7658266Y-5607047D01*
X7620171Y-5568952D01*
X7582076Y-5492761D01*
X21367695Y-23139504D02*
X21329600Y-23063314D01*
X21253409Y-22987123D01*
X21139123Y-22872838D01*
X21101028Y-22796647D01*
X21101028Y-22720457D01*
X21291504Y-22758552D02*
X21253409Y-22682361D01*
X21177219Y-22606171D01*
X21024838Y-22568076D01*
X20758171Y-22568076D01*
X20605790Y-22606171D01*
X20529600Y-22682361D01*
X20491504Y-22758552D01*
X20491504Y-22910933D01*
X20529600Y-22987123D01*
X20605790Y-23063314D01*
X20758171Y-23101409D01*
X21024838Y-23101409D01*
X21177219Y-23063314D01*
X21253409Y-22987123D01*
X21291504Y-22910933D01*
X21291504Y-22758552D01*
X20567695Y-23406171D02*
X20529600Y-23444266D01*
X20491504Y-23520457D01*
X20491504Y-23710933D01*
X20529600Y-23787123D01*
X20567695Y-23825219D01*
X20643885Y-23863314D01*
X20720076Y-23863314D01*
X20834361Y-23825219D01*
X21291504Y-23368076D01*
X21291504Y-23863314D01*
X20491504Y-24129980D02*
X20491504Y-24625219D01*
X20796266Y-24358552D01*
X20796266Y-24472838D01*
X20834361Y-24549028D01*
X20872457Y-24587123D01*
X20948647Y-24625219D01*
X21139123Y-24625219D01*
X21215314Y-24587123D01*
X21253409Y-24549028D01*
X21291504Y-24472838D01*
X21291504Y-24244266D01*
X21253409Y-24168076D01*
X21215314Y-24129980D01*
X21291504Y-25387123D02*
X21291504Y-24929980D01*
X21291504Y-25158552D02*
X20491504Y-25158552D01*
X20605790Y-25082361D01*
X20681980Y-25006171D01*
X20720076Y-24929980D01*
X53778038Y-13519104D02*
X54044704Y-13138152D01*
X54235180Y-13519104D02*
X54235180Y-12719104D01*
X53930419Y-12719104D01*
X53854228Y-12757200D01*
X53816133Y-12795295D01*
X53778038Y-12871485D01*
X53778038Y-12985771D01*
X53816133Y-13061961D01*
X53854228Y-13100057D01*
X53930419Y-13138152D01*
X54235180Y-13138152D01*
X53473276Y-12795295D02*
X53435180Y-12757200D01*
X53358990Y-12719104D01*
X53168514Y-12719104D01*
X53092323Y-12757200D01*
X53054228Y-12795295D01*
X53016133Y-12871485D01*
X53016133Y-12947676D01*
X53054228Y-13061961D01*
X53511371Y-13519104D01*
X53016133Y-13519104D01*
X52749466Y-12719104D02*
X52254228Y-12719104D01*
X52520895Y-13023866D01*
X52406609Y-13023866D01*
X52330419Y-13061961D01*
X52292323Y-13100057D01*
X52254228Y-13176247D01*
X52254228Y-13366723D01*
X52292323Y-13442914D01*
X52330419Y-13481009D01*
X52406609Y-13519104D01*
X52635180Y-13519104D01*
X52711371Y-13481009D01*
X52749466Y-13442914D01*
X51758990Y-12719104D02*
X51682800Y-12719104D01*
X51606609Y-12757200D01*
X51568514Y-12795295D01*
X51530419Y-12871485D01*
X51492323Y-13023866D01*
X51492323Y-13214342D01*
X51530419Y-13366723D01*
X51568514Y-13442914D01*
X51606609Y-13481009D01*
X51682800Y-13519104D01*
X51758990Y-13519104D01*
X51835180Y-13481009D01*
X51873276Y-13442914D01*
X51911371Y-13366723D01*
X51949466Y-13214342D01*
X51949466Y-13023866D01*
X51911371Y-12871485D01*
X51873276Y-12795295D01*
X51835180Y-12757200D01*
X51758990Y-12719104D01*
X62553904Y-26149428D02*
X63125333Y-26149428D01*
X63239619Y-26111333D01*
X63315809Y-26035142D01*
X63353904Y-25920857D01*
X63353904Y-25844666D01*
X63353904Y-26949428D02*
X63353904Y-26492285D01*
X63353904Y-26720857D02*
X62553904Y-26720857D01*
X62668190Y-26644666D01*
X62744380Y-26568476D01*
X62782476Y-26492285D01*
X62553904Y-27444666D02*
X62553904Y-27520857D01*
X62592000Y-27597047D01*
X62630095Y-27635142D01*
X62706285Y-27673238D01*
X62858666Y-27711333D01*
X63049142Y-27711333D01*
X63201523Y-27673238D01*
X63277714Y-27635142D01*
X63315809Y-27597047D01*
X63353904Y-27520857D01*
X63353904Y-27444666D01*
X63315809Y-27368476D01*
X63277714Y-27330380D01*
X63201523Y-27292285D01*
X63049142Y-27254190D01*
X62858666Y-27254190D01*
X62706285Y-27292285D01*
X62630095Y-27330380D01*
X62592000Y-27368476D01*
X62553904Y-27444666D01*
X62553904Y-27978000D02*
X62553904Y-28473238D01*
X62858666Y-28206571D01*
X62858666Y-28320857D01*
X62896761Y-28397047D01*
X62934857Y-28435142D01*
X63011047Y-28473238D01*
X63201523Y-28473238D01*
X63277714Y-28435142D01*
X63315809Y-28397047D01*
X63353904Y-28320857D01*
X63353904Y-28092285D01*
X63315809Y-28016095D01*
X63277714Y-27978000D01*
X45294438Y-18802304D02*
X45561104Y-18421352D01*
X45751580Y-18802304D02*
X45751580Y-18002304D01*
X45446819Y-18002304D01*
X45370628Y-18040400D01*
X45332533Y-18078495D01*
X45294438Y-18154685D01*
X45294438Y-18268971D01*
X45332533Y-18345161D01*
X45370628Y-18383257D01*
X45446819Y-18421352D01*
X45751580Y-18421352D01*
X44989676Y-18078495D02*
X44951580Y-18040400D01*
X44875390Y-18002304D01*
X44684914Y-18002304D01*
X44608723Y-18040400D01*
X44570628Y-18078495D01*
X44532533Y-18154685D01*
X44532533Y-18230876D01*
X44570628Y-18345161D01*
X45027771Y-18802304D01*
X44532533Y-18802304D01*
X43846819Y-18268971D02*
X43846819Y-18802304D01*
X44037295Y-17964209D02*
X44227771Y-18535638D01*
X43732533Y-18535638D01*
X43008723Y-18802304D02*
X43465866Y-18802304D01*
X43237295Y-18802304D02*
X43237295Y-18002304D01*
X43313485Y-18116590D01*
X43389676Y-18192780D01*
X43465866Y-18230876D01*
X54997238Y-387314D02*
X55035333Y-425409D01*
X55149619Y-463504D01*
X55225809Y-463504D01*
X55340095Y-425409D01*
X55416285Y-349219D01*
X55454380Y-273028D01*
X55492476Y-120647D01*
X55492476Y-6361D01*
X55454380Y146019D01*
X55416285Y222209D01*
X55340095Y298400D01*
X55225809Y336495D01*
X55149619Y336495D01*
X55035333Y298400D01*
X54997238Y260304D01*
X54692476Y260304D02*
X54654380Y298400D01*
X54578190Y336495D01*
X54387714Y336495D01*
X54311523Y298400D01*
X54273428Y260304D01*
X54235333Y184114D01*
X54235333Y107923D01*
X54273428Y-6361D01*
X54730571Y-463504D01*
X54235333Y-463504D01*
X53473428Y-463504D02*
X53930571Y-463504D01*
X53702000Y-463504D02*
X53702000Y336495D01*
X53778190Y222209D01*
X53854380Y146019D01*
X53930571Y107923D01*
X52711523Y-463504D02*
X53168666Y-463504D01*
X52940095Y-463504D02*
X52940095Y336495D01*
X53016285Y222209D01*
X53092476Y146019D01*
X53168666Y107923D01*
X47580495Y8762895D02*
X47542400Y8839085D01*
X47466209Y8915276D01*
X47351923Y9029561D01*
X47313828Y9105752D01*
X47313828Y9181942D01*
X47504304Y9143847D02*
X47466209Y9220038D01*
X47390019Y9296228D01*
X47237638Y9334323D01*
X46970971Y9334323D01*
X46818590Y9296228D01*
X46742400Y9220038D01*
X46704304Y9143847D01*
X46704304Y8991466D01*
X46742400Y8915276D01*
X46818590Y8839085D01*
X46970971Y8800990D01*
X47237638Y8800990D01*
X47390019Y8839085D01*
X47466209Y8915276D01*
X47504304Y8991466D01*
X47504304Y9143847D01*
X46780495Y8496228D02*
X46742400Y8458133D01*
X46704304Y8381942D01*
X46704304Y8191466D01*
X46742400Y8115276D01*
X46780495Y8077180D01*
X46856685Y8039085D01*
X46932876Y8039085D01*
X47047161Y8077180D01*
X47504304Y8534323D01*
X47504304Y8039085D01*
X46704304Y7543847D02*
X46704304Y7467657D01*
X46742400Y7391466D01*
X46780495Y7353371D01*
X46856685Y7315276D01*
X47009066Y7277180D01*
X47199542Y7277180D01*
X47351923Y7315276D01*
X47428114Y7353371D01*
X47466209Y7391466D01*
X47504304Y7467657D01*
X47504304Y7543847D01*
X47466209Y7620038D01*
X47428114Y7658133D01*
X47351923Y7696228D01*
X47199542Y7734323D01*
X47009066Y7734323D01*
X46856685Y7696228D01*
X46780495Y7658133D01*
X46742400Y7620038D01*
X46704304Y7543847D01*
X47504304Y6515276D02*
X47504304Y6972419D01*
X47504304Y6743847D02*
X46704304Y6743847D01*
X46818590Y6820038D01*
X46894780Y6896228D01*
X46932876Y6972419D01*
X38438095Y-23561904D02*
X38400000Y-23485714D01*
X38323809Y-23409523D01*
X38209523Y-23295238D01*
X38171428Y-23219047D01*
X38171428Y-23142857D01*
X38361904Y-23180952D02*
X38323809Y-23104761D01*
X38247619Y-23028571D01*
X38095238Y-22990476D01*
X37828571Y-22990476D01*
X37676190Y-23028571D01*
X37600000Y-23104761D01*
X37561904Y-23180952D01*
X37561904Y-23333333D01*
X37600000Y-23409523D01*
X37676190Y-23485714D01*
X37828571Y-23523809D01*
X38095238Y-23523809D01*
X38247619Y-23485714D01*
X38323809Y-23409523D01*
X38361904Y-23333333D01*
X38361904Y-23180952D01*
X37638095Y-23828571D02*
X37600000Y-23866666D01*
X37561904Y-23942857D01*
X37561904Y-24133333D01*
X37600000Y-24209523D01*
X37638095Y-24247619D01*
X37714285Y-24285714D01*
X37790476Y-24285714D01*
X37904761Y-24247619D01*
X38361904Y-23790476D01*
X38361904Y-24285714D01*
X37638095Y-24590476D02*
X37600000Y-24628571D01*
X37561904Y-24704761D01*
X37561904Y-24895238D01*
X37600000Y-24971428D01*
X37638095Y-25009523D01*
X37714285Y-25047619D01*
X37790476Y-25047619D01*
X37904761Y-25009523D01*
X38361904Y-24552380D01*
X38361904Y-25047619D01*
X37828571Y-25733333D02*
X38361904Y-25733333D01*
X37523809Y-25542857D02*
X38095238Y-25352380D01*
X38095238Y-25847619D01*
X58350095Y-23291904D02*
X58312000Y-23215714D01*
X58235809Y-23139523D01*
X58121523Y-23025238D01*
X58083428Y-22949047D01*
X58083428Y-22872857D01*
X58273904Y-22910952D02*
X58235809Y-22834761D01*
X58159619Y-22758571D01*
X58007238Y-22720476D01*
X57740571Y-22720476D01*
X57588190Y-22758571D01*
X57512000Y-22834761D01*
X57473904Y-22910952D01*
X57473904Y-23063333D01*
X57512000Y-23139523D01*
X57588190Y-23215714D01*
X57740571Y-23253809D01*
X58007238Y-23253809D01*
X58159619Y-23215714D01*
X58235809Y-23139523D01*
X58273904Y-23063333D01*
X58273904Y-22910952D01*
X57550095Y-23558571D02*
X57512000Y-23596666D01*
X57473904Y-23672857D01*
X57473904Y-23863333D01*
X57512000Y-23939523D01*
X57550095Y-23977619D01*
X57626285Y-24015714D01*
X57702476Y-24015714D01*
X57816761Y-23977619D01*
X58273904Y-23520476D01*
X58273904Y-24015714D01*
X57473904Y-24282380D02*
X57473904Y-24777619D01*
X57778666Y-24510952D01*
X57778666Y-24625238D01*
X57816761Y-24701428D01*
X57854857Y-24739523D01*
X57931047Y-24777619D01*
X58121523Y-24777619D01*
X58197714Y-24739523D01*
X58235809Y-24701428D01*
X58273904Y-24625238D01*
X58273904Y-24396666D01*
X58235809Y-24320476D01*
X58197714Y-24282380D01*
X57550095Y-25082380D02*
X57512000Y-25120476D01*
X57473904Y-25196666D01*
X57473904Y-25387142D01*
X57512000Y-25463333D01*
X57550095Y-25501428D01*
X57626285Y-25539523D01*
X57702476Y-25539523D01*
X57816761Y-25501428D01*
X58273904Y-25044285D01*
X58273904Y-25539523D01*
X24231428Y12985695D02*
X24231428Y12338076D01*
X24193333Y12261885D01*
X24155238Y12223790D01*
X24079047Y12185695D01*
X23926666Y12185695D01*
X23850476Y12223790D01*
X23812380Y12261885D01*
X23774285Y12338076D01*
X23774285Y12985695D01*
X23431428Y12909504D02*
X23393333Y12947600D01*
X23317142Y12985695D01*
X23126666Y12985695D01*
X23050476Y12947600D01*
X23012380Y12909504D01*
X22974285Y12833314D01*
X22974285Y12757123D01*
X23012380Y12642838D01*
X23469523Y12185695D01*
X22974285Y12185695D01*
X22479047Y12985695D02*
X22402857Y12985695D01*
X22326666Y12947600D01*
X22288571Y12909504D01*
X22250476Y12833314D01*
X22212380Y12680933D01*
X22212380Y12490457D01*
X22250476Y12338076D01*
X22288571Y12261885D01*
X22326666Y12223790D01*
X22402857Y12185695D01*
X22479047Y12185695D01*
X22555238Y12223790D01*
X22593333Y12261885D01*
X22631428Y12338076D01*
X22669523Y12490457D01*
X22669523Y12680933D01*
X22631428Y12833314D01*
X22593333Y12909504D01*
X22555238Y12947600D01*
X22479047Y12985695D01*
X21526666Y12985695D02*
X21679047Y12985695D01*
X21755238Y12947600D01*
X21793333Y12909504D01*
X21869523Y12795219D01*
X21907619Y12642838D01*
X21907619Y12338076D01*
X21869523Y12261885D01*
X21831428Y12223790D01*
X21755238Y12185695D01*
X21602857Y12185695D01*
X21526666Y12223790D01*
X21488571Y12261885D01*
X21450476Y12338076D01*
X21450476Y12528552D01*
X21488571Y12604742D01*
X21526666Y12642838D01*
X21602857Y12680933D01*
X21755238Y12680933D01*
X21831428Y12642838D01*
X21869523Y12604742D01*
X21907619Y12528552D01*
X42551238Y11118895D02*
X42817904Y11499847D01*
X43008380Y11118895D02*
X43008380Y11918895D01*
X42703619Y11918895D01*
X42627428Y11880800D01*
X42589333Y11842704D01*
X42551238Y11766514D01*
X42551238Y11652228D01*
X42589333Y11576038D01*
X42627428Y11537942D01*
X42703619Y11499847D01*
X43008380Y11499847D01*
X42246476Y11842704D02*
X42208380Y11880800D01*
X42132190Y11918895D01*
X41941714Y11918895D01*
X41865523Y11880800D01*
X41827428Y11842704D01*
X41789333Y11766514D01*
X41789333Y11690323D01*
X41827428Y11576038D01*
X42284571Y11118895D01*
X41789333Y11118895D01*
X41294095Y11918895D02*
X41217904Y11918895D01*
X41141714Y11880800D01*
X41103619Y11842704D01*
X41065523Y11766514D01*
X41027428Y11614133D01*
X41027428Y11423657D01*
X41065523Y11271276D01*
X41103619Y11195085D01*
X41141714Y11156990D01*
X41217904Y11118895D01*
X41294095Y11118895D01*
X41370285Y11156990D01*
X41408380Y11195085D01*
X41446476Y11271276D01*
X41484571Y11423657D01*
X41484571Y11614133D01*
X41446476Y11766514D01*
X41408380Y11842704D01*
X41370285Y11880800D01*
X41294095Y11918895D01*
X40341714Y11652228D02*
X40341714Y11118895D01*
X40532190Y11956990D02*
X40722666Y11385561D01*
X40227428Y11385561D01*
X56673638Y-17735504D02*
X56940304Y-17354552D01*
X57130780Y-17735504D02*
X57130780Y-16935504D01*
X56826019Y-16935504D01*
X56749828Y-16973600D01*
X56711733Y-17011695D01*
X56673638Y-17087885D01*
X56673638Y-17202171D01*
X56711733Y-17278361D01*
X56749828Y-17316457D01*
X56826019Y-17354552D01*
X57130780Y-17354552D01*
X56368876Y-17011695D02*
X56330780Y-16973600D01*
X56254590Y-16935504D01*
X56064114Y-16935504D01*
X55987923Y-16973600D01*
X55949828Y-17011695D01*
X55911733Y-17087885D01*
X55911733Y-17164076D01*
X55949828Y-17278361D01*
X56406971Y-17735504D01*
X55911733Y-17735504D01*
X55226019Y-17202171D02*
X55226019Y-17735504D01*
X55416495Y-16897409D02*
X55606971Y-17468838D01*
X55111733Y-17468838D01*
X54883161Y-16935504D02*
X54349828Y-16935504D01*
X54692685Y-17735504D01*
X10953638Y30575295D02*
X11220304Y30956247D01*
X11410780Y30575295D02*
X11410780Y31375295D01*
X11106019Y31375295D01*
X11029828Y31337200D01*
X10991733Y31299104D01*
X10953638Y31222914D01*
X10953638Y31108628D01*
X10991733Y31032438D01*
X11029828Y30994342D01*
X11106019Y30956247D01*
X11410780Y30956247D01*
X10648876Y31299104D02*
X10610780Y31337200D01*
X10534590Y31375295D01*
X10344114Y31375295D01*
X10267923Y31337200D01*
X10229828Y31299104D01*
X10191733Y31222914D01*
X10191733Y31146723D01*
X10229828Y31032438D01*
X10686971Y30575295D01*
X10191733Y30575295D01*
X9886971Y31299104D02*
X9848876Y31337200D01*
X9772685Y31375295D01*
X9582209Y31375295D01*
X9506019Y31337200D01*
X9467923Y31299104D01*
X9429828Y31222914D01*
X9429828Y31146723D01*
X9467923Y31032438D01*
X9925066Y30575295D01*
X9429828Y30575295D01*
X8934590Y31375295D02*
X8858400Y31375295D01*
X8782209Y31337200D01*
X8744114Y31299104D01*
X8706019Y31222914D01*
X8667923Y31070533D01*
X8667923Y30880057D01*
X8706019Y30727676D01*
X8744114Y30651485D01*
X8782209Y30613390D01*
X8858400Y30575295D01*
X8934590Y30575295D01*
X9010780Y30613390D01*
X9048876Y30651485D01*
X9086971Y30727676D01*
X9125066Y30880057D01*
X9125066Y31070533D01*
X9086971Y31222914D01*
X9048876Y31299104D01*
X9010780Y31337200D01*
X8934590Y31375295D01*
X15525638Y-20732704D02*
X15792304Y-20351752D01*
X15982780Y-20732704D02*
X15982780Y-19932704D01*
X15678019Y-19932704D01*
X15601828Y-19970800D01*
X15563733Y-20008895D01*
X15525638Y-20085085D01*
X15525638Y-20199371D01*
X15563733Y-20275561D01*
X15601828Y-20313657D01*
X15678019Y-20351752D01*
X15982780Y-20351752D01*
X15220876Y-20008895D02*
X15182780Y-19970800D01*
X15106590Y-19932704D01*
X14916114Y-19932704D01*
X14839923Y-19970800D01*
X14801828Y-20008895D01*
X14763733Y-20085085D01*
X14763733Y-20161276D01*
X14801828Y-20275561D01*
X15258971Y-20732704D01*
X14763733Y-20732704D01*
X14497066Y-19932704D02*
X14001828Y-19932704D01*
X14268495Y-20237466D01*
X14154209Y-20237466D01*
X14078019Y-20275561D01*
X14039923Y-20313657D01*
X14001828Y-20389847D01*
X14001828Y-20580323D01*
X14039923Y-20656514D01*
X14078019Y-20694609D01*
X14154209Y-20732704D01*
X14382780Y-20732704D01*
X14458971Y-20694609D01*
X14497066Y-20656514D01*
X13735161Y-19932704D02*
X13201828Y-19932704D01*
X13544685Y-20732704D01*
X25076095Y24409295D02*
X25038000Y24485485D01*
X24961809Y24561676D01*
X24847523Y24675961D01*
X24809428Y24752152D01*
X24809428Y24828342D01*
X24999904Y24790247D02*
X24961809Y24866438D01*
X24885619Y24942628D01*
X24733238Y24980723D01*
X24466571Y24980723D01*
X24314190Y24942628D01*
X24238000Y24866438D01*
X24199904Y24790247D01*
X24199904Y24637866D01*
X24238000Y24561676D01*
X24314190Y24485485D01*
X24466571Y24447390D01*
X24733238Y24447390D01*
X24885619Y24485485D01*
X24961809Y24561676D01*
X24999904Y24637866D01*
X24999904Y24790247D01*
X24276095Y24142628D02*
X24238000Y24104533D01*
X24199904Y24028342D01*
X24199904Y23837866D01*
X24238000Y23761676D01*
X24276095Y23723580D01*
X24352285Y23685485D01*
X24428476Y23685485D01*
X24542761Y23723580D01*
X24999904Y24180723D01*
X24999904Y23685485D01*
X24199904Y23190247D02*
X24199904Y23114057D01*
X24238000Y23037866D01*
X24276095Y22999771D01*
X24352285Y22961676D01*
X24504666Y22923580D01*
X24695142Y22923580D01*
X24847523Y22961676D01*
X24923714Y22999771D01*
X24961809Y23037866D01*
X24999904Y23114057D01*
X24999904Y23190247D01*
X24961809Y23266438D01*
X24923714Y23304533D01*
X24847523Y23342628D01*
X24695142Y23380723D01*
X24504666Y23380723D01*
X24352285Y23342628D01*
X24276095Y23304533D01*
X24238000Y23266438D01*
X24199904Y23190247D01*
X24542761Y22466438D02*
X24504666Y22542628D01*
X24466571Y22580723D01*
X24390380Y22618819D01*
X24352285Y22618819D01*
X24276095Y22580723D01*
X24238000Y22542628D01*
X24199904Y22466438D01*
X24199904Y22314057D01*
X24238000Y22237866D01*
X24276095Y22199771D01*
X24352285Y22161676D01*
X24390380Y22161676D01*
X24466571Y22199771D01*
X24504666Y22237866D01*
X24542761Y22314057D01*
X24542761Y22466438D01*
X24580857Y22542628D01*
X24618952Y22580723D01*
X24695142Y22618819D01*
X24847523Y22618819D01*
X24923714Y22580723D01*
X24961809Y22542628D01*
X24999904Y22466438D01*
X24999904Y22314057D01*
X24961809Y22237866D01*
X24923714Y22199771D01*
X24847523Y22161676D01*
X24695142Y22161676D01*
X24618952Y22199771D01*
X24580857Y22237866D01*
X24542761Y22314057D01*
X5264095Y-7543904D02*
X5226000Y-7467714D01*
X5149809Y-7391523D01*
X5035523Y-7277238D01*
X4997428Y-7201047D01*
X4997428Y-7124857D01*
X5187904Y-7162952D02*
X5149809Y-7086761D01*
X5073619Y-7010571D01*
X4921238Y-6972476D01*
X4654571Y-6972476D01*
X4502190Y-7010571D01*
X4426000Y-7086761D01*
X4387904Y-7162952D01*
X4387904Y-7315333D01*
X4426000Y-7391523D01*
X4502190Y-7467714D01*
X4654571Y-7505809D01*
X4921238Y-7505809D01*
X5073619Y-7467714D01*
X5149809Y-7391523D01*
X5187904Y-7315333D01*
X5187904Y-7162952D01*
X4464095Y-7810571D02*
X4426000Y-7848666D01*
X4387904Y-7924857D01*
X4387904Y-8115333D01*
X4426000Y-8191523D01*
X4464095Y-8229619D01*
X4540285Y-8267714D01*
X4616476Y-8267714D01*
X4730761Y-8229619D01*
X5187904Y-7772476D01*
X5187904Y-8267714D01*
X4464095Y-8572476D02*
X4426000Y-8610571D01*
X4387904Y-8686761D01*
X4387904Y-8877238D01*
X4426000Y-8953428D01*
X4464095Y-8991523D01*
X4540285Y-9029619D01*
X4616476Y-9029619D01*
X4730761Y-8991523D01*
X5187904Y-8534380D01*
X5187904Y-9029619D01*
X4387904Y-9296285D02*
X4387904Y-9791523D01*
X4692666Y-9524857D01*
X4692666Y-9639142D01*
X4730761Y-9715333D01*
X4768857Y-9753428D01*
X4845047Y-9791523D01*
X5035523Y-9791523D01*
X5111714Y-9753428D01*
X5149809Y-9715333D01*
X5187904Y-9639142D01*
X5187904Y-9410571D01*
X5149809Y-9334380D01*
X5111714Y-9296285D01*
X59670895Y8712095D02*
X59632800Y8788285D01*
X59556609Y8864476D01*
X59442323Y8978761D01*
X59404228Y9054952D01*
X59404228Y9131142D01*
X59594704Y9093047D02*
X59556609Y9169238D01*
X59480419Y9245428D01*
X59328038Y9283523D01*
X59061371Y9283523D01*
X58908990Y9245428D01*
X58832800Y9169238D01*
X58794704Y9093047D01*
X58794704Y8940666D01*
X58832800Y8864476D01*
X58908990Y8788285D01*
X59061371Y8750190D01*
X59328038Y8750190D01*
X59480419Y8788285D01*
X59556609Y8864476D01*
X59594704Y8940666D01*
X59594704Y9093047D01*
X58870895Y8445428D02*
X58832800Y8407333D01*
X58794704Y8331142D01*
X58794704Y8140666D01*
X58832800Y8064476D01*
X58870895Y8026380D01*
X58947085Y7988285D01*
X59023276Y7988285D01*
X59137561Y8026380D01*
X59594704Y8483523D01*
X59594704Y7988285D01*
X59594704Y7226380D02*
X59594704Y7683523D01*
X59594704Y7454952D02*
X58794704Y7454952D01*
X58908990Y7531142D01*
X58985180Y7607333D01*
X59023276Y7683523D01*
X59594704Y6464476D02*
X59594704Y6921619D01*
X59594704Y6693047D02*
X58794704Y6693047D01*
X58908990Y6769238D01*
X58985180Y6845428D01*
X59023276Y6921619D01*
X38252228Y12988095D02*
X38252228Y12340476D01*
X38214133Y12264285D01*
X38176038Y12226190D01*
X38099847Y12188095D01*
X37947466Y12188095D01*
X37871276Y12226190D01*
X37833180Y12264285D01*
X37795085Y12340476D01*
X37795085Y12988095D01*
X37452228Y12911904D02*
X37414133Y12950000D01*
X37337942Y12988095D01*
X37147466Y12988095D01*
X37071276Y12950000D01*
X37033180Y12911904D01*
X36995085Y12835714D01*
X36995085Y12759523D01*
X37033180Y12645238D01*
X37490323Y12188095D01*
X36995085Y12188095D01*
X36499847Y12988095D02*
X36423657Y12988095D01*
X36347466Y12950000D01*
X36309371Y12911904D01*
X36271276Y12835714D01*
X36233180Y12683333D01*
X36233180Y12492857D01*
X36271276Y12340476D01*
X36309371Y12264285D01*
X36347466Y12226190D01*
X36423657Y12188095D01*
X36499847Y12188095D01*
X36576038Y12226190D01*
X36614133Y12264285D01*
X36652228Y12340476D01*
X36690323Y12492857D01*
X36690323Y12683333D01*
X36652228Y12835714D01*
X36614133Y12911904D01*
X36576038Y12950000D01*
X36499847Y12988095D01*
X35966514Y12988095D02*
X35433180Y12988095D01*
X35776038Y12188095D01*
X49104438Y-17633904D02*
X49371104Y-17252952D01*
X49561580Y-17633904D02*
X49561580Y-16833904D01*
X49256819Y-16833904D01*
X49180628Y-16872000D01*
X49142533Y-16910095D01*
X49104438Y-16986285D01*
X49104438Y-17100571D01*
X49142533Y-17176761D01*
X49180628Y-17214857D01*
X49256819Y-17252952D01*
X49561580Y-17252952D01*
X48799676Y-16910095D02*
X48761580Y-16872000D01*
X48685390Y-16833904D01*
X48494914Y-16833904D01*
X48418723Y-16872000D01*
X48380628Y-16910095D01*
X48342533Y-16986285D01*
X48342533Y-17062476D01*
X48380628Y-17176761D01*
X48837771Y-17633904D01*
X48342533Y-17633904D01*
X48037771Y-16910095D02*
X47999676Y-16872000D01*
X47923485Y-16833904D01*
X47733009Y-16833904D01*
X47656819Y-16872000D01*
X47618723Y-16910095D01*
X47580628Y-16986285D01*
X47580628Y-17062476D01*
X47618723Y-17176761D01*
X48075866Y-17633904D01*
X47580628Y-17633904D01*
X47313961Y-16833904D02*
X46780628Y-16833904D01*
X47123485Y-17633904D01*
X54997238Y-1555714D02*
X55035333Y-1593809D01*
X55149619Y-1631904D01*
X55225809Y-1631904D01*
X55340095Y-1593809D01*
X55416285Y-1517619D01*
X55454380Y-1441428D01*
X55492476Y-1289047D01*
X55492476Y-1174761D01*
X55454380Y-1022380D01*
X55416285Y-946190D01*
X55340095Y-870000D01*
X55225809Y-831904D01*
X55149619Y-831904D01*
X55035333Y-870000D01*
X54997238Y-908095D01*
X54692476Y-908095D02*
X54654380Y-870000D01*
X54578190Y-831904D01*
X54387714Y-831904D01*
X54311523Y-870000D01*
X54273428Y-908095D01*
X54235333Y-984285D01*
X54235333Y-1060476D01*
X54273428Y-1174761D01*
X54730571Y-1631904D01*
X54235333Y-1631904D01*
X53473428Y-1631904D02*
X53930571Y-1631904D01*
X53702000Y-1631904D02*
X53702000Y-831904D01*
X53778190Y-946190D01*
X53854380Y-1022380D01*
X53930571Y-1060476D01*
X52978190Y-831904D02*
X52902000Y-831904D01*
X52825809Y-870000D01*
X52787714Y-908095D01*
X52749619Y-984285D01*
X52711523Y-1136666D01*
X52711523Y-1327142D01*
X52749619Y-1479523D01*
X52787714Y-1555714D01*
X52825809Y-1593809D01*
X52902000Y-1631904D01*
X52978190Y-1631904D01*
X53054380Y-1593809D01*
X53092476Y-1555714D01*
X53130571Y-1479523D01*
X53168666Y-1327142D01*
X53168666Y-1136666D01*
X53130571Y-984285D01*
X53092476Y-908095D01*
X53054380Y-870000D01*
X52978190Y-831904D01*
X46361238Y11042685D02*
X46399333Y11004590D01*
X46513619Y10966495D01*
X46589809Y10966495D01*
X46704095Y11004590D01*
X46780285Y11080780D01*
X46818380Y11156971D01*
X46856476Y11309352D01*
X46856476Y11423638D01*
X46818380Y11576019D01*
X46780285Y11652209D01*
X46704095Y11728400D01*
X46589809Y11766495D01*
X46513619Y11766495D01*
X46399333Y11728400D01*
X46361238Y11690304D01*
X46056476Y11690304D02*
X46018380Y11728400D01*
X45942190Y11766495D01*
X45751714Y11766495D01*
X45675523Y11728400D01*
X45637428Y11690304D01*
X45599333Y11614114D01*
X45599333Y11537923D01*
X45637428Y11423638D01*
X46094571Y10966495D01*
X45599333Y10966495D01*
X45104095Y11766495D02*
X45027904Y11766495D01*
X44951714Y11728400D01*
X44913619Y11690304D01*
X44875523Y11614114D01*
X44837428Y11461733D01*
X44837428Y11271257D01*
X44875523Y11118876D01*
X44913619Y11042685D01*
X44951714Y11004590D01*
X45027904Y10966495D01*
X45104095Y10966495D01*
X45180285Y11004590D01*
X45218380Y11042685D01*
X45256476Y11118876D01*
X45294571Y11271257D01*
X45294571Y11461733D01*
X45256476Y11614114D01*
X45218380Y11690304D01*
X45180285Y11728400D01*
X45104095Y11766495D01*
X44380285Y11423638D02*
X44456476Y11461733D01*
X44494571Y11499828D01*
X44532666Y11576019D01*
X44532666Y11614114D01*
X44494571Y11690304D01*
X44456476Y11728400D01*
X44380285Y11766495D01*
X44227904Y11766495D01*
X44151714Y11728400D01*
X44113619Y11690304D01*
X44075523Y11614114D01*
X44075523Y11576019D01*
X44113619Y11499828D01*
X44151714Y11461733D01*
X44227904Y11423638D01*
X44380285Y11423638D01*
X44456476Y11385542D01*
X44494571Y11347447D01*
X44532666Y11271257D01*
X44532666Y11118876D01*
X44494571Y11042685D01*
X44456476Y11004590D01*
X44380285Y10966495D01*
X44227904Y10966495D01*
X44151714Y11004590D01*
X44113619Y11042685D01*
X44075523Y11118876D01*
X44075523Y11271257D01*
X44113619Y11347447D01*
X44151714Y11385542D01*
X44227904Y11423638D01*
X53981238Y11017295D02*
X54247904Y11398247D01*
X54438380Y11017295D02*
X54438380Y11817295D01*
X54133619Y11817295D01*
X54057428Y11779200D01*
X54019333Y11741104D01*
X53981238Y11664914D01*
X53981238Y11550628D01*
X54019333Y11474438D01*
X54057428Y11436342D01*
X54133619Y11398247D01*
X54438380Y11398247D01*
X53676476Y11741104D02*
X53638380Y11779200D01*
X53562190Y11817295D01*
X53371714Y11817295D01*
X53295523Y11779200D01*
X53257428Y11741104D01*
X53219333Y11664914D01*
X53219333Y11588723D01*
X53257428Y11474438D01*
X53714571Y11017295D01*
X53219333Y11017295D01*
X52724095Y11817295D02*
X52647904Y11817295D01*
X52571714Y11779200D01*
X52533619Y11741104D01*
X52495523Y11664914D01*
X52457428Y11512533D01*
X52457428Y11322057D01*
X52495523Y11169676D01*
X52533619Y11093485D01*
X52571714Y11055390D01*
X52647904Y11017295D01*
X52724095Y11017295D01*
X52800285Y11055390D01*
X52838380Y11093485D01*
X52876476Y11169676D01*
X52914571Y11322057D01*
X52914571Y11512533D01*
X52876476Y11664914D01*
X52838380Y11741104D01*
X52800285Y11779200D01*
X52724095Y11817295D01*
X52190761Y11817295D02*
X51657428Y11817295D01*
X52000285Y11017295D01*
X10953638Y29406895D02*
X11220304Y29787847D01*
X11410780Y29406895D02*
X11410780Y30206895D01*
X11106019Y30206895D01*
X11029828Y30168800D01*
X10991733Y30130704D01*
X10953638Y30054514D01*
X10953638Y29940228D01*
X10991733Y29864038D01*
X11029828Y29825942D01*
X11106019Y29787847D01*
X11410780Y29787847D01*
X10648876Y30130704D02*
X10610780Y30168800D01*
X10534590Y30206895D01*
X10344114Y30206895D01*
X10267923Y30168800D01*
X10229828Y30130704D01*
X10191733Y30054514D01*
X10191733Y29978323D01*
X10229828Y29864038D01*
X10686971Y29406895D01*
X10191733Y29406895D01*
X9886971Y30130704D02*
X9848876Y30168800D01*
X9772685Y30206895D01*
X9582209Y30206895D01*
X9506019Y30168800D01*
X9467923Y30130704D01*
X9429828Y30054514D01*
X9429828Y29978323D01*
X9467923Y29864038D01*
X9925066Y29406895D01*
X9429828Y29406895D01*
X8667923Y29406895D02*
X9125066Y29406895D01*
X8896495Y29406895D02*
X8896495Y30206895D01*
X8972685Y30092609D01*
X9048876Y30016419D01*
X9125066Y29978323D01*
X19386438Y247695D02*
X19653104Y628647D01*
X19843580Y247695D02*
X19843580Y1047695D01*
X19538819Y1047695D01*
X19462628Y1009600D01*
X19424533Y971504D01*
X19386438Y895314D01*
X19386438Y781028D01*
X19424533Y704838D01*
X19462628Y666742D01*
X19538819Y628647D01*
X19843580Y628647D01*
X19081676Y971504D02*
X19043580Y1009600D01*
X18967390Y1047695D01*
X18776914Y1047695D01*
X18700723Y1009600D01*
X18662628Y971504D01*
X18624533Y895314D01*
X18624533Y819123D01*
X18662628Y704838D01*
X19119771Y247695D01*
X18624533Y247695D01*
X17862628Y247695D02*
X18319771Y247695D01*
X18091200Y247695D02*
X18091200Y1047695D01*
X18167390Y933409D01*
X18243580Y857219D01*
X18319771Y819123D01*
X17138819Y1047695D02*
X17519771Y1047695D01*
X17557866Y666742D01*
X17519771Y704838D01*
X17443580Y742933D01*
X17253104Y742933D01*
X17176914Y704838D01*
X17138819Y666742D01*
X17100723Y590552D01*
X17100723Y400076D01*
X17138819Y323885D01*
X17176914Y285790D01*
X17253104Y247695D01*
X17443580Y247695D01*
X17519771Y285790D01*
X17557866Y323885D01*
X12782438Y247695D02*
X13049104Y628647D01*
X13239580Y247695D02*
X13239580Y1047695D01*
X12934819Y1047695D01*
X12858628Y1009600D01*
X12820533Y971504D01*
X12782438Y895314D01*
X12782438Y781028D01*
X12820533Y704838D01*
X12858628Y666742D01*
X12934819Y628647D01*
X13239580Y628647D01*
X12477676Y971504D02*
X12439580Y1009600D01*
X12363390Y1047695D01*
X12172914Y1047695D01*
X12096723Y1009600D01*
X12058628Y971504D01*
X12020533Y895314D01*
X12020533Y819123D01*
X12058628Y704838D01*
X12515771Y247695D01*
X12020533Y247695D01*
X11525295Y1047695D02*
X11449104Y1047695D01*
X11372914Y1009600D01*
X11334819Y971504D01*
X11296723Y895314D01*
X11258628Y742933D01*
X11258628Y552457D01*
X11296723Y400076D01*
X11334819Y323885D01*
X11372914Y285790D01*
X11449104Y247695D01*
X11525295Y247695D01*
X11601485Y285790D01*
X11639580Y323885D01*
X11677676Y400076D01*
X11715771Y552457D01*
X11715771Y742933D01*
X11677676Y895314D01*
X11639580Y971504D01*
X11601485Y1009600D01*
X11525295Y1047695D01*
X10572914Y1047695D02*
X10725295Y1047695D01*
X10801485Y1009600D01*
X10839580Y971504D01*
X10915771Y857219D01*
X10953866Y704838D01*
X10953866Y400076D01*
X10915771Y323885D01*
X10877676Y285790D01*
X10801485Y247695D01*
X10649104Y247695D01*
X10572914Y285790D01*
X10534819Y323885D01*
X10496723Y400076D01*
X10496723Y590552D01*
X10534819Y666742D01*
X10572914Y704838D01*
X10649104Y742933D01*
X10801485Y742933D01*
X10877676Y704838D01*
X10915771Y666742D01*
X10953866Y590552D01*
X9074095Y-23190304D02*
X9036000Y-23114114D01*
X8959809Y-23037923D01*
X8845523Y-22923638D01*
X8807428Y-22847447D01*
X8807428Y-22771257D01*
X8997904Y-22809352D02*
X8959809Y-22733161D01*
X8883619Y-22656971D01*
X8731238Y-22618876D01*
X8464571Y-22618876D01*
X8312190Y-22656971D01*
X8236000Y-22733161D01*
X8197904Y-22809352D01*
X8197904Y-22961733D01*
X8236000Y-23037923D01*
X8312190Y-23114114D01*
X8464571Y-23152209D01*
X8731238Y-23152209D01*
X8883619Y-23114114D01*
X8959809Y-23037923D01*
X8997904Y-22961733D01*
X8997904Y-22809352D01*
X8274095Y-23456971D02*
X8236000Y-23495066D01*
X8197904Y-23571257D01*
X8197904Y-23761733D01*
X8236000Y-23837923D01*
X8274095Y-23876019D01*
X8350285Y-23914114D01*
X8426476Y-23914114D01*
X8540761Y-23876019D01*
X8997904Y-23418876D01*
X8997904Y-23914114D01*
X8274095Y-24218876D02*
X8236000Y-24256971D01*
X8197904Y-24333161D01*
X8197904Y-24523638D01*
X8236000Y-24599828D01*
X8274095Y-24637923D01*
X8350285Y-24676019D01*
X8426476Y-24676019D01*
X8540761Y-24637923D01*
X8997904Y-24180780D01*
X8997904Y-24676019D01*
X8997904Y-25056971D02*
X8997904Y-25209352D01*
X8959809Y-25285542D01*
X8921714Y-25323638D01*
X8807428Y-25399828D01*
X8655047Y-25437923D01*
X8350285Y-25437923D01*
X8274095Y-25399828D01*
X8236000Y-25361733D01*
X8197904Y-25285542D01*
X8197904Y-25133161D01*
X8236000Y-25056971D01*
X8274095Y-25018876D01*
X8350285Y-24980780D01*
X8540761Y-24980780D01*
X8616952Y-25018876D01*
X8655047Y-25056971D01*
X8693142Y-25133161D01*
X8693142Y-25285542D01*
X8655047Y-25361733D01*
X8616952Y-25399828D01*
X8540761Y-25437923D01*
X10617028Y12934895D02*
X10617028Y12287276D01*
X10578933Y12211085D01*
X10540838Y12172990D01*
X10464647Y12134895D01*
X10312266Y12134895D01*
X10236076Y12172990D01*
X10197980Y12211085D01*
X10159885Y12287276D01*
X10159885Y12934895D01*
X9817028Y12858704D02*
X9778933Y12896800D01*
X9702742Y12934895D01*
X9512266Y12934895D01*
X9436076Y12896800D01*
X9397980Y12858704D01*
X9359885Y12782514D01*
X9359885Y12706323D01*
X9397980Y12592038D01*
X9855123Y12134895D01*
X9359885Y12134895D01*
X8864647Y12934895D02*
X8788457Y12934895D01*
X8712266Y12896800D01*
X8674171Y12858704D01*
X8636076Y12782514D01*
X8597980Y12630133D01*
X8597980Y12439657D01*
X8636076Y12287276D01*
X8674171Y12211085D01*
X8712266Y12172990D01*
X8788457Y12134895D01*
X8864647Y12134895D01*
X8940838Y12172990D01*
X8978933Y12211085D01*
X9017028Y12287276D01*
X9055123Y12439657D01*
X9055123Y12630133D01*
X9017028Y12782514D01*
X8978933Y12858704D01*
X8940838Y12896800D01*
X8864647Y12934895D01*
X7874171Y12934895D02*
X8255123Y12934895D01*
X8293219Y12553942D01*
X8255123Y12592038D01*
X8178933Y12630133D01*
X7988457Y12630133D01*
X7912266Y12592038D01*
X7874171Y12553942D01*
X7836076Y12477752D01*
X7836076Y12287276D01*
X7874171Y12211085D01*
X7912266Y12172990D01*
X7988457Y12134895D01*
X8178933Y12134895D01*
X8255123Y12172990D01*
X8293219Y12211085D01*
X41636838Y-18853104D02*
X41903504Y-18472152D01*
X42093980Y-18853104D02*
X42093980Y-18053104D01*
X41789219Y-18053104D01*
X41713028Y-18091200D01*
X41674933Y-18129295D01*
X41636838Y-18205485D01*
X41636838Y-18319771D01*
X41674933Y-18395961D01*
X41713028Y-18434057D01*
X41789219Y-18472152D01*
X42093980Y-18472152D01*
X41332076Y-18129295D02*
X41293980Y-18091200D01*
X41217790Y-18053104D01*
X41027314Y-18053104D01*
X40951123Y-18091200D01*
X40913028Y-18129295D01*
X40874933Y-18205485D01*
X40874933Y-18281676D01*
X40913028Y-18395961D01*
X41370171Y-18853104D01*
X40874933Y-18853104D01*
X40608266Y-18053104D02*
X40113028Y-18053104D01*
X40379695Y-18357866D01*
X40265409Y-18357866D01*
X40189219Y-18395961D01*
X40151123Y-18434057D01*
X40113028Y-18510247D01*
X40113028Y-18700723D01*
X40151123Y-18776914D01*
X40189219Y-18815009D01*
X40265409Y-18853104D01*
X40493980Y-18853104D01*
X40570171Y-18815009D01*
X40608266Y-18776914D01*
X39427314Y-18053104D02*
X39579695Y-18053104D01*
X39655885Y-18091200D01*
X39693980Y-18129295D01*
X39770171Y-18243580D01*
X39808266Y-18395961D01*
X39808266Y-18700723D01*
X39770171Y-18776914D01*
X39732076Y-18815009D01*
X39655885Y-18853104D01*
X39503504Y-18853104D01*
X39427314Y-18815009D01*
X39389219Y-18776914D01*
X39351123Y-18700723D01*
X39351123Y-18510247D01*
X39389219Y-18434057D01*
X39427314Y-18395961D01*
X39503504Y-18357866D01*
X39655885Y-18357866D01*
X39732076Y-18395961D01*
X39770171Y-18434057D01*
X39808266Y-18510247D01*
X45345238Y-17633904D02*
X45611904Y-17252952D01*
X45802380Y-17633904D02*
X45802380Y-16833904D01*
X45497619Y-16833904D01*
X45421428Y-16872000D01*
X45383333Y-16910095D01*
X45345238Y-16986285D01*
X45345238Y-17100571D01*
X45383333Y-17176761D01*
X45421428Y-17214857D01*
X45497619Y-17252952D01*
X45802380Y-17252952D01*
X45040476Y-16910095D02*
X45002380Y-16872000D01*
X44926190Y-16833904D01*
X44735714Y-16833904D01*
X44659523Y-16872000D01*
X44621428Y-16910095D01*
X44583333Y-16986285D01*
X44583333Y-17062476D01*
X44621428Y-17176761D01*
X45078571Y-17633904D01*
X44583333Y-17633904D01*
X43897619Y-17100571D02*
X43897619Y-17633904D01*
X44088095Y-16795809D02*
X44278571Y-17367238D01*
X43783333Y-17367238D01*
X43516666Y-16910095D02*
X43478571Y-16872000D01*
X43402380Y-16833904D01*
X43211904Y-16833904D01*
X43135714Y-16872000D01*
X43097619Y-16910095D01*
X43059523Y-16986285D01*
X43059523Y-17062476D01*
X43097619Y-17176761D01*
X43554761Y-17633904D01*
X43059523Y-17633904D01*
X19437238Y-20732704D02*
X19703904Y-20351752D01*
X19894380Y-20732704D02*
X19894380Y-19932704D01*
X19589619Y-19932704D01*
X19513428Y-19970800D01*
X19475333Y-20008895D01*
X19437238Y-20085085D01*
X19437238Y-20199371D01*
X19475333Y-20275561D01*
X19513428Y-20313657D01*
X19589619Y-20351752D01*
X19894380Y-20351752D01*
X19132476Y-20008895D02*
X19094380Y-19970800D01*
X19018190Y-19932704D01*
X18827714Y-19932704D01*
X18751523Y-19970800D01*
X18713428Y-20008895D01*
X18675333Y-20085085D01*
X18675333Y-20161276D01*
X18713428Y-20275561D01*
X19170571Y-20732704D01*
X18675333Y-20732704D01*
X17989619Y-20199371D02*
X17989619Y-20732704D01*
X18180095Y-19894609D02*
X18370571Y-20466038D01*
X17875333Y-20466038D01*
X17227714Y-19932704D02*
X17380095Y-19932704D01*
X17456285Y-19970800D01*
X17494380Y-20008895D01*
X17570571Y-20123180D01*
X17608666Y-20275561D01*
X17608666Y-20580323D01*
X17570571Y-20656514D01*
X17532476Y-20694609D01*
X17456285Y-20732704D01*
X17303904Y-20732704D01*
X17227714Y-20694609D01*
X17189619Y-20656514D01*
X17151523Y-20580323D01*
X17151523Y-20389847D01*
X17189619Y-20313657D01*
X17227714Y-20275561D01*
X17303904Y-20237466D01*
X17456285Y-20237466D01*
X17532476Y-20275561D01*
X17570571Y-20313657D01*
X17608666Y-20389847D01*
X59721695Y24358495D02*
X59683600Y24434685D01*
X59607409Y24510876D01*
X59493123Y24625161D01*
X59455028Y24701352D01*
X59455028Y24777542D01*
X59645504Y24739447D02*
X59607409Y24815638D01*
X59531219Y24891828D01*
X59378838Y24929923D01*
X59112171Y24929923D01*
X58959790Y24891828D01*
X58883600Y24815638D01*
X58845504Y24739447D01*
X58845504Y24587066D01*
X58883600Y24510876D01*
X58959790Y24434685D01*
X59112171Y24396590D01*
X59378838Y24396590D01*
X59531219Y24434685D01*
X59607409Y24510876D01*
X59645504Y24587066D01*
X59645504Y24739447D01*
X58921695Y24091828D02*
X58883600Y24053733D01*
X58845504Y23977542D01*
X58845504Y23787066D01*
X58883600Y23710876D01*
X58921695Y23672780D01*
X58997885Y23634685D01*
X59074076Y23634685D01*
X59188361Y23672780D01*
X59645504Y24129923D01*
X59645504Y23634685D01*
X59645504Y22872780D02*
X59645504Y23329923D01*
X59645504Y23101352D02*
X58845504Y23101352D01*
X58959790Y23177542D01*
X59035980Y23253733D01*
X59074076Y23329923D01*
X58845504Y22148971D02*
X58845504Y22529923D01*
X59226457Y22568019D01*
X59188361Y22529923D01*
X59150266Y22453733D01*
X59150266Y22263257D01*
X59188361Y22187066D01*
X59226457Y22148971D01*
X59302647Y22110876D01*
X59493123Y22110876D01*
X59569314Y22148971D01*
X59607409Y22187066D01*
X59645504Y22263257D01*
X59645504Y22453733D01*
X59607409Y22529923D01*
X59569314Y22568019D01*
X57740438Y19805695D02*
X58007104Y20186647D01*
X58197580Y19805695D02*
X58197580Y20605695D01*
X57892819Y20605695D01*
X57816628Y20567600D01*
X57778533Y20529504D01*
X57740438Y20453314D01*
X57740438Y20339028D01*
X57778533Y20262838D01*
X57816628Y20224742D01*
X57892819Y20186647D01*
X58197580Y20186647D01*
X57435676Y20529504D02*
X57397580Y20567600D01*
X57321390Y20605695D01*
X57130914Y20605695D01*
X57054723Y20567600D01*
X57016628Y20529504D01*
X56978533Y20453314D01*
X56978533Y20377123D01*
X57016628Y20262838D01*
X57473771Y19805695D01*
X56978533Y19805695D01*
X56673771Y20529504D02*
X56635676Y20567600D01*
X56559485Y20605695D01*
X56369009Y20605695D01*
X56292819Y20567600D01*
X56254723Y20529504D01*
X56216628Y20453314D01*
X56216628Y20377123D01*
X56254723Y20262838D01*
X56711866Y19805695D01*
X56216628Y19805695D01*
X55911866Y20529504D02*
X55873771Y20567600D01*
X55797580Y20605695D01*
X55607104Y20605695D01*
X55530914Y20567600D01*
X55492819Y20529504D01*
X55454723Y20453314D01*
X55454723Y20377123D01*
X55492819Y20262838D01*
X55949961Y19805695D01*
X55454723Y19805695D01*
X42297295Y24358495D02*
X42259200Y24434685D01*
X42183009Y24510876D01*
X42068723Y24625161D01*
X42030628Y24701352D01*
X42030628Y24777542D01*
X42221104Y24739447D02*
X42183009Y24815638D01*
X42106819Y24891828D01*
X41954438Y24929923D01*
X41687771Y24929923D01*
X41535390Y24891828D01*
X41459200Y24815638D01*
X41421104Y24739447D01*
X41421104Y24587066D01*
X41459200Y24510876D01*
X41535390Y24434685D01*
X41687771Y24396590D01*
X41954438Y24396590D01*
X42106819Y24434685D01*
X42183009Y24510876D01*
X42221104Y24587066D01*
X42221104Y24739447D01*
X41497295Y24091828D02*
X41459200Y24053733D01*
X41421104Y23977542D01*
X41421104Y23787066D01*
X41459200Y23710876D01*
X41497295Y23672780D01*
X41573485Y23634685D01*
X41649676Y23634685D01*
X41763961Y23672780D01*
X42221104Y24129923D01*
X42221104Y23634685D01*
X42221104Y22872780D02*
X42221104Y23329923D01*
X42221104Y23101352D02*
X41421104Y23101352D01*
X41535390Y23177542D01*
X41611580Y23253733D01*
X41649676Y23329923D01*
X41421104Y22606114D02*
X41421104Y22110876D01*
X41725866Y22377542D01*
X41725866Y22263257D01*
X41763961Y22187066D01*
X41802057Y22148971D01*
X41878247Y22110876D01*
X42068723Y22110876D01*
X42144914Y22148971D01*
X42183009Y22187066D01*
X42221104Y22263257D01*
X42221104Y22491828D01*
X42183009Y22568019D01*
X42144914Y22606114D01*
X43154495Y-26803295D02*
X43230685Y-26765200D01*
X43306876Y-26689009D01*
X43421161Y-26574723D01*
X43497352Y-26536628D01*
X43573542Y-26536628D01*
X43535447Y-26727104D02*
X43611638Y-26689009D01*
X43687828Y-26612819D01*
X43725923Y-26460438D01*
X43725923Y-26193771D01*
X43687828Y-26041390D01*
X43611638Y-25965200D01*
X43535447Y-25927104D01*
X43383066Y-25927104D01*
X43306876Y-25965200D01*
X43230685Y-26041390D01*
X43192590Y-26193771D01*
X43192590Y-26460438D01*
X43230685Y-26612819D01*
X43306876Y-26689009D01*
X43383066Y-26727104D01*
X43535447Y-26727104D01*
X42887828Y-26003295D02*
X42849733Y-25965200D01*
X42773542Y-25927104D01*
X42583066Y-25927104D01*
X42506876Y-25965200D01*
X42468780Y-26003295D01*
X42430685Y-26079485D01*
X42430685Y-26155676D01*
X42468780Y-26269961D01*
X42925923Y-26727104D01*
X42430685Y-26727104D01*
X42125923Y-26003295D02*
X42087828Y-25965200D01*
X42011638Y-25927104D01*
X41821161Y-25927104D01*
X41744971Y-25965200D01*
X41706876Y-26003295D01*
X41668780Y-26079485D01*
X41668780Y-26155676D01*
X41706876Y-26269961D01*
X42164019Y-26727104D01*
X41668780Y-26727104D01*
X41211638Y-26269961D02*
X41287828Y-26231866D01*
X41325923Y-26193771D01*
X41364019Y-26117580D01*
X41364019Y-26079485D01*
X41325923Y-26003295D01*
X41287828Y-25965200D01*
X41211638Y-25927104D01*
X41059257Y-25927104D01*
X40983066Y-25965200D01*
X40944971Y-26003295D01*
X40906876Y-26079485D01*
X40906876Y-26117580D01*
X40944971Y-26193771D01*
X40983066Y-26231866D01*
X41059257Y-26269961D01*
X41211638Y-26269961D01*
X41287828Y-26308057D01*
X41325923Y-26346152D01*
X41364019Y-26422342D01*
X41364019Y-26574723D01*
X41325923Y-26650914D01*
X41287828Y-26689009D01*
X41211638Y-26727104D01*
X41059257Y-26727104D01*
X40983066Y-26689009D01*
X40944971Y-26650914D01*
X40906876Y-26574723D01*
X40906876Y-26422342D01*
X40944971Y-26346152D01*
X40983066Y-26308057D01*
X41059257Y-26269961D01*
X15728838Y-11944304D02*
X15995504Y-11563352D01*
X16185980Y-11944304D02*
X16185980Y-11144304D01*
X15881219Y-11144304D01*
X15805028Y-11182400D01*
X15766933Y-11220495D01*
X15728838Y-11296685D01*
X15728838Y-11410971D01*
X15766933Y-11487161D01*
X15805028Y-11525257D01*
X15881219Y-11563352D01*
X16185980Y-11563352D01*
X15424076Y-11220495D02*
X15385980Y-11182400D01*
X15309790Y-11144304D01*
X15119314Y-11144304D01*
X15043123Y-11182400D01*
X15005028Y-11220495D01*
X14966933Y-11296685D01*
X14966933Y-11372876D01*
X15005028Y-11487161D01*
X15462171Y-11944304D01*
X14966933Y-11944304D01*
X14662171Y-11220495D02*
X14624076Y-11182400D01*
X14547885Y-11144304D01*
X14357409Y-11144304D01*
X14281219Y-11182400D01*
X14243123Y-11220495D01*
X14205028Y-11296685D01*
X14205028Y-11372876D01*
X14243123Y-11487161D01*
X14700266Y-11944304D01*
X14205028Y-11944304D01*
X13481219Y-11144304D02*
X13862171Y-11144304D01*
X13900266Y-11525257D01*
X13862171Y-11487161D01*
X13785980Y-11449066D01*
X13595504Y-11449066D01*
X13519314Y-11487161D01*
X13481219Y-11525257D01*
X13443123Y-11601447D01*
X13443123Y-11791923D01*
X13481219Y-11868114D01*
X13519314Y-11906209D01*
X13595504Y-11944304D01*
X13785980Y-11944304D01*
X13862171Y-11906209D01*
X13900266Y-11868114D01*
X7346838Y29356095D02*
X7613504Y29737047D01*
X7803980Y29356095D02*
X7803980Y30156095D01*
X7499219Y30156095D01*
X7423028Y30118000D01*
X7384933Y30079904D01*
X7346838Y30003714D01*
X7346838Y29889428D01*
X7384933Y29813238D01*
X7423028Y29775142D01*
X7499219Y29737047D01*
X7803980Y29737047D01*
X7042076Y30079904D02*
X7003980Y30118000D01*
X6927790Y30156095D01*
X6737314Y30156095D01*
X6661123Y30118000D01*
X6623028Y30079904D01*
X6584933Y30003714D01*
X6584933Y29927523D01*
X6623028Y29813238D01*
X7080171Y29356095D01*
X6584933Y29356095D01*
X6280171Y30079904D02*
X6242076Y30118000D01*
X6165885Y30156095D01*
X5975409Y30156095D01*
X5899219Y30118000D01*
X5861123Y30079904D01*
X5823028Y30003714D01*
X5823028Y29927523D01*
X5861123Y29813238D01*
X6318266Y29356095D01*
X5823028Y29356095D01*
X5556361Y30156095D02*
X5061123Y30156095D01*
X5327790Y29851333D01*
X5213504Y29851333D01*
X5137314Y29813238D01*
X5099219Y29775142D01*
X5061123Y29698952D01*
X5061123Y29508476D01*
X5099219Y29432285D01*
X5137314Y29394190D01*
X5213504Y29356095D01*
X5442076Y29356095D01*
X5518266Y29394190D01*
X5556361Y29432285D01*
X13385695Y25825504D02*
X13461885Y25863600D01*
X13538076Y25939790D01*
X13652361Y26054076D01*
X13728552Y26092171D01*
X13804742Y26092171D01*
X13766647Y25901695D02*
X13842838Y25939790D01*
X13919028Y26015980D01*
X13957123Y26168361D01*
X13957123Y26435028D01*
X13919028Y26587409D01*
X13842838Y26663600D01*
X13766647Y26701695D01*
X13614266Y26701695D01*
X13538076Y26663600D01*
X13461885Y26587409D01*
X13423790Y26435028D01*
X13423790Y26168361D01*
X13461885Y26015980D01*
X13538076Y25939790D01*
X13614266Y25901695D01*
X13766647Y25901695D01*
X13119028Y26625504D02*
X13080933Y26663600D01*
X13004742Y26701695D01*
X12814266Y26701695D01*
X12738076Y26663600D01*
X12699980Y26625504D01*
X12661885Y26549314D01*
X12661885Y26473123D01*
X12699980Y26358838D01*
X13157123Y25901695D01*
X12661885Y25901695D01*
X12166647Y26701695D02*
X12090457Y26701695D01*
X12014266Y26663600D01*
X11976171Y26625504D01*
X11938076Y26549314D01*
X11899980Y26396933D01*
X11899980Y26206457D01*
X11938076Y26054076D01*
X11976171Y25977885D01*
X12014266Y25939790D01*
X12090457Y25901695D01*
X12166647Y25901695D01*
X12242838Y25939790D01*
X12280933Y25977885D01*
X12319028Y26054076D01*
X12357123Y26206457D01*
X12357123Y26396933D01*
X12319028Y26549314D01*
X12280933Y26625504D01*
X12242838Y26663600D01*
X12166647Y26701695D01*
X11595219Y26625504D02*
X11557123Y26663600D01*
X11480933Y26701695D01*
X11290457Y26701695D01*
X11214266Y26663600D01*
X11176171Y26625504D01*
X11138076Y26549314D01*
X11138076Y26473123D01*
X11176171Y26358838D01*
X11633314Y25901695D01*
X11138076Y25901695D01*
X23044038Y-11944304D02*
X23310704Y-11563352D01*
X23501180Y-11944304D02*
X23501180Y-11144304D01*
X23196419Y-11144304D01*
X23120228Y-11182400D01*
X23082133Y-11220495D01*
X23044038Y-11296685D01*
X23044038Y-11410971D01*
X23082133Y-11487161D01*
X23120228Y-11525257D01*
X23196419Y-11563352D01*
X23501180Y-11563352D01*
X22739276Y-11220495D02*
X22701180Y-11182400D01*
X22624990Y-11144304D01*
X22434514Y-11144304D01*
X22358323Y-11182400D01*
X22320228Y-11220495D01*
X22282133Y-11296685D01*
X22282133Y-11372876D01*
X22320228Y-11487161D01*
X22777371Y-11944304D01*
X22282133Y-11944304D01*
X22015466Y-11144304D02*
X21520228Y-11144304D01*
X21786895Y-11449066D01*
X21672609Y-11449066D01*
X21596419Y-11487161D01*
X21558323Y-11525257D01*
X21520228Y-11601447D01*
X21520228Y-11791923D01*
X21558323Y-11868114D01*
X21596419Y-11906209D01*
X21672609Y-11944304D01*
X21901180Y-11944304D01*
X21977371Y-11906209D01*
X22015466Y-11868114D01*
X20758323Y-11944304D02*
X21215466Y-11944304D01*
X20986895Y-11944304D02*
X20986895Y-11144304D01*
X21063085Y-11258590D01*
X21139276Y-11334780D01*
X21215466Y-11372876D01*
X28733695Y-7391504D02*
X28695600Y-7315314D01*
X28619409Y-7239123D01*
X28505123Y-7124838D01*
X28467028Y-7048647D01*
X28467028Y-6972457D01*
X28657504Y-7010552D02*
X28619409Y-6934361D01*
X28543219Y-6858171D01*
X28390838Y-6820076D01*
X28124171Y-6820076D01*
X27971790Y-6858171D01*
X27895600Y-6934361D01*
X27857504Y-7010552D01*
X27857504Y-7162933D01*
X27895600Y-7239123D01*
X27971790Y-7315314D01*
X28124171Y-7353409D01*
X28390838Y-7353409D01*
X28543219Y-7315314D01*
X28619409Y-7239123D01*
X28657504Y-7162933D01*
X28657504Y-7010552D01*
X27933695Y-7658171D02*
X27895600Y-7696266D01*
X27857504Y-7772457D01*
X27857504Y-7962933D01*
X27895600Y-8039123D01*
X27933695Y-8077219D01*
X28009885Y-8115314D01*
X28086076Y-8115314D01*
X28200361Y-8077219D01*
X28657504Y-7620076D01*
X28657504Y-8115314D01*
X27933695Y-8420076D02*
X27895600Y-8458171D01*
X27857504Y-8534361D01*
X27857504Y-8724838D01*
X27895600Y-8801028D01*
X27933695Y-8839123D01*
X28009885Y-8877219D01*
X28086076Y-8877219D01*
X28200361Y-8839123D01*
X28657504Y-8381980D01*
X28657504Y-8877219D01*
X27857504Y-9143885D02*
X27857504Y-9677219D01*
X28657504Y-9334361D01*
D12*
X18709420Y14610000D02*
X18990580Y14610000D01*
X18709420Y13590000D02*
X18990580Y13590000D01*
X31012820Y13615000D02*
X31293980Y13615000D01*
X31012820Y14635000D02*
X31293980Y14635000D01*
X18684420Y17190000D02*
X18965580Y17190000D01*
X18684420Y18210000D02*
X18965580Y18210000D01*
X30987820Y15415000D02*
X31268980Y15415000D01*
X30987820Y16435000D02*
X31268980Y16435000D01*
X31012820Y18235000D02*
X31293980Y18235000D01*
X31012820Y17215000D02*
X31293980Y17215000D01*
X18684420Y16410000D02*
X18965580Y16410000D01*
X18684420Y15390000D02*
X18965580Y15390000D01*
X12062742Y12522500D02*
X12537258Y12522500D01*
X12062742Y11477500D02*
X12537258Y11477500D01*
X47740000Y-7337500D02*
X47740000Y-6687500D01*
X47740000Y-7337500D02*
X47740000Y-7987500D01*
X50860000Y-7337500D02*
X50860000Y-6687500D01*
X50860000Y-7337500D02*
X50860000Y-9012500D01*
X46440000Y-24400000D02*
X46440000Y-22725000D01*
X49560000Y-24400000D02*
X49560000Y-23750000D01*
X49560000Y-24400000D02*
X49560000Y-25050000D01*
X46440000Y-24400000D02*
X46440000Y-25050000D01*
X37562742Y10822500D02*
X38037258Y10822500D01*
X37562742Y9777500D02*
X38037258Y9777500D01*
X10562742Y-22122500D02*
X11037258Y-22122500D01*
X10562742Y-21077500D02*
X11037258Y-21077500D01*
X13760000Y7600000D02*
X13760000Y8250000D01*
X13760000Y7600000D02*
X13760000Y6950000D01*
X10640000Y7600000D02*
X10640000Y6950000D01*
X10640000Y7600000D02*
X10640000Y9275000D01*
X55937258Y-22122500D02*
X55462742Y-22122500D01*
X55937258Y-21077500D02*
X55462742Y-21077500D01*
X21962742Y22122500D02*
X22437258Y22122500D01*
X21962742Y21077500D02*
X22437258Y21077500D01*
X5667742Y22137700D02*
X6142258Y22137700D01*
X5667742Y21092700D02*
X6142258Y21092700D01*
X7437258Y-9777500D02*
X6962742Y-9777500D01*
X7437258Y-10822500D02*
X6962742Y-10822500D01*
X65146200Y25398000D02*
G75*
G03*
X65146200Y25398000I-254000J0D01*
G01*
X62911000Y25398000D02*
G75*
G03*
X62911000Y25398000I-254000J0D01*
G01*
X40362742Y-19477500D02*
X40837258Y-19477500D01*
X40362742Y-20522500D02*
X40837258Y-20522500D01*
X53137258Y-11177500D02*
X52662742Y-11177500D01*
X53137258Y-12222500D02*
X52662742Y-12222500D01*
X49437258Y-12222500D02*
X48962742Y-12222500D01*
X49437258Y-11177500D02*
X48962742Y-11177500D01*
X14837258Y19477500D02*
X14362742Y19477500D01*
X14837258Y20522500D02*
X14362742Y20522500D01*
X49137742Y9677500D02*
X49612258Y9677500D01*
X49137742Y10722500D02*
X49612258Y10722500D01*
X16260000Y-24400000D02*
X16260000Y-23750000D01*
X16260000Y-24400000D02*
X16260000Y-25050000D01*
X13140000Y-24400000D02*
X13140000Y-22725000D01*
X13140000Y-24400000D02*
X13140000Y-25050000D01*
X15962742Y11477500D02*
X16437258Y11477500D01*
X15962742Y12522500D02*
X16437258Y12522500D01*
D10*
X7847200Y-14232400D02*
X7547200Y-13632400D01*
X8547200Y-15532400D02*
X8147200Y-14732400D01*
X12047200Y-15432400D02*
X12547200Y-15032400D01*
X9347200Y-14032400D02*
X9347200Y-13832400D01*
X9347200Y-15432400D02*
X9347200Y-14532400D01*
X11047200Y-16232400D02*
X11547200Y-15832400D01*
X10247200Y-15532400D02*
X10947200Y-14332400D01*
X11347200Y-17932400D02*
G75*
G03*
X7347200Y-17932400I-2000000J0D01*
G01*
G36*
X13347200Y-17932400D02*
G01*
X9347200Y-17932400D01*
X11647200Y-16732400D01*
X13347200Y-17932400D01*
G37*
X13347200Y-17932400D02*
X9347200Y-17932400D01*
X11647200Y-16732400D01*
X13347200Y-17932400D01*
G36*
X9347200Y-17932400D02*
G01*
X5347200Y-17932400D01*
X7447200Y-15832400D01*
X9347200Y-17932400D01*
G37*
X9347200Y-17932400D02*
X5347200Y-17932400D01*
X7447200Y-15832400D01*
X9347200Y-17932400D01*
D12*
X20540000Y-7537500D02*
X20540000Y-8187500D01*
X23660000Y-7537500D02*
X23660000Y-6887500D01*
X20540000Y-7537500D02*
X20540000Y-6887500D01*
X23660000Y-7537500D02*
X23660000Y-9212500D01*
X22437258Y19477500D02*
X21962742Y19477500D01*
X22437258Y20522500D02*
X21962742Y20522500D01*
X33958200Y22431148D02*
X33958200Y22953652D01*
X32488200Y22431148D02*
X32488200Y22953652D01*
X57884420Y17340000D02*
X58165580Y17340000D01*
X57884420Y18360000D02*
X58165580Y18360000D01*
X47060000Y-7337500D02*
X47060000Y-6687500D01*
X43940000Y-7337500D02*
X43940000Y-7987500D01*
X43940000Y-7337500D02*
X43940000Y-6687500D01*
X47060000Y-7337500D02*
X47060000Y-9012500D01*
X7665000Y24377700D02*
X7665000Y22702700D01*
X4545000Y24377700D02*
X4545000Y25027700D01*
X7665000Y24377700D02*
X7665000Y25027700D01*
X4545000Y24377700D02*
X4545000Y23727700D01*
X21360000Y7600000D02*
X21360000Y8250000D01*
X21360000Y7600000D02*
X21360000Y6950000D01*
X18240000Y7600000D02*
X18240000Y9275000D01*
X18240000Y7600000D02*
X18240000Y6950000D01*
X54660000Y-7337500D02*
X54660000Y-9012500D01*
X51540000Y-7337500D02*
X51540000Y-7987500D01*
X54660000Y-7337500D02*
X54660000Y-6687500D01*
X51540000Y-7337500D02*
X51540000Y-6687500D01*
X56562742Y10722500D02*
X57037258Y10722500D01*
X56562742Y9677500D02*
X57037258Y9677500D01*
X45084420Y14785000D02*
X45365580Y14785000D01*
X45084420Y13765000D02*
X45365580Y13765000D01*
X49637258Y22122500D02*
X49162742Y22122500D01*
X49637258Y21077500D02*
X49162742Y21077500D01*
X45062742Y-9577500D02*
X45537258Y-9577500D01*
X45062742Y-10622500D02*
X45537258Y-10622500D01*
X43260000Y7500000D02*
X43260000Y6850000D01*
X40140000Y7500000D02*
X40140000Y6850000D01*
X40140000Y7500000D02*
X40140000Y9175000D01*
X43260000Y7500000D02*
X43260000Y8150000D01*
X48962742Y-10622500D02*
X49437258Y-10622500D01*
X48962742Y-9577500D02*
X49437258Y-9577500D01*
X19662742Y11477500D02*
X20137258Y11477500D01*
X19662742Y12522500D02*
X20137258Y12522500D01*
X18162742Y22122500D02*
X18637258Y22122500D01*
X18162742Y21077500D02*
X18637258Y21077500D01*
X51687742Y-20522500D02*
X52162258Y-20522500D01*
X51687742Y-19477500D02*
X52162258Y-19477500D01*
X-689000Y-6602000D02*
G75*
G03*
X-689000Y-6602000I-254000J0D01*
G01*
X1546200Y-6602000D02*
G75*
G03*
X1546200Y-6602000I-254000J0D01*
G01*
X52137258Y-21077500D02*
X51662742Y-21077500D01*
X52137258Y-22122500D02*
X51662742Y-22122500D01*
X26337258Y-10822500D02*
X25862742Y-10822500D01*
X26337258Y-9777500D02*
X25862742Y-9777500D01*
X16260000Y-7537500D02*
X16260000Y-9212500D01*
X13140000Y-7537500D02*
X13140000Y-8187500D01*
X13140000Y-7537500D02*
X13140000Y-6887500D01*
X16260000Y-7537500D02*
X16260000Y-6887500D01*
X17560000Y7600000D02*
X17560000Y8250000D01*
X14440000Y7600000D02*
X14440000Y9275000D01*
X14440000Y7600000D02*
X14440000Y6950000D01*
X17560000Y7600000D02*
X17560000Y6950000D01*
X14337742Y22122500D02*
X14812258Y22122500D01*
X14337742Y21077500D02*
X14812258Y21077500D01*
X18637258Y19477500D02*
X18162742Y19477500D01*
X18637258Y20522500D02*
X18162742Y20522500D01*
X53360000Y-24400000D02*
X53360000Y-25050000D01*
X53360000Y-24400000D02*
X53360000Y-23750000D01*
X50240000Y-24400000D02*
X50240000Y-22725000D01*
X50240000Y-24400000D02*
X50240000Y-25050000D01*
X11237258Y-9777500D02*
X10762742Y-9777500D01*
X11237258Y-10822500D02*
X10762742Y-10822500D01*
X31708200Y22431148D02*
X31708200Y22953652D01*
X30238200Y22431148D02*
X30238200Y22953652D01*
X44537258Y22122500D02*
X44062742Y22122500D01*
X44537258Y21077500D02*
X44062742Y21077500D01*
X16437258Y9877500D02*
X15962742Y9877500D01*
X16437258Y10922500D02*
X15962742Y10922500D01*
X54709000Y7400000D02*
X54709000Y6750000D01*
X51589000Y7400000D02*
X51589000Y6750000D01*
X51589000Y7400000D02*
X51589000Y9075000D01*
X54709000Y7400000D02*
X54709000Y8050000D01*
X39460000Y7500000D02*
X39460000Y6850000D01*
X36340000Y7500000D02*
X36340000Y9175000D01*
X39460000Y7500000D02*
X39460000Y8150000D01*
X36340000Y7500000D02*
X36340000Y6850000D01*
X47862742Y-19477500D02*
X48337258Y-19477500D01*
X47862742Y-20522500D02*
X48337258Y-20522500D01*
X37065000Y22438748D02*
X37065000Y22961252D01*
X38535000Y22438748D02*
X38535000Y22961252D01*
X45537258Y-12222500D02*
X45062742Y-12222500D01*
X45537258Y-11177500D02*
X45062742Y-11177500D01*
X11760000Y24362500D02*
X11760000Y22687500D01*
X11760000Y24362500D02*
X11760000Y25012500D01*
X8640000Y24362500D02*
X8640000Y23712500D01*
X8640000Y24362500D02*
X8640000Y25012500D01*
X47740000Y24362500D02*
X47740000Y25012500D01*
X50860000Y24362500D02*
X50860000Y25012500D01*
X50860000Y24362500D02*
X50860000Y22687500D01*
X47740000Y24362500D02*
X47740000Y23712500D01*
X52000000Y18735000D02*
X54200000Y18735000D01*
X52000000Y13265000D02*
X48400000Y13265000D01*
X52000000Y18735000D02*
X49800000Y18735000D01*
X52000000Y13265000D02*
X54200000Y13265000D01*
X1546200Y25398000D02*
G75*
G03*
X1546200Y25398000I-254000J0D01*
G01*
X-689000Y25398000D02*
G75*
G03*
X-689000Y25398000I-254000J0D01*
G01*
X45109420Y18385000D02*
X45390580Y18385000D01*
X45109420Y17365000D02*
X45390580Y17365000D01*
X17040000Y24362500D02*
X17040000Y25012500D01*
X20160000Y24362500D02*
X20160000Y25012500D01*
X20160000Y24362500D02*
X20160000Y22687500D01*
X17040000Y24362500D02*
X17040000Y23712500D01*
X36260000Y22438748D02*
X36260000Y22961252D01*
X34790000Y22438748D02*
X34790000Y22961252D01*
X9340000Y-7537500D02*
X9340000Y-8187500D01*
X12460000Y-7537500D02*
X12460000Y-9212500D01*
X9340000Y-7537500D02*
X9340000Y-6887500D01*
X12460000Y-7537500D02*
X12460000Y-6887500D01*
X20160000Y-24400000D02*
X20160000Y-23750000D01*
X17040000Y-24400000D02*
X17040000Y-22725000D01*
X20160000Y-24400000D02*
X20160000Y-25050000D01*
X17040000Y-24400000D02*
X17040000Y-25050000D01*
X52662742Y-9577500D02*
X53137258Y-9577500D01*
X52662742Y-10622500D02*
X53137258Y-10622500D01*
X65146200Y-6602000D02*
G75*
G03*
X65146200Y-6602000I-254000J0D01*
G01*
X62911000Y-6602000D02*
G75*
G03*
X62911000Y-6602000I-254000J0D01*
G01*
X44087742Y-19477500D02*
X44562258Y-19477500D01*
X44087742Y-20522500D02*
X44562258Y-20522500D01*
X57859420Y16560000D02*
X58140580Y16560000D01*
X57859420Y15540000D02*
X58140580Y15540000D01*
X47840000Y7424000D02*
X47840000Y6774000D01*
X50960000Y7424000D02*
X50960000Y6774000D01*
X50960000Y7424000D02*
X50960000Y8074000D01*
X47840000Y7424000D02*
X47840000Y9099000D01*
X41960000Y-24400000D02*
X41960000Y-23750000D01*
X41960000Y-24400000D02*
X41960000Y-25050000D01*
X38840000Y-24400000D02*
X38840000Y-25050000D01*
X38840000Y-24400000D02*
X38840000Y-22725000D01*
X54040000Y-24400000D02*
X54040000Y-22725000D01*
X57160000Y-24400000D02*
X57160000Y-25050000D01*
X57160000Y-24400000D02*
X57160000Y-23750000D01*
X54040000Y-24400000D02*
X54040000Y-25050000D01*
X25000000Y13265000D02*
X27200000Y13265000D01*
X25000000Y18735000D02*
X22800000Y18735000D01*
X25000000Y18735000D02*
X27200000Y18735000D01*
X25000000Y13265000D02*
X21400000Y13265000D01*
X41362742Y9777500D02*
X41837258Y9777500D01*
X41362742Y10822500D02*
X41837258Y10822500D01*
X55462742Y-20522500D02*
X55937258Y-20522500D01*
X55462742Y-19477500D02*
X55937258Y-19477500D01*
X10237258Y20522500D02*
X9762742Y20522500D01*
X10237258Y19477500D02*
X9762742Y19477500D01*
X14362742Y-21077500D02*
X14837258Y-21077500D01*
X14362742Y-22122500D02*
X14837258Y-22122500D01*
X20740000Y24362500D02*
X20740000Y25012500D01*
X23860000Y24362500D02*
X23860000Y22687500D01*
X20740000Y24362500D02*
X20740000Y23712500D01*
X23860000Y24362500D02*
X23860000Y25012500D01*
X5540000Y-7537500D02*
X5540000Y-6887500D01*
X8660000Y-7537500D02*
X8660000Y-9212500D01*
X8660000Y-7537500D02*
X8660000Y-6887500D01*
X5540000Y-7537500D02*
X5540000Y-8187500D01*
X55340000Y7400000D02*
X55340000Y9075000D01*
X58460000Y7400000D02*
X58460000Y6750000D01*
X58460000Y7400000D02*
X58460000Y8050000D01*
X55340000Y7400000D02*
X55340000Y6750000D01*
X39000000Y13265000D02*
X35400000Y13265000D01*
X39000000Y13265000D02*
X41200000Y13265000D01*
X39000000Y18735000D02*
X41200000Y18735000D01*
X39000000Y18735000D02*
X36800000Y18735000D01*
X48337258Y-22122500D02*
X47862742Y-22122500D01*
X48337258Y-21077500D02*
X47862742Y-21077500D01*
X57859420Y13740000D02*
X58140580Y13740000D01*
X57859420Y14760000D02*
X58140580Y14760000D01*
X45084420Y16585000D02*
X45365580Y16585000D01*
X45084420Y15565000D02*
X45365580Y15565000D01*
X52862742Y9677500D02*
X53337258Y9677500D01*
X52862742Y10722500D02*
X53337258Y10722500D01*
X9762742Y22122500D02*
X10237258Y22122500D01*
X9762742Y21077500D02*
X10237258Y21077500D01*
X20137258Y10922500D02*
X19662742Y10922500D01*
X20137258Y9877500D02*
X19662742Y9877500D01*
X12537258Y9877500D02*
X12062742Y9877500D01*
X12537258Y10922500D02*
X12062742Y10922500D01*
X12460000Y-24400000D02*
X12460000Y-25050000D01*
X12460000Y-24400000D02*
X12460000Y-23750000D01*
X9340000Y-24400000D02*
X9340000Y-25050000D01*
X9340000Y-24400000D02*
X9340000Y-22725000D01*
X12000000Y18735000D02*
X14200000Y18735000D01*
X12000000Y18735000D02*
X9800000Y18735000D01*
X12000000Y13265000D02*
X14200000Y13265000D01*
X12000000Y13265000D02*
X8400000Y13265000D01*
X40812258Y-21077500D02*
X40337742Y-21077500D01*
X40812258Y-22122500D02*
X40337742Y-22122500D01*
X44537258Y-21077500D02*
X44062742Y-21077500D01*
X44537258Y-22122500D02*
X44062742Y-22122500D01*
X18262742Y-21077500D02*
X18737258Y-21077500D01*
X18262742Y-22122500D02*
X18737258Y-22122500D01*
X55340000Y24262500D02*
X55340000Y23612500D01*
X58460000Y24262500D02*
X58460000Y24912500D01*
X55340000Y24262500D02*
X55340000Y24912500D01*
X58460000Y24262500D02*
X58460000Y22587500D01*
X57137258Y22022500D02*
X56662742Y22022500D01*
X57137258Y20977500D02*
X56662742Y20977500D01*
X45760000Y24262500D02*
X45760000Y24912500D01*
X42640000Y24262500D02*
X42640000Y23612500D01*
X45760000Y24262500D02*
X45760000Y22587500D01*
X42640000Y24262500D02*
X42640000Y24912500D01*
X45760000Y-24400000D02*
X45760000Y-23750000D01*
X45760000Y-24400000D02*
X45760000Y-25050000D01*
X42640000Y-24400000D02*
X42640000Y-22725000D01*
X42640000Y-24400000D02*
X42640000Y-25050000D01*
X15037258Y-9777500D02*
X14562742Y-9777500D01*
X15037258Y-10822500D02*
X14562742Y-10822500D01*
X6142258Y19492700D02*
X5667742Y19492700D01*
X6142258Y20537700D02*
X5667742Y20537700D01*
X13140000Y24362500D02*
X13140000Y25012500D01*
X13140000Y24362500D02*
X13140000Y23712500D01*
X16260000Y24362500D02*
X16260000Y22687500D01*
X16260000Y24362500D02*
X16260000Y25012500D01*
X22537258Y-10822500D02*
X22062742Y-10822500D01*
X22537258Y-9777500D02*
X22062742Y-9777500D01*
X24340000Y-7537500D02*
X24340000Y-6887500D01*
X24340000Y-7537500D02*
X24340000Y-8187500D01*
X27460000Y-7537500D02*
X27460000Y-9212500D01*
X27460000Y-7537500D02*
X27460000Y-6887500D01*
%LPC*%
D13*
X4000000Y-28000000D03*
X4000000Y28000000D03*
X60000000Y-28000000D03*
D14*
X7110000Y3920000D03*
X9650000Y3920000D03*
X12190000Y3920000D03*
X14730000Y3920000D03*
X17270000Y3920000D03*
X19810000Y3920000D03*
X22350000Y3920000D03*
X24890000Y3920000D03*
X24890000Y27920000D03*
X22350000Y27920000D03*
X19810000Y27920000D03*
X17270000Y27920000D03*
X14730000Y27920000D03*
X12190000Y27920000D03*
X9650000Y27920000D03*
X7110000Y27920000D03*
X24890000Y-3920000D03*
X22350000Y-3920000D03*
X19810000Y-3920000D03*
X17270000Y-3920000D03*
X14730000Y-3920000D03*
X12190000Y-3920000D03*
X9650000Y-3920000D03*
X7110000Y-3920000D03*
X7110000Y-27920000D03*
X9650000Y-27920000D03*
X12190000Y-27920000D03*
X14730000Y-27920000D03*
X17270000Y-27920000D03*
X19810000Y-27920000D03*
X22350000Y-27920000D03*
X24890000Y-27920000D03*
X39110000Y3920000D03*
X41650000Y3920000D03*
X44190000Y3920000D03*
X46730000Y3920000D03*
X49270000Y3920000D03*
X51810000Y3920000D03*
X54350000Y3920000D03*
X56890000Y3920000D03*
X56890000Y27920000D03*
X54350000Y27920000D03*
X51810000Y27920000D03*
X49270000Y27920000D03*
X46730000Y27920000D03*
X44190000Y27920000D03*
X41650000Y27920000D03*
X39110000Y27920000D03*
X56890000Y-3920000D03*
X54350000Y-3920000D03*
X51810000Y-3920000D03*
X49270000Y-3920000D03*
X46730000Y-3920000D03*
X44190000Y-3920000D03*
X41650000Y-3920000D03*
X39110000Y-3920000D03*
X39110000Y-27920000D03*
X41650000Y-27920000D03*
X44190000Y-27920000D03*
X46730000Y-27920000D03*
X49270000Y-27920000D03*
X51810000Y-27920000D03*
X54350000Y-27920000D03*
X56890000Y-27920000D03*
D13*
X60000000Y28000000D03*
D15*
X63000000Y31000000D03*
D16*
X18075000Y14100000D03*
X19625000Y14100000D03*
X30378400Y14125000D03*
X31928400Y14125000D03*
X18050000Y17700000D03*
X19600000Y17700000D03*
X30353400Y15925000D03*
X31903400Y15925000D03*
X30378400Y17725000D03*
X31928400Y17725000D03*
X18050000Y15900000D03*
X19600000Y15900000D03*
D15*
X63000000Y-31000000D03*
X1000000Y31000000D03*
D17*
X11475000Y12000000D03*
X13125000Y12000000D03*
D18*
X50250000Y-8275000D03*
X48350000Y-8275000D03*
X49300000Y-6400000D03*
D19*
X47050000Y-23462500D03*
X48950000Y-23462500D03*
X48000000Y-25337500D03*
D17*
X36975000Y10300000D03*
X38625000Y10300000D03*
X9975000Y-21600000D03*
X11625000Y-21600000D03*
D19*
X11250000Y8537500D03*
X13150000Y8537500D03*
X12200000Y6662500D03*
D20*
X56525000Y-21600000D03*
X54875000Y-21600000D03*
D17*
X21375000Y21600000D03*
X23025000Y21600000D03*
X5080000Y21615200D03*
X6730000Y21615200D03*
D20*
X8025000Y-10300000D03*
X6375000Y-10300000D03*
D21*
X63760000Y23937500D03*
X63760000Y20762500D03*
X63760000Y17587500D03*
X63760000Y14412500D03*
X63760000Y11237500D03*
X63760000Y8062500D03*
D17*
X39775000Y-20000000D03*
X41425000Y-20000000D03*
D20*
X53725000Y-11700000D03*
X52075000Y-11700000D03*
X50025000Y-11700000D03*
X48375000Y-11700000D03*
X15425000Y20000000D03*
X13775000Y20000000D03*
D17*
X48550000Y10200000D03*
X50200000Y10200000D03*
D19*
X13750000Y-23462500D03*
X15650000Y-23462500D03*
X14700000Y-25337500D03*
D17*
X15375000Y12000000D03*
X17025000Y12000000D03*
D18*
X23050000Y-8475000D03*
X21150000Y-8475000D03*
X22100000Y-6600000D03*
D20*
X23025000Y20000000D03*
X21375000Y20000000D03*
D22*
X33223200Y21742400D03*
X33223200Y23642400D03*
D16*
X57250000Y17850000D03*
X58800000Y17850000D03*
D18*
X46450000Y-8275000D03*
X44550000Y-8275000D03*
X45500000Y-6400000D03*
X7055000Y23440200D03*
X5155000Y23440200D03*
X6105000Y25315200D03*
D19*
X18850000Y8537500D03*
X20750000Y8537500D03*
X19800000Y6662500D03*
D18*
X54050000Y-8275000D03*
X52150000Y-8275000D03*
X53100000Y-6400000D03*
D17*
X55975000Y10200000D03*
X57625000Y10200000D03*
D16*
X44450000Y14275000D03*
X46000000Y14275000D03*
D20*
X50225000Y21600000D03*
X48575000Y21600000D03*
D17*
X44475000Y-10100000D03*
X46125000Y-10100000D03*
D19*
X40750000Y8437500D03*
X42650000Y8437500D03*
X41700000Y6562500D03*
D17*
X48375000Y-10100000D03*
X50025000Y-10100000D03*
X19075000Y12000000D03*
X20725000Y12000000D03*
X17575000Y21600000D03*
X19225000Y21600000D03*
X51100000Y-20000000D03*
X52750000Y-20000000D03*
D21*
X160000Y-8062500D03*
X160000Y-11237500D03*
X160000Y-14412500D03*
X160000Y-17587500D03*
X160000Y-20762500D03*
X160000Y-23937500D03*
D20*
X52725000Y-21600000D03*
X51075000Y-21600000D03*
X26925000Y-10300000D03*
X25275000Y-10300000D03*
D18*
X15650000Y-8475000D03*
X13750000Y-8475000D03*
X14700000Y-6600000D03*
D19*
X15050000Y8537500D03*
X16950000Y8537500D03*
X16000000Y6662500D03*
D17*
X13750000Y21600000D03*
X15400000Y21600000D03*
D20*
X19225000Y20000000D03*
X17575000Y20000000D03*
D19*
X50850000Y-23462500D03*
X52750000Y-23462500D03*
X51800000Y-25337500D03*
D20*
X11825000Y-10300000D03*
X10175000Y-10300000D03*
D22*
X30973200Y21742400D03*
X30973200Y23642400D03*
D20*
X45125000Y21600000D03*
X43475000Y21600000D03*
X17025000Y10400000D03*
X15375000Y10400000D03*
D19*
X52199000Y8337500D03*
X54099000Y8337500D03*
X53149000Y6462500D03*
X36950000Y8437500D03*
X38850000Y8437500D03*
X37900000Y6562500D03*
D17*
X47275000Y-20000000D03*
X48925000Y-20000000D03*
D22*
X37800000Y21750000D03*
X37800000Y23650000D03*
D20*
X46125000Y-11700000D03*
X44475000Y-11700000D03*
D18*
X11150000Y23425000D03*
X9250000Y23425000D03*
X10200000Y25300000D03*
X50250000Y23425000D03*
X48350000Y23425000D03*
X49300000Y25300000D03*
D23*
X49137500Y13725000D03*
X49137500Y14375000D03*
X49137500Y15025000D03*
X49137500Y15675000D03*
X49137500Y16325000D03*
X49137500Y16975000D03*
X49137500Y17625000D03*
X49137500Y18275000D03*
X54862500Y18275000D03*
X54862500Y17625000D03*
X54862500Y16975000D03*
X54862500Y16325000D03*
X54862500Y15675000D03*
X54862500Y15025000D03*
X54862500Y14375000D03*
X54862500Y13725000D03*
D21*
X160000Y23937500D03*
X160000Y20762500D03*
X160000Y17587500D03*
X160000Y14412500D03*
X160000Y11237500D03*
X160000Y8062500D03*
D16*
X44475000Y17875000D03*
X46025000Y17875000D03*
D18*
X19550000Y23425000D03*
X17650000Y23425000D03*
X18600000Y25300000D03*
D22*
X35525000Y21750000D03*
X35525000Y23650000D03*
D18*
X11850000Y-8475000D03*
X9950000Y-8475000D03*
X10900000Y-6600000D03*
D19*
X17650000Y-23462500D03*
X19550000Y-23462500D03*
X18600000Y-25337500D03*
D17*
X52075000Y-10100000D03*
X53725000Y-10100000D03*
D21*
X63760000Y-8062500D03*
X63760000Y-11237500D03*
X63760000Y-14412500D03*
X63760000Y-17587500D03*
X63760000Y-20762500D03*
X63760000Y-23937500D03*
D17*
X43500000Y-20000000D03*
X45150000Y-20000000D03*
D16*
X57225000Y16050000D03*
X58775000Y16050000D03*
D19*
X48450000Y8361500D03*
X50350000Y8361500D03*
X49400000Y6486500D03*
X39450000Y-23462500D03*
X41350000Y-23462500D03*
X40400000Y-25337500D03*
X54650000Y-23462500D03*
X56550000Y-23462500D03*
X55600000Y-25337500D03*
D23*
X22137500Y13725000D03*
X22137500Y14375000D03*
X22137500Y15025000D03*
X22137500Y15675000D03*
X22137500Y16325000D03*
X22137500Y16975000D03*
X22137500Y17625000D03*
X22137500Y18275000D03*
X27862500Y18275000D03*
X27862500Y17625000D03*
X27862500Y16975000D03*
X27862500Y16325000D03*
X27862500Y15675000D03*
X27862500Y15025000D03*
X27862500Y14375000D03*
X27862500Y13725000D03*
D17*
X40775000Y10300000D03*
X42425000Y10300000D03*
X54875000Y-20000000D03*
X56525000Y-20000000D03*
D20*
X10825000Y20000000D03*
X9175000Y20000000D03*
D17*
X13775000Y-21600000D03*
X15425000Y-21600000D03*
D18*
X23250000Y23425000D03*
X21350000Y23425000D03*
X22300000Y25300000D03*
X8050000Y-8475000D03*
X6150000Y-8475000D03*
X7100000Y-6600000D03*
D19*
X55950000Y8337500D03*
X57850000Y8337500D03*
X56900000Y6462500D03*
D23*
X36137500Y13725000D03*
X36137500Y14375000D03*
X36137500Y15025000D03*
X36137500Y15675000D03*
X36137500Y16325000D03*
X36137500Y16975000D03*
X36137500Y17625000D03*
X36137500Y18275000D03*
X41862500Y18275000D03*
X41862500Y17625000D03*
X41862500Y16975000D03*
X41862500Y16325000D03*
X41862500Y15675000D03*
X41862500Y15025000D03*
X41862500Y14375000D03*
X41862500Y13725000D03*
D20*
X48925000Y-21600000D03*
X47275000Y-21600000D03*
D16*
X57225000Y14250000D03*
X58775000Y14250000D03*
X44450000Y16075000D03*
X46000000Y16075000D03*
D17*
X52275000Y10200000D03*
X53925000Y10200000D03*
X9175000Y21600000D03*
X10825000Y21600000D03*
D20*
X20725000Y10400000D03*
X19075000Y10400000D03*
X13125000Y10400000D03*
X11475000Y10400000D03*
D19*
X9950000Y-23462500D03*
X11850000Y-23462500D03*
X10900000Y-25337500D03*
D23*
X9137500Y13725000D03*
X9137500Y14375000D03*
X9137500Y15025000D03*
X9137500Y15675000D03*
X9137500Y16325000D03*
X9137500Y16975000D03*
X9137500Y17625000D03*
X9137500Y18275000D03*
X14862500Y18275000D03*
X14862500Y17625000D03*
X14862500Y16975000D03*
X14862500Y16325000D03*
X14862500Y15675000D03*
X14862500Y15025000D03*
X14862500Y14375000D03*
X14862500Y13725000D03*
D20*
X41400000Y-21600000D03*
X39750000Y-21600000D03*
X45125000Y-21600000D03*
X43475000Y-21600000D03*
D17*
X17675000Y-21600000D03*
X19325000Y-21600000D03*
D18*
X57850000Y23325000D03*
X55950000Y23325000D03*
X56900000Y25200000D03*
D20*
X57725000Y21500000D03*
X56075000Y21500000D03*
D18*
X45150000Y23325000D03*
X43250000Y23325000D03*
X44200000Y25200000D03*
D19*
X43250000Y-23462500D03*
X45150000Y-23462500D03*
X44200000Y-25337500D03*
D20*
X15625000Y-10300000D03*
X13975000Y-10300000D03*
X6730000Y20015200D03*
X5080000Y20015200D03*
D18*
X15650000Y23425000D03*
X13750000Y23425000D03*
X14700000Y25300000D03*
D20*
X23125000Y-10300000D03*
X21475000Y-10300000D03*
D18*
X26850000Y-8475000D03*
X24950000Y-8475000D03*
X25900000Y-6600000D03*
M02*
