M48
; DRILL file {KiCad (6.0.6)} date Tue Oct 25 18:49:49 2022
; FORMAT={-:-/ absolute / metric / decimal}
; #@! TF.CreationDate,2022-10-25T18:49:49+02:00
; #@! TF.GenerationSoftware,Kicad,Pcbnew,(6.0.6)
; #@! TF.FileFunction,Plated,1,2,PTH
FMAT,2
METRIC
; #@! TA.AperFunction,Plated,PTH,ViaDrill
T1C0.305
; #@! TA.AperFunction,Plated,PTH,ViaDrill
T2C0.400
; #@! TA.AperFunction,Plated,PTH,ComponentDrill
T3C1.000
; #@! TA.AperFunction,Plated,PTH,ComponentDrill
T4C1.200
%
G90
G05
T1
X4.064Y18.542
X4.826Y18.948
X5.486Y18.44
X5.944Y-25.146
X6.401Y18.237
X6.401Y-25.959
X8.026Y20.726
X12.953Y16.323
X12.954Y15.037
X13.5Y15.68
X13.507Y16.967
X16.866Y18.186
X25.298Y18.136
X25.908Y16.32
X26.455Y16.965
X26.455Y15.675
X26.575Y18.275
X39.105Y18.242
X39.929Y16.325
X40.451Y16.97
X40.451Y15.68
X40.575Y18.275
X51.918Y18.275
X52.883Y16.325
X53.451Y16.97
X53.451Y15.68
X56.134Y14.935
X57.25Y19.255
X58.064Y25.857
X58.826Y-25.298
X59.842Y25.197
X60.655Y-24.638
X61.316Y-23.774
T2
X7.112Y-8.484
X10.871Y-8.484
X10.871Y-23.47
X14.681Y-8.484
X14.732Y-23.47
X16.713Y14.884
X20.168Y-8.484
X20.574Y-23.47
X24.028Y-8.484
X26.314Y13.106
X37.948Y8.382
X42.215Y23.317
X43.637Y8.382
X46.025Y19.202
X47.295Y-10.109
X47.396Y23.317
X49.378Y8.331
X51.054Y-10.109
X53.137Y8.331
X54.915Y-10.058
X55.016Y23.317
X58.826Y19.101
X58.826Y13.056
X58.928Y8.331
T3
X7.11Y27.92
X7.11Y3.92
X7.11Y-3.92
X7.11Y-27.92
X9.65Y27.92
X9.65Y3.92
X9.65Y-3.92
X9.65Y-27.92
X12.19Y27.92
X12.19Y3.92
X12.19Y-3.92
X12.19Y-27.92
X14.73Y27.92
X14.73Y3.92
X14.73Y-3.92
X14.73Y-27.92
X17.27Y27.92
X17.27Y3.92
X17.27Y-3.92
X17.27Y-27.92
X19.81Y27.92
X19.81Y3.92
X19.81Y-3.92
X19.81Y-27.92
X22.35Y27.92
X22.35Y3.92
X22.35Y-3.92
X22.35Y-27.92
X24.89Y27.92
X24.89Y3.92
X24.89Y-3.92
X24.89Y-27.92
X39.11Y27.92
X39.11Y3.92
X39.11Y-3.92
X39.11Y-27.92
X41.65Y27.92
X41.65Y3.92
X41.65Y-3.92
X41.65Y-27.92
X44.19Y27.92
X44.19Y3.92
X44.19Y-3.92
X44.19Y-27.92
X46.73Y27.92
X46.73Y3.92
X46.73Y-3.92
X46.73Y-27.92
X49.27Y27.92
X49.27Y3.92
X49.27Y-3.92
X49.27Y-27.92
X51.81Y27.92
X51.81Y3.92
X51.81Y-3.92
X51.81Y-27.92
X54.35Y27.92
X54.35Y3.92
X54.35Y-3.92
X54.35Y-27.92
X56.89Y27.92
X56.89Y3.92
X56.89Y-3.92
X56.89Y-27.92
T4
X0.16Y23.938
X0.16Y20.762
X0.16Y17.587
X0.16Y14.412
X0.16Y11.237
X0.16Y8.062
X0.16Y-8.062
X0.16Y-11.237
X0.16Y-14.412
X0.16Y-17.587
X0.16Y-20.762
X0.16Y-23.938
X63.76Y23.938
X63.76Y20.762
X63.76Y17.587
X63.76Y14.412
X63.76Y11.237
X63.76Y8.062
X63.76Y-8.062
X63.76Y-11.237
X63.76Y-14.412
X63.76Y-17.587
X63.76Y-20.762
X63.76Y-23.938
T0
M30
