G04 #@! TF.GenerationSoftware,KiCad,Pcbnew,(6.0.6)*
G04 #@! TF.CreationDate,2022-10-25T18:49:34+02:00*
G04 #@! TF.ProjectId,matrix_module,6d617472-6978-45f6-9d6f-64756c652e6b,rev?*
G04 #@! TF.SameCoordinates,Original*
G04 #@! TF.FileFunction,Copper,L1,Top*
G04 #@! TF.FilePolarity,Positive*
%FSLAX46Y46*%
G04 Gerber Fmt 4.6, Leading zero omitted, Abs format (unit mm)*
G04 Created by KiCad (PCBNEW (6.0.6)) date 2022-10-25 18:49:34*
%MOMM*%
%LPD*%
G01*
G04 APERTURE LIST*
G04 #@! TA.AperFunction,ComponentPad*
%ADD10C,1.700000*%
G04 #@! TD*
G04 #@! TA.AperFunction,CastellatedPad*
%ADD11C,2.500000*%
G04 #@! TD*
G04 #@! TA.AperFunction,ViaPad*
%ADD12C,0.800000*%
G04 #@! TD*
G04 #@! TA.AperFunction,ViaPad*
%ADD13C,0.609600*%
G04 #@! TD*
G04 #@! TA.AperFunction,Conductor*
%ADD14C,0.304800*%
G04 #@! TD*
G04 #@! TA.AperFunction,Conductor*
%ADD15C,0.203200*%
G04 #@! TD*
G04 #@! TA.AperFunction,Conductor*
%ADD16C,0.254000*%
G04 #@! TD*
G04 #@! TA.AperFunction,Conductor*
%ADD17C,0.406400*%
G04 #@! TD*
G04 APERTURE END LIST*
D10*
X7110000Y3920000D03*
X9650000Y3920000D03*
X12190000Y3920000D03*
X14730000Y3920000D03*
X17270000Y3920000D03*
X19810000Y3920000D03*
X22350000Y3920000D03*
X24890000Y3920000D03*
X24890000Y27920000D03*
X22350000Y27920000D03*
X19810000Y27920000D03*
X17270000Y27920000D03*
X14730000Y27920000D03*
X12190000Y27920000D03*
X9650000Y27920000D03*
X7110000Y27920000D03*
X24890000Y-3920000D03*
X22350000Y-3920000D03*
X19810000Y-3920000D03*
X17270000Y-3920000D03*
X14730000Y-3920000D03*
X12190000Y-3920000D03*
X9650000Y-3920000D03*
X7110000Y-3920000D03*
X7110000Y-27920000D03*
X9650000Y-27920000D03*
X12190000Y-27920000D03*
X14730000Y-27920000D03*
X17270000Y-27920000D03*
X19810000Y-27920000D03*
X22350000Y-27920000D03*
X24890000Y-27920000D03*
X39110000Y3920000D03*
X41650000Y3920000D03*
X44190000Y3920000D03*
X46730000Y3920000D03*
X49270000Y3920000D03*
X51810000Y3920000D03*
X54350000Y3920000D03*
X56890000Y3920000D03*
X56890000Y27920000D03*
X54350000Y27920000D03*
X51810000Y27920000D03*
X49270000Y27920000D03*
X46730000Y27920000D03*
X44190000Y27920000D03*
X41650000Y27920000D03*
X39110000Y27920000D03*
X56890000Y-3920000D03*
X54350000Y-3920000D03*
X51810000Y-3920000D03*
X49270000Y-3920000D03*
X46730000Y-3920000D03*
X44190000Y-3920000D03*
X41650000Y-3920000D03*
X39110000Y-3920000D03*
X39110000Y-27920000D03*
X41650000Y-27920000D03*
X44190000Y-27920000D03*
X46730000Y-27920000D03*
X49270000Y-27920000D03*
X51810000Y-27920000D03*
X54350000Y-27920000D03*
X56890000Y-27920000D03*
D11*
X63760000Y23937500D03*
X63760000Y20762500D03*
X63760000Y17587500D03*
X63760000Y14412500D03*
X63760000Y11237500D03*
X63760000Y8062500D03*
X160000Y-8062500D03*
X160000Y-11237500D03*
X160000Y-14412500D03*
X160000Y-17587500D03*
X160000Y-20762500D03*
X160000Y-23937500D03*
X160000Y23937500D03*
X160000Y20762500D03*
X160000Y17587500D03*
X160000Y14412500D03*
X160000Y11237500D03*
X160000Y8062500D03*
X63760000Y-8062500D03*
X63760000Y-11237500D03*
X63760000Y-14412500D03*
X63760000Y-17587500D03*
X63760000Y-20762500D03*
X63760000Y-23937500D03*
D12*
X46024800Y19202400D03*
D13*
X8026400Y20726400D03*
D12*
X47294800Y-10109200D03*
X58826400Y19100800D03*
X51054000Y-10109200D03*
X54914800Y-10058400D03*
D13*
X6400800Y18237200D03*
D12*
X58826400Y13055600D03*
D13*
X13500124Y15679802D03*
X40451374Y15679802D03*
X26455124Y15674802D03*
X53451374Y15679802D03*
X52882800Y16324862D03*
X12952608Y16323369D03*
X25908000Y16319862D03*
X39928800Y16324862D03*
X40451250Y16970000D03*
X53451250Y16970000D03*
X13506650Y16967200D03*
X26455000Y16965000D03*
X12954000Y15036800D03*
X61315600Y-23774400D03*
X59842400Y25196800D03*
X58826400Y-25298400D03*
X60655200Y-24638000D03*
X58064400Y25857200D03*
X4064000Y18542000D03*
X5943600Y-25146000D03*
X5486400Y18440400D03*
X6400800Y-25958800D03*
X4826000Y18948400D03*
X56134000Y14935200D03*
X16865600Y18186400D03*
X25298400Y18135600D03*
X26575000Y18275000D03*
X39105150Y18242200D03*
X40575000Y18275000D03*
X51917600Y18275000D03*
D12*
X43637200Y8382000D03*
X7112000Y-8483600D03*
X20167600Y-8483600D03*
X24028400Y-8483600D03*
X26314400Y13106400D03*
X58928000Y8331200D03*
X20574000Y-23469600D03*
X53136800Y8331200D03*
X47396400Y23317200D03*
X49377600Y8331200D03*
X14732000Y-23469600D03*
X42214800Y23317200D03*
X10871200Y-8483600D03*
X16713200Y14884400D03*
X10871200Y-23469600D03*
X37947600Y8382000D03*
X55016400Y23317200D03*
D13*
X57250000Y19254800D03*
D12*
X14681200Y-8483600D03*
D14*
X8026400Y20726400D02*
X8026400Y19862800D01*
X8026400Y19862800D02*
X6400800Y18237200D01*
D15*
X1427302Y15679802D02*
X351100Y14603600D01*
X13500124Y15679802D02*
X1427302Y15679802D01*
X26450124Y15679802D02*
X26455124Y15674802D01*
X53451374Y15679802D02*
X62492698Y15679802D01*
X40451374Y15679802D02*
X53451374Y15679802D01*
X13500124Y15679802D02*
X26450124Y15679802D01*
X62492698Y15679802D02*
X63648900Y14523600D01*
X40446374Y15674802D02*
X40451374Y15679802D01*
X26455124Y15674802D02*
X40446374Y15674802D01*
X13090000Y16324862D02*
X13237790Y16324862D01*
X12952608Y16323369D02*
X1424131Y16323369D01*
X40041250Y16324862D02*
X53041250Y16324862D01*
X40024688Y16308300D02*
X40041250Y16324862D01*
X1424131Y16323369D02*
X777500Y16970000D01*
X13237790Y16324862D02*
X13254352Y16308300D01*
X13254352Y16308300D02*
X40024688Y16308300D01*
X52882800Y16324862D02*
X62497362Y16324862D01*
X62497362Y16324862D02*
X63142500Y16970000D01*
X26455000Y16965000D02*
X40446250Y16965000D01*
X13506650Y16967200D02*
X4572000Y16967200D01*
X53451250Y16970000D02*
X59967500Y16970000D01*
X776700Y20762500D02*
X351100Y20762500D01*
X4572000Y16967200D02*
X776700Y20762500D01*
X40451250Y16970000D02*
X53451250Y16970000D01*
X26455000Y16965000D02*
X13554250Y16965000D01*
X40446250Y16965000D02*
X40451250Y16970000D01*
X59967500Y16970000D02*
X63648900Y20651400D01*
X3959300Y15036800D02*
X351100Y11428600D01*
X12954000Y15036800D02*
X3959300Y15036800D01*
D16*
X14730000Y3920000D02*
X14740400Y3920000D01*
X14740400Y3920000D02*
X16154400Y5334000D01*
X42776000Y5334000D02*
X44190000Y3920000D01*
X16154400Y5334000D02*
X42776000Y5334000D01*
X39110000Y27920000D02*
X37469900Y29560100D01*
X37469900Y29560100D02*
X23990100Y29560100D01*
X23990100Y29560100D02*
X22350000Y27920000D01*
X21884100Y29994100D02*
X19810000Y27920000D01*
X41650000Y27920000D02*
X39575900Y29994100D01*
X39575900Y29994100D02*
X21884100Y29994100D01*
X12630000Y30900000D02*
X9650000Y27920000D01*
X48830000Y30900000D02*
X12630000Y30900000D01*
X51810000Y27920000D02*
X48830000Y30900000D01*
X24890000Y-27920000D02*
X26530100Y-29560100D01*
X26530100Y-29560100D02*
X40009900Y-29560100D01*
X40009900Y-29560100D02*
X41650000Y-27920000D01*
X19778100Y-30428100D02*
X46761900Y-30428100D01*
X17270000Y-27920000D02*
X19778100Y-30428100D01*
X46761900Y-30428100D02*
X49270000Y-27920000D01*
X12190000Y-3920000D02*
X12190000Y-4874800D01*
X49329200Y-6400800D02*
X51810000Y-3920000D01*
X13716000Y-6400800D02*
X49329200Y-6400800D01*
X12190000Y-4874800D02*
X13716000Y-6400800D01*
X17270000Y-4366800D02*
X18846800Y-5943600D01*
X47246400Y-5943600D02*
X49270000Y-3920000D01*
X17270000Y-3920000D02*
X17270000Y-4366800D01*
X18846800Y-5943600D02*
X47246400Y-5943600D01*
X10524000Y31334000D02*
X50936000Y31334000D01*
X50936000Y31334000D02*
X54350000Y27920000D01*
X7110000Y27920000D02*
X10524000Y31334000D01*
X21082000Y-5435600D02*
X42674400Y-5435600D01*
X42674400Y-5435600D02*
X44190000Y-3920000D01*
X19810000Y-4163600D02*
X21082000Y-5435600D01*
X19810000Y-3920000D02*
X19810000Y-4163600D01*
X42115900Y-29994100D02*
X24424100Y-29994100D01*
X24424100Y-29994100D02*
X22350000Y-27920000D01*
X44190000Y-27920000D02*
X42115900Y-29994100D01*
X54350000Y-27920000D02*
X51407900Y-30862100D01*
X51407900Y-30862100D02*
X15132100Y-30862100D01*
X15132100Y-30862100D02*
X12190000Y-27920000D01*
X17238100Y30428100D02*
X14730000Y27920000D01*
X46730000Y27920000D02*
X44221900Y30428100D01*
X44221900Y30428100D02*
X17238100Y30428100D01*
X12190000Y3920000D02*
X12251200Y3920000D01*
X14122400Y5791200D02*
X44858800Y5791200D01*
X44858800Y5791200D02*
X46730000Y3920000D01*
X12251200Y3920000D02*
X14122400Y5791200D01*
X39110000Y3920000D02*
X39110000Y-3920000D01*
X56890000Y3920000D02*
X56890000Y-3920000D01*
X46730000Y1380000D02*
X49270000Y3920000D01*
X46730000Y-3920000D02*
X46730000Y1380000D01*
X61315600Y-23774400D02*
X43255600Y-23774400D01*
X43255600Y-23774400D02*
X39110000Y-27920000D01*
X59842400Y25196800D02*
X46913200Y25196800D01*
X46913200Y25196800D02*
X44190000Y27920000D01*
X54431600Y-25298400D02*
X51810000Y-27920000D01*
X58826400Y-25298400D02*
X54431600Y-25298400D01*
X41650000Y3920000D02*
X41650000Y-3920000D01*
X54350000Y3920000D02*
X54350000Y-3920000D01*
X51332800Y25857200D02*
X49270000Y27920000D01*
X58064400Y25857200D02*
X51332800Y25857200D01*
X60655200Y-24638000D02*
X50012000Y-24638000D01*
X50012000Y-24638000D02*
X46730000Y-27920000D01*
X7110000Y3920000D02*
X7110000Y-3920000D01*
X24890000Y3920000D02*
X24890000Y-3920000D01*
X17270000Y3920000D02*
X17270000Y-1380000D01*
X17270000Y-1380000D02*
X14730000Y-3920000D01*
X12190000Y27328400D02*
X4064000Y19202400D01*
X12190000Y27920000D02*
X12190000Y27328400D01*
X4064000Y19202400D02*
X4064000Y18694400D01*
X24890000Y27920000D02*
X24890000Y27176000D01*
X21640800Y23926800D02*
X10210800Y23926800D01*
X10210800Y23926800D02*
X5486400Y19202400D01*
X5943600Y-25146000D02*
X17036000Y-25146000D01*
X5486400Y19202400D02*
X5486400Y18592800D01*
X17036000Y-25146000D02*
X19810000Y-27920000D01*
X24890000Y27176000D02*
X21640800Y23926800D01*
X9650000Y3920000D02*
X9650000Y-3920000D01*
X22350000Y3920000D02*
X22350000Y-3920000D01*
X6400800Y-25958800D02*
X13766800Y-25958800D01*
X9906000Y24384000D02*
X4826000Y19304000D01*
X17270000Y26972800D02*
X14681200Y24384000D01*
X13766800Y-25958800D02*
X14730000Y-26922000D01*
X14730000Y-26922000D02*
X14730000Y-27920000D01*
X4826000Y19304000D02*
X4826000Y19050000D01*
X17270000Y27920000D02*
X17270000Y26972800D01*
X14681200Y24384000D02*
X9906000Y24384000D01*
D15*
X60062300Y14935200D02*
X63648900Y11348600D01*
X56134000Y14935200D02*
X60062300Y14935200D01*
D16*
X9650000Y-28598400D02*
X12395200Y-31343600D01*
X12395200Y-31343600D02*
X55067200Y-31343600D01*
X9650000Y-27920000D02*
X9650000Y-28598400D01*
X55067200Y-31343600D02*
X56890000Y-29520800D01*
X56890000Y-29520800D02*
X56890000Y-27920000D01*
D15*
X25247600Y18186400D02*
X25298400Y18135600D01*
X16865600Y18186400D02*
X25247600Y18186400D01*
X39105150Y18242200D02*
X26607800Y18242200D01*
X26607800Y18242200D02*
X26575000Y18275000D01*
X51917600Y18275000D02*
X40575000Y18275000D01*
D17*
X43637200Y8382000D02*
X37947600Y8382000D01*
X49377600Y8331200D02*
X43688000Y8331200D01*
X2641600Y5580900D02*
X401900Y7820600D01*
X63491300Y8331200D02*
X63598100Y8224400D01*
D15*
X63338900Y8483600D02*
X63648900Y8173600D01*
D17*
X43688000Y8331200D02*
X43637200Y8382000D01*
X16662400Y13106400D02*
X5203900Y13106400D01*
X16713200Y14884400D02*
X16713200Y13157200D01*
X5203900Y13106400D02*
X4278350Y12180850D01*
X7112000Y-8483600D02*
X2641600Y-8483600D01*
X47396400Y23317200D02*
X55016400Y23317200D01*
X20167600Y-8483600D02*
X24028400Y-8483600D01*
X7112000Y-8483600D02*
X10871200Y-8483600D01*
X14681200Y-8483600D02*
X20167600Y-8483600D01*
X4278350Y12180850D02*
X452700Y8355200D01*
X55016400Y23317200D02*
X55016400Y21488400D01*
X10871200Y-8483600D02*
X14681200Y-8483600D01*
X55016400Y21488400D02*
X57250000Y19254800D01*
X16713200Y13157200D02*
X16662400Y13106400D01*
X10871200Y-23469600D02*
X14732000Y-23469600D01*
X7112000Y-23469600D02*
X7112000Y-8483600D01*
X58928000Y8331200D02*
X63491300Y8331200D01*
X14732000Y-23469600D02*
X20574000Y-23469600D01*
X42214800Y23317200D02*
X47396400Y23317200D01*
X26314400Y13106400D02*
X16662400Y13106400D01*
X2641600Y-8483600D02*
X2641600Y5580900D01*
X10871200Y-23469600D02*
X7112000Y-23469600D01*
X53136800Y8331200D02*
X49377600Y8331200D01*
X58928000Y8331200D02*
X53136800Y8331200D01*
G04 #@! TA.AperFunction,Conductor*
G36*
X917012Y-8460756D02*
G01*
X923595Y-8466885D01*
X1559913Y-9103203D01*
X1572293Y-9109963D01*
X1580634Y-9103719D01*
X1706765Y-8907627D01*
X1711212Y-8899436D01*
X1763770Y-8782763D01*
X1809986Y-8728869D01*
X1878002Y-8708516D01*
X1946225Y-8728166D01*
X1992994Y-8781582D01*
X1996518Y-8789977D01*
X2003572Y-8808645D01*
X2003574Y-8808649D01*
X2006257Y-8815749D01*
X2010556Y-8822005D01*
X2010557Y-8822006D01*
X2025189Y-8843296D01*
X2033310Y-8856865D01*
X2048644Y-8886573D01*
X2053633Y-8892292D01*
X2053635Y-8892295D01*
X2073513Y-8915082D01*
X2082399Y-8926538D01*
X2103825Y-8957712D01*
X2109502Y-8962770D01*
X2128778Y-8979945D01*
X2139906Y-8991190D01*
X2152478Y-9005601D01*
X2161882Y-9016381D01*
X2168100Y-9020751D01*
X2192834Y-9038135D01*
X2204192Y-9047136D01*
X2232440Y-9072304D01*
X2239153Y-9075858D01*
X2239154Y-9075859D01*
X2261984Y-9087947D01*
X2275467Y-9096209D01*
X2302816Y-9115430D01*
X2309896Y-9118190D01*
X2309897Y-9118191D01*
X2338059Y-9129172D01*
X2351242Y-9135207D01*
X2384676Y-9152909D01*
X2409361Y-9159110D01*
X2417102Y-9161054D01*
X2432175Y-9165865D01*
X2443137Y-9170139D01*
X2463308Y-9178003D01*
X2500805Y-9182940D01*
X2515047Y-9185656D01*
X2551745Y-9194874D01*
X2559344Y-9194914D01*
X2559345Y-9194914D01*
X2566312Y-9194950D01*
X2592049Y-9195086D01*
X2593424Y-9195134D01*
X2594687Y-9195300D01*
X2632821Y-9195300D01*
X2633481Y-9195302D01*
X2719579Y-9195753D01*
X2719582Y-9195753D01*
X2724002Y-9195776D01*
X2725525Y-9195410D01*
X2727440Y-9195300D01*
X6274300Y-9195300D01*
X6342421Y-9215302D01*
X6388914Y-9268958D01*
X6400300Y-9321300D01*
X6400300Y-23460821D01*
X6400298Y-23461481D01*
X6399824Y-23552002D01*
X6406828Y-23581178D01*
X6408656Y-23588792D01*
X6411224Y-23603066D01*
X6415768Y-23640611D01*
X6427585Y-23671884D01*
X6432229Y-23686979D01*
X6440037Y-23719501D01*
X6457391Y-23753123D01*
X6463286Y-23766365D01*
X6476657Y-23801749D01*
X6480956Y-23808005D01*
X6480957Y-23808006D01*
X6495589Y-23829296D01*
X6503710Y-23842865D01*
X6519044Y-23872573D01*
X6524033Y-23878292D01*
X6524035Y-23878295D01*
X6543913Y-23901082D01*
X6552799Y-23912538D01*
X6574225Y-23943712D01*
X6579902Y-23948770D01*
X6599178Y-23965945D01*
X6610306Y-23977190D01*
X6625710Y-23994847D01*
X6632282Y-24002381D01*
X6638500Y-24006751D01*
X6663234Y-24024135D01*
X6674592Y-24033136D01*
X6702840Y-24058304D01*
X6709553Y-24061858D01*
X6709554Y-24061859D01*
X6732384Y-24073947D01*
X6745867Y-24082209D01*
X6773216Y-24101430D01*
X6780296Y-24104190D01*
X6780297Y-24104191D01*
X6808459Y-24115172D01*
X6821642Y-24121207D01*
X6855076Y-24138909D01*
X6879761Y-24145110D01*
X6887502Y-24147054D01*
X6902575Y-24151865D01*
X6913537Y-24156139D01*
X6933708Y-24164003D01*
X6971205Y-24168940D01*
X6985447Y-24171656D01*
X7022145Y-24180874D01*
X7029744Y-24180914D01*
X7029745Y-24180914D01*
X7036712Y-24180950D01*
X7062449Y-24181086D01*
X7063824Y-24181134D01*
X7065087Y-24181300D01*
X7103221Y-24181300D01*
X7103881Y-24181302D01*
X7189979Y-24181753D01*
X7189982Y-24181753D01*
X7194402Y-24181776D01*
X7195925Y-24181410D01*
X7197840Y-24181300D01*
X10264199Y-24181300D01*
X10332320Y-24201302D01*
X10338260Y-24205364D01*
X10369222Y-24227859D01*
X10414448Y-24260718D01*
X10420483Y-24263405D01*
X10433933Y-24269394D01*
X10488028Y-24315374D01*
X10508677Y-24383301D01*
X10489324Y-24451609D01*
X10436113Y-24498611D01*
X10382683Y-24510500D01*
X6496743Y-24510500D01*
X6429229Y-24490885D01*
X6302383Y-24410386D01*
X6179329Y-24366568D01*
X6137127Y-24351540D01*
X6137125Y-24351539D01*
X6130493Y-24349178D01*
X6123507Y-24348345D01*
X6123503Y-24348344D01*
X5993926Y-24332894D01*
X5949314Y-24327574D01*
X5942311Y-24328310D01*
X5942310Y-24328310D01*
X5896075Y-24333170D01*
X5767851Y-24346646D01*
X5761183Y-24348916D01*
X5601790Y-24403178D01*
X5601787Y-24403179D01*
X5595123Y-24405448D01*
X5439714Y-24501056D01*
X5309350Y-24628718D01*
X5210508Y-24782090D01*
X5208099Y-24788710D01*
X5208097Y-24788713D01*
X5150510Y-24946932D01*
X5148102Y-24953549D01*
X5125234Y-25134573D01*
X5143039Y-25316164D01*
X5200633Y-25489299D01*
X5204282Y-25495324D01*
X5285967Y-25630201D01*
X5295154Y-25645371D01*
X5421903Y-25776623D01*
X5526160Y-25844847D01*
X5572208Y-25898883D01*
X5582198Y-25947396D01*
X5582434Y-25947373D01*
X5583121Y-25954380D01*
X5583121Y-25954382D01*
X5587260Y-25996595D01*
X5600239Y-26128964D01*
X5657833Y-26302099D01*
X5661482Y-26308124D01*
X5745733Y-26447238D01*
X5752354Y-26458171D01*
X5757245Y-26463236D01*
X5757246Y-26463237D01*
X5792729Y-26499980D01*
X5879103Y-26589423D01*
X5884995Y-26593278D01*
X5884999Y-26593282D01*
X6025885Y-26685475D01*
X6031781Y-26689333D01*
X6129091Y-26725522D01*
X6185966Y-26768014D01*
X6210839Y-26834511D01*
X6195814Y-26903900D01*
X6176263Y-26930669D01*
X6119914Y-26989636D01*
X6064269Y-27047865D01*
X6050629Y-27062138D01*
X5924743Y-27246680D01*
X5830688Y-27449305D01*
X5816238Y-27501409D01*
X5795431Y-27576436D01*
X5757952Y-27636734D01*
X5693823Y-27667197D01*
X5623405Y-27658153D01*
X5569055Y-27612474D01*
X5551495Y-27572178D01*
X5535660Y-27506221D01*
X5534505Y-27501409D01*
X5532611Y-27496836D01*
X5439511Y-27272072D01*
X5439509Y-27272068D01*
X5437616Y-27267498D01*
X5305328Y-27051624D01*
X5140898Y-26859102D01*
X4948376Y-26694672D01*
X4732502Y-26562384D01*
X4727932Y-26560491D01*
X4727928Y-26560489D01*
X4503164Y-26467389D01*
X4503162Y-26467388D01*
X4498591Y-26465495D01*
X4413968Y-26445179D01*
X4257216Y-26407546D01*
X4257210Y-26407545D01*
X4252403Y-26406391D01*
X4152584Y-26398535D01*
X4065655Y-26391693D01*
X4065648Y-26391693D01*
X4063199Y-26391500D01*
X3936801Y-26391500D01*
X3934352Y-26391693D01*
X3934345Y-26391693D01*
X3847416Y-26398535D01*
X3747597Y-26406391D01*
X3742790Y-26407545D01*
X3742784Y-26407546D01*
X3586032Y-26445179D01*
X3501409Y-26465495D01*
X3496838Y-26467388D01*
X3496836Y-26467389D01*
X3272072Y-26560489D01*
X3272068Y-26560491D01*
X3267498Y-26562384D01*
X3051624Y-26694672D01*
X2859102Y-26859102D01*
X2694672Y-27051624D01*
X2562384Y-27267498D01*
X2560491Y-27272068D01*
X2560489Y-27272072D01*
X2467389Y-27496836D01*
X2465495Y-27501409D01*
X2464340Y-27506221D01*
X2425091Y-27669707D01*
X2406391Y-27747597D01*
X2386526Y-28000000D01*
X2406391Y-28252403D01*
X2407545Y-28257210D01*
X2407546Y-28257216D01*
X2424453Y-28327639D01*
X2465495Y-28498591D01*
X2467388Y-28503162D01*
X2467389Y-28503164D01*
X2516645Y-28622077D01*
X2562384Y-28732502D01*
X2694672Y-28948376D01*
X2859102Y-29140898D01*
X2862858Y-29144106D01*
X2868984Y-29149338D01*
X3051624Y-29305328D01*
X3267498Y-29437616D01*
X3272068Y-29439509D01*
X3272072Y-29439511D01*
X3496836Y-29532611D01*
X3501409Y-29534505D01*
X3586032Y-29554821D01*
X3742784Y-29592454D01*
X3742790Y-29592455D01*
X3747597Y-29593609D01*
X3847416Y-29601465D01*
X3934345Y-29608307D01*
X3934352Y-29608307D01*
X3936801Y-29608500D01*
X4063199Y-29608500D01*
X4065648Y-29608307D01*
X4065655Y-29608307D01*
X4152584Y-29601465D01*
X4252403Y-29593609D01*
X4257210Y-29592455D01*
X4257216Y-29592454D01*
X4413968Y-29554821D01*
X4498591Y-29534505D01*
X4503164Y-29532611D01*
X4727928Y-29439511D01*
X4727932Y-29439509D01*
X4732502Y-29437616D01*
X4948376Y-29305328D01*
X5131016Y-29149338D01*
X5137142Y-29144106D01*
X5140898Y-29140898D01*
X5305328Y-28948376D01*
X5437616Y-28732502D01*
X5483356Y-28622077D01*
X5532611Y-28503164D01*
X5532612Y-28503162D01*
X5534505Y-28498591D01*
X5570757Y-28347591D01*
X5606109Y-28286022D01*
X5669136Y-28253339D01*
X5739827Y-28259920D01*
X5795738Y-28303674D01*
X5810018Y-28329599D01*
X5893266Y-28534616D01*
X5944019Y-28617438D01*
X6007291Y-28720688D01*
X6009987Y-28725088D01*
X6156250Y-28893938D01*
X6328126Y-29036632D01*
X6521000Y-29149338D01*
X6729692Y-29229030D01*
X6734760Y-29230061D01*
X6734763Y-29230062D01*
X6833401Y-29250130D01*
X6948597Y-29273567D01*
X6953772Y-29273757D01*
X6953774Y-29273757D01*
X7166673Y-29281564D01*
X7166677Y-29281564D01*
X7171837Y-29281753D01*
X7176957Y-29281097D01*
X7176959Y-29281097D01*
X7388288Y-29254025D01*
X7388289Y-29254025D01*
X7393416Y-29253368D01*
X7398366Y-29251883D01*
X7602429Y-29190661D01*
X7602434Y-29190659D01*
X7607384Y-29189174D01*
X7807994Y-29090896D01*
X7989860Y-28961173D01*
X8148096Y-28803489D01*
X8157096Y-28790965D01*
X8278453Y-28622077D01*
X8279776Y-28623028D01*
X8326645Y-28579857D01*
X8396580Y-28567625D01*
X8462026Y-28595144D01*
X8489875Y-28626994D01*
X8549987Y-28725088D01*
X8696250Y-28893938D01*
X8868126Y-29036632D01*
X9061000Y-29149338D01*
X9269692Y-29229030D01*
X9274760Y-29230061D01*
X9274763Y-29230062D01*
X9373398Y-29250130D01*
X9437372Y-29284505D01*
X11229272Y-31076405D01*
X11263298Y-31138717D01*
X11258233Y-31209532D01*
X11215686Y-31266368D01*
X11149166Y-31291179D01*
X11140177Y-31291500D01*
X834500Y-31291500D01*
X766379Y-31271498D01*
X719886Y-31217842D01*
X708500Y-31165500D01*
X708500Y-25698322D01*
X728502Y-25630201D01*
X784762Y-25582554D01*
X969736Y-25503083D01*
X978008Y-25498776D01*
X1192249Y-25366200D01*
X1199188Y-25361158D01*
X1207518Y-25348519D01*
X1201456Y-25338166D01*
X745405Y-24882115D01*
X711379Y-24819803D01*
X708500Y-24793020D01*
X708500Y-24430980D01*
X728502Y-24362859D01*
X782158Y-24316366D01*
X852432Y-24306262D01*
X917012Y-24335756D01*
X923595Y-24341885D01*
X1559913Y-24978203D01*
X1572293Y-24984963D01*
X1580634Y-24978719D01*
X1706765Y-24782627D01*
X1711212Y-24774436D01*
X1814691Y-24544722D01*
X1817882Y-24535955D01*
X1886269Y-24293476D01*
X1888129Y-24284334D01*
X1920116Y-24032896D01*
X1920597Y-24026608D01*
X1922847Y-23940660D01*
X1922696Y-23934351D01*
X1903912Y-23681574D01*
X1902536Y-23672368D01*
X1846929Y-23426626D01*
X1844205Y-23417715D01*
X1752888Y-23182892D01*
X1748877Y-23174483D01*
X1623854Y-22955740D01*
X1618643Y-22948014D01*
X1581391Y-22900761D01*
X1569466Y-22892290D01*
X1557934Y-22898776D01*
X923595Y-23533115D01*
X861283Y-23567141D01*
X790468Y-23562076D01*
X733632Y-23519529D01*
X708821Y-23453009D01*
X708500Y-23444020D01*
X708500Y-23081980D01*
X728502Y-23013859D01*
X745405Y-22992885D01*
X1198419Y-22539871D01*
X1204803Y-22528181D01*
X1195391Y-22516071D01*
X1104303Y-22452881D01*
X1059732Y-22397618D01*
X1052115Y-22327031D01*
X1083869Y-22263531D01*
X1109819Y-22242209D01*
X1192249Y-22191200D01*
X1199188Y-22186158D01*
X1207518Y-22173519D01*
X1201456Y-22163166D01*
X745405Y-21707115D01*
X711379Y-21644803D01*
X708500Y-21618020D01*
X708500Y-21255980D01*
X728502Y-21187859D01*
X782158Y-21141366D01*
X852432Y-21131262D01*
X917012Y-21160756D01*
X923595Y-21166885D01*
X1559913Y-21803203D01*
X1572293Y-21809963D01*
X1580634Y-21803719D01*
X1706765Y-21607627D01*
X1711212Y-21599436D01*
X1814691Y-21369722D01*
X1817882Y-21360955D01*
X1886269Y-21118476D01*
X1888129Y-21109334D01*
X1920116Y-20857896D01*
X1920597Y-20851608D01*
X1922847Y-20765660D01*
X1922696Y-20759351D01*
X1903912Y-20506574D01*
X1902536Y-20497368D01*
X1846929Y-20251626D01*
X1844205Y-20242715D01*
X1752888Y-20007892D01*
X1748877Y-19999483D01*
X1623854Y-19780740D01*
X1618643Y-19773014D01*
X1581391Y-19725761D01*
X1569466Y-19717290D01*
X1557934Y-19723776D01*
X923595Y-20358115D01*
X861283Y-20392141D01*
X790468Y-20387076D01*
X733632Y-20344529D01*
X708821Y-20278009D01*
X708500Y-20269020D01*
X708500Y-19906980D01*
X728502Y-19838859D01*
X745405Y-19817885D01*
X1198419Y-19364871D01*
X1204803Y-19353181D01*
X1195391Y-19341071D01*
X1104303Y-19277881D01*
X1059732Y-19222618D01*
X1052115Y-19152031D01*
X1083869Y-19088531D01*
X1109819Y-19067209D01*
X1192249Y-19016200D01*
X1199188Y-19011158D01*
X1207518Y-18998519D01*
X1201456Y-18988166D01*
X745405Y-18532115D01*
X711379Y-18469803D01*
X708500Y-18443020D01*
X708500Y-18080980D01*
X728502Y-18012859D01*
X782158Y-17966366D01*
X852432Y-17956262D01*
X917012Y-17985756D01*
X923595Y-17991885D01*
X1559913Y-18628203D01*
X1572293Y-18634963D01*
X1580634Y-18628719D01*
X1706765Y-18432627D01*
X1711212Y-18424436D01*
X1814691Y-18194722D01*
X1817882Y-18185955D01*
X1886269Y-17943476D01*
X1888129Y-17934334D01*
X1920116Y-17682896D01*
X1920597Y-17676608D01*
X1922847Y-17590660D01*
X1922696Y-17584351D01*
X1903912Y-17331574D01*
X1902536Y-17322368D01*
X1846929Y-17076626D01*
X1844205Y-17067715D01*
X1752888Y-16832892D01*
X1748877Y-16824483D01*
X1623854Y-16605740D01*
X1618643Y-16598014D01*
X1581391Y-16550761D01*
X1569466Y-16542290D01*
X1557934Y-16548776D01*
X923595Y-17183115D01*
X861283Y-17217141D01*
X790468Y-17212076D01*
X733632Y-17169529D01*
X708821Y-17103009D01*
X708500Y-17094020D01*
X708500Y-16731980D01*
X728502Y-16663859D01*
X745405Y-16642885D01*
X1198419Y-16189871D01*
X1204803Y-16178181D01*
X1195391Y-16166071D01*
X1104303Y-16102881D01*
X1059732Y-16047618D01*
X1052115Y-15977031D01*
X1083869Y-15913531D01*
X1109819Y-15892209D01*
X1192249Y-15841200D01*
X1199188Y-15836158D01*
X1207518Y-15823519D01*
X1201456Y-15813166D01*
X745405Y-15357115D01*
X711379Y-15294803D01*
X708500Y-15268020D01*
X708500Y-14905980D01*
X728502Y-14837859D01*
X782158Y-14791366D01*
X852432Y-14781262D01*
X917012Y-14810756D01*
X923595Y-14816885D01*
X1559913Y-15453203D01*
X1572293Y-15459963D01*
X1580634Y-15453719D01*
X1706765Y-15257627D01*
X1711212Y-15249436D01*
X1814691Y-15019722D01*
X1817882Y-15010955D01*
X1886269Y-14768476D01*
X1888129Y-14759334D01*
X1920116Y-14507896D01*
X1920597Y-14501608D01*
X1922847Y-14415660D01*
X1922696Y-14409351D01*
X1903912Y-14156574D01*
X1902536Y-14147368D01*
X1846929Y-13901626D01*
X1844205Y-13892715D01*
X1752888Y-13657892D01*
X1748877Y-13649483D01*
X1623854Y-13430740D01*
X1618643Y-13423014D01*
X1581391Y-13375761D01*
X1569466Y-13367290D01*
X1557934Y-13373776D01*
X923595Y-14008115D01*
X861283Y-14042141D01*
X790468Y-14037076D01*
X733632Y-13994529D01*
X708821Y-13928009D01*
X708500Y-13919020D01*
X708500Y-13556980D01*
X728502Y-13488859D01*
X745405Y-13467885D01*
X1198419Y-13014871D01*
X1204803Y-13003181D01*
X1195391Y-12991071D01*
X1104303Y-12927881D01*
X1059732Y-12872618D01*
X1052115Y-12802031D01*
X1083869Y-12738531D01*
X1109819Y-12717209D01*
X1192249Y-12666200D01*
X1199188Y-12661158D01*
X1207518Y-12648519D01*
X1201456Y-12638166D01*
X745405Y-12182115D01*
X711379Y-12119803D01*
X708500Y-12093020D01*
X708500Y-11730980D01*
X728502Y-11662859D01*
X782158Y-11616366D01*
X852432Y-11606262D01*
X917012Y-11635756D01*
X923595Y-11641885D01*
X1559913Y-12278203D01*
X1572293Y-12284963D01*
X1580634Y-12278719D01*
X1706765Y-12082627D01*
X1711212Y-12074436D01*
X1814691Y-11844722D01*
X1817882Y-11835955D01*
X1886269Y-11593476D01*
X1888129Y-11584334D01*
X1920116Y-11332896D01*
X1920597Y-11326608D01*
X1922847Y-11240660D01*
X1922696Y-11234351D01*
X1903912Y-10981574D01*
X1902536Y-10972368D01*
X1846929Y-10726626D01*
X1844205Y-10717715D01*
X1752888Y-10482892D01*
X1748877Y-10474483D01*
X1623854Y-10255740D01*
X1618643Y-10248014D01*
X1581391Y-10200761D01*
X1569466Y-10192290D01*
X1557934Y-10198776D01*
X923595Y-10833115D01*
X861283Y-10867141D01*
X790468Y-10862076D01*
X733632Y-10819529D01*
X708821Y-10753009D01*
X708500Y-10744020D01*
X708500Y-10381980D01*
X728502Y-10313859D01*
X745405Y-10292885D01*
X1198419Y-9839871D01*
X1204803Y-9828181D01*
X1195391Y-9816071D01*
X1104303Y-9752881D01*
X1059732Y-9697618D01*
X1052115Y-9627031D01*
X1083869Y-9563531D01*
X1109819Y-9542209D01*
X1192249Y-9491200D01*
X1199188Y-9486158D01*
X1207518Y-9473519D01*
X1201456Y-9463166D01*
X745405Y-9007115D01*
X711379Y-8944803D01*
X708500Y-8918020D01*
X708500Y-8555980D01*
X728502Y-8487859D01*
X782158Y-8441366D01*
X852432Y-8431262D01*
X917012Y-8460756D01*
G37*
G04 #@! TD.AperFunction*
G04 #@! TA.AperFunction,Conductor*
G36*
X63209532Y-24232924D02*
G01*
X63266368Y-24275471D01*
X63291179Y-24341991D01*
X63291500Y-24350980D01*
X63291500Y-24713020D01*
X63271498Y-24781141D01*
X63254595Y-24802115D01*
X62722270Y-25334440D01*
X62715612Y-25346633D01*
X62724325Y-25358153D01*
X62822018Y-25429784D01*
X62829928Y-25434727D01*
X63052890Y-25552033D01*
X63061452Y-25555756D01*
X63207041Y-25606598D01*
X63264759Y-25647940D01*
X63290962Y-25713924D01*
X63291500Y-25725553D01*
X63291500Y-31165500D01*
X63271498Y-31233621D01*
X63217842Y-31280114D01*
X63165500Y-31291500D01*
X56322222Y-31291500D01*
X56254101Y-31271498D01*
X56207608Y-31217842D01*
X56197504Y-31147568D01*
X56226998Y-31082988D01*
X56233127Y-31076405D01*
X57283477Y-30026055D01*
X57291803Y-30018478D01*
X57298303Y-30014353D01*
X57345101Y-29964518D01*
X57347855Y-29961677D01*
X57367638Y-29941894D01*
X57370129Y-29938683D01*
X57377838Y-29929656D01*
X57402789Y-29903086D01*
X57408217Y-29897306D01*
X57418022Y-29879471D01*
X57428876Y-29862947D01*
X57436491Y-29853130D01*
X57436492Y-29853129D01*
X57441349Y-29846867D01*
X57458969Y-29806150D01*
X57464192Y-29795489D01*
X57481749Y-29763553D01*
X57481751Y-29763548D01*
X57485569Y-29756603D01*
X57487539Y-29748929D01*
X57487542Y-29748922D01*
X57490632Y-29736887D01*
X57497036Y-29718182D01*
X57501967Y-29706787D01*
X57505117Y-29699508D01*
X57512060Y-29655673D01*
X57514467Y-29644051D01*
X57525500Y-29601082D01*
X57525500Y-29580735D01*
X57527051Y-29561024D01*
X57528995Y-29548750D01*
X57530235Y-29540921D01*
X57526059Y-29496744D01*
X57525500Y-29484886D01*
X57525500Y-29199235D01*
X57545502Y-29131114D01*
X57586171Y-29091789D01*
X57587994Y-29090896D01*
X57769860Y-28961173D01*
X57928096Y-28803489D01*
X57937096Y-28790965D01*
X58055435Y-28626277D01*
X58058453Y-28622077D01*
X58079320Y-28579857D01*
X58155136Y-28426453D01*
X58155137Y-28426451D01*
X58157430Y-28421811D01*
X58184404Y-28333030D01*
X58223343Y-28273668D01*
X58288197Y-28244781D01*
X58358374Y-28255542D01*
X58411592Y-28302535D01*
X58427480Y-28340247D01*
X58465495Y-28498591D01*
X58467388Y-28503162D01*
X58467389Y-28503164D01*
X58516645Y-28622077D01*
X58562384Y-28732502D01*
X58694672Y-28948376D01*
X58859102Y-29140898D01*
X58862858Y-29144106D01*
X58868984Y-29149338D01*
X59051624Y-29305328D01*
X59267498Y-29437616D01*
X59272068Y-29439509D01*
X59272072Y-29439511D01*
X59496836Y-29532611D01*
X59501409Y-29534505D01*
X59586032Y-29554821D01*
X59742784Y-29592454D01*
X59742790Y-29592455D01*
X59747597Y-29593609D01*
X59847416Y-29601465D01*
X59934345Y-29608307D01*
X59934352Y-29608307D01*
X59936801Y-29608500D01*
X60063199Y-29608500D01*
X60065648Y-29608307D01*
X60065655Y-29608307D01*
X60152584Y-29601465D01*
X60252403Y-29593609D01*
X60257210Y-29592455D01*
X60257216Y-29592454D01*
X60413968Y-29554821D01*
X60498591Y-29534505D01*
X60503164Y-29532611D01*
X60727928Y-29439511D01*
X60727932Y-29439509D01*
X60732502Y-29437616D01*
X60948376Y-29305328D01*
X61131016Y-29149338D01*
X61137142Y-29144106D01*
X61140898Y-29140898D01*
X61305328Y-28948376D01*
X61437616Y-28732502D01*
X61483356Y-28622077D01*
X61532611Y-28503164D01*
X61532612Y-28503162D01*
X61534505Y-28498591D01*
X61575547Y-28327639D01*
X61592454Y-28257216D01*
X61592455Y-28257210D01*
X61593609Y-28252403D01*
X61613474Y-28000000D01*
X61593609Y-27747597D01*
X61574910Y-27669707D01*
X61535660Y-27506221D01*
X61534505Y-27501409D01*
X61532611Y-27496836D01*
X61439511Y-27272072D01*
X61439509Y-27272068D01*
X61437616Y-27267498D01*
X61305328Y-27051624D01*
X61140898Y-26859102D01*
X60948376Y-26694672D01*
X60732502Y-26562384D01*
X60727932Y-26560491D01*
X60727928Y-26560489D01*
X60503164Y-26467389D01*
X60503162Y-26467388D01*
X60498591Y-26465495D01*
X60413968Y-26445179D01*
X60257216Y-26407546D01*
X60257210Y-26407545D01*
X60252403Y-26406391D01*
X60152584Y-26398535D01*
X60065655Y-26391693D01*
X60065648Y-26391693D01*
X60063199Y-26391500D01*
X59936801Y-26391500D01*
X59934352Y-26391693D01*
X59934345Y-26391693D01*
X59847416Y-26398535D01*
X59747597Y-26406391D01*
X59742790Y-26407545D01*
X59742784Y-26407546D01*
X59586032Y-26445179D01*
X59501409Y-26465495D01*
X59496838Y-26467388D01*
X59496836Y-26467389D01*
X59272072Y-26560489D01*
X59272068Y-26560491D01*
X59267498Y-26562384D01*
X59051624Y-26694672D01*
X58859102Y-26859102D01*
X58694672Y-27051624D01*
X58562384Y-27267498D01*
X58560491Y-27272068D01*
X58560489Y-27272072D01*
X58467389Y-27496836D01*
X58465495Y-27501409D01*
X58464340Y-27506221D01*
X58448480Y-27572283D01*
X58413128Y-27633852D01*
X58350102Y-27666535D01*
X58279411Y-27659955D01*
X58223499Y-27616201D01*
X58203757Y-27573565D01*
X58181692Y-27485720D01*
X58181690Y-27485714D01*
X58180431Y-27480702D01*
X58091354Y-27275840D01*
X57970014Y-27088277D01*
X57819670Y-26923051D01*
X57815619Y-26919852D01*
X57815615Y-26919848D01*
X57648414Y-26787800D01*
X57648410Y-26787798D01*
X57644359Y-26784598D01*
X57448789Y-26676638D01*
X57443920Y-26674914D01*
X57443916Y-26674912D01*
X57243087Y-26603795D01*
X57243083Y-26603794D01*
X57238212Y-26602069D01*
X57233119Y-26601162D01*
X57233116Y-26601161D01*
X57023373Y-26563800D01*
X57023367Y-26563799D01*
X57018284Y-26562894D01*
X56944452Y-26561992D01*
X56800081Y-26560228D01*
X56800079Y-26560228D01*
X56794911Y-26560165D01*
X56574091Y-26593955D01*
X56361756Y-26663357D01*
X56331443Y-26679137D01*
X56173679Y-26761264D01*
X56163607Y-26766507D01*
X56159474Y-26769610D01*
X56159471Y-26769612D01*
X56035279Y-26862858D01*
X55984965Y-26900635D01*
X55981393Y-26904373D01*
X55844269Y-27047865D01*
X55830629Y-27062138D01*
X55723201Y-27219621D01*
X55668293Y-27264621D01*
X55597768Y-27272792D01*
X55534021Y-27241538D01*
X55513324Y-27217054D01*
X55432822Y-27092617D01*
X55432820Y-27092614D01*
X55430014Y-27088277D01*
X55279670Y-26923051D01*
X55275619Y-26919852D01*
X55275615Y-26919848D01*
X55108414Y-26787800D01*
X55108410Y-26787798D01*
X55104359Y-26784598D01*
X54908789Y-26676638D01*
X54903920Y-26674914D01*
X54903916Y-26674912D01*
X54703087Y-26603795D01*
X54703083Y-26603794D01*
X54698212Y-26602069D01*
X54693119Y-26601162D01*
X54693116Y-26601161D01*
X54483373Y-26563800D01*
X54483367Y-26563799D01*
X54478284Y-26562894D01*
X54369804Y-26561569D01*
X54301934Y-26540736D01*
X54256100Y-26486517D01*
X54246855Y-26416124D01*
X54277134Y-26351909D01*
X54282249Y-26346483D01*
X54657927Y-25970805D01*
X54720239Y-25936779D01*
X54747022Y-25933900D01*
X58274594Y-25933900D01*
X58343587Y-25954468D01*
X58407964Y-25996595D01*
X58457381Y-26028933D01*
X58463985Y-26031389D01*
X58463987Y-26031390D01*
X58542890Y-26060734D01*
X58628400Y-26092535D01*
X58809260Y-26116667D01*
X58816271Y-26116029D01*
X58816275Y-26116029D01*
X58955980Y-26103314D01*
X58990971Y-26100129D01*
X58997673Y-26097951D01*
X58997675Y-26097951D01*
X59157805Y-26045922D01*
X59157808Y-26045921D01*
X59164504Y-26043745D01*
X59189352Y-26028933D01*
X59315177Y-25953927D01*
X59315180Y-25953925D01*
X59321232Y-25950317D01*
X59431987Y-25844846D01*
X59448262Y-25829348D01*
X59448264Y-25829345D01*
X59453366Y-25824487D01*
X59554339Y-25672510D01*
X59600104Y-25552033D01*
X59616633Y-25508522D01*
X59616634Y-25508517D01*
X59619133Y-25501939D01*
X59635994Y-25381964D01*
X59665282Y-25317290D01*
X59724886Y-25278717D01*
X59760768Y-25273500D01*
X60103394Y-25273500D01*
X60172387Y-25294068D01*
X60270319Y-25358153D01*
X60286181Y-25368533D01*
X60292785Y-25370989D01*
X60292787Y-25370990D01*
X60371691Y-25400334D01*
X60457200Y-25432135D01*
X60638060Y-25456267D01*
X60645071Y-25455629D01*
X60645075Y-25455629D01*
X60784780Y-25442914D01*
X60819771Y-25439729D01*
X60826473Y-25437551D01*
X60826475Y-25437551D01*
X60986605Y-25385522D01*
X60986608Y-25385521D01*
X60993304Y-25383345D01*
X61022065Y-25366200D01*
X61143977Y-25293527D01*
X61143980Y-25293525D01*
X61150032Y-25289917D01*
X61221339Y-25222012D01*
X61277062Y-25168948D01*
X61277064Y-25168945D01*
X61282166Y-25164087D01*
X61383139Y-25012110D01*
X61407898Y-24946932D01*
X61445433Y-24848122D01*
X61445434Y-24848117D01*
X61447933Y-24841539D01*
X61473327Y-24660852D01*
X61473342Y-24659811D01*
X61498284Y-24594032D01*
X61559804Y-24550255D01*
X61647005Y-24521922D01*
X61647008Y-24521921D01*
X61653704Y-24519745D01*
X61659755Y-24516138D01*
X61804377Y-24429927D01*
X61804380Y-24429925D01*
X61810432Y-24426317D01*
X61861929Y-24377277D01*
X61925052Y-24344786D01*
X61995723Y-24351579D01*
X62051502Y-24395502D01*
X62067407Y-24425947D01*
X62147900Y-24650139D01*
X62151700Y-24658674D01*
X62270946Y-24880601D01*
X62275957Y-24888468D01*
X62339446Y-24973490D01*
X62350704Y-24981939D01*
X62363123Y-24975167D01*
X63076405Y-24261885D01*
X63138717Y-24227859D01*
X63209532Y-24232924D01*
G37*
G04 #@! TD.AperFunction*
G04 #@! TA.AperFunction,Conductor*
G36*
X25926566Y15049700D02*
G01*
X25931766Y15045899D01*
X25933427Y15044179D01*
X26004077Y14997947D01*
X26072569Y14953127D01*
X26086105Y14944269D01*
X26092709Y14941813D01*
X26092711Y14941812D01*
X26135847Y14925770D01*
X26257124Y14880667D01*
X26437984Y14856535D01*
X26444995Y14857173D01*
X26444999Y14857173D01*
X26584704Y14869888D01*
X26619695Y14873073D01*
X26626397Y14875251D01*
X26626399Y14875251D01*
X26786529Y14927280D01*
X26786532Y14927281D01*
X26793228Y14929457D01*
X26801616Y14934457D01*
X26943901Y15019275D01*
X26943904Y15019277D01*
X26949956Y15022885D01*
X26957375Y15029950D01*
X26959204Y15030891D01*
X26960667Y15032002D01*
X26960862Y15031745D01*
X27020498Y15062440D01*
X27044264Y15064702D01*
X39868394Y15064702D01*
X39937386Y15044134D01*
X39975375Y15019275D01*
X40023575Y14987734D01*
X40082355Y14949269D01*
X40088959Y14946813D01*
X40088961Y14946812D01*
X40132742Y14930530D01*
X40253374Y14885667D01*
X40434234Y14861535D01*
X40441245Y14862173D01*
X40441249Y14862173D01*
X40584938Y14875251D01*
X40615945Y14878073D01*
X40622647Y14880251D01*
X40622649Y14880251D01*
X40782779Y14932280D01*
X40782782Y14932281D01*
X40789478Y14934457D01*
X40814326Y14949269D01*
X40940151Y15024275D01*
X40940154Y15024277D01*
X40946206Y15027885D01*
X40953625Y15034950D01*
X40955454Y15035891D01*
X40956917Y15037002D01*
X40957112Y15036745D01*
X41016748Y15067440D01*
X41040514Y15069702D01*
X52860753Y15069702D01*
X52929746Y15049134D01*
X52962218Y15027885D01*
X53047550Y14972045D01*
X53082355Y14949269D01*
X53088959Y14946813D01*
X53088961Y14946812D01*
X53132742Y14930530D01*
X53253374Y14885667D01*
X53434234Y14861535D01*
X53441245Y14862173D01*
X53441249Y14862173D01*
X53584938Y14875251D01*
X53615945Y14878073D01*
X53622647Y14880251D01*
X53622649Y14880251D01*
X53782779Y14932280D01*
X53782782Y14932281D01*
X53789478Y14934457D01*
X53814326Y14949269D01*
X53940151Y15024275D01*
X53940154Y15024277D01*
X53946206Y15027885D01*
X53953625Y15034950D01*
X53955454Y15035891D01*
X53956917Y15037002D01*
X53957112Y15036745D01*
X54016748Y15067440D01*
X54040514Y15069702D01*
X55190366Y15069702D01*
X55258487Y15049700D01*
X55304980Y14996044D01*
X55315374Y14946602D01*
X55315634Y14946627D01*
X55316321Y14939620D01*
X55316321Y14939615D01*
X55327395Y14826675D01*
X55333439Y14765036D01*
X55391033Y14591901D01*
X55485554Y14435829D01*
X55490445Y14430764D01*
X55490446Y14430763D01*
X55511134Y14409340D01*
X55612303Y14304577D01*
X55618195Y14300722D01*
X55618199Y14300718D01*
X55759085Y14208525D01*
X55764981Y14204667D01*
X55771585Y14202211D01*
X55771587Y14202210D01*
X55850491Y14172866D01*
X55936000Y14141065D01*
X56116860Y14116933D01*
X56123871Y14117571D01*
X56123875Y14117571D01*
X56263580Y14130286D01*
X56298571Y14133471D01*
X56305273Y14135649D01*
X56305275Y14135649D01*
X56465405Y14187678D01*
X56465408Y14187679D01*
X56472104Y14189855D01*
X56492830Y14202210D01*
X56622777Y14279673D01*
X56622780Y14279675D01*
X56628832Y14283283D01*
X56636251Y14290348D01*
X56638080Y14291289D01*
X56639543Y14292400D01*
X56639738Y14292143D01*
X56699374Y14322838D01*
X56723140Y14325100D01*
X59757399Y14325100D01*
X59825520Y14305098D01*
X59846494Y14288195D01*
X62101729Y12032960D01*
X62135755Y11970648D01*
X62128832Y11895142D01*
X62087697Y11797045D01*
X62023359Y11543717D01*
X61997173Y11283661D01*
X62009713Y11022592D01*
X62060704Y10766244D01*
X62149026Y10520248D01*
X62151242Y10516124D01*
X62215753Y10396063D01*
X62272737Y10290009D01*
X62275532Y10286266D01*
X62275534Y10286263D01*
X62426330Y10084323D01*
X62426335Y10084317D01*
X62429122Y10080585D01*
X62432431Y10077305D01*
X62432436Y10077299D01*
X62530859Y9979732D01*
X62614743Y9896577D01*
X62618505Y9893819D01*
X62618508Y9893816D01*
X62815384Y9749461D01*
X62858492Y9693050D01*
X62864259Y9622288D01*
X62830854Y9559641D01*
X62809964Y9542477D01*
X62690404Y9464090D01*
X62690399Y9464086D01*
X62686491Y9461524D01*
X62491494Y9287482D01*
X62398611Y9175803D01*
X62325860Y9088330D01*
X62266922Y9048747D01*
X62228986Y9042900D01*
X59535001Y9042900D01*
X59466880Y9062902D01*
X59460940Y9066964D01*
X59390094Y9118437D01*
X59390093Y9118438D01*
X59384752Y9122318D01*
X59378724Y9125002D01*
X59378722Y9125003D01*
X59216319Y9197309D01*
X59216318Y9197309D01*
X59210288Y9199994D01*
X59116888Y9219847D01*
X59029944Y9238328D01*
X59029939Y9238328D01*
X59023487Y9239700D01*
X58832513Y9239700D01*
X58826061Y9238328D01*
X58826056Y9238328D01*
X58739112Y9219847D01*
X58645712Y9199994D01*
X58639682Y9197309D01*
X58639681Y9197309D01*
X58477278Y9125003D01*
X58477276Y9125002D01*
X58471248Y9122318D01*
X58465907Y9118438D01*
X58465906Y9118437D01*
X58395060Y9066964D01*
X58328192Y9043106D01*
X58320999Y9042900D01*
X53743801Y9042900D01*
X53675680Y9062902D01*
X53669740Y9066964D01*
X53598894Y9118437D01*
X53598893Y9118438D01*
X53593552Y9122318D01*
X53587524Y9125002D01*
X53587522Y9125003D01*
X53425119Y9197309D01*
X53425118Y9197309D01*
X53419088Y9199994D01*
X53325688Y9219847D01*
X53238744Y9238328D01*
X53238739Y9238328D01*
X53232287Y9239700D01*
X53041313Y9239700D01*
X53034861Y9238328D01*
X53034856Y9238328D01*
X52947912Y9219847D01*
X52854512Y9199994D01*
X52848482Y9197309D01*
X52848481Y9197309D01*
X52686078Y9125003D01*
X52686076Y9125002D01*
X52680048Y9122318D01*
X52674707Y9118438D01*
X52674706Y9118437D01*
X52603860Y9066964D01*
X52536992Y9043106D01*
X52529799Y9042900D01*
X49984601Y9042900D01*
X49916480Y9062902D01*
X49910540Y9066964D01*
X49839694Y9118437D01*
X49839693Y9118438D01*
X49834352Y9122318D01*
X49828324Y9125002D01*
X49828322Y9125003D01*
X49665919Y9197309D01*
X49665918Y9197309D01*
X49659888Y9199994D01*
X49566488Y9219847D01*
X49479544Y9238328D01*
X49479539Y9238328D01*
X49473087Y9239700D01*
X49282113Y9239700D01*
X49275661Y9238328D01*
X49275656Y9238328D01*
X49188712Y9219847D01*
X49095312Y9199994D01*
X49089282Y9197309D01*
X49089281Y9197309D01*
X48926878Y9125003D01*
X48926876Y9125002D01*
X48920848Y9122318D01*
X48915507Y9118438D01*
X48915506Y9118437D01*
X48844660Y9066964D01*
X48777792Y9043106D01*
X48770599Y9042900D01*
X44314121Y9042900D01*
X44246000Y9062902D01*
X44240060Y9066964D01*
X44099294Y9169237D01*
X44099293Y9169238D01*
X44093952Y9173118D01*
X44087924Y9175802D01*
X44087922Y9175803D01*
X43925519Y9248109D01*
X43925518Y9248109D01*
X43919488Y9250794D01*
X43826088Y9270647D01*
X43739144Y9289128D01*
X43739139Y9289128D01*
X43732687Y9290500D01*
X43541713Y9290500D01*
X43535261Y9289128D01*
X43535256Y9289128D01*
X43448313Y9270647D01*
X43354912Y9250794D01*
X43348882Y9248109D01*
X43348881Y9248109D01*
X43186478Y9175803D01*
X43186476Y9175802D01*
X43180448Y9173118D01*
X43175107Y9169238D01*
X43175106Y9169237D01*
X43104260Y9117764D01*
X43037392Y9093906D01*
X43030199Y9093700D01*
X38554601Y9093700D01*
X38486480Y9113702D01*
X38480540Y9117764D01*
X38409694Y9169237D01*
X38409693Y9169238D01*
X38404352Y9173118D01*
X38398324Y9175802D01*
X38398322Y9175803D01*
X38235919Y9248109D01*
X38235918Y9248109D01*
X38229888Y9250794D01*
X38136488Y9270647D01*
X38049544Y9289128D01*
X38049539Y9289128D01*
X38043087Y9290500D01*
X37852113Y9290500D01*
X37845661Y9289128D01*
X37845656Y9289128D01*
X37758713Y9270647D01*
X37665312Y9250794D01*
X37659282Y9248109D01*
X37659281Y9248109D01*
X37496878Y9175803D01*
X37496876Y9175802D01*
X37490848Y9173118D01*
X37336347Y9060866D01*
X37208560Y8918944D01*
X37113073Y8753556D01*
X37054058Y8571928D01*
X37034096Y8382000D01*
X37054058Y8192072D01*
X37113073Y8010444D01*
X37208560Y7845056D01*
X37336347Y7703134D01*
X37409069Y7650298D01*
X37484272Y7595660D01*
X37490848Y7590882D01*
X37496876Y7588198D01*
X37496878Y7588197D01*
X37613940Y7536078D01*
X37665312Y7513206D01*
X37758350Y7493430D01*
X37845656Y7474872D01*
X37845661Y7474872D01*
X37852113Y7473500D01*
X38043087Y7473500D01*
X38049539Y7474872D01*
X38049544Y7474872D01*
X38136850Y7493430D01*
X38229888Y7513206D01*
X38281260Y7536078D01*
X38398322Y7588197D01*
X38398324Y7588198D01*
X38404352Y7590882D01*
X38410929Y7595660D01*
X38480540Y7646236D01*
X38547408Y7670094D01*
X38554601Y7670300D01*
X43030199Y7670300D01*
X43098320Y7650298D01*
X43104260Y7646236D01*
X43173872Y7595660D01*
X43180448Y7590882D01*
X43186476Y7588198D01*
X43186478Y7588197D01*
X43303540Y7536078D01*
X43354912Y7513206D01*
X43447950Y7493430D01*
X43535256Y7474872D01*
X43535261Y7474872D01*
X43541713Y7473500D01*
X43732687Y7473500D01*
X43739139Y7474872D01*
X43739144Y7474872D01*
X43826450Y7493430D01*
X43919488Y7513206D01*
X43970860Y7536078D01*
X44087922Y7588197D01*
X44087924Y7588198D01*
X44093952Y7590882D01*
X44100220Y7595436D01*
X44100846Y7595660D01*
X44105011Y7598064D01*
X44105451Y7597302D01*
X44167087Y7619294D01*
X44174281Y7619500D01*
X48770599Y7619500D01*
X48838720Y7599498D01*
X48844660Y7595436D01*
X48920848Y7540082D01*
X48926876Y7537398D01*
X48926878Y7537397D01*
X49070394Y7473500D01*
X49095312Y7462406D01*
X49188713Y7442553D01*
X49275656Y7424072D01*
X49275661Y7424072D01*
X49282113Y7422700D01*
X49473087Y7422700D01*
X49479539Y7424072D01*
X49479544Y7424072D01*
X49566487Y7442553D01*
X49659888Y7462406D01*
X49684806Y7473500D01*
X49828322Y7537397D01*
X49828324Y7537398D01*
X49834352Y7540082D01*
X49910540Y7595436D01*
X49977408Y7619294D01*
X49984601Y7619500D01*
X52529799Y7619500D01*
X52597920Y7599498D01*
X52603860Y7595436D01*
X52680048Y7540082D01*
X52686076Y7537398D01*
X52686078Y7537397D01*
X52829594Y7473500D01*
X52854512Y7462406D01*
X52947913Y7442553D01*
X53034856Y7424072D01*
X53034861Y7424072D01*
X53041313Y7422700D01*
X53232287Y7422700D01*
X53238739Y7424072D01*
X53238744Y7424072D01*
X53325687Y7442553D01*
X53419088Y7462406D01*
X53444006Y7473500D01*
X53587522Y7537397D01*
X53587524Y7537398D01*
X53593552Y7540082D01*
X53669740Y7595436D01*
X53736608Y7619294D01*
X53743801Y7619500D01*
X58320999Y7619500D01*
X58389120Y7599498D01*
X58395060Y7595436D01*
X58471248Y7540082D01*
X58477276Y7537398D01*
X58477278Y7537397D01*
X58620794Y7473500D01*
X58645712Y7462406D01*
X58739113Y7442553D01*
X58826056Y7424072D01*
X58826061Y7424072D01*
X58832513Y7422700D01*
X59023487Y7422700D01*
X59029939Y7424072D01*
X59029944Y7424072D01*
X59116887Y7442553D01*
X59210288Y7462406D01*
X59235206Y7473500D01*
X59378722Y7537397D01*
X59378724Y7537398D01*
X59384752Y7540082D01*
X59460940Y7595436D01*
X59527808Y7619294D01*
X59535001Y7619500D01*
X61961923Y7619500D01*
X62030044Y7599498D01*
X62076537Y7545842D01*
X62080509Y7536084D01*
X62149026Y7345248D01*
X62151242Y7341124D01*
X62215753Y7221063D01*
X62272737Y7115009D01*
X62275532Y7111266D01*
X62275534Y7111263D01*
X62426330Y6909323D01*
X62426335Y6909317D01*
X62429122Y6905585D01*
X62432431Y6902305D01*
X62432436Y6902299D01*
X62530859Y6804732D01*
X62614743Y6721577D01*
X62618505Y6718819D01*
X62618508Y6718816D01*
X62731654Y6635854D01*
X62825524Y6567026D01*
X62829667Y6564846D01*
X62829669Y6564845D01*
X63052684Y6447511D01*
X63052689Y6447509D01*
X63056834Y6445328D01*
X63207042Y6392873D01*
X63264759Y6351531D01*
X63290962Y6285546D01*
X63291500Y6273918D01*
X63291500Y-6273297D01*
X63271498Y-6341418D01*
X63217842Y-6387911D01*
X63200758Y-6394263D01*
X63147107Y-6409901D01*
X63138360Y-6413171D01*
X62909558Y-6518651D01*
X62901406Y-6523170D01*
X62722353Y-6640562D01*
X62713216Y-6651303D01*
X62717789Y-6661079D01*
X63254595Y-7197885D01*
X63288621Y-7260197D01*
X63291500Y-7286980D01*
X63291500Y-7649020D01*
X63271498Y-7717141D01*
X63217842Y-7763634D01*
X63147568Y-7773738D01*
X63082988Y-7744244D01*
X63076405Y-7738115D01*
X62361321Y-7023031D01*
X62348013Y-7015764D01*
X62337974Y-7022886D01*
X62327761Y-7035166D01*
X62322346Y-7042758D01*
X62191646Y-7258146D01*
X62187408Y-7266463D01*
X62089981Y-7498799D01*
X62087020Y-7507649D01*
X62025006Y-7751831D01*
X62023384Y-7761028D01*
X61998143Y-8011698D01*
X61997898Y-8021023D01*
X62009987Y-8272675D01*
X62011124Y-8281935D01*
X62060274Y-8529035D01*
X62062768Y-8538028D01*
X62147900Y-8775139D01*
X62151700Y-8783674D01*
X62270946Y-9005601D01*
X62275957Y-9013468D01*
X62339446Y-9098490D01*
X62350704Y-9106939D01*
X62363123Y-9100167D01*
X63076405Y-8386885D01*
X63138717Y-8352859D01*
X63209532Y-8357924D01*
X63266368Y-8400471D01*
X63291179Y-8466991D01*
X63291500Y-8475980D01*
X63291500Y-8838020D01*
X63271498Y-8906141D01*
X63254595Y-8927115D01*
X62722270Y-9459440D01*
X62715612Y-9471633D01*
X62724325Y-9483153D01*
X62816261Y-9550563D01*
X62859369Y-9606974D01*
X62865136Y-9677736D01*
X62831731Y-9740382D01*
X62810841Y-9757547D01*
X62722353Y-9815562D01*
X62713216Y-9826303D01*
X62717789Y-9836079D01*
X63254595Y-10372885D01*
X63288621Y-10435197D01*
X63291500Y-10461980D01*
X63291500Y-10824020D01*
X63271498Y-10892141D01*
X63217842Y-10938634D01*
X63147568Y-10948738D01*
X63082988Y-10919244D01*
X63076405Y-10913115D01*
X62361321Y-10198031D01*
X62348013Y-10190764D01*
X62337974Y-10197886D01*
X62327761Y-10210166D01*
X62322346Y-10217758D01*
X62191646Y-10433146D01*
X62187408Y-10441463D01*
X62089981Y-10673799D01*
X62087020Y-10682649D01*
X62025006Y-10926831D01*
X62023384Y-10936028D01*
X61998143Y-11186698D01*
X61997898Y-11196023D01*
X62009987Y-11447675D01*
X62011124Y-11456935D01*
X62060274Y-11704035D01*
X62062768Y-11713028D01*
X62147900Y-11950139D01*
X62151700Y-11958674D01*
X62270946Y-12180601D01*
X62275957Y-12188468D01*
X62339446Y-12273490D01*
X62350704Y-12281939D01*
X62363123Y-12275167D01*
X63076405Y-11561885D01*
X63138717Y-11527859D01*
X63209532Y-11532924D01*
X63266368Y-11575471D01*
X63291179Y-11641991D01*
X63291500Y-11650980D01*
X63291500Y-12013020D01*
X63271498Y-12081141D01*
X63254595Y-12102115D01*
X62722270Y-12634440D01*
X62715612Y-12646633D01*
X62724325Y-12658153D01*
X62816261Y-12725563D01*
X62859369Y-12781974D01*
X62865136Y-12852736D01*
X62831731Y-12915382D01*
X62810841Y-12932547D01*
X62722353Y-12990562D01*
X62713216Y-13001303D01*
X62717789Y-13011079D01*
X63254595Y-13547885D01*
X63288621Y-13610197D01*
X63291500Y-13636980D01*
X63291500Y-13999020D01*
X63271498Y-14067141D01*
X63217842Y-14113634D01*
X63147568Y-14123738D01*
X63082988Y-14094244D01*
X63076405Y-14088115D01*
X62361321Y-13373031D01*
X62348013Y-13365764D01*
X62337974Y-13372886D01*
X62327761Y-13385166D01*
X62322346Y-13392758D01*
X62191646Y-13608146D01*
X62187408Y-13616463D01*
X62089981Y-13848799D01*
X62087020Y-13857649D01*
X62025006Y-14101831D01*
X62023384Y-14111028D01*
X61998143Y-14361698D01*
X61997898Y-14371023D01*
X62009987Y-14622675D01*
X62011124Y-14631935D01*
X62060274Y-14879035D01*
X62062768Y-14888028D01*
X62147900Y-15125139D01*
X62151700Y-15133674D01*
X62270946Y-15355601D01*
X62275957Y-15363468D01*
X62339446Y-15448490D01*
X62350704Y-15456939D01*
X62363123Y-15450167D01*
X63076405Y-14736885D01*
X63138717Y-14702859D01*
X63209532Y-14707924D01*
X63266368Y-14750471D01*
X63291179Y-14816991D01*
X63291500Y-14825980D01*
X63291500Y-15188020D01*
X63271498Y-15256141D01*
X63254595Y-15277115D01*
X62722270Y-15809440D01*
X62715612Y-15821633D01*
X62724325Y-15833153D01*
X62816261Y-15900563D01*
X62859369Y-15956974D01*
X62865136Y-16027736D01*
X62831731Y-16090382D01*
X62810841Y-16107547D01*
X62722353Y-16165562D01*
X62713216Y-16176303D01*
X62717789Y-16186079D01*
X63254595Y-16722885D01*
X63288621Y-16785197D01*
X63291500Y-16811980D01*
X63291500Y-17174020D01*
X63271498Y-17242141D01*
X63217842Y-17288634D01*
X63147568Y-17298738D01*
X63082988Y-17269244D01*
X63076405Y-17263115D01*
X62361321Y-16548031D01*
X62348013Y-16540764D01*
X62337974Y-16547886D01*
X62327761Y-16560166D01*
X62322346Y-16567758D01*
X62191646Y-16783146D01*
X62187408Y-16791463D01*
X62089981Y-17023799D01*
X62087020Y-17032649D01*
X62025006Y-17276831D01*
X62023384Y-17286028D01*
X61998143Y-17536698D01*
X61997898Y-17546023D01*
X62009987Y-17797675D01*
X62011124Y-17806935D01*
X62060274Y-18054035D01*
X62062768Y-18063028D01*
X62147900Y-18300139D01*
X62151700Y-18308674D01*
X62270946Y-18530601D01*
X62275957Y-18538468D01*
X62339446Y-18623490D01*
X62350704Y-18631939D01*
X62363123Y-18625167D01*
X63076405Y-17911885D01*
X63138717Y-17877859D01*
X63209532Y-17882924D01*
X63266368Y-17925471D01*
X63291179Y-17991991D01*
X63291500Y-18000980D01*
X63291500Y-18363020D01*
X63271498Y-18431141D01*
X63254595Y-18452115D01*
X62722270Y-18984440D01*
X62715612Y-18996633D01*
X62724325Y-19008153D01*
X62816261Y-19075563D01*
X62859369Y-19131974D01*
X62865136Y-19202736D01*
X62831731Y-19265382D01*
X62810841Y-19282547D01*
X62722353Y-19340562D01*
X62713216Y-19351303D01*
X62717789Y-19361079D01*
X63254595Y-19897885D01*
X63288621Y-19960197D01*
X63291500Y-19986980D01*
X63291500Y-20349020D01*
X63271498Y-20417141D01*
X63217842Y-20463634D01*
X63147568Y-20473738D01*
X63082988Y-20444244D01*
X63076405Y-20438115D01*
X62361321Y-19723031D01*
X62348013Y-19715764D01*
X62337974Y-19722886D01*
X62327761Y-19735166D01*
X62322346Y-19742758D01*
X62191646Y-19958146D01*
X62187408Y-19966463D01*
X62089981Y-20198799D01*
X62087020Y-20207649D01*
X62025006Y-20451831D01*
X62023384Y-20461028D01*
X61998143Y-20711698D01*
X61997898Y-20721023D01*
X62009987Y-20972675D01*
X62011124Y-20981935D01*
X62060274Y-21229035D01*
X62062768Y-21238028D01*
X62147900Y-21475139D01*
X62151700Y-21483674D01*
X62270946Y-21705601D01*
X62275957Y-21713468D01*
X62339446Y-21798490D01*
X62350704Y-21806939D01*
X62363123Y-21800167D01*
X63076405Y-21086885D01*
X63138717Y-21052859D01*
X63209532Y-21057924D01*
X63266368Y-21100471D01*
X63291179Y-21166991D01*
X63291500Y-21175980D01*
X63291500Y-21538020D01*
X63271498Y-21606141D01*
X63254595Y-21627115D01*
X62722270Y-22159440D01*
X62715612Y-22171633D01*
X62724325Y-22183153D01*
X62816261Y-22250563D01*
X62859369Y-22306974D01*
X62865136Y-22377736D01*
X62831731Y-22440382D01*
X62810841Y-22457547D01*
X62722353Y-22515562D01*
X62713216Y-22526303D01*
X62717789Y-22536079D01*
X63254595Y-23072885D01*
X63288621Y-23135197D01*
X63291500Y-23161980D01*
X63291500Y-23524020D01*
X63271498Y-23592141D01*
X63217842Y-23638634D01*
X63147568Y-23648738D01*
X63082988Y-23619244D01*
X63076405Y-23613115D01*
X62361321Y-22898031D01*
X62348013Y-22890764D01*
X62337974Y-22897886D01*
X62327761Y-22910166D01*
X62322346Y-22917758D01*
X62191646Y-23133146D01*
X62187408Y-23141463D01*
X62155132Y-23218432D01*
X62110343Y-23273518D01*
X62042882Y-23295644D01*
X61974168Y-23277786D01*
X61949529Y-23258490D01*
X61833404Y-23141551D01*
X61833400Y-23141548D01*
X61828441Y-23136554D01*
X61817257Y-23129456D01*
X61742446Y-23081980D01*
X61674383Y-23038786D01*
X61545480Y-22992885D01*
X61509127Y-22979940D01*
X61509125Y-22979939D01*
X61502493Y-22977578D01*
X61495507Y-22976745D01*
X61495503Y-22976744D01*
X61365926Y-22961294D01*
X61321314Y-22955974D01*
X61314311Y-22956710D01*
X61314310Y-22956710D01*
X61268075Y-22961570D01*
X61139851Y-22975046D01*
X61133183Y-22977316D01*
X60973790Y-23031578D01*
X60973787Y-23031579D01*
X60967123Y-23033848D01*
X60872076Y-23092321D01*
X60826730Y-23120218D01*
X60760708Y-23138900D01*
X43334632Y-23138900D01*
X43323393Y-23138370D01*
X43315881Y-23136691D01*
X43307956Y-23136940D01*
X43307955Y-23136940D01*
X43247570Y-23138838D01*
X43243612Y-23138900D01*
X43215617Y-23138900D01*
X43211683Y-23139397D01*
X43211681Y-23139397D01*
X43211594Y-23139408D01*
X43199760Y-23140340D01*
X43155395Y-23141735D01*
X43147782Y-23143947D01*
X43147781Y-23143947D01*
X43135852Y-23147413D01*
X43116488Y-23151423D01*
X43104160Y-23152980D01*
X43104158Y-23152980D01*
X43096301Y-23153973D01*
X43088937Y-23156889D01*
X43088932Y-23156890D01*
X43055044Y-23170307D01*
X43043815Y-23174152D01*
X43027135Y-23178998D01*
X43001207Y-23186531D01*
X42994380Y-23190569D01*
X42994377Y-23190570D01*
X42983694Y-23196888D01*
X42965936Y-23205588D01*
X42954385Y-23210161D01*
X42954379Y-23210165D01*
X42947012Y-23213081D01*
X42940601Y-23217739D01*
X42940599Y-23217740D01*
X42911112Y-23239164D01*
X42901190Y-23245681D01*
X42869832Y-23264226D01*
X42869828Y-23264229D01*
X42863002Y-23268266D01*
X42848618Y-23282650D01*
X42833584Y-23295491D01*
X42825672Y-23301239D01*
X42817113Y-23307458D01*
X42812060Y-23313566D01*
X42788823Y-23341655D01*
X42780833Y-23350435D01*
X39564944Y-26566323D01*
X39502632Y-26600349D01*
X39453754Y-26601275D01*
X39358766Y-26584355D01*
X39243373Y-26563800D01*
X39243367Y-26563799D01*
X39238284Y-26562894D01*
X39164452Y-26561992D01*
X39020081Y-26560228D01*
X39020079Y-26560228D01*
X39014911Y-26560165D01*
X38794091Y-26593955D01*
X38581756Y-26663357D01*
X38551443Y-26679137D01*
X38393679Y-26761264D01*
X38383607Y-26766507D01*
X38379474Y-26769610D01*
X38379471Y-26769612D01*
X38255279Y-26862858D01*
X38204965Y-26900635D01*
X38201393Y-26904373D01*
X38064269Y-27047865D01*
X38050629Y-27062138D01*
X37924743Y-27246680D01*
X37830688Y-27449305D01*
X37770989Y-27664570D01*
X37747251Y-27886695D01*
X37747548Y-27891848D01*
X37747548Y-27891851D01*
X37753011Y-27986590D01*
X37760110Y-28109715D01*
X37761247Y-28114761D01*
X37761248Y-28114767D01*
X37781119Y-28202939D01*
X37809222Y-28327639D01*
X37893266Y-28534616D01*
X38009987Y-28725088D01*
X38010310Y-28725460D01*
X38033941Y-28790965D01*
X38018104Y-28860172D01*
X37967364Y-28909831D01*
X37908173Y-28924600D01*
X26845523Y-28924600D01*
X26777402Y-28904598D01*
X26756428Y-28887695D01*
X26241877Y-28373144D01*
X26207851Y-28310832D01*
X26210414Y-28247420D01*
X26220865Y-28213022D01*
X26222370Y-28208069D01*
X26251529Y-27986590D01*
X26253156Y-27920000D01*
X26234852Y-27697361D01*
X26180431Y-27480702D01*
X26091354Y-27275840D01*
X25970014Y-27088277D01*
X25819670Y-26923051D01*
X25815619Y-26919852D01*
X25815615Y-26919848D01*
X25648414Y-26787800D01*
X25648410Y-26787798D01*
X25644359Y-26784598D01*
X25448789Y-26676638D01*
X25443920Y-26674914D01*
X25443916Y-26674912D01*
X25243087Y-26603795D01*
X25243083Y-26603794D01*
X25238212Y-26602069D01*
X25233119Y-26601162D01*
X25233116Y-26601161D01*
X25023373Y-26563800D01*
X25023367Y-26563799D01*
X25018284Y-26562894D01*
X24944452Y-26561992D01*
X24800081Y-26560228D01*
X24800079Y-26560228D01*
X24794911Y-26560165D01*
X24574091Y-26593955D01*
X24361756Y-26663357D01*
X24331443Y-26679137D01*
X24173679Y-26761264D01*
X24163607Y-26766507D01*
X24159474Y-26769610D01*
X24159471Y-26769612D01*
X24035279Y-26862858D01*
X23984965Y-26900635D01*
X23981393Y-26904373D01*
X23844269Y-27047865D01*
X23830629Y-27062138D01*
X23723201Y-27219621D01*
X23668293Y-27264621D01*
X23597768Y-27272792D01*
X23534021Y-27241538D01*
X23513324Y-27217054D01*
X23432822Y-27092617D01*
X23432820Y-27092614D01*
X23430014Y-27088277D01*
X23279670Y-26923051D01*
X23275619Y-26919852D01*
X23275615Y-26919848D01*
X23108414Y-26787800D01*
X23108410Y-26787798D01*
X23104359Y-26784598D01*
X22908789Y-26676638D01*
X22903920Y-26674914D01*
X22903916Y-26674912D01*
X22703087Y-26603795D01*
X22703083Y-26603794D01*
X22698212Y-26602069D01*
X22693119Y-26601162D01*
X22693116Y-26601161D01*
X22483373Y-26563800D01*
X22483367Y-26563799D01*
X22478284Y-26562894D01*
X22404452Y-26561992D01*
X22260081Y-26560228D01*
X22260079Y-26560228D01*
X22254911Y-26560165D01*
X22034091Y-26593955D01*
X21821756Y-26663357D01*
X21791443Y-26679137D01*
X21633679Y-26761264D01*
X21623607Y-26766507D01*
X21619474Y-26769610D01*
X21619471Y-26769612D01*
X21495279Y-26862858D01*
X21444965Y-26900635D01*
X21441393Y-26904373D01*
X21304269Y-27047865D01*
X21290629Y-27062138D01*
X21183201Y-27219621D01*
X21128293Y-27264621D01*
X21057768Y-27272792D01*
X20994021Y-27241538D01*
X20973324Y-27217054D01*
X20892822Y-27092617D01*
X20892820Y-27092614D01*
X20890014Y-27088277D01*
X20739670Y-26923051D01*
X20735619Y-26919852D01*
X20735615Y-26919848D01*
X20568414Y-26787800D01*
X20568410Y-26787798D01*
X20564359Y-26784598D01*
X20368789Y-26676638D01*
X20363920Y-26674914D01*
X20363916Y-26674912D01*
X20163087Y-26603795D01*
X20163083Y-26603794D01*
X20158212Y-26602069D01*
X20153119Y-26601162D01*
X20153116Y-26601161D01*
X19943373Y-26563800D01*
X19943367Y-26563799D01*
X19938284Y-26562894D01*
X19864452Y-26561992D01*
X19720081Y-26560228D01*
X19720079Y-26560228D01*
X19714911Y-26560165D01*
X19567627Y-26582703D01*
X19499200Y-26593173D01*
X19499197Y-26593174D01*
X19494091Y-26593955D01*
X19489184Y-26595559D01*
X19489171Y-26595562D01*
X19483661Y-26597363D01*
X19412697Y-26599512D01*
X19355425Y-26566692D01*
X17541250Y-24752517D01*
X17533674Y-24744191D01*
X17529553Y-24737697D01*
X17479734Y-24690914D01*
X17476893Y-24688160D01*
X17457094Y-24668361D01*
X17453969Y-24665937D01*
X17453960Y-24665929D01*
X17453874Y-24665863D01*
X17444849Y-24658155D01*
X17418285Y-24633210D01*
X17412506Y-24627783D01*
X17394669Y-24617977D01*
X17378153Y-24607127D01*
X17362067Y-24594650D01*
X17321334Y-24577024D01*
X17310686Y-24571807D01*
X17299058Y-24565415D01*
X17271803Y-24550431D01*
X17264128Y-24548460D01*
X17264122Y-24548458D01*
X17252089Y-24545369D01*
X17233387Y-24538966D01*
X17214708Y-24530883D01*
X17180872Y-24525524D01*
X17170873Y-24523940D01*
X17159260Y-24521535D01*
X17116282Y-24510500D01*
X17095935Y-24510500D01*
X17076224Y-24508949D01*
X17063950Y-24507005D01*
X17056121Y-24505765D01*
X17048229Y-24506511D01*
X17011944Y-24509941D01*
X17000086Y-24510500D01*
X15220517Y-24510500D01*
X15152396Y-24490498D01*
X15105903Y-24436842D01*
X15095799Y-24366568D01*
X15125293Y-24301988D01*
X15169267Y-24269394D01*
X15182717Y-24263405D01*
X15188752Y-24260718D01*
X15233979Y-24227859D01*
X15264940Y-24205364D01*
X15331808Y-24181506D01*
X15339001Y-24181300D01*
X19966999Y-24181300D01*
X20035120Y-24201302D01*
X20041060Y-24205364D01*
X20072022Y-24227859D01*
X20117248Y-24260718D01*
X20123276Y-24263402D01*
X20123278Y-24263403D01*
X20269283Y-24328408D01*
X20291712Y-24338394D01*
X20385112Y-24358247D01*
X20472056Y-24376728D01*
X20472061Y-24376728D01*
X20478513Y-24378100D01*
X20669487Y-24378100D01*
X20675939Y-24376728D01*
X20675944Y-24376728D01*
X20762888Y-24358247D01*
X20856288Y-24338394D01*
X20878717Y-24328408D01*
X21024722Y-24263403D01*
X21024724Y-24263402D01*
X21030752Y-24260718D01*
X21185253Y-24148466D01*
X21189675Y-24143555D01*
X21308621Y-24011452D01*
X21308622Y-24011451D01*
X21313040Y-24006544D01*
X21408527Y-23841156D01*
X21467542Y-23659528D01*
X21468784Y-23647717D01*
X21486814Y-23476165D01*
X21487504Y-23469600D01*
X21482051Y-23417715D01*
X21468232Y-23286235D01*
X21468232Y-23286233D01*
X21467542Y-23279672D01*
X21408527Y-23098044D01*
X21399253Y-23081980D01*
X21338976Y-22977578D01*
X21313040Y-22932656D01*
X21282535Y-22898776D01*
X21189675Y-22795645D01*
X21189674Y-22795644D01*
X21185253Y-22790734D01*
X21030752Y-22678482D01*
X21024724Y-22675798D01*
X21024722Y-22675797D01*
X20862319Y-22603491D01*
X20862318Y-22603491D01*
X20856288Y-22600806D01*
X20762888Y-22580953D01*
X20675944Y-22562472D01*
X20675939Y-22562472D01*
X20669487Y-22561100D01*
X20478513Y-22561100D01*
X20472061Y-22562472D01*
X20472056Y-22562472D01*
X20385112Y-22580953D01*
X20291712Y-22600806D01*
X20285682Y-22603491D01*
X20285681Y-22603491D01*
X20123278Y-22675797D01*
X20123276Y-22675798D01*
X20117248Y-22678482D01*
X20111907Y-22682362D01*
X20111906Y-22682363D01*
X20041060Y-22733836D01*
X19974192Y-22757694D01*
X19966999Y-22757900D01*
X15339001Y-22757900D01*
X15270880Y-22737898D01*
X15264940Y-22733836D01*
X15194094Y-22682363D01*
X15194093Y-22682362D01*
X15188752Y-22678482D01*
X15182724Y-22675798D01*
X15182722Y-22675797D01*
X15020319Y-22603491D01*
X15020318Y-22603491D01*
X15014288Y-22600806D01*
X14920888Y-22580953D01*
X14833944Y-22562472D01*
X14833939Y-22562472D01*
X14827487Y-22561100D01*
X14636513Y-22561100D01*
X14630061Y-22562472D01*
X14630056Y-22562472D01*
X14543112Y-22580953D01*
X14449712Y-22600806D01*
X14443682Y-22603491D01*
X14443681Y-22603491D01*
X14281278Y-22675797D01*
X14281276Y-22675798D01*
X14275248Y-22678482D01*
X14269907Y-22682362D01*
X14269906Y-22682363D01*
X14199060Y-22733836D01*
X14132192Y-22757694D01*
X14124999Y-22757900D01*
X11478201Y-22757900D01*
X11410080Y-22737898D01*
X11404140Y-22733836D01*
X11333294Y-22682363D01*
X11333293Y-22682362D01*
X11327952Y-22678482D01*
X11321924Y-22675798D01*
X11321922Y-22675797D01*
X11159519Y-22603491D01*
X11159518Y-22603491D01*
X11153488Y-22600806D01*
X11060088Y-22580953D01*
X10973144Y-22562472D01*
X10973139Y-22562472D01*
X10966687Y-22561100D01*
X10775713Y-22561100D01*
X10769261Y-22562472D01*
X10769256Y-22562472D01*
X10682312Y-22580953D01*
X10588912Y-22600806D01*
X10582882Y-22603491D01*
X10582881Y-22603491D01*
X10420478Y-22675797D01*
X10420476Y-22675798D01*
X10414448Y-22678482D01*
X10409107Y-22682362D01*
X10409106Y-22682363D01*
X10338260Y-22733836D01*
X10271392Y-22757694D01*
X10264199Y-22757900D01*
X7949700Y-22757900D01*
X7881579Y-22737898D01*
X7835086Y-22684242D01*
X7823700Y-22631900D01*
X7823700Y-9321300D01*
X7843702Y-9253179D01*
X7897358Y-9206686D01*
X7949700Y-9195300D01*
X10264199Y-9195300D01*
X10332320Y-9215302D01*
X10338260Y-9219364D01*
X10414448Y-9274718D01*
X10420476Y-9277402D01*
X10420478Y-9277403D01*
X10519073Y-9321300D01*
X10588912Y-9352394D01*
X10682313Y-9372247D01*
X10769256Y-9390728D01*
X10769261Y-9390728D01*
X10775713Y-9392100D01*
X10966687Y-9392100D01*
X10973139Y-9390728D01*
X10973144Y-9390728D01*
X11060087Y-9372247D01*
X11153488Y-9352394D01*
X11223327Y-9321300D01*
X11321922Y-9277403D01*
X11321924Y-9277402D01*
X11327952Y-9274718D01*
X11404140Y-9219364D01*
X11471008Y-9195506D01*
X11478201Y-9195300D01*
X14074199Y-9195300D01*
X14142320Y-9215302D01*
X14148260Y-9219364D01*
X14224448Y-9274718D01*
X14230476Y-9277402D01*
X14230478Y-9277403D01*
X14329073Y-9321300D01*
X14398912Y-9352394D01*
X14492313Y-9372247D01*
X14579256Y-9390728D01*
X14579261Y-9390728D01*
X14585713Y-9392100D01*
X14776687Y-9392100D01*
X14783139Y-9390728D01*
X14783144Y-9390728D01*
X14870087Y-9372247D01*
X14963488Y-9352394D01*
X15033327Y-9321300D01*
X15131922Y-9277403D01*
X15131924Y-9277402D01*
X15137952Y-9274718D01*
X15214140Y-9219364D01*
X15281008Y-9195506D01*
X15288201Y-9195300D01*
X19560599Y-9195300D01*
X19628720Y-9215302D01*
X19634660Y-9219364D01*
X19710848Y-9274718D01*
X19716876Y-9277402D01*
X19716878Y-9277403D01*
X19815473Y-9321300D01*
X19885312Y-9352394D01*
X19978713Y-9372247D01*
X20065656Y-9390728D01*
X20065661Y-9390728D01*
X20072113Y-9392100D01*
X20263087Y-9392100D01*
X20269539Y-9390728D01*
X20269544Y-9390728D01*
X20356487Y-9372247D01*
X20449888Y-9352394D01*
X20519727Y-9321300D01*
X20618322Y-9277403D01*
X20618324Y-9277402D01*
X20624352Y-9274718D01*
X20700540Y-9219364D01*
X20767408Y-9195506D01*
X20774601Y-9195300D01*
X23421399Y-9195300D01*
X23489520Y-9215302D01*
X23495460Y-9219364D01*
X23571648Y-9274718D01*
X23577676Y-9277402D01*
X23577678Y-9277403D01*
X23676273Y-9321300D01*
X23746112Y-9352394D01*
X23839513Y-9372247D01*
X23926456Y-9390728D01*
X23926461Y-9390728D01*
X23932913Y-9392100D01*
X24123887Y-9392100D01*
X24130339Y-9390728D01*
X24130344Y-9390728D01*
X24217287Y-9372247D01*
X24310688Y-9352394D01*
X24380527Y-9321300D01*
X24479122Y-9277403D01*
X24479124Y-9277402D01*
X24485152Y-9274718D01*
X24639653Y-9162466D01*
X24644075Y-9157555D01*
X24763021Y-9025452D01*
X24763022Y-9025451D01*
X24767440Y-9020544D01*
X24862927Y-8855156D01*
X24921942Y-8673528D01*
X24936184Y-8538028D01*
X24941214Y-8490165D01*
X24941904Y-8483600D01*
X24921942Y-8293672D01*
X24862927Y-8112044D01*
X24767440Y-7946656D01*
X24639653Y-7804734D01*
X24485152Y-7692482D01*
X24479124Y-7689798D01*
X24479122Y-7689797D01*
X24316719Y-7617491D01*
X24316718Y-7617491D01*
X24310688Y-7614806D01*
X24217288Y-7594953D01*
X24130344Y-7576472D01*
X24130339Y-7576472D01*
X24123887Y-7575100D01*
X23932913Y-7575100D01*
X23926461Y-7576472D01*
X23926456Y-7576472D01*
X23839512Y-7594953D01*
X23746112Y-7614806D01*
X23740082Y-7617491D01*
X23740081Y-7617491D01*
X23577678Y-7689797D01*
X23577676Y-7689798D01*
X23571648Y-7692482D01*
X23566307Y-7696362D01*
X23566306Y-7696363D01*
X23495460Y-7747836D01*
X23428592Y-7771694D01*
X23421399Y-7771900D01*
X20774601Y-7771900D01*
X20706480Y-7751898D01*
X20700540Y-7747836D01*
X20629694Y-7696363D01*
X20629693Y-7696362D01*
X20624352Y-7692482D01*
X20618324Y-7689798D01*
X20618322Y-7689797D01*
X20455919Y-7617491D01*
X20455918Y-7617491D01*
X20449888Y-7614806D01*
X20356488Y-7594953D01*
X20269544Y-7576472D01*
X20269539Y-7576472D01*
X20263087Y-7575100D01*
X20072113Y-7575100D01*
X20065661Y-7576472D01*
X20065656Y-7576472D01*
X19978712Y-7594953D01*
X19885312Y-7614806D01*
X19879282Y-7617491D01*
X19879281Y-7617491D01*
X19716878Y-7689797D01*
X19716876Y-7689798D01*
X19710848Y-7692482D01*
X19705507Y-7696362D01*
X19705506Y-7696363D01*
X19634660Y-7747836D01*
X19567792Y-7771694D01*
X19560599Y-7771900D01*
X15288201Y-7771900D01*
X15220080Y-7751898D01*
X15214140Y-7747836D01*
X15143294Y-7696363D01*
X15143293Y-7696362D01*
X15137952Y-7692482D01*
X15131924Y-7689798D01*
X15131922Y-7689797D01*
X14969519Y-7617491D01*
X14969518Y-7617491D01*
X14963488Y-7614806D01*
X14870088Y-7594953D01*
X14783144Y-7576472D01*
X14783139Y-7576472D01*
X14776687Y-7575100D01*
X14585713Y-7575100D01*
X14579261Y-7576472D01*
X14579256Y-7576472D01*
X14492312Y-7594953D01*
X14398912Y-7614806D01*
X14392882Y-7617491D01*
X14392881Y-7617491D01*
X14230478Y-7689797D01*
X14230476Y-7689798D01*
X14224448Y-7692482D01*
X14219107Y-7696362D01*
X14219106Y-7696363D01*
X14148260Y-7747836D01*
X14081392Y-7771694D01*
X14074199Y-7771900D01*
X11478201Y-7771900D01*
X11410080Y-7751898D01*
X11404140Y-7747836D01*
X11333294Y-7696363D01*
X11333293Y-7696362D01*
X11327952Y-7692482D01*
X11321924Y-7689798D01*
X11321922Y-7689797D01*
X11159519Y-7617491D01*
X11159518Y-7617491D01*
X11153488Y-7614806D01*
X11060088Y-7594953D01*
X10973144Y-7576472D01*
X10973139Y-7576472D01*
X10966687Y-7575100D01*
X10775713Y-7575100D01*
X10769261Y-7576472D01*
X10769256Y-7576472D01*
X10682312Y-7594953D01*
X10588912Y-7614806D01*
X10582882Y-7617491D01*
X10582881Y-7617491D01*
X10420478Y-7689797D01*
X10420476Y-7689798D01*
X10414448Y-7692482D01*
X10409107Y-7696362D01*
X10409106Y-7696363D01*
X10338260Y-7747836D01*
X10271392Y-7771694D01*
X10264199Y-7771900D01*
X7719001Y-7771900D01*
X7650880Y-7751898D01*
X7644940Y-7747836D01*
X7574094Y-7696363D01*
X7574093Y-7696362D01*
X7568752Y-7692482D01*
X7562724Y-7689798D01*
X7562722Y-7689797D01*
X7400319Y-7617491D01*
X7400318Y-7617491D01*
X7394288Y-7614806D01*
X7300888Y-7594953D01*
X7213944Y-7576472D01*
X7213939Y-7576472D01*
X7207487Y-7575100D01*
X7016513Y-7575100D01*
X7010061Y-7576472D01*
X7010056Y-7576472D01*
X6923112Y-7594953D01*
X6829712Y-7614806D01*
X6823682Y-7617491D01*
X6823681Y-7617491D01*
X6661278Y-7689797D01*
X6661276Y-7689798D01*
X6655248Y-7692482D01*
X6649907Y-7696362D01*
X6649906Y-7696363D01*
X6579060Y-7747836D01*
X6512192Y-7771694D01*
X6504999Y-7771900D01*
X3479300Y-7771900D01*
X3411179Y-7751898D01*
X3364686Y-7698242D01*
X3353300Y-7645900D01*
X3353300Y-3886695D01*
X5747251Y-3886695D01*
X5747548Y-3891848D01*
X5747548Y-3891851D01*
X5753011Y-3986590D01*
X5760110Y-4109715D01*
X5761247Y-4114761D01*
X5761248Y-4114767D01*
X5781119Y-4202939D01*
X5809222Y-4327639D01*
X5893266Y-4534616D01*
X5938398Y-4608265D01*
X6007291Y-4720688D01*
X6009987Y-4725088D01*
X6156250Y-4893938D01*
X6328126Y-5036632D01*
X6521000Y-5149338D01*
X6729692Y-5229030D01*
X6734760Y-5230061D01*
X6734763Y-5230062D01*
X6842017Y-5251883D01*
X6948597Y-5273567D01*
X6953772Y-5273757D01*
X6953774Y-5273757D01*
X7166673Y-5281564D01*
X7166677Y-5281564D01*
X7171837Y-5281753D01*
X7176957Y-5281097D01*
X7176959Y-5281097D01*
X7388288Y-5254025D01*
X7388289Y-5254025D01*
X7393416Y-5253368D01*
X7428394Y-5242874D01*
X7602429Y-5190661D01*
X7602434Y-5190659D01*
X7607384Y-5189174D01*
X7807994Y-5090896D01*
X7989860Y-4961173D01*
X8148096Y-4803489D01*
X8207594Y-4720689D01*
X8278453Y-4622077D01*
X8279776Y-4623028D01*
X8326645Y-4579857D01*
X8396580Y-4567625D01*
X8462026Y-4595144D01*
X8489875Y-4626994D01*
X8549987Y-4725088D01*
X8696250Y-4893938D01*
X8868126Y-5036632D01*
X9061000Y-5149338D01*
X9269692Y-5229030D01*
X9274760Y-5230061D01*
X9274763Y-5230062D01*
X9382017Y-5251883D01*
X9488597Y-5273567D01*
X9493772Y-5273757D01*
X9493774Y-5273757D01*
X9706673Y-5281564D01*
X9706677Y-5281564D01*
X9711837Y-5281753D01*
X9716957Y-5281097D01*
X9716959Y-5281097D01*
X9928288Y-5254025D01*
X9928289Y-5254025D01*
X9933416Y-5253368D01*
X9968394Y-5242874D01*
X10142429Y-5190661D01*
X10142434Y-5190659D01*
X10147384Y-5189174D01*
X10347994Y-5090896D01*
X10529860Y-4961173D01*
X10688096Y-4803489D01*
X10747594Y-4720689D01*
X10818453Y-4622077D01*
X10819776Y-4623028D01*
X10866645Y-4579857D01*
X10936580Y-4567625D01*
X11002026Y-4595144D01*
X11029875Y-4626994D01*
X11089987Y-4725088D01*
X11236250Y-4893938D01*
X11408126Y-5036632D01*
X11500988Y-5090896D01*
X11585807Y-5140460D01*
X11628064Y-5183836D01*
X11628681Y-5183388D01*
X11636924Y-5194733D01*
X11654764Y-5219288D01*
X11661281Y-5229210D01*
X11679826Y-5260568D01*
X11679829Y-5260572D01*
X11683866Y-5267398D01*
X11698250Y-5281782D01*
X11711091Y-5296816D01*
X11723058Y-5313287D01*
X11729166Y-5318340D01*
X11757255Y-5341577D01*
X11766035Y-5349567D01*
X13210750Y-6794283D01*
X13218326Y-6802609D01*
X13222447Y-6809103D01*
X13228222Y-6814526D01*
X13272265Y-6855885D01*
X13275107Y-6858640D01*
X13294906Y-6878439D01*
X13298031Y-6880863D01*
X13298040Y-6880871D01*
X13298126Y-6880937D01*
X13307151Y-6888645D01*
X13339494Y-6919017D01*
X13346438Y-6922835D01*
X13346440Y-6922836D01*
X13357329Y-6928822D01*
X13373847Y-6939673D01*
X13389933Y-6952150D01*
X13430666Y-6969776D01*
X13441314Y-6974993D01*
X13452942Y-6981385D01*
X13480197Y-6996369D01*
X13487872Y-6998340D01*
X13487878Y-6998342D01*
X13499911Y-7001431D01*
X13518613Y-7007834D01*
X13537292Y-7015917D01*
X13570818Y-7021227D01*
X13581127Y-7022860D01*
X13592740Y-7025265D01*
X13635718Y-7036300D01*
X13656065Y-7036300D01*
X13675777Y-7037851D01*
X13695879Y-7041035D01*
X13703771Y-7040289D01*
X13740056Y-7036859D01*
X13751914Y-7036300D01*
X49250180Y-7036300D01*
X49261414Y-7036830D01*
X49268919Y-7038508D01*
X49337212Y-7036362D01*
X49341169Y-7036300D01*
X49369183Y-7036300D01*
X49373108Y-7035804D01*
X49373109Y-7035804D01*
X49373204Y-7035792D01*
X49385049Y-7034859D01*
X49414870Y-7033922D01*
X49421482Y-7033714D01*
X49421483Y-7033714D01*
X49429405Y-7033465D01*
X49448949Y-7027787D01*
X49468312Y-7023777D01*
X49480640Y-7022220D01*
X49480642Y-7022220D01*
X49488499Y-7021227D01*
X49495863Y-7018311D01*
X49495868Y-7018310D01*
X49529756Y-7004893D01*
X49540985Y-7001048D01*
X49557665Y-6996202D01*
X49583593Y-6988669D01*
X49590420Y-6984631D01*
X49590423Y-6984630D01*
X49601106Y-6978312D01*
X49618864Y-6969612D01*
X49630415Y-6965039D01*
X49630421Y-6965035D01*
X49637788Y-6962119D01*
X49647177Y-6955298D01*
X49673688Y-6936036D01*
X49683610Y-6929519D01*
X49714968Y-6910974D01*
X49714972Y-6910971D01*
X49721798Y-6906934D01*
X49736182Y-6892550D01*
X49751216Y-6879709D01*
X49761273Y-6872402D01*
X49767687Y-6867742D01*
X49795978Y-6833544D01*
X49803967Y-6824765D01*
X51356900Y-5271833D01*
X51419212Y-5237807D01*
X51471112Y-5237457D01*
X51648597Y-5273567D01*
X51653772Y-5273757D01*
X51653774Y-5273757D01*
X51866673Y-5281564D01*
X51866677Y-5281564D01*
X51871837Y-5281753D01*
X51876957Y-5281097D01*
X51876959Y-5281097D01*
X52088288Y-5254025D01*
X52088289Y-5254025D01*
X52093416Y-5253368D01*
X52128394Y-5242874D01*
X52302429Y-5190661D01*
X52302434Y-5190659D01*
X52307384Y-5189174D01*
X52507994Y-5090896D01*
X52689860Y-4961173D01*
X52848096Y-4803489D01*
X52907594Y-4720689D01*
X52978453Y-4622077D01*
X52979776Y-4623028D01*
X53026645Y-4579857D01*
X53096580Y-4567625D01*
X53162026Y-4595144D01*
X53189875Y-4626994D01*
X53249987Y-4725088D01*
X53396250Y-4893938D01*
X53568126Y-5036632D01*
X53761000Y-5149338D01*
X53969692Y-5229030D01*
X53974760Y-5230061D01*
X53974763Y-5230062D01*
X54082017Y-5251883D01*
X54188597Y-5273567D01*
X54193772Y-5273757D01*
X54193774Y-5273757D01*
X54406673Y-5281564D01*
X54406677Y-5281564D01*
X54411837Y-5281753D01*
X54416957Y-5281097D01*
X54416959Y-5281097D01*
X54628288Y-5254025D01*
X54628289Y-5254025D01*
X54633416Y-5253368D01*
X54668394Y-5242874D01*
X54842429Y-5190661D01*
X54842434Y-5190659D01*
X54847384Y-5189174D01*
X55047994Y-5090896D01*
X55229860Y-4961173D01*
X55388096Y-4803489D01*
X55447594Y-4720689D01*
X55518453Y-4622077D01*
X55519776Y-4623028D01*
X55566645Y-4579857D01*
X55636580Y-4567625D01*
X55702026Y-4595144D01*
X55729875Y-4626994D01*
X55789987Y-4725088D01*
X55936250Y-4893938D01*
X56108126Y-5036632D01*
X56301000Y-5149338D01*
X56509692Y-5229030D01*
X56514760Y-5230061D01*
X56514763Y-5230062D01*
X56622017Y-5251883D01*
X56728597Y-5273567D01*
X56733772Y-5273757D01*
X56733774Y-5273757D01*
X56946673Y-5281564D01*
X56946677Y-5281564D01*
X56951837Y-5281753D01*
X56956957Y-5281097D01*
X56956959Y-5281097D01*
X57168288Y-5254025D01*
X57168289Y-5254025D01*
X57173416Y-5253368D01*
X57208394Y-5242874D01*
X57382429Y-5190661D01*
X57382434Y-5190659D01*
X57387384Y-5189174D01*
X57587994Y-5090896D01*
X57769860Y-4961173D01*
X57928096Y-4803489D01*
X57987594Y-4720689D01*
X58055435Y-4626277D01*
X58058453Y-4622077D01*
X58065280Y-4608265D01*
X58155136Y-4426453D01*
X58155137Y-4426451D01*
X58157430Y-4421811D01*
X58222370Y-4208069D01*
X58251529Y-3986590D01*
X58253156Y-3920000D01*
X58234852Y-3697361D01*
X58180431Y-3480702D01*
X58091354Y-3275840D01*
X57970014Y-3088277D01*
X57819670Y-2923051D01*
X57815619Y-2919852D01*
X57815615Y-2919848D01*
X57648414Y-2787800D01*
X57648410Y-2787798D01*
X57644359Y-2784598D01*
X57639835Y-2782101D01*
X57639831Y-2782098D01*
X57590608Y-2754926D01*
X57540636Y-2704494D01*
X57525500Y-2644617D01*
X57525500Y2640765D01*
X57545502Y2708886D01*
X57586171Y2748211D01*
X57587994Y2749104D01*
X57769860Y2878827D01*
X57928096Y3036511D01*
X57987594Y3119311D01*
X58055435Y3213723D01*
X58058453Y3217923D01*
X58079320Y3260143D01*
X58155136Y3413547D01*
X58155137Y3413549D01*
X58157430Y3418189D01*
X58222370Y3631931D01*
X58251529Y3853410D01*
X58253156Y3920000D01*
X58234852Y4142639D01*
X58180431Y4359298D01*
X58091354Y4564160D01*
X58031464Y4656736D01*
X57972822Y4747383D01*
X57972820Y4747386D01*
X57970014Y4751723D01*
X57819670Y4916949D01*
X57815619Y4920148D01*
X57815615Y4920152D01*
X57648414Y5052200D01*
X57648410Y5052202D01*
X57644359Y5055402D01*
X57448789Y5163362D01*
X57443920Y5165086D01*
X57443916Y5165088D01*
X57243087Y5236205D01*
X57243083Y5236206D01*
X57238212Y5237931D01*
X57233119Y5238838D01*
X57233116Y5238839D01*
X57023373Y5276200D01*
X57023367Y5276201D01*
X57018284Y5277106D01*
X56944452Y5278008D01*
X56800081Y5279772D01*
X56800079Y5279772D01*
X56794911Y5279835D01*
X56574091Y5246045D01*
X56361756Y5176643D01*
X56163607Y5073493D01*
X56159474Y5070390D01*
X56159471Y5070388D01*
X56135247Y5052200D01*
X55984965Y4939365D01*
X55830629Y4777862D01*
X55723201Y4620379D01*
X55668293Y4575379D01*
X55597768Y4567208D01*
X55534021Y4598462D01*
X55513324Y4622946D01*
X55432822Y4747383D01*
X55432820Y4747386D01*
X55430014Y4751723D01*
X55279670Y4916949D01*
X55275619Y4920148D01*
X55275615Y4920152D01*
X55108414Y5052200D01*
X55108410Y5052202D01*
X55104359Y5055402D01*
X54908789Y5163362D01*
X54903920Y5165086D01*
X54903916Y5165088D01*
X54703087Y5236205D01*
X54703083Y5236206D01*
X54698212Y5237931D01*
X54693119Y5238838D01*
X54693116Y5238839D01*
X54483373Y5276200D01*
X54483367Y5276201D01*
X54478284Y5277106D01*
X54404452Y5278008D01*
X54260081Y5279772D01*
X54260079Y5279772D01*
X54254911Y5279835D01*
X54034091Y5246045D01*
X53821756Y5176643D01*
X53623607Y5073493D01*
X53619474Y5070390D01*
X53619471Y5070388D01*
X53595247Y5052200D01*
X53444965Y4939365D01*
X53290629Y4777862D01*
X53183201Y4620379D01*
X53128293Y4575379D01*
X53057768Y4567208D01*
X52994021Y4598462D01*
X52973324Y4622946D01*
X52892822Y4747383D01*
X52892820Y4747386D01*
X52890014Y4751723D01*
X52739670Y4916949D01*
X52735619Y4920148D01*
X52735615Y4920152D01*
X52568414Y5052200D01*
X52568410Y5052202D01*
X52564359Y5055402D01*
X52368789Y5163362D01*
X52363920Y5165086D01*
X52363916Y5165088D01*
X52163087Y5236205D01*
X52163083Y5236206D01*
X52158212Y5237931D01*
X52153119Y5238838D01*
X52153116Y5238839D01*
X51943373Y5276200D01*
X51943367Y5276201D01*
X51938284Y5277106D01*
X51864452Y5278008D01*
X51720081Y5279772D01*
X51720079Y5279772D01*
X51714911Y5279835D01*
X51494091Y5246045D01*
X51281756Y5176643D01*
X51083607Y5073493D01*
X51079474Y5070390D01*
X51079471Y5070388D01*
X51055247Y5052200D01*
X50904965Y4939365D01*
X50750629Y4777862D01*
X50643201Y4620379D01*
X50588293Y4575379D01*
X50517768Y4567208D01*
X50454021Y4598462D01*
X50433324Y4622946D01*
X50352822Y4747383D01*
X50352820Y4747386D01*
X50350014Y4751723D01*
X50199670Y4916949D01*
X50195619Y4920148D01*
X50195615Y4920152D01*
X50028414Y5052200D01*
X50028410Y5052202D01*
X50024359Y5055402D01*
X49828789Y5163362D01*
X49823920Y5165086D01*
X49823916Y5165088D01*
X49623087Y5236205D01*
X49623083Y5236206D01*
X49618212Y5237931D01*
X49613119Y5238838D01*
X49613116Y5238839D01*
X49403373Y5276200D01*
X49403367Y5276201D01*
X49398284Y5277106D01*
X49324452Y5278008D01*
X49180081Y5279772D01*
X49180079Y5279772D01*
X49174911Y5279835D01*
X48954091Y5246045D01*
X48741756Y5176643D01*
X48543607Y5073493D01*
X48539474Y5070390D01*
X48539471Y5070388D01*
X48515247Y5052200D01*
X48364965Y4939365D01*
X48210629Y4777862D01*
X48103201Y4620379D01*
X48048293Y4575379D01*
X47977768Y4567208D01*
X47914021Y4598462D01*
X47893324Y4622946D01*
X47812822Y4747383D01*
X47812820Y4747386D01*
X47810014Y4751723D01*
X47659670Y4916949D01*
X47655619Y4920148D01*
X47655615Y4920152D01*
X47488414Y5052200D01*
X47488410Y5052202D01*
X47484359Y5055402D01*
X47288789Y5163362D01*
X47283920Y5165086D01*
X47283916Y5165088D01*
X47083087Y5236205D01*
X47083083Y5236206D01*
X47078212Y5237931D01*
X47073119Y5238838D01*
X47073116Y5238839D01*
X46863373Y5276200D01*
X46863367Y5276201D01*
X46858284Y5277106D01*
X46784452Y5278008D01*
X46640081Y5279772D01*
X46640079Y5279772D01*
X46634911Y5279835D01*
X46509843Y5260697D01*
X46419200Y5246827D01*
X46419197Y5246826D01*
X46414091Y5246045D01*
X46409184Y5244441D01*
X46409171Y5244438D01*
X46403661Y5242637D01*
X46332697Y5240488D01*
X46275425Y5273308D01*
X45364050Y6184683D01*
X45356474Y6193009D01*
X45352353Y6199503D01*
X45302534Y6246286D01*
X45299693Y6249040D01*
X45279894Y6268839D01*
X45276769Y6271263D01*
X45276760Y6271271D01*
X45276674Y6271337D01*
X45267649Y6279045D01*
X45241085Y6303990D01*
X45235306Y6309417D01*
X45217469Y6319223D01*
X45200953Y6330073D01*
X45184867Y6342550D01*
X45144134Y6360176D01*
X45133486Y6365393D01*
X45104591Y6381278D01*
X45094603Y6386769D01*
X45086928Y6388740D01*
X45086922Y6388742D01*
X45074889Y6391831D01*
X45056187Y6398234D01*
X45037508Y6406317D01*
X44997713Y6412620D01*
X44993673Y6413260D01*
X44982060Y6415665D01*
X44939082Y6426700D01*
X44918735Y6426700D01*
X44899024Y6428251D01*
X44886750Y6430195D01*
X44878921Y6431435D01*
X44871029Y6430689D01*
X44834744Y6427259D01*
X44822886Y6426700D01*
X14201420Y6426700D01*
X14190191Y6427229D01*
X14182681Y6428908D01*
X14174755Y6428659D01*
X14174754Y6428659D01*
X14114402Y6426762D01*
X14110444Y6426700D01*
X14082417Y6426700D01*
X14078371Y6426189D01*
X14066543Y6425258D01*
X14022195Y6423864D01*
X14014578Y6421651D01*
X14002653Y6418187D01*
X13983294Y6414178D01*
X13982033Y6414019D01*
X13963101Y6411627D01*
X13955737Y6408711D01*
X13955732Y6408710D01*
X13933821Y6400034D01*
X13921828Y6395286D01*
X13910624Y6391449D01*
X13868007Y6379068D01*
X13850494Y6368711D01*
X13832743Y6360015D01*
X13821185Y6355439D01*
X13821180Y6355436D01*
X13813812Y6352519D01*
X13807397Y6347858D01*
X13777907Y6326433D01*
X13767985Y6319916D01*
X13736628Y6301372D01*
X13736625Y6301370D01*
X13729801Y6297334D01*
X13715414Y6282947D01*
X13700380Y6270106D01*
X13683913Y6258142D01*
X13678860Y6252034D01*
X13655628Y6223951D01*
X13647638Y6215171D01*
X12692045Y5259578D01*
X12629733Y5225552D01*
X12560891Y5229900D01*
X12543084Y5236206D01*
X12543081Y5236207D01*
X12538212Y5237931D01*
X12533123Y5238838D01*
X12533121Y5238838D01*
X12323373Y5276200D01*
X12323367Y5276201D01*
X12318284Y5277106D01*
X12244452Y5278008D01*
X12100081Y5279772D01*
X12100079Y5279772D01*
X12094911Y5279835D01*
X11874091Y5246045D01*
X11661756Y5176643D01*
X11463607Y5073493D01*
X11459474Y5070390D01*
X11459471Y5070388D01*
X11435247Y5052200D01*
X11284965Y4939365D01*
X11130629Y4777862D01*
X11023201Y4620379D01*
X10968293Y4575379D01*
X10897768Y4567208D01*
X10834021Y4598462D01*
X10813324Y4622946D01*
X10732822Y4747383D01*
X10732820Y4747386D01*
X10730014Y4751723D01*
X10579670Y4916949D01*
X10575619Y4920148D01*
X10575615Y4920152D01*
X10408414Y5052200D01*
X10408410Y5052202D01*
X10404359Y5055402D01*
X10208789Y5163362D01*
X10203920Y5165086D01*
X10203916Y5165088D01*
X10003087Y5236205D01*
X10003083Y5236206D01*
X9998212Y5237931D01*
X9993119Y5238838D01*
X9993116Y5238839D01*
X9783373Y5276200D01*
X9783367Y5276201D01*
X9778284Y5277106D01*
X9704452Y5278008D01*
X9560081Y5279772D01*
X9560079Y5279772D01*
X9554911Y5279835D01*
X9334091Y5246045D01*
X9121756Y5176643D01*
X8923607Y5073493D01*
X8919474Y5070390D01*
X8919471Y5070388D01*
X8895247Y5052200D01*
X8744965Y4939365D01*
X8590629Y4777862D01*
X8483201Y4620379D01*
X8428293Y4575379D01*
X8357768Y4567208D01*
X8294021Y4598462D01*
X8273324Y4622946D01*
X8192822Y4747383D01*
X8192820Y4747386D01*
X8190014Y4751723D01*
X8039670Y4916949D01*
X8035619Y4920148D01*
X8035615Y4920152D01*
X7868414Y5052200D01*
X7868410Y5052202D01*
X7864359Y5055402D01*
X7668789Y5163362D01*
X7663920Y5165086D01*
X7663916Y5165088D01*
X7463087Y5236205D01*
X7463083Y5236206D01*
X7458212Y5237931D01*
X7453119Y5238838D01*
X7453116Y5238839D01*
X7243373Y5276200D01*
X7243367Y5276201D01*
X7238284Y5277106D01*
X7164452Y5278008D01*
X7020081Y5279772D01*
X7020079Y5279772D01*
X7014911Y5279835D01*
X6794091Y5246045D01*
X6581756Y5176643D01*
X6383607Y5073493D01*
X6379474Y5070390D01*
X6379471Y5070388D01*
X6355247Y5052200D01*
X6204965Y4939365D01*
X6050629Y4777862D01*
X5924743Y4593320D01*
X5830688Y4390695D01*
X5770989Y4175430D01*
X5747251Y3953305D01*
X5747548Y3948152D01*
X5747548Y3948149D01*
X5753011Y3853410D01*
X5760110Y3730285D01*
X5761247Y3725239D01*
X5761248Y3725233D01*
X5781119Y3637061D01*
X5809222Y3512361D01*
X5893266Y3305384D01*
X5944019Y3222562D01*
X6007291Y3119312D01*
X6009987Y3114912D01*
X6156250Y2946062D01*
X6328126Y2803368D01*
X6412072Y2754314D01*
X6460794Y2702676D01*
X6474500Y2645527D01*
X6474500Y-2642733D01*
X6454498Y-2710854D01*
X6406680Y-2754496D01*
X6383607Y-2766507D01*
X6379474Y-2769610D01*
X6379471Y-2769612D01*
X6355247Y-2787800D01*
X6204965Y-2900635D01*
X6050629Y-3062138D01*
X5924743Y-3246680D01*
X5830688Y-3449305D01*
X5770989Y-3664570D01*
X5747251Y-3886695D01*
X3353300Y-3886695D01*
X3353300Y5551870D01*
X3353592Y5560440D01*
X3357029Y5610846D01*
X3357029Y5610850D01*
X3357545Y5618421D01*
X3356240Y5625900D01*
X3346504Y5681683D01*
X3345541Y5688208D01*
X3338745Y5744367D01*
X3338745Y5744368D01*
X3337832Y5751911D01*
X3335146Y5759019D01*
X3334581Y5761319D01*
X3329914Y5778381D01*
X3329233Y5780636D01*
X3327928Y5788115D01*
X3302127Y5846892D01*
X3299635Y5852998D01*
X3279626Y5905949D01*
X3276943Y5913049D01*
X3272644Y5919304D01*
X3271552Y5921393D01*
X3262938Y5936869D01*
X3261738Y5938897D01*
X3258688Y5945846D01*
X3219613Y5996770D01*
X3215747Y6002093D01*
X3183682Y6048747D01*
X3183677Y6048753D01*
X3179375Y6055012D01*
X3132626Y6096664D01*
X3127351Y6101644D01*
X1858863Y7370133D01*
X1824837Y7432445D01*
X1826689Y7493430D01*
X1886760Y7706424D01*
X1886761Y7706427D01*
X1888030Y7710928D01*
X1905093Y7845056D01*
X1920616Y7967079D01*
X1920616Y7967083D01*
X1921014Y7970209D01*
X1923431Y8062500D01*
X1904061Y8323152D01*
X1892231Y8375435D01*
X1847408Y8573520D01*
X1846377Y8578077D01*
X1844682Y8582436D01*
X1830171Y8619753D01*
X1824124Y8690492D01*
X1858509Y8754514D01*
X4812140Y11708144D01*
X4812143Y11708147D01*
X5461792Y12357795D01*
X5524104Y12391821D01*
X5550887Y12394700D01*
X16633370Y12394700D01*
X16641940Y12394408D01*
X16692346Y12390971D01*
X16692350Y12390971D01*
X16699921Y12390455D01*
X16707398Y12391760D01*
X16707399Y12391760D01*
X16713494Y12392824D01*
X16735158Y12394700D01*
X25707399Y12394700D01*
X25775520Y12374698D01*
X25781460Y12370636D01*
X25857648Y12315282D01*
X25863676Y12312598D01*
X25863678Y12312597D01*
X26026081Y12240291D01*
X26032112Y12237606D01*
X26125513Y12217753D01*
X26212456Y12199272D01*
X26212461Y12199272D01*
X26218913Y12197900D01*
X26409887Y12197900D01*
X26416339Y12199272D01*
X26416344Y12199272D01*
X26503288Y12217753D01*
X26596688Y12237606D01*
X26602719Y12240291D01*
X26765122Y12312597D01*
X26765124Y12312598D01*
X26771152Y12315282D01*
X26925653Y12427534D01*
X27053440Y12569456D01*
X27148927Y12734844D01*
X27207942Y12916472D01*
X27227904Y13106400D01*
X27207942Y13296328D01*
X27148927Y13477956D01*
X27053440Y13643344D01*
X27048817Y13648479D01*
X26930075Y13780355D01*
X26930074Y13780356D01*
X26925653Y13785266D01*
X26771152Y13897518D01*
X26765124Y13900202D01*
X26765122Y13900203D01*
X26602719Y13972509D01*
X26602718Y13972509D01*
X26596688Y13975194D01*
X26503288Y13995047D01*
X26416344Y14013528D01*
X26416339Y14013528D01*
X26409887Y14014900D01*
X26218913Y14014900D01*
X26212461Y14013528D01*
X26212456Y14013528D01*
X26125513Y13995047D01*
X26032112Y13975194D01*
X26026082Y13972509D01*
X26026081Y13972509D01*
X25863678Y13900203D01*
X25863676Y13900202D01*
X25857648Y13897518D01*
X25852307Y13893638D01*
X25852306Y13893637D01*
X25781460Y13842164D01*
X25714592Y13818306D01*
X25707399Y13818100D01*
X17550900Y13818100D01*
X17482779Y13838102D01*
X17436286Y13891758D01*
X17424900Y13944100D01*
X17424900Y14270060D01*
X17448809Y14343645D01*
X17452240Y14347456D01*
X17455540Y14353172D01*
X17455543Y14353176D01*
X17544423Y14507121D01*
X17544424Y14507122D01*
X17547727Y14512844D01*
X17606742Y14694472D01*
X17614159Y14765036D01*
X17626014Y14877835D01*
X17626704Y14884400D01*
X17621855Y14930532D01*
X17634627Y15000369D01*
X17683128Y15052216D01*
X17747165Y15069702D01*
X25858445Y15069702D01*
X25926566Y15049700D01*
G37*
G04 #@! TD.AperFunction*
G04 #@! TA.AperFunction,Conductor*
G36*
X917012Y6298539D02*
G01*
X923580Y6292425D01*
X1892997Y5323007D01*
X1927021Y5260697D01*
X1929900Y5233914D01*
X1929900Y-7141833D01*
X1909898Y-7209954D01*
X1856242Y-7256447D01*
X1785968Y-7266551D01*
X1721388Y-7237057D01*
X1694507Y-7204356D01*
X1623854Y-7080740D01*
X1618643Y-7073014D01*
X1581391Y-7025761D01*
X1569466Y-7017290D01*
X1557934Y-7023776D01*
X923595Y-7658115D01*
X861283Y-7692141D01*
X790468Y-7687076D01*
X733632Y-7644529D01*
X708821Y-7578009D01*
X708500Y-7569020D01*
X708500Y-7206980D01*
X728502Y-7138859D01*
X745405Y-7117885D01*
X1198419Y-6664871D01*
X1204803Y-6653181D01*
X1195391Y-6641070D01*
X1058593Y-6546170D01*
X1050565Y-6541442D01*
X824593Y-6430005D01*
X815957Y-6426516D01*
X796088Y-6420156D01*
X737308Y-6380339D01*
X709385Y-6315064D01*
X708500Y-6300154D01*
X708500Y6203315D01*
X728502Y6271436D01*
X782158Y6317929D01*
X852432Y6328033D01*
X917012Y6298539D01*
G37*
G04 #@! TD.AperFunction*
G04 #@! TA.AperFunction,Conductor*
G36*
X63233621Y31271498D02*
G01*
X63280114Y31217842D01*
X63291500Y31165500D01*
X63291500Y25726703D01*
X63271498Y25658582D01*
X63217842Y25612089D01*
X63200758Y25605737D01*
X63147107Y25590099D01*
X63138360Y25586829D01*
X62909558Y25481349D01*
X62901406Y25476830D01*
X62722353Y25359438D01*
X62713216Y25348697D01*
X62717789Y25338921D01*
X63254595Y24802115D01*
X63288621Y24739803D01*
X63291500Y24713020D01*
X63291500Y24350980D01*
X63271498Y24282859D01*
X63217842Y24236366D01*
X63147568Y24226262D01*
X63082988Y24255756D01*
X63076405Y24261885D01*
X62361321Y24976969D01*
X62348013Y24984236D01*
X62337974Y24977114D01*
X62327761Y24964834D01*
X62322346Y24957242D01*
X62191646Y24741854D01*
X62187408Y24733537D01*
X62089981Y24501201D01*
X62087020Y24492351D01*
X62025006Y24248169D01*
X62023384Y24238972D01*
X61998143Y23988302D01*
X61997898Y23978977D01*
X62009987Y23727325D01*
X62011124Y23718065D01*
X62060274Y23470965D01*
X62062768Y23461972D01*
X62147900Y23224861D01*
X62151700Y23216326D01*
X62270946Y22994399D01*
X62275957Y22986532D01*
X62339446Y22901510D01*
X62350704Y22893061D01*
X62363123Y22899833D01*
X63076405Y23613115D01*
X63138717Y23647141D01*
X63209532Y23642076D01*
X63266368Y23599529D01*
X63291179Y23533009D01*
X63291500Y23524020D01*
X63291500Y23161980D01*
X63271498Y23093859D01*
X63254595Y23072885D01*
X62722270Y22540560D01*
X62715612Y22528367D01*
X62724326Y22516847D01*
X62815830Y22449753D01*
X62858938Y22393342D01*
X62864705Y22322580D01*
X62831300Y22259934D01*
X62810410Y22242769D01*
X62690404Y22164090D01*
X62690399Y22164086D01*
X62686491Y22161524D01*
X62491494Y21987482D01*
X62324363Y21786530D01*
X62188771Y21563081D01*
X62087697Y21322045D01*
X62023359Y21068717D01*
X61997173Y20808661D01*
X62009713Y20547592D01*
X62060704Y20291244D01*
X62062280Y20286853D01*
X62062283Y20286844D01*
X62130197Y20097688D01*
X62134391Y20026816D01*
X62100704Y19966016D01*
X59751693Y17617005D01*
X59689381Y17582979D01*
X59662598Y17580100D01*
X54041718Y17580100D01*
X53973597Y17600102D01*
X53967220Y17604695D01*
X53964091Y17607846D01*
X53958143Y17611620D01*
X53958139Y17611624D01*
X53871197Y17666798D01*
X53810033Y17705614D01*
X53672194Y17754697D01*
X53644777Y17764460D01*
X53644775Y17764461D01*
X53638143Y17766822D01*
X53631157Y17767655D01*
X53631153Y17767656D01*
X53486618Y17784890D01*
X53456964Y17788426D01*
X53449961Y17787690D01*
X53449960Y17787690D01*
X53403725Y17782830D01*
X53275501Y17769354D01*
X53268833Y17767084D01*
X53109440Y17712822D01*
X53109437Y17712821D01*
X53102773Y17710552D01*
X52947364Y17614944D01*
X52942330Y17610014D01*
X52938230Y17606811D01*
X52872236Y17580633D01*
X52860656Y17580100D01*
X52667396Y17580100D01*
X52599275Y17600102D01*
X52552782Y17653758D01*
X52542678Y17724032D01*
X52562448Y17775827D01*
X52623747Y17868090D01*
X52645539Y17900890D01*
X52681259Y17994923D01*
X52707833Y18064878D01*
X52707834Y18064883D01*
X52710333Y18071461D01*
X52714136Y18098520D01*
X52735176Y18248225D01*
X52735176Y18248230D01*
X52735727Y18252148D01*
X52736046Y18275000D01*
X52715707Y18456325D01*
X52655701Y18628639D01*
X52559011Y18783376D01*
X52481425Y18861505D01*
X52435404Y18907849D01*
X52435400Y18907852D01*
X52430441Y18912846D01*
X52421950Y18918235D01*
X52334022Y18974035D01*
X52276383Y19010614D01*
X52135935Y19060626D01*
X52111127Y19069460D01*
X52111125Y19069461D01*
X52104493Y19071822D01*
X52097507Y19072655D01*
X52097503Y19072656D01*
X51967926Y19088106D01*
X51923314Y19093426D01*
X51916311Y19092690D01*
X51916310Y19092690D01*
X51870075Y19087830D01*
X51741851Y19074354D01*
X51735183Y19072084D01*
X51575790Y19017822D01*
X51575787Y19017821D01*
X51569123Y19015552D01*
X51413714Y18919944D01*
X51408681Y18915015D01*
X51404580Y18911811D01*
X51338586Y18885633D01*
X51327006Y18885100D01*
X41165468Y18885100D01*
X41097347Y18905102D01*
X41090970Y18909695D01*
X41087841Y18912846D01*
X41081893Y18916621D01*
X41081889Y18916624D01*
X40991422Y18974035D01*
X40933783Y19010614D01*
X40793335Y19060626D01*
X40768527Y19069460D01*
X40768525Y19069461D01*
X40761893Y19071822D01*
X40754907Y19072655D01*
X40754903Y19072656D01*
X40625326Y19088106D01*
X40580714Y19093426D01*
X40573711Y19092690D01*
X40573710Y19092690D01*
X40527475Y19087830D01*
X40399251Y19074354D01*
X40392583Y19072084D01*
X40233190Y19017822D01*
X40233187Y19017821D01*
X40226523Y19015552D01*
X40132881Y18957943D01*
X40091823Y18932684D01*
X40071114Y18919944D01*
X40031029Y18880690D01*
X39948645Y18800013D01*
X39940750Y18792282D01*
X39932916Y18780126D01*
X39879201Y18733702D01*
X39808914Y18723689D01*
X39744371Y18753265D01*
X39737610Y18759589D01*
X39671249Y18826415D01*
X39622954Y18875049D01*
X39622950Y18875052D01*
X39617991Y18880046D01*
X39610028Y18885100D01*
X39535459Y18932422D01*
X39463933Y18977814D01*
X39314476Y19031034D01*
X39298677Y19036660D01*
X39298675Y19036661D01*
X39292043Y19039022D01*
X39285057Y19039855D01*
X39285053Y19039856D01*
X39155476Y19055306D01*
X39110864Y19060626D01*
X39103861Y19059890D01*
X39103860Y19059890D01*
X39057625Y19055030D01*
X38929401Y19041554D01*
X38922733Y19039284D01*
X38763340Y18985022D01*
X38763337Y18985021D01*
X38756673Y18982752D01*
X38601264Y18887144D01*
X38596230Y18882214D01*
X38592130Y18879011D01*
X38526136Y18852833D01*
X38514556Y18852300D01*
X27200415Y18852300D01*
X27132294Y18872302D01*
X27111010Y18889515D01*
X27092804Y18907848D01*
X27092803Y18907849D01*
X27087841Y18912846D01*
X27079350Y18918235D01*
X26991422Y18974035D01*
X26933783Y19010614D01*
X26793335Y19060626D01*
X26768527Y19069460D01*
X26768525Y19069461D01*
X26761893Y19071822D01*
X26754907Y19072655D01*
X26754903Y19072656D01*
X26625326Y19088106D01*
X26580714Y19093426D01*
X26573711Y19092690D01*
X26573710Y19092690D01*
X26527475Y19087830D01*
X26399251Y19074354D01*
X26392583Y19072084D01*
X26233190Y19017822D01*
X26233187Y19017821D01*
X26226523Y19015552D01*
X26132881Y18957943D01*
X26091823Y18932684D01*
X26071114Y18919944D01*
X26066084Y18915018D01*
X26066076Y18915012D01*
X25949503Y18800855D01*
X25886838Y18767485D01*
X25816080Y18773291D01*
X25793832Y18784494D01*
X25781560Y18792282D01*
X25657183Y18871214D01*
X25540108Y18912903D01*
X25491927Y18930060D01*
X25491925Y18930061D01*
X25485293Y18932422D01*
X25478307Y18933255D01*
X25478303Y18933256D01*
X25348726Y18948706D01*
X25304114Y18954026D01*
X25297111Y18953290D01*
X25297110Y18953290D01*
X25250875Y18948430D01*
X25122651Y18934954D01*
X25115983Y18932684D01*
X24956590Y18878422D01*
X24956587Y18878421D01*
X24949923Y18876152D01*
X24911152Y18852300D01*
X24850817Y18815182D01*
X24784795Y18796500D01*
X17456068Y18796500D01*
X17387947Y18816502D01*
X17381570Y18821095D01*
X17378441Y18824246D01*
X17372493Y18828020D01*
X17372489Y18828024D01*
X17246705Y18907848D01*
X17224383Y18922014D01*
X17078293Y18974035D01*
X17059127Y18980860D01*
X17059125Y18980861D01*
X17052493Y18983222D01*
X17045507Y18984055D01*
X17045503Y18984056D01*
X16915926Y18999506D01*
X16871314Y19004826D01*
X16864311Y19004090D01*
X16864310Y19004090D01*
X16851761Y19002771D01*
X16689851Y18985754D01*
X16683183Y18983484D01*
X16523790Y18929222D01*
X16523787Y18929221D01*
X16517123Y18926952D01*
X16426522Y18871214D01*
X16395778Y18852300D01*
X16361714Y18831344D01*
X16302591Y18773446D01*
X16279237Y18750576D01*
X16231350Y18703682D01*
X16132508Y18550310D01*
X16130099Y18543690D01*
X16130097Y18543687D01*
X16073461Y18388081D01*
X16070102Y18378851D01*
X16047234Y18197827D01*
X16065039Y18016236D01*
X16122633Y17843101D01*
X16126282Y17837076D01*
X16169102Y17766372D01*
X16187281Y17697742D01*
X16165471Y17630179D01*
X16110595Y17585132D01*
X16061326Y17575100D01*
X14099854Y17575100D01*
X14031733Y17595102D01*
X14023420Y17601090D01*
X14019491Y17605046D01*
X13865433Y17702814D01*
X13758740Y17740806D01*
X13700177Y17761660D01*
X13700175Y17761661D01*
X13693543Y17764022D01*
X13686557Y17764855D01*
X13686553Y17764856D01*
X13556976Y17780306D01*
X13512364Y17785626D01*
X13505361Y17784890D01*
X13505360Y17784890D01*
X13459125Y17780030D01*
X13330901Y17766554D01*
X13324233Y17764284D01*
X13164840Y17710022D01*
X13164837Y17710021D01*
X13158173Y17707752D01*
X13002764Y17612144D01*
X12997730Y17607214D01*
X12993630Y17604011D01*
X12927636Y17577833D01*
X12916056Y17577300D01*
X6074490Y17577300D01*
X6006369Y17597302D01*
X5959876Y17650958D01*
X5949772Y17721232D01*
X5979266Y17785812D01*
X5987598Y17794545D01*
X6108262Y17909452D01*
X6108264Y17909455D01*
X6113366Y17914313D01*
X6214339Y18066290D01*
X6245015Y18147045D01*
X6276633Y18230278D01*
X6276634Y18230283D01*
X6279133Y18236861D01*
X6280730Y18248225D01*
X6303976Y18413625D01*
X6303976Y18413630D01*
X6304527Y18417548D01*
X6304846Y18440400D01*
X6284507Y18621725D01*
X6258029Y18697759D01*
X6226820Y18787381D01*
X6226818Y18787384D01*
X6224501Y18794039D01*
X6182342Y18861508D01*
X6163207Y18929874D01*
X6184072Y18997736D01*
X6200102Y19017370D01*
X8306187Y21123454D01*
X10437128Y23254395D01*
X10499440Y23288421D01*
X10526223Y23291300D01*
X21561780Y23291300D01*
X21573014Y23290770D01*
X21580519Y23289092D01*
X21648812Y23291238D01*
X21652769Y23291300D01*
X21680783Y23291300D01*
X21684708Y23291796D01*
X21684709Y23291796D01*
X21684804Y23291808D01*
X21696649Y23292741D01*
X21726470Y23293678D01*
X21733082Y23293886D01*
X21733083Y23293886D01*
X21741005Y23294135D01*
X21760549Y23299813D01*
X21779912Y23303823D01*
X21792240Y23305380D01*
X21792242Y23305380D01*
X21800099Y23306373D01*
X21807463Y23309289D01*
X21807468Y23309290D01*
X21827447Y23317200D01*
X41301296Y23317200D01*
X41321258Y23127272D01*
X41380273Y22945644D01*
X41475760Y22780256D01*
X41480178Y22775349D01*
X41480179Y22775348D01*
X41599125Y22643245D01*
X41603547Y22638334D01*
X41758048Y22526082D01*
X41764076Y22523398D01*
X41764078Y22523397D01*
X41926481Y22451091D01*
X41932512Y22448406D01*
X42025913Y22428553D01*
X42112856Y22410072D01*
X42112861Y22410072D01*
X42119313Y22408700D01*
X42310287Y22408700D01*
X42316739Y22410072D01*
X42316744Y22410072D01*
X42403688Y22428553D01*
X42497088Y22448406D01*
X42503119Y22451091D01*
X42665522Y22523397D01*
X42665524Y22523398D01*
X42671552Y22526082D01*
X42747740Y22581436D01*
X42814608Y22605294D01*
X42821801Y22605500D01*
X46789399Y22605500D01*
X46857520Y22585498D01*
X46863460Y22581436D01*
X46939648Y22526082D01*
X46945676Y22523398D01*
X46945678Y22523397D01*
X47108081Y22451091D01*
X47114112Y22448406D01*
X47207513Y22428553D01*
X47294456Y22410072D01*
X47294461Y22410072D01*
X47300913Y22408700D01*
X47491887Y22408700D01*
X47498339Y22410072D01*
X47498344Y22410072D01*
X47585288Y22428553D01*
X47678688Y22448406D01*
X47684719Y22451091D01*
X47847122Y22523397D01*
X47847124Y22523398D01*
X47853152Y22526082D01*
X47929340Y22581436D01*
X47996208Y22605294D01*
X48003401Y22605500D01*
X54178700Y22605500D01*
X54246821Y22585498D01*
X54293314Y22531842D01*
X54304700Y22479500D01*
X54304700Y21517430D01*
X54304408Y21508860D01*
X54300455Y21450879D01*
X54301760Y21443403D01*
X54301760Y21443400D01*
X54311496Y21387617D01*
X54312459Y21381092D01*
X54320168Y21317389D01*
X54322854Y21310281D01*
X54323419Y21307981D01*
X54328086Y21290920D01*
X54328766Y21288666D01*
X54330072Y21281185D01*
X54333124Y21274233D01*
X54355875Y21222405D01*
X54358367Y21216298D01*
X54381057Y21156251D01*
X54385356Y21149996D01*
X54386449Y21147905D01*
X54395055Y21132443D01*
X54396258Y21130409D01*
X54399311Y21123454D01*
X54403934Y21117429D01*
X54403937Y21117424D01*
X54438388Y21072526D01*
X54442264Y21067191D01*
X54474318Y21020553D01*
X54474323Y21020547D01*
X54478625Y21014288D01*
X54484299Y21009233D01*
X54525373Y20972637D01*
X54530649Y20967656D01*
X56446209Y19052095D01*
X56476670Y19002775D01*
X56507033Y18911501D01*
X56537312Y18861505D01*
X56594253Y18767485D01*
X56601554Y18755429D01*
X56606445Y18750364D01*
X56606446Y18750363D01*
X56627353Y18728713D01*
X56728303Y18624177D01*
X56734195Y18620322D01*
X56734199Y18620318D01*
X56832127Y18556236D01*
X56880981Y18524267D01*
X56887585Y18521811D01*
X56887587Y18521810D01*
X56966490Y18492466D01*
X57052000Y18460665D01*
X57232860Y18436533D01*
X57239871Y18437171D01*
X57239875Y18437171D01*
X57379580Y18449886D01*
X57414571Y18453071D01*
X57421273Y18455249D01*
X57421275Y18455249D01*
X57581405Y18507278D01*
X57581408Y18507279D01*
X57588104Y18509455D01*
X57612952Y18524267D01*
X57738777Y18599273D01*
X57738780Y18599275D01*
X57744832Y18602883D01*
X57855855Y18708609D01*
X57871862Y18723852D01*
X57871864Y18723855D01*
X57876966Y18728713D01*
X57977939Y18880690D01*
X58015307Y18979061D01*
X58040233Y19044678D01*
X58040234Y19044683D01*
X58042733Y19051261D01*
X58045623Y19071822D01*
X58067576Y19228025D01*
X58067576Y19228030D01*
X58068127Y19231948D01*
X58068446Y19254800D01*
X58048107Y19436125D01*
X57988101Y19608439D01*
X57891411Y19763176D01*
X57826847Y19828192D01*
X57767804Y19887649D01*
X57767800Y19887652D01*
X57762841Y19892646D01*
X57608783Y19990414D01*
X57499021Y20029499D01*
X57452193Y20059103D01*
X55765005Y21746291D01*
X55730979Y21808603D01*
X55728100Y21835386D01*
X55728100Y22702860D01*
X55752009Y22776445D01*
X55755440Y22780256D01*
X55758740Y22785972D01*
X55758743Y22785976D01*
X55847623Y22939921D01*
X55847624Y22939922D01*
X55850927Y22945644D01*
X55909942Y23127272D01*
X55929904Y23317200D01*
X55928529Y23330278D01*
X55910632Y23500565D01*
X55910632Y23500567D01*
X55909942Y23507128D01*
X55850927Y23688756D01*
X55834006Y23718065D01*
X55758741Y23848426D01*
X55755440Y23854144D01*
X55627653Y23996066D01*
X55473152Y24108318D01*
X55467124Y24111002D01*
X55467122Y24111003D01*
X55304719Y24183309D01*
X55304718Y24183309D01*
X55298688Y24185994D01*
X55205287Y24205847D01*
X55118344Y24224328D01*
X55118339Y24224328D01*
X55111887Y24225700D01*
X54920913Y24225700D01*
X54914461Y24224328D01*
X54914456Y24224328D01*
X54827512Y24205847D01*
X54734112Y24185994D01*
X54728082Y24183309D01*
X54728081Y24183309D01*
X54565678Y24111003D01*
X54565676Y24111002D01*
X54559648Y24108318D01*
X54554307Y24104438D01*
X54554306Y24104437D01*
X54483460Y24052964D01*
X54416592Y24029106D01*
X54409399Y24028900D01*
X48003401Y24028900D01*
X47935280Y24048902D01*
X47929340Y24052964D01*
X47858494Y24104437D01*
X47858493Y24104438D01*
X47853152Y24108318D01*
X47847124Y24111002D01*
X47847122Y24111003D01*
X47684719Y24183309D01*
X47684718Y24183309D01*
X47678688Y24185994D01*
X47585287Y24205847D01*
X47498344Y24224328D01*
X47498339Y24224328D01*
X47491887Y24225700D01*
X47300913Y24225700D01*
X47294461Y24224328D01*
X47294456Y24224328D01*
X47207512Y24205847D01*
X47114112Y24185994D01*
X47108082Y24183309D01*
X47108081Y24183309D01*
X46945678Y24111003D01*
X46945676Y24111002D01*
X46939648Y24108318D01*
X46934307Y24104438D01*
X46934306Y24104437D01*
X46863460Y24052964D01*
X46796592Y24029106D01*
X46789399Y24028900D01*
X42821801Y24028900D01*
X42753680Y24048902D01*
X42747740Y24052964D01*
X42676894Y24104437D01*
X42676893Y24104438D01*
X42671552Y24108318D01*
X42665524Y24111002D01*
X42665522Y24111003D01*
X42503119Y24183309D01*
X42503118Y24183309D01*
X42497088Y24185994D01*
X42403687Y24205847D01*
X42316744Y24224328D01*
X42316739Y24224328D01*
X42310287Y24225700D01*
X42119313Y24225700D01*
X42112861Y24224328D01*
X42112856Y24224328D01*
X42025912Y24205847D01*
X41932512Y24185994D01*
X41926482Y24183309D01*
X41926481Y24183309D01*
X41764078Y24111003D01*
X41764076Y24111002D01*
X41758048Y24108318D01*
X41603547Y23996066D01*
X41475760Y23854144D01*
X41472459Y23848426D01*
X41397195Y23718065D01*
X41380273Y23688756D01*
X41321258Y23507128D01*
X41320568Y23500567D01*
X41320568Y23500565D01*
X41302671Y23330278D01*
X41301296Y23317200D01*
X21827447Y23317200D01*
X21841356Y23322707D01*
X21852585Y23326552D01*
X21869265Y23331398D01*
X21895193Y23338931D01*
X21902020Y23342969D01*
X21902023Y23342970D01*
X21912706Y23349288D01*
X21930464Y23357988D01*
X21942015Y23362561D01*
X21942021Y23362565D01*
X21949388Y23365481D01*
X21985291Y23391566D01*
X21995210Y23398081D01*
X22026568Y23416626D01*
X22026572Y23416629D01*
X22033398Y23420666D01*
X22047782Y23435050D01*
X22062816Y23447891D01*
X22072873Y23455198D01*
X22079287Y23459858D01*
X22107578Y23494056D01*
X22115567Y23502835D01*
X25188024Y26575291D01*
X25240912Y26606882D01*
X25382425Y26649338D01*
X25382427Y26649339D01*
X25387384Y26650826D01*
X25587994Y26749104D01*
X25769860Y26878827D01*
X25824458Y26933234D01*
X25876808Y26985402D01*
X25928096Y27036511D01*
X25983754Y27113967D01*
X26055435Y27213723D01*
X26058453Y27217923D01*
X26079320Y27260143D01*
X26155136Y27413547D01*
X26155137Y27413549D01*
X26157430Y27418189D01*
X26203669Y27570378D01*
X26220865Y27626977D01*
X26220865Y27626979D01*
X26222370Y27631931D01*
X26251529Y27853410D01*
X26253156Y27920000D01*
X26234852Y28142639D01*
X26180431Y28359298D01*
X26091354Y28564160D01*
X25983964Y28730160D01*
X25963757Y28798220D01*
X25983553Y28866401D01*
X26037069Y28913055D01*
X26089756Y28924600D01*
X37154478Y28924600D01*
X37222599Y28904598D01*
X37243573Y28887695D01*
X37759164Y28372104D01*
X37793190Y28309792D01*
X37791486Y28249338D01*
X37770989Y28175430D01*
X37770441Y28170300D01*
X37770440Y28170296D01*
X37766933Y28137478D01*
X37747251Y27953305D01*
X37747548Y27948152D01*
X37747548Y27948149D01*
X37753011Y27853410D01*
X37760110Y27730285D01*
X37761247Y27725239D01*
X37761248Y27725233D01*
X37777058Y27655082D01*
X37809222Y27512361D01*
X37893266Y27305384D01*
X37944019Y27222562D01*
X38007291Y27119312D01*
X38009987Y27114912D01*
X38156250Y26946062D01*
X38328126Y26803368D01*
X38521000Y26690662D01*
X38525825Y26688820D01*
X38525826Y26688819D01*
X38562559Y26674792D01*
X38729692Y26610970D01*
X38734760Y26609939D01*
X38734763Y26609938D01*
X38818931Y26592814D01*
X38948597Y26566433D01*
X38953772Y26566243D01*
X38953774Y26566243D01*
X39166673Y26558436D01*
X39166677Y26558436D01*
X39171837Y26558247D01*
X39176957Y26558903D01*
X39176959Y26558903D01*
X39388288Y26585975D01*
X39388289Y26585975D01*
X39393416Y26586632D01*
X39398366Y26588117D01*
X39602429Y26649339D01*
X39602434Y26649341D01*
X39607384Y26650826D01*
X39807994Y26749104D01*
X39989860Y26878827D01*
X40044458Y26933234D01*
X40096808Y26985402D01*
X40148096Y27036511D01*
X40203754Y27113967D01*
X40278453Y27217923D01*
X40279776Y27216972D01*
X40326645Y27260143D01*
X40396580Y27272375D01*
X40462026Y27244856D01*
X40489875Y27213006D01*
X40549987Y27114912D01*
X40696250Y26946062D01*
X40868126Y26803368D01*
X41061000Y26690662D01*
X41065825Y26688820D01*
X41065826Y26688819D01*
X41102559Y26674792D01*
X41269692Y26610970D01*
X41274760Y26609939D01*
X41274763Y26609938D01*
X41358931Y26592814D01*
X41488597Y26566433D01*
X41493772Y26566243D01*
X41493774Y26566243D01*
X41706673Y26558436D01*
X41706677Y26558436D01*
X41711837Y26558247D01*
X41716957Y26558903D01*
X41716959Y26558903D01*
X41928288Y26585975D01*
X41928289Y26585975D01*
X41933416Y26586632D01*
X41938366Y26588117D01*
X42142429Y26649339D01*
X42142434Y26649341D01*
X42147384Y26650826D01*
X42347994Y26749104D01*
X42529860Y26878827D01*
X42584458Y26933234D01*
X42636808Y26985402D01*
X42688096Y27036511D01*
X42743754Y27113967D01*
X42818453Y27217923D01*
X42819776Y27216972D01*
X42866645Y27260143D01*
X42936580Y27272375D01*
X43002026Y27244856D01*
X43029875Y27213006D01*
X43089987Y27114912D01*
X43236250Y26946062D01*
X43408126Y26803368D01*
X43601000Y26690662D01*
X43605825Y26688820D01*
X43605826Y26688819D01*
X43642559Y26674792D01*
X43809692Y26610970D01*
X43814760Y26609939D01*
X43814763Y26609938D01*
X43898931Y26592814D01*
X44028597Y26566433D01*
X44033772Y26566243D01*
X44033774Y26566243D01*
X44246673Y26558436D01*
X44246677Y26558436D01*
X44251837Y26558247D01*
X44256957Y26558903D01*
X44256959Y26558903D01*
X44371053Y26573519D01*
X44473416Y26586632D01*
X44478370Y26588118D01*
X44478378Y26588120D01*
X44517652Y26599903D01*
X44588647Y26600321D01*
X44642955Y26568313D01*
X46407945Y24803323D01*
X46415522Y24794997D01*
X46419647Y24788497D01*
X46425425Y24783071D01*
X46425426Y24783070D01*
X46469481Y24741700D01*
X46472323Y24738945D01*
X46492106Y24719162D01*
X46495314Y24716674D01*
X46504343Y24708963D01*
X46536694Y24678583D01*
X46543643Y24674763D01*
X46554529Y24668778D01*
X46571053Y24657924D01*
X46587133Y24645451D01*
X46594410Y24642302D01*
X46627850Y24627831D01*
X46638511Y24622608D01*
X46670447Y24605051D01*
X46670452Y24605049D01*
X46677397Y24601231D01*
X46685071Y24599261D01*
X46685078Y24599258D01*
X46697113Y24596168D01*
X46715818Y24589764D01*
X46727213Y24584833D01*
X46734492Y24581683D01*
X46761542Y24577399D01*
X46778327Y24574740D01*
X46789940Y24572335D01*
X46832918Y24561300D01*
X46853265Y24561300D01*
X46872977Y24559749D01*
X46893079Y24556565D01*
X46900971Y24557311D01*
X46937256Y24560741D01*
X46949114Y24561300D01*
X59290594Y24561300D01*
X59359587Y24540732D01*
X59433521Y24492351D01*
X59473381Y24466267D01*
X59479985Y24463811D01*
X59479987Y24463810D01*
X59521493Y24448374D01*
X59644400Y24402665D01*
X59825260Y24378533D01*
X59832271Y24379171D01*
X59832275Y24379171D01*
X59971980Y24391886D01*
X60006971Y24395071D01*
X60013673Y24397249D01*
X60013675Y24397249D01*
X60173805Y24449278D01*
X60173808Y24449279D01*
X60180504Y24451455D01*
X60205352Y24466267D01*
X60331177Y24541273D01*
X60331180Y24541275D01*
X60337232Y24544883D01*
X60439532Y24642302D01*
X60464262Y24665852D01*
X60464264Y24665855D01*
X60469366Y24670713D01*
X60570339Y24822690D01*
X60585338Y24862175D01*
X60632633Y24986678D01*
X60632634Y24986683D01*
X60635133Y24993261D01*
X60641632Y25039502D01*
X60659976Y25170025D01*
X60659976Y25170030D01*
X60660527Y25173948D01*
X60660846Y25196800D01*
X60640507Y25378125D01*
X60580501Y25550439D01*
X60483811Y25705176D01*
X60419247Y25770192D01*
X60360204Y25829649D01*
X60360200Y25829652D01*
X60355241Y25834646D01*
X60344057Y25841744D01*
X60242871Y25905958D01*
X60201183Y25932414D01*
X60094490Y25970406D01*
X60035927Y25991260D01*
X60035925Y25991261D01*
X60029293Y25993622D01*
X60022307Y25994455D01*
X60022303Y25994456D01*
X59892726Y26009906D01*
X59848114Y26015226D01*
X59841111Y26014490D01*
X59841110Y26014490D01*
X59794875Y26009630D01*
X59666651Y25996154D01*
X59659983Y25993884D01*
X59500590Y25939622D01*
X59500587Y25939621D01*
X59493923Y25937352D01*
X59442893Y25905958D01*
X59353530Y25850982D01*
X59287508Y25832300D01*
X58998296Y25832300D01*
X58930175Y25852302D01*
X58883682Y25905958D01*
X58873081Y25944255D01*
X58868502Y25985083D01*
X58862507Y26038525D01*
X58802501Y26210839D01*
X58705811Y26365576D01*
X58604546Y26467550D01*
X58582204Y26490049D01*
X58582200Y26490052D01*
X58577241Y26495046D01*
X58566057Y26502144D01*
X58476618Y26558903D01*
X58423183Y26592814D01*
X58271763Y26646733D01*
X58257927Y26651660D01*
X58257925Y26651661D01*
X58251293Y26654022D01*
X58244307Y26654855D01*
X58244303Y26654856D01*
X58114726Y26670306D01*
X58070114Y26675626D01*
X58063111Y26674890D01*
X58063110Y26674890D01*
X58016875Y26670030D01*
X57888651Y26656554D01*
X57881980Y26654283D01*
X57877937Y26652907D01*
X57875187Y26652790D01*
X57875101Y26652771D01*
X57875098Y26652786D01*
X57807005Y26649889D01*
X57745701Y26685699D01*
X57713490Y26748968D01*
X57720597Y26819608D01*
X57762044Y26872082D01*
X57761702Y26872487D01*
X57763694Y26874170D01*
X57764162Y26874763D01*
X57769860Y26878827D01*
X57824458Y26933234D01*
X57876808Y26985402D01*
X57928096Y27036511D01*
X57983754Y27113967D01*
X58055435Y27213723D01*
X58058453Y27217923D01*
X58079320Y27260143D01*
X58155136Y27413547D01*
X58155137Y27413549D01*
X58157430Y27418189D01*
X58205861Y27577594D01*
X58244800Y27636956D01*
X58309654Y27665843D01*
X58379831Y27655082D01*
X58433049Y27608089D01*
X58448937Y27570378D01*
X58465495Y27501409D01*
X58467388Y27496838D01*
X58467389Y27496836D01*
X58560364Y27272375D01*
X58562384Y27267498D01*
X58694672Y27051624D01*
X58859102Y26859102D01*
X59051624Y26694672D01*
X59267498Y26562384D01*
X59272068Y26560491D01*
X59272072Y26560489D01*
X59496836Y26467389D01*
X59501409Y26465495D01*
X59586032Y26445179D01*
X59742784Y26407546D01*
X59742790Y26407545D01*
X59747597Y26406391D01*
X59847416Y26398535D01*
X59934345Y26391693D01*
X59934352Y26391693D01*
X59936801Y26391500D01*
X60063199Y26391500D01*
X60065648Y26391693D01*
X60065655Y26391693D01*
X60152584Y26398535D01*
X60252403Y26406391D01*
X60257210Y26407545D01*
X60257216Y26407546D01*
X60413968Y26445179D01*
X60498591Y26465495D01*
X60503164Y26467389D01*
X60727928Y26560489D01*
X60727932Y26560491D01*
X60732502Y26562384D01*
X60948376Y26694672D01*
X61140898Y26859102D01*
X61305328Y27051624D01*
X61437616Y27267498D01*
X61439637Y27272375D01*
X61532611Y27496836D01*
X61532612Y27496838D01*
X61534505Y27501409D01*
X61567072Y27637061D01*
X61592454Y27742784D01*
X61592455Y27742790D01*
X61593609Y27747597D01*
X61613474Y28000000D01*
X61593609Y28252403D01*
X61592209Y28258237D01*
X61535660Y28493779D01*
X61534505Y28498591D01*
X61509313Y28559410D01*
X61439511Y28727928D01*
X61439509Y28727932D01*
X61437616Y28732502D01*
X61305328Y28948376D01*
X61140898Y29140898D01*
X60948376Y29305328D01*
X60732502Y29437616D01*
X60727932Y29439509D01*
X60727928Y29439511D01*
X60503164Y29532611D01*
X60503162Y29532612D01*
X60498591Y29534505D01*
X60413968Y29554821D01*
X60257216Y29592454D01*
X60257210Y29592455D01*
X60252403Y29593609D01*
X60152584Y29601465D01*
X60065655Y29608307D01*
X60065648Y29608307D01*
X60063199Y29608500D01*
X59936801Y29608500D01*
X59934352Y29608307D01*
X59934345Y29608307D01*
X59847416Y29601465D01*
X59747597Y29593609D01*
X59742790Y29592455D01*
X59742784Y29592454D01*
X59586032Y29554821D01*
X59501409Y29534505D01*
X59496838Y29532612D01*
X59496836Y29532611D01*
X59272072Y29439511D01*
X59272068Y29439509D01*
X59267498Y29437616D01*
X59051624Y29305328D01*
X58859102Y29140898D01*
X58694672Y28948376D01*
X58562384Y28732502D01*
X58560491Y28727932D01*
X58560489Y28727928D01*
X58490687Y28559410D01*
X58465495Y28498591D01*
X58464340Y28493779D01*
X58428839Y28345908D01*
X58393487Y28284339D01*
X58330460Y28251656D01*
X58259769Y28258237D01*
X58203858Y28301991D01*
X58184116Y28344626D01*
X58180431Y28359298D01*
X58091354Y28564160D01*
X57970014Y28751723D01*
X57819670Y28916949D01*
X57815619Y28920148D01*
X57815615Y28920152D01*
X57648414Y29052200D01*
X57648410Y29052202D01*
X57644359Y29055402D01*
X57448789Y29163362D01*
X57443920Y29165086D01*
X57443916Y29165088D01*
X57243087Y29236205D01*
X57243083Y29236206D01*
X57238212Y29237931D01*
X57233119Y29238838D01*
X57233116Y29238839D01*
X57023373Y29276200D01*
X57023367Y29276201D01*
X57018284Y29277106D01*
X56944452Y29278008D01*
X56800081Y29279772D01*
X56800079Y29279772D01*
X56794911Y29279835D01*
X56574091Y29246045D01*
X56361756Y29176643D01*
X56163607Y29073493D01*
X56159474Y29070390D01*
X56159471Y29070388D01*
X55991354Y28944162D01*
X55984965Y28939365D01*
X55981393Y28935627D01*
X55850084Y28798220D01*
X55830629Y28777862D01*
X55723201Y28620379D01*
X55668293Y28575379D01*
X55597768Y28567208D01*
X55534021Y28598462D01*
X55513324Y28622946D01*
X55432822Y28747383D01*
X55432820Y28747386D01*
X55430014Y28751723D01*
X55279670Y28916949D01*
X55275619Y28920148D01*
X55275615Y28920152D01*
X55108414Y29052200D01*
X55108410Y29052202D01*
X55104359Y29055402D01*
X54908789Y29163362D01*
X54903920Y29165086D01*
X54903916Y29165088D01*
X54703087Y29236205D01*
X54703083Y29236206D01*
X54698212Y29237931D01*
X54693119Y29238838D01*
X54693116Y29238839D01*
X54483373Y29276200D01*
X54483367Y29276201D01*
X54478284Y29277106D01*
X54404452Y29278008D01*
X54260081Y29279772D01*
X54260079Y29279772D01*
X54254911Y29279835D01*
X54107627Y29257297D01*
X54039200Y29246827D01*
X54039197Y29246826D01*
X54034091Y29246045D01*
X54029185Y29244441D01*
X54029179Y29244440D01*
X54025760Y29243322D01*
X54023670Y29242639D01*
X53952707Y29240484D01*
X53895425Y29273307D01*
X52092328Y31076405D01*
X52058302Y31138717D01*
X52063367Y31209533D01*
X52105914Y31266368D01*
X52172434Y31291179D01*
X52181423Y31291500D01*
X63165500Y31291500D01*
X63233621Y31271498D01*
G37*
G04 #@! TD.AperFunction*
G04 #@! TA.AperFunction,Conductor*
G36*
X9346699Y31271498D02*
G01*
X9393192Y31217842D01*
X9403296Y31147568D01*
X9373802Y31082988D01*
X9367673Y31076405D01*
X7564945Y29273677D01*
X7502633Y29239651D01*
X7453754Y29238725D01*
X7431793Y29242637D01*
X7408270Y29246827D01*
X7243373Y29276200D01*
X7243367Y29276201D01*
X7238284Y29277106D01*
X7164452Y29278008D01*
X7020081Y29279772D01*
X7020079Y29279772D01*
X7014911Y29279835D01*
X6794091Y29246045D01*
X6581756Y29176643D01*
X6383607Y29073493D01*
X6379474Y29070390D01*
X6379471Y29070388D01*
X6211354Y28944162D01*
X6204965Y28939365D01*
X6201393Y28935627D01*
X6070084Y28798220D01*
X6050629Y28777862D01*
X6047720Y28773597D01*
X6047714Y28773589D01*
X6018089Y28730160D01*
X5924743Y28593320D01*
X5830688Y28390695D01*
X5817913Y28344629D01*
X5816020Y28337804D01*
X5778541Y28277506D01*
X5714412Y28247043D01*
X5643994Y28256086D01*
X5589644Y28301765D01*
X5572084Y28342062D01*
X5535660Y28493779D01*
X5534505Y28498591D01*
X5509313Y28559410D01*
X5439511Y28727928D01*
X5439509Y28727932D01*
X5437616Y28732502D01*
X5305328Y28948376D01*
X5140898Y29140898D01*
X4948376Y29305328D01*
X4732502Y29437616D01*
X4727932Y29439509D01*
X4727928Y29439511D01*
X4503164Y29532611D01*
X4503162Y29532612D01*
X4498591Y29534505D01*
X4413968Y29554821D01*
X4257216Y29592454D01*
X4257210Y29592455D01*
X4252403Y29593609D01*
X4152584Y29601465D01*
X4065655Y29608307D01*
X4065648Y29608307D01*
X4063199Y29608500D01*
X3936801Y29608500D01*
X3934352Y29608307D01*
X3934345Y29608307D01*
X3847416Y29601465D01*
X3747597Y29593609D01*
X3742790Y29592455D01*
X3742784Y29592454D01*
X3586032Y29554821D01*
X3501409Y29534505D01*
X3496838Y29532612D01*
X3496836Y29532611D01*
X3272072Y29439511D01*
X3272068Y29439509D01*
X3267498Y29437616D01*
X3051624Y29305328D01*
X2859102Y29140898D01*
X2694672Y28948376D01*
X2562384Y28732502D01*
X2560491Y28727932D01*
X2560489Y28727928D01*
X2490687Y28559410D01*
X2465495Y28498591D01*
X2464340Y28493779D01*
X2407792Y28258237D01*
X2406391Y28252403D01*
X2386526Y28000000D01*
X2406391Y27747597D01*
X2407545Y27742790D01*
X2407546Y27742784D01*
X2432928Y27637061D01*
X2465495Y27501409D01*
X2467388Y27496838D01*
X2467389Y27496836D01*
X2560364Y27272375D01*
X2562384Y27267498D01*
X2694672Y27051624D01*
X2859102Y26859102D01*
X3051624Y26694672D01*
X3267498Y26562384D01*
X3272068Y26560491D01*
X3272072Y26560489D01*
X3496836Y26467389D01*
X3501409Y26465495D01*
X3586032Y26445179D01*
X3742784Y26407546D01*
X3742790Y26407545D01*
X3747597Y26406391D01*
X3847416Y26398535D01*
X3934345Y26391693D01*
X3934352Y26391693D01*
X3936801Y26391500D01*
X4063199Y26391500D01*
X4065648Y26391693D01*
X4065655Y26391693D01*
X4152584Y26398535D01*
X4252403Y26406391D01*
X4257210Y26407545D01*
X4257216Y26407546D01*
X4413968Y26445179D01*
X4498591Y26465495D01*
X4503164Y26467389D01*
X4727928Y26560489D01*
X4727932Y26560491D01*
X4732502Y26562384D01*
X4948376Y26694672D01*
X5140898Y26859102D01*
X5305328Y27051624D01*
X5437616Y27267498D01*
X5439637Y27272375D01*
X5532611Y27496836D01*
X5532612Y27496838D01*
X5534505Y27501409D01*
X5551081Y27570453D01*
X5586434Y27632022D01*
X5649460Y27664704D01*
X5720151Y27658123D01*
X5776063Y27614369D01*
X5796515Y27568744D01*
X5809222Y27512361D01*
X5893266Y27305384D01*
X5944019Y27222562D01*
X6007291Y27119312D01*
X6009987Y27114912D01*
X6156250Y26946062D01*
X6328126Y26803368D01*
X6521000Y26690662D01*
X6525825Y26688820D01*
X6525826Y26688819D01*
X6562559Y26674792D01*
X6729692Y26610970D01*
X6734760Y26609939D01*
X6734763Y26609938D01*
X6818931Y26592814D01*
X6948597Y26566433D01*
X6953772Y26566243D01*
X6953774Y26566243D01*
X7166673Y26558436D01*
X7166677Y26558436D01*
X7171837Y26558247D01*
X7176957Y26558903D01*
X7176959Y26558903D01*
X7388288Y26585975D01*
X7388289Y26585975D01*
X7393416Y26586632D01*
X7398366Y26588117D01*
X7602429Y26649339D01*
X7602434Y26649341D01*
X7607384Y26650826D01*
X7807994Y26749104D01*
X7989860Y26878827D01*
X8044458Y26933234D01*
X8096808Y26985402D01*
X8148096Y27036511D01*
X8203754Y27113967D01*
X8278453Y27217923D01*
X8279776Y27216972D01*
X8326645Y27260143D01*
X8396580Y27272375D01*
X8462026Y27244856D01*
X8489875Y27213006D01*
X8549987Y27114912D01*
X8696250Y26946062D01*
X8868126Y26803368D01*
X9061000Y26690662D01*
X9065825Y26688820D01*
X9065826Y26688819D01*
X9102559Y26674792D01*
X9269692Y26610970D01*
X9274760Y26609939D01*
X9274763Y26609938D01*
X9358931Y26592814D01*
X9488597Y26566433D01*
X9493772Y26566243D01*
X9493774Y26566243D01*
X9706673Y26558436D01*
X9706677Y26558436D01*
X9711837Y26558247D01*
X9716957Y26558903D01*
X9716959Y26558903D01*
X9928288Y26585975D01*
X9928289Y26585975D01*
X9933416Y26586632D01*
X9938366Y26588117D01*
X10142429Y26649339D01*
X10142434Y26649341D01*
X10147384Y26650826D01*
X10347994Y26749104D01*
X10352199Y26752104D01*
X10352205Y26752107D01*
X10383012Y26774082D01*
X10450085Y26797356D01*
X10519094Y26780672D01*
X10568128Y26729328D01*
X10581619Y26659625D01*
X10555284Y26593693D01*
X10545275Y26582408D01*
X3670517Y19707650D01*
X3662191Y19700074D01*
X3655697Y19695953D01*
X3650274Y19690178D01*
X3608915Y19646135D01*
X3606160Y19643293D01*
X3586361Y19623494D01*
X3583937Y19620369D01*
X3583929Y19620360D01*
X3583863Y19620274D01*
X3576155Y19611249D01*
X3545783Y19578906D01*
X3541965Y19571962D01*
X3541964Y19571960D01*
X3535978Y19561071D01*
X3525127Y19544553D01*
X3512650Y19528467D01*
X3495024Y19487734D01*
X3489807Y19477086D01*
X3468431Y19438203D01*
X3466460Y19430528D01*
X3466458Y19430522D01*
X3463369Y19418489D01*
X3456966Y19399787D01*
X3448883Y19381108D01*
X3447644Y19373283D01*
X3441940Y19337273D01*
X3439535Y19325660D01*
X3428500Y19282682D01*
X3428500Y19274756D01*
X3427506Y19266888D01*
X3425403Y19267154D01*
X3408498Y19209581D01*
X3354842Y19163088D01*
X3284568Y19152984D01*
X3219988Y19182478D01*
X3213405Y19188607D01*
X1943356Y20458656D01*
X1909330Y20520968D01*
X1907458Y20563652D01*
X1920616Y20667079D01*
X1920616Y20667083D01*
X1921014Y20670209D01*
X1923431Y20762500D01*
X1907815Y20972637D01*
X1904407Y21018500D01*
X1904406Y21018504D01*
X1904061Y21023152D01*
X1892725Y21073252D01*
X1847408Y21273520D01*
X1846377Y21278077D01*
X1751647Y21521677D01*
X1621951Y21748598D01*
X1460138Y21953857D01*
X1269763Y22132943D01*
X1111451Y22242769D01*
X1104765Y22247407D01*
X1060195Y22302670D01*
X1052578Y22373257D01*
X1084333Y22436756D01*
X1110283Y22458079D01*
X1192253Y22508803D01*
X1199188Y22513842D01*
X1207518Y22526481D01*
X1201456Y22536834D01*
X745405Y22992885D01*
X711379Y23055197D01*
X708500Y23081980D01*
X708500Y23444020D01*
X728502Y23512141D01*
X782158Y23558634D01*
X852432Y23568738D01*
X917012Y23539244D01*
X923595Y23533115D01*
X1559913Y22896797D01*
X1572293Y22890037D01*
X1580634Y22896281D01*
X1706765Y23092373D01*
X1711212Y23100564D01*
X1814691Y23330278D01*
X1817882Y23339045D01*
X1886269Y23581524D01*
X1888129Y23590666D01*
X1920116Y23842104D01*
X1920597Y23848392D01*
X1922847Y23934340D01*
X1922696Y23940649D01*
X1903912Y24193426D01*
X1902536Y24202632D01*
X1846929Y24448374D01*
X1844205Y24457285D01*
X1752888Y24692108D01*
X1748877Y24700517D01*
X1623854Y24919260D01*
X1618643Y24926986D01*
X1581391Y24974239D01*
X1569466Y24982710D01*
X1557934Y24976224D01*
X923595Y24341885D01*
X861283Y24307859D01*
X790468Y24312924D01*
X733632Y24355471D01*
X708821Y24421991D01*
X708500Y24430980D01*
X708500Y24793020D01*
X728502Y24861141D01*
X745405Y24882115D01*
X1198419Y25335129D01*
X1204803Y25346819D01*
X1195391Y25358930D01*
X1058593Y25453830D01*
X1050565Y25458558D01*
X824593Y25569995D01*
X815957Y25573484D01*
X796088Y25579844D01*
X737308Y25619661D01*
X709385Y25684936D01*
X708500Y25699846D01*
X708500Y31165500D01*
X728502Y31233621D01*
X782158Y31280114D01*
X834500Y31291500D01*
X9278578Y31291500D01*
X9346699Y31271498D01*
G37*
G04 #@! TD.AperFunction*
M02*
